  0
SECTION
  2
HEADER
  9
$ACADVER
  1
AC1009
  9
$EXTMIN
 10
0.0
 20
0.0
 30
0.0
  9
$EXTMAX
 10
1000.0
 20
1000.0
 30
0.0
  9
$FILLMODE
 70
 0
  9
$SPLFRAME
 70
 1
  0
ENDSEC
  0
SECTION
  2
TABLES
  0
TABLE
  2
LAYER
 70
4
  0
LAYER
  2
0
 70
     0
 62
     7
  6
CONTINUOUS
  0
LAYER
  2
C00-00-00-BLACK
 70
0
 62
7
  6
CONTINUOUS
  0
LAYER
  2
CFF-FF-FF-WHITE
 70
0
 62
7
  6
CONTINUOUS
  0
ENDTAB
  0
ENDSEC
  0
SECTION
  2
ENTITIES
  0
POLYLINE
  8
C00-00-00-BLACK
 66
     1
 10
0
 20
0
 30
0.0
 70
     1
 40
1.13386
 41
1.13386
  0
VERTEX
  8
C00-00-00-BLACK
 10
42.6724
 20
146.999
 30
0.0
 40
0.400001
 41
0.400001
  0
VERTEX
  8
C00-00-00-BLACK
 10
42.6724
 20
146.491
 30
0.0
 40
0.400001
 41
0.400001
  0
VERTEX
  8
C00-00-00-BLACK
 10
42.8763
 20
144.964
 30
0.0
 40
0.400001
 41
0.400001
  0
VERTEX
  8
C00-00-00-BLACK
 10
43.4661
 20
143.067
 30
0.0
 40
0.400001
 41
0.400001
  0
VERTEX
  8
C00-00-00-BLACK
 10
44.3978
 20
141.351
 30
0.0
 40
0.400001
 41
0.400001
  0
VERTEX
  8
C00-00-00-BLACK
 10
45.6311
 20
139.856
 30
0.0
 40
0.400001
 41
0.400001
  0
VERTEX
  8
C00-00-00-BLACK
 10
47.1262
 20
138.622
 30
0.0
 40
0.400001
 41
0.400001
  0
VERTEX
  8
C00-00-00-BLACK
 10
48.8431
 20
137.691
 30
0.0
 40
0.400001
 41
0.400001
  0
VERTEX
  8
C00-00-00-BLACK
 10
50.7393
 20
137.101
 30
0.0
 40
0.400001
 41
0.400001
  0
VERTEX
  8
C00-00-00-BLACK
 10
52.2661
 20
136.896
 30
0.0
 40
0.400001
 41
0.400001
  0
VERTEX
  8
C00-00-00-BLACK
 10
52.7763
 20
136.896
 30
0.0
 40
0.400001
 41
0.400001
  0
VERTEX
  8
C00-00-00-BLACK
 10
53.2846
 20
136.896
 30
0.0
 40
0.400001
 41
0.400001
  0
VERTEX
  8
C00-00-00-BLACK
 10
54.8114
 20
137.101
 30
0.0
 40
0.400001
 41
0.400001
  0
VERTEX
  8
C00-00-00-BLACK
 10
56.7076
 20
137.691
 30
0.0
 40
0.400001
 41
0.400001
  0
VERTEX
  8
C00-00-00-BLACK
 10
58.4246
 20
138.622
 30
0.0
 40
0.400001
 41
0.400001
  0
VERTEX
  8
C00-00-00-BLACK
 10
59.92
 20
139.856
 30
0.0
 40
0.400001
 41
0.400001
  0
VERTEX
  8
C00-00-00-BLACK
 10
61.1533
 20
141.351
 30
0.0
 40
0.400001
 41
0.400001
  0
VERTEX
  8
C00-00-00-BLACK
 10
62.0847
 20
143.067
 30
0.0
 40
0.400001
 41
0.400001
  0
VERTEX
  8
C00-00-00-BLACK
 10
62.6745
 20
144.964
 30
0.0
 40
0.400001
 41
0.400001
  0
VERTEX
  8
C00-00-00-BLACK
 10
62.8798
 20
146.491
 30
0.0
 40
0.400001
 41
0.400001
  0
VERTEX
  8
C00-00-00-BLACK
 10
62.8798
 20
146.999
 30
0.0
 40
0.400001
 41
0.400001
  0
VERTEX
  8
C00-00-00-BLACK
 10
62.8798
 20
147.509
 30
0.0
 40
0.400001
 41
0.400001
  0
VERTEX
  8
C00-00-00-BLACK
 10
62.6745
 20
149.036
 30
0.0
 40
0.400001
 41
0.400001
  0
VERTEX
  8
C00-00-00-BLACK
 10
62.0847
 20
150.932
 30
0.0
 40
0.400001
 41
0.400001
  0
VERTEX
  8
C00-00-00-BLACK
 10
61.1533
 20
152.648
 30
0.0
 40
0.400001
 41
0.400001
  0
VERTEX
  8
C00-00-00-BLACK
 10
59.92
 20
154.143
 30
0.0
 40
0.400001
 41
0.400001
  0
VERTEX
  8
C00-00-00-BLACK
 10
58.4246
 20
155.378
 30
0.0
 40
0.400001
 41
0.400001
  0
VERTEX
  8
C00-00-00-BLACK
 10
56.7076
 20
156.308
 30
0.0
 40
0.400001
 41
0.400001
  0
VERTEX
  8
C00-00-00-BLACK
 10
54.8114
 20
156.898
 30
0.0
 40
0.400001
 41
0.400001
  0
VERTEX
  8
C00-00-00-BLACK
 10
53.2846
 20
157.102
 30
0.0
 40
0.400001
 41
0.400001
  0
VERTEX
  8
C00-00-00-BLACK
 10
52.7763
 20
157.102
 30
0.0
 40
0.400001
 41
0.400001
  0
VERTEX
  8
C00-00-00-BLACK
 10
52.2661
 20
157.102
 30
0.0
 40
0.400001
 41
0.400001
  0
VERTEX
  8
C00-00-00-BLACK
 10
50.7393
 20
156.898
 30
0.0
 40
0.400001
 41
0.400001
  0
VERTEX
  8
C00-00-00-BLACK
 10
48.8431
 20
156.308
 30
0.0
 40
0.400001
 41
0.400001
  0
VERTEX
  8
C00-00-00-BLACK
 10
47.1262
 20
155.378
 30
0.0
 40
0.400001
 41
0.400001
  0
VERTEX
  8
C00-00-00-BLACK
 10
45.6311
 20
154.143
 30
0.0
 40
0.400001
 41
0.400001
  0
VERTEX
  8
C00-00-00-BLACK
 10
44.3978
 20
152.648
 30
0.0
 40
0.400001
 41
0.400001
  0
VERTEX
  8
C00-00-00-BLACK
 10
43.4661
 20
150.932
 30
0.0
 40
0.400001
 41
0.400001
  0
VERTEX
  8
C00-00-00-BLACK
 10
42.8763
 20
149.036
 30
0.0
 40
0.400001
 41
0.400001
  0
VERTEX
  8
C00-00-00-BLACK
 10
42.6724
 20
147.509
 30
0.0
 40
0.400001
 41
0.400001
  0
VERTEX
  8
C00-00-00-BLACK
 10
42.6724
 20
146.999
 30
0.0
 40
0.400001
 41
0.400001
  0
SEQEND
 8
0
  0
POLYLINE
  8
C00-00-00-BLACK
 66
     1
 10
0
 20
0
 30
0.0
 70
     1
 40
1.13386
 41
1.13386
  0
VERTEX
  8
C00-00-00-BLACK
 10
66.3416
 20
146.04
 30
0.0
 40
0.400001
 41
0.400001
  0
VERTEX
  8
C00-00-00-BLACK
 10
66.3416
 20
145.532
 30
0.0
 40
0.400001
 41
0.400001
  0
VERTEX
  8
C00-00-00-BLACK
 10
66.5455
 20
144.005
 30
0.0
 40
0.400001
 41
0.400001
  0
VERTEX
  8
C00-00-00-BLACK
 10
67.1354
 20
142.107
 30
0.0
 40
0.400001
 41
0.400001
  0
VERTEX
  8
C00-00-00-BLACK
 10
68.0667
 20
140.392
 30
0.0
 40
0.400001
 41
0.400001
  0
VERTEX
  8
C00-00-00-BLACK
 10
69.3
 20
138.897
 30
0.0
 40
0.400001
 41
0.400001
  0
VERTEX
  8
C00-00-00-BLACK
 10
70.7954
 20
137.663
 30
0.0
 40
0.400001
 41
0.400001
  0
VERTEX
  8
C00-00-00-BLACK
 10
72.5124
 20
136.732
 30
0.0
 40
0.400001
 41
0.400001
  0
VERTEX
  8
C00-00-00-BLACK
 10
74.4086
 20
136.142
 30
0.0
 40
0.400001
 41
0.400001
  0
VERTEX
  8
C00-00-00-BLACK
 10
75.9354
 20
135.937
 30
0.0
 40
0.400001
 41
0.400001
  0
VERTEX
  8
C00-00-00-BLACK
 10
76.4452
 20
135.937
 30
0.0
 40
0.400001
 41
0.400001
  0
VERTEX
  8
C00-00-00-BLACK
 10
76.9539
 20
135.937
 30
0.0
 40
0.400001
 41
0.400001
  0
VERTEX
  8
C00-00-00-BLACK
 10
78.4807
 20
136.142
 30
0.0
 40
0.400001
 41
0.400001
  0
VERTEX
  8
C00-00-00-BLACK
 10
80.3769
 20
136.732
 30
0.0
 40
0.400001
 41
0.400001
  0
VERTEX
  8
C00-00-00-BLACK
 10
82.0939
 20
137.663
 30
0.0
 40
0.400001
 41
0.400001
  0
VERTEX
  8
C00-00-00-BLACK
 10
83.5889
 20
138.897
 30
0.0
 40
0.400001
 41
0.400001
  0
VERTEX
  8
C00-00-00-BLACK
 10
84.8222
 20
140.392
 30
0.0
 40
0.400001
 41
0.400001
  0
VERTEX
  8
C00-00-00-BLACK
 10
85.7539
 20
142.107
 30
0.0
 40
0.400001
 41
0.400001
  0
VERTEX
  8
C00-00-00-BLACK
 10
86.3438
 20
144.005
 30
0.0
 40
0.400001
 41
0.400001
  0
VERTEX
  8
C00-00-00-BLACK
 10
86.5491
 20
145.532
 30
0.0
 40
0.400001
 41
0.400001
  0
VERTEX
  8
C00-00-00-BLACK
 10
86.5491
 20
146.04
 30
0.0
 40
0.400001
 41
0.400001
  0
VERTEX
  8
C00-00-00-BLACK
 10
86.5491
 20
146.55
 30
0.0
 40
0.400001
 41
0.400001
  0
VERTEX
  8
C00-00-00-BLACK
 10
86.3438
 20
148.077
 30
0.0
 40
0.400001
 41
0.400001
  0
VERTEX
  8
C00-00-00-BLACK
 10
85.7539
 20
149.973
 30
0.0
 40
0.400001
 41
0.400001
  0
VERTEX
  8
C00-00-00-BLACK
 10
84.8222
 20
151.689
 30
0.0
 40
0.400001
 41
0.400001
  0
VERTEX
  8
C00-00-00-BLACK
 10
83.5889
 20
153.184
 30
0.0
 40
0.400001
 41
0.400001
  0
VERTEX
  8
C00-00-00-BLACK
 10
82.0939
 20
154.419
 30
0.0
 40
0.400001
 41
0.400001
  0
VERTEX
  8
C00-00-00-BLACK
 10
80.3769
 20
155.349
 30
0.0
 40
0.400001
 41
0.400001
  0
VERTEX
  8
C00-00-00-BLACK
 10
78.4807
 20
155.939
 30
0.0
 40
0.400001
 41
0.400001
  0
VERTEX
  8
C00-00-00-BLACK
 10
76.9539
 20
156.143
 30
0.0
 40
0.400001
 41
0.400001
  0
VERTEX
  8
C00-00-00-BLACK
 10
76.4452
 20
156.143
 30
0.0
 40
0.400001
 41
0.400001
  0
VERTEX
  8
C00-00-00-BLACK
 10
75.9354
 20
156.143
 30
0.0
 40
0.400001
 41
0.400001
  0
VERTEX
  8
C00-00-00-BLACK
 10
74.4086
 20
155.939
 30
0.0
 40
0.400001
 41
0.400001
  0
VERTEX
  8
C00-00-00-BLACK
 10
72.5124
 20
155.349
 30
0.0
 40
0.400001
 41
0.400001
  0
VERTEX
  8
C00-00-00-BLACK
 10
70.7954
 20
154.419
 30
0.0
 40
0.400001
 41
0.400001
  0
VERTEX
  8
C00-00-00-BLACK
 10
69.3
 20
153.184
 30
0.0
 40
0.400001
 41
0.400001
  0
VERTEX
  8
C00-00-00-BLACK
 10
68.0667
 20
151.689
 30
0.0
 40
0.400001
 41
0.400001
  0
VERTEX
  8
C00-00-00-BLACK
 10
67.1354
 20
149.973
 30
0.0
 40
0.400001
 41
0.400001
  0
VERTEX
  8
C00-00-00-BLACK
 10
66.5455
 20
148.077
 30
0.0
 40
0.400001
 41
0.400001
  0
VERTEX
  8
C00-00-00-BLACK
 10
66.3416
 20
146.55
 30
0.0
 40
0.400001
 41
0.400001
  0
VERTEX
  8
C00-00-00-BLACK
 10
66.3416
 20
146.04
 30
0.0
 40
0.400001
 41
0.400001
  0
SEQEND
 8
0
  0
POLYLINE
  8
C00-00-00-BLACK
 66
     1
 10
0
 20
0
 30
0.0
 40
1.13386
 41
1.13386
  0
VERTEX
  8
C00-00-00-BLACK
 10
90.9712
 20
147.006
 30
0.0
 40
0.400001
 41
0.400001
  0
VERTEX
  8
C00-00-00-BLACK
 10
90.9712
 20
146.498
 30
0.0
 40
0.400001
 41
0.400001
  0
VERTEX
  8
C00-00-00-BLACK
 10
91.1751
 20
144.971
 30
0.0
 40
0.400001
 41
0.400001
  0
VERTEX
  8
C00-00-00-BLACK
 10
91.7635
 20
143.074
 30
0.0
 40
0.400001
 41
0.400001
  0
VERTEX
  8
C00-00-00-BLACK
 10
92.6952
 20
141.358
 30
0.0
 40
0.400001
 41
0.400001
  0
VERTEX
  8
C00-00-00-BLACK
 10
93.9285
 20
139.863
 30
0.0
 40
0.400001
 41
0.400001
  0
VERTEX
  8
C00-00-00-BLACK
 10
95.4236
 20
138.629
 30
0.0
 40
0.400001
 41
0.400001
  0
VERTEX
  8
C00-00-00-BLACK
 10
97.1405
 20
137.698
 30
0.0
 40
0.400001
 41
0.400001
  0
VERTEX
  8
C00-00-00-BLACK
 10
99.0367
 20
137.108
 30
0.0
 40
0.400001
 41
0.400001
  0
VERTEX
  8
C00-00-00-BLACK
 10
100.564
 20
136.902
 30
0.0
 40
0.400001
 41
0.400001
  0
VERTEX
  8
C00-00-00-BLACK
 10
101.074
 20
136.902
 30
0.0
 40
0.400001
 41
0.400001
  0
VERTEX
  8
C00-00-00-BLACK
 10
101.582
 20
136.902
 30
0.0
 40
0.400001
 41
0.400001
  0
VERTEX
  8
C00-00-00-BLACK
 10
103.109
 20
137.108
 30
0.0
 40
0.400001
 41
0.400001
  0
VERTEX
  8
C00-00-00-BLACK
 10
105.005
 20
137.698
 30
0.0
 40
0.400001
 41
0.400001
  0
VERTEX
  8
C00-00-00-BLACK
 10
106.722
 20
138.629
 30
0.0
 40
0.400001
 41
0.400001
  0
VERTEX
  8
C00-00-00-BLACK
 10
108.217
 20
139.863
 30
0.0
 40
0.400001
 41
0.400001
  0
VERTEX
  8
C00-00-00-BLACK
 10
109.451
 20
141.358
 30
0.0
 40
0.400001
 41
0.400001
  0
VERTEX
  8
C00-00-00-BLACK
 10
110.382
 20
143.074
 30
0.0
 40
0.400001
 41
0.400001
  0
VERTEX
  8
C00-00-00-BLACK
 10
110.972
 20
144.971
 30
0.0
 40
0.400001
 41
0.400001
  0
VERTEX
  8
C00-00-00-BLACK
 10
111.177
 20
146.498
 30
0.0
 40
0.400001
 41
0.400001
  0
VERTEX
  8
C00-00-00-BLACK
 10
111.177
 20
147.006
 30
0.0
 40
0.400001
 41
0.400001
  0
VERTEX
  8
C00-00-00-BLACK
 10
111.177
 20
147.516
 30
0.0
 40
0.400001
 41
0.400001
  0
VERTEX
  8
C00-00-00-BLACK
 10
110.972
 20
149.043
 30
0.0
 40
0.400001
 41
0.400001
  0
VERTEX
  8
C00-00-00-BLACK
 10
110.382
 20
150.939
 30
0.0
 40
0.400001
 41
0.400001
  0
VERTEX
  8
C00-00-00-BLACK
 10
109.451
 20
152.655
 30
0.0
 40
0.400001
 41
0.400001
  0
VERTEX
  8
C00-00-00-BLACK
 10
108.217
 20
154.15
 30
0.0
 40
0.400001
 41
0.400001
  0
VERTEX
  8
C00-00-00-BLACK
 10
106.722
 20
155.385
 30
0.0
 40
0.400001
 41
0.400001
  0
VERTEX
  8
C00-00-00-BLACK
 10
105.005
 20
156.315
 30
0.0
 40
0.400001
 41
0.400001
  0
VERTEX
  8
C00-00-00-BLACK
 10
103.109
 20
156.905
 30
0.0
 40
0.400001
 41
0.400001
  0
VERTEX
  8
C00-00-00-BLACK
 10
101.582
 20
157.109
 30
0.0
 40
0.400001
 41
0.400001
  0
VERTEX
  8
C00-00-00-BLACK
 10
101.074
 20
157.109
 30
0.0
 40
0.400001
 41
0.400001
  0
VERTEX
  8
C00-00-00-BLACK
 10
100.564
 20
157.109
 30
0.0
 40
0.400001
 41
0.400001
  0
VERTEX
  8
C00-00-00-BLACK
 10
99.0367
 20
156.905
 30
0.0
 40
0.400001
 41
0.400001
  0
VERTEX
  8
C00-00-00-BLACK
 10
97.1405
 20
156.315
 30
0.0
 40
0.400001
 41
0.400001
  0
VERTEX
  8
C00-00-00-BLACK
 10
95.4236
 20
155.385
 30
0.0
 40
0.400001
 41
0.400001
  0
VERTEX
  8
C00-00-00-BLACK
 10
93.9285
 20
154.15
 30
0.0
 40
0.400001
 41
0.400001
  0
VERTEX
  8
C00-00-00-BLACK
 10
92.6952
 20
152.655
 30
0.0
 40
0.400001
 41
0.400001
  0
VERTEX
  8
C00-00-00-BLACK
 10
91.7635
 20
150.939
 30
0.0
 40
0.400001
 41
0.400001
  0
VERTEX
  8
C00-00-00-BLACK
 10
91.1737
 20
149.043
 30
0.0
 40
0.400001
 41
0.400001
  0
VERTEX
  8
C00-00-00-BLACK
 10
90.9697
 20
147.516
 30
0.0
 40
0.400001
 41
0.400001
  0
VERTEX
  8
C00-00-00-BLACK
 10
90.9697
 20
147.006
 30
0.0
 40
0.400001
 41
0.400001
  0
SEQEND
 8
0
  0
POLYLINE
  8
C00-00-00-BLACK
 66
     1
 10
0
 20
0
 30
0.0
 70
     1
 40
1.13386
 41
1.13386
  0
VERTEX
  8
C00-00-00-BLACK
 10
114.633
 20
146.04
 30
0.0
 40
0.400001
 41
0.400001
  0
VERTEX
  8
C00-00-00-BLACK
 10
114.633
 20
145.532
 30
0.0
 40
0.400001
 41
0.400001
  0
VERTEX
  8
C00-00-00-BLACK
 10
114.837
 20
144.005
 30
0.0
 40
0.400001
 41
0.400001
  0
VERTEX
  8
C00-00-00-BLACK
 10
115.427
 20
142.107
 30
0.0
 40
0.400001
 41
0.400001
  0
VERTEX
  8
C00-00-00-BLACK
 10
116.357
 20
140.392
 30
0.0
 40
0.400001
 41
0.400001
  0
VERTEX
  8
C00-00-00-BLACK
 10
117.592
 20
138.897
 30
0.0
 40
0.400001
 41
0.400001
  0
VERTEX
  8
C00-00-00-BLACK
 10
119.087
 20
137.663
 30
0.0
 40
0.400001
 41
0.400001
  0
VERTEX
  8
C00-00-00-BLACK
 10
120.803
 20
136.732
 30
0.0
 40
0.400001
 41
0.400001
  0
VERTEX
  8
C00-00-00-BLACK
 10
122.699
 20
136.142
 30
0.0
 40
0.400001
 41
0.400001
  0
VERTEX
  8
C00-00-00-BLACK
 10
124.226
 20
135.937
 30
0.0
 40
0.400001
 41
0.400001
  0
VERTEX
  8
C00-00-00-BLACK
 10
124.736
 20
135.937
 30
0.0
 40
0.400001
 41
0.400001
  0
VERTEX
  8
C00-00-00-BLACK
 10
125.244
 20
135.937
 30
0.0
 40
0.400001
 41
0.400001
  0
VERTEX
  8
C00-00-00-BLACK
 10
126.771
 20
136.142
 30
0.0
 40
0.400001
 41
0.400001
  0
VERTEX
  8
C00-00-00-BLACK
 10
128.669
 20
136.732
 30
0.0
 40
0.400001
 41
0.400001
  0
VERTEX
  8
C00-00-00-BLACK
 10
130.385
 20
137.663
 30
0.0
 40
0.400001
 41
0.400001
  0
VERTEX
  8
C00-00-00-BLACK
 10
131.88
 20
138.897
 30
0.0
 40
0.400001
 41
0.400001
  0
VERTEX
  8
C00-00-00-BLACK
 10
133.113
 20
140.392
 30
0.0
 40
0.400001
 41
0.400001
  0
VERTEX
  8
C00-00-00-BLACK
 10
134.045
 20
142.107
 30
0.0
 40
0.400001
 41
0.400001
  0
VERTEX
  8
C00-00-00-BLACK
 10
134.634
 20
144.005
 30
0.0
 40
0.400001
 41
0.400001
  0
VERTEX
  8
C00-00-00-BLACK
 10
134.84
 20
145.532
 30
0.0
 40
0.400001
 41
0.400001
  0
VERTEX
  8
C00-00-00-BLACK
 10
134.84
 20
146.04
 30
0.0
 40
0.400001
 41
0.400001
  0
VERTEX
  8
C00-00-00-BLACK
 10
134.84
 20
146.55
 30
0.0
 40
0.400001
 41
0.400001
  0
VERTEX
  8
C00-00-00-BLACK
 10
134.634
 20
148.077
 30
0.0
 40
0.400001
 41
0.400001
  0
VERTEX
  8
C00-00-00-BLACK
 10
134.045
 20
149.973
 30
0.0
 40
0.400001
 41
0.400001
  0
VERTEX
  8
C00-00-00-BLACK
 10
133.113
 20
151.689
 30
0.0
 40
0.400001
 41
0.400001
  0
VERTEX
  8
C00-00-00-BLACK
 10
131.88
 20
153.184
 30
0.0
 40
0.400001
 41
0.400001
  0
VERTEX
  8
C00-00-00-BLACK
 10
130.385
 20
154.419
 30
0.0
 40
0.400001
 41
0.400001
  0
VERTEX
  8
C00-00-00-BLACK
 10
128.669
 20
155.349
 30
0.0
 40
0.400001
 41
0.400001
  0
VERTEX
  8
C00-00-00-BLACK
 10
126.771
 20
155.939
 30
0.0
 40
0.400001
 41
0.400001
  0
VERTEX
  8
C00-00-00-BLACK
 10
125.244
 20
156.143
 30
0.0
 40
0.400001
 41
0.400001
  0
VERTEX
  8
C00-00-00-BLACK
 10
124.736
 20
156.143
 30
0.0
 40
0.400001
 41
0.400001
  0
VERTEX
  8
C00-00-00-BLACK
 10
124.226
 20
156.143
 30
0.0
 40
0.400001
 41
0.400001
  0
VERTEX
  8
C00-00-00-BLACK
 10
122.699
 20
155.939
 30
0.0
 40
0.400001
 41
0.400001
  0
VERTEX
  8
C00-00-00-BLACK
 10
120.803
 20
155.349
 30
0.0
 40
0.400001
 41
0.400001
  0
VERTEX
  8
C00-00-00-BLACK
 10
119.087
 20
154.419
 30
0.0
 40
0.400001
 41
0.400001
  0
VERTEX
  8
C00-00-00-BLACK
 10
117.592
 20
153.184
 30
0.0
 40
0.400001
 41
0.400001
  0
VERTEX
  8
C00-00-00-BLACK
 10
116.357
 20
151.689
 30
0.0
 40
0.400001
 41
0.400001
  0
VERTEX
  8
C00-00-00-BLACK
 10
115.427
 20
149.973
 30
0.0
 40
0.400001
 41
0.400001
  0
VERTEX
  8
C00-00-00-BLACK
 10
114.837
 20
148.077
 30
0.0
 40
0.400001
 41
0.400001
  0
VERTEX
  8
C00-00-00-BLACK
 10
114.633
 20
146.55
 30
0.0
 40
0.400001
 41
0.400001
  0
VERTEX
  8
C00-00-00-BLACK
 10
114.633
 20
146.04
 30
0.0
 40
0.400001
 41
0.400001
  0
SEQEND
 8
0
  0
POLYLINE
  8
C00-00-00-BLACK
 66
     1
 10
0
 20
0
 30
0.0
 40
1.13386
 41
1.13386
  0
VERTEX
  8
C00-00-00-BLACK
 10
138.78
 20
146.04
 30
0.0
 40
0.400001
 41
0.400001
  0
VERTEX
  8
C00-00-00-BLACK
 10
138.78
 20
145.532
 30
0.0
 40
0.400001
 41
0.400001
  0
VERTEX
  8
C00-00-00-BLACK
 10
138.984
 20
144.005
 30
0.0
 40
0.400001
 41
0.400001
  0
VERTEX
  8
C00-00-00-BLACK
 10
139.572
 20
142.107
 30
0.0
 40
0.400001
 41
0.400001
  0
VERTEX
  8
C00-00-00-BLACK
 10
140.503
 20
140.392
 30
0.0
 40
0.400001
 41
0.400001
  0
VERTEX
  8
C00-00-00-BLACK
 10
141.737
 20
138.897
 30
0.0
 40
0.400001
 41
0.400001
  0
VERTEX
  8
C00-00-00-BLACK
 10
143.232
 20
137.663
 30
0.0
 40
0.400001
 41
0.400001
  0
VERTEX
  8
C00-00-00-BLACK
 10
144.949
 20
136.732
 30
0.0
 40
0.400001
 41
0.400001
  0
VERTEX
  8
C00-00-00-BLACK
 10
146.845
 20
136.142
 30
0.0
 40
0.400001
 41
0.400001
  0
VERTEX
  8
C00-00-00-BLACK
 10
148.372
 20
135.937
 30
0.0
 40
0.400001
 41
0.400001
  0
VERTEX
  8
C00-00-00-BLACK
 10
148.882
 20
135.937
 30
0.0
 40
0.400001
 41
0.400001
  0
VERTEX
  8
C00-00-00-BLACK
 10
149.39
 20
135.937
 30
0.0
 40
0.400001
 41
0.400001
  0
VERTEX
  8
C00-00-00-BLACK
 10
150.917
 20
136.142
 30
0.0
 40
0.400001
 41
0.400001
  0
VERTEX
  8
C00-00-00-BLACK
 10
152.813
 20
136.732
 30
0.0
 40
0.400001
 41
0.400001
  0
VERTEX
  8
C00-00-00-BLACK
 10
154.53
 20
137.663
 30
0.0
 40
0.400001
 41
0.400001
  0
VERTEX
  8
C00-00-00-BLACK
 10
156.026
 20
138.897
 30
0.0
 40
0.400001
 41
0.400001
  0
VERTEX
  8
C00-00-00-BLACK
 10
157.259
 20
140.392
 30
0.0
 40
0.400001
 41
0.400001
  0
VERTEX
  8
C00-00-00-BLACK
 10
158.19
 20
142.107
 30
0.0
 40
0.400001
 41
0.400001
  0
VERTEX
  8
C00-00-00-BLACK
 10
158.78
 20
144.005
 30
0.0
 40
0.400001
 41
0.400001
  0
VERTEX
  8
C00-00-00-BLACK
 10
158.986
 20
145.532
 30
0.0
 40
0.400001
 41
0.400001
  0
VERTEX
  8
C00-00-00-BLACK
 10
158.986
 20
146.04
 30
0.0
 40
0.400001
 41
0.400001
  0
VERTEX
  8
C00-00-00-BLACK
 10
158.986
 20
146.55
 30
0.0
 40
0.400001
 41
0.400001
  0
VERTEX
  8
C00-00-00-BLACK
 10
158.78
 20
148.077
 30
0.0
 40
0.400001
 41
0.400001
  0
VERTEX
  8
C00-00-00-BLACK
 10
158.19
 20
149.973
 30
0.0
 40
0.400001
 41
0.400001
  0
VERTEX
  8
C00-00-00-BLACK
 10
157.259
 20
151.689
 30
0.0
 40
0.400001
 41
0.400001
  0
VERTEX
  8
C00-00-00-BLACK
 10
156.026
 20
153.184
 30
0.0
 40
0.400001
 41
0.400001
  0
VERTEX
  8
C00-00-00-BLACK
 10
154.53
 20
154.419
 30
0.0
 40
0.400001
 41
0.400001
  0
VERTEX
  8
C00-00-00-BLACK
 10
152.813
 20
155.349
 30
0.0
 40
0.400001
 41
0.400001
  0
VERTEX
  8
C00-00-00-BLACK
 10
150.917
 20
155.939
 30
0.0
 40
0.400001
 41
0.400001
  0
VERTEX
  8
C00-00-00-BLACK
 10
149.39
 20
156.143
 30
0.0
 40
0.400001
 41
0.400001
  0
VERTEX
  8
C00-00-00-BLACK
 10
148.882
 20
156.143
 30
0.0
 40
0.400001
 41
0.400001
  0
VERTEX
  8
C00-00-00-BLACK
 10
148.372
 20
156.143
 30
0.0
 40
0.400001
 41
0.400001
  0
VERTEX
  8
C00-00-00-BLACK
 10
146.845
 20
155.939
 30
0.0
 40
0.400001
 41
0.400001
  0
VERTEX
  8
C00-00-00-BLACK
 10
144.949
 20
155.349
 30
0.0
 40
0.400001
 41
0.400001
  0
VERTEX
  8
C00-00-00-BLACK
 10
143.232
 20
154.419
 30
0.0
 40
0.400001
 41
0.400001
  0
VERTEX
  8
C00-00-00-BLACK
 10
141.737
 20
153.184
 30
0.0
 40
0.400001
 41
0.400001
  0
VERTEX
  8
C00-00-00-BLACK
 10
140.503
 20
151.689
 30
0.0
 40
0.400001
 41
0.400001
  0
VERTEX
  8
C00-00-00-BLACK
 10
139.572
 20
149.973
 30
0.0
 40
0.400001
 41
0.400001
  0
VERTEX
  8
C00-00-00-BLACK
 10
138.982
 20
148.077
 30
0.0
 40
0.400001
 41
0.400001
  0
VERTEX
  8
C00-00-00-BLACK
 10
138.778
 20
146.55
 30
0.0
 40
0.400001
 41
0.400001
  0
VERTEX
  8
C00-00-00-BLACK
 10
138.778
 20
146.04
 30
0.0
 40
0.400001
 41
0.400001
  0
SEQEND
 8
0
  0
POLYLINE
  8
C00-00-00-BLACK
 66
     1
 10
0
 20
0
 30
0.0
 70
     1
 40
1.13386
 41
1.13386
  0
VERTEX
  8
C00-00-00-BLACK
 10
162.924
 20
146.04
 30
0.0
 40
0.400001
 41
0.400001
  0
VERTEX
  8
C00-00-00-BLACK
 10
162.924
 20
145.532
 30
0.0
 40
0.400001
 41
0.400001
  0
VERTEX
  8
C00-00-00-BLACK
 10
163.128
 20
144.005
 30
0.0
 40
0.400001
 41
0.400001
  0
VERTEX
  8
C00-00-00-BLACK
 10
163.718
 20
142.107
 30
0.0
 40
0.400001
 41
0.400001
  0
VERTEX
  8
C00-00-00-BLACK
 10
164.65
 20
140.392
 30
0.0
 40
0.400001
 41
0.400001
  0
VERTEX
  8
C00-00-00-BLACK
 10
165.883
 20
138.897
 30
0.0
 40
0.400001
 41
0.400001
  0
VERTEX
  8
C00-00-00-BLACK
 10
167.378
 20
137.663
 30
0.0
 40
0.400001
 41
0.400001
  0
VERTEX
  8
C00-00-00-BLACK
 10
169.095
 20
136.732
 30
0.0
 40
0.400001
 41
0.400001
  0
VERTEX
  8
C00-00-00-BLACK
 10
170.991
 20
136.142
 30
0.0
 40
0.400001
 41
0.400001
  0
VERTEX
  8
C00-00-00-BLACK
 10
172.518
 20
135.937
 30
0.0
 40
0.400001
 41
0.400001
  0
VERTEX
  8
C00-00-00-BLACK
 10
173.028
 20
135.937
 30
0.0
 40
0.400001
 41
0.400001
  0
VERTEX
  8
C00-00-00-BLACK
 10
173.536
 20
135.937
 30
0.0
 40
0.400001
 41
0.400001
  0
VERTEX
  8
C00-00-00-BLACK
 10
175.063
 20
136.142
 30
0.0
 40
0.400001
 41
0.400001
  0
VERTEX
  8
C00-00-00-BLACK
 10
176.959
 20
136.732
 30
0.0
 40
0.400001
 41
0.400001
  0
VERTEX
  8
C00-00-00-BLACK
 10
178.676
 20
137.663
 30
0.0
 40
0.400001
 41
0.400001
  0
VERTEX
  8
C00-00-00-BLACK
 10
180.172
 20
138.897
 30
0.0
 40
0.400001
 41
0.400001
  0
VERTEX
  8
C00-00-00-BLACK
 10
181.405
 20
140.392
 30
0.0
 40
0.400001
 41
0.400001
  0
VERTEX
  8
C00-00-00-BLACK
 10
182.336
 20
142.107
 30
0.0
 40
0.400001
 41
0.400001
  0
VERTEX
  8
C00-00-00-BLACK
 10
182.926
 20
144.005
 30
0.0
 40
0.400001
 41
0.400001
  0
VERTEX
  8
C00-00-00-BLACK
 10
183.132
 20
145.532
 30
0.0
 40
0.400001
 41
0.400001
  0
VERTEX
  8
C00-00-00-BLACK
 10
183.132
 20
146.04
 30
0.0
 40
0.400001
 41
0.400001
  0
VERTEX
  8
C00-00-00-BLACK
 10
183.132
 20
146.55
 30
0.0
 40
0.400001
 41
0.400001
  0
VERTEX
  8
C00-00-00-BLACK
 10
182.926
 20
148.077
 30
0.0
 40
0.400001
 41
0.400001
  0
VERTEX
  8
C00-00-00-BLACK
 10
182.336
 20
149.973
 30
0.0
 40
0.400001
 41
0.400001
  0
VERTEX
  8
C00-00-00-BLACK
 10
181.405
 20
151.689
 30
0.0
 40
0.400001
 41
0.400001
  0
VERTEX
  8
C00-00-00-BLACK
 10
180.172
 20
153.184
 30
0.0
 40
0.400001
 41
0.400001
  0
VERTEX
  8
C00-00-00-BLACK
 10
178.676
 20
154.419
 30
0.0
 40
0.400001
 41
0.400001
  0
VERTEX
  8
C00-00-00-BLACK
 10
176.959
 20
155.349
 30
0.0
 40
0.400001
 41
0.400001
  0
VERTEX
  8
C00-00-00-BLACK
 10
175.063
 20
155.939
 30
0.0
 40
0.400001
 41
0.400001
  0
VERTEX
  8
C00-00-00-BLACK
 10
173.536
 20
156.143
 30
0.0
 40
0.400001
 41
0.400001
  0
VERTEX
  8
C00-00-00-BLACK
 10
173.028
 20
156.143
 30
0.0
 40
0.400001
 41
0.400001
  0
VERTEX
  8
C00-00-00-BLACK
 10
172.518
 20
156.143
 30
0.0
 40
0.400001
 41
0.400001
  0
VERTEX
  8
C00-00-00-BLACK
 10
170.991
 20
155.939
 30
0.0
 40
0.400001
 41
0.400001
  0
VERTEX
  8
C00-00-00-BLACK
 10
169.095
 20
155.349
 30
0.0
 40
0.400001
 41
0.400001
  0
VERTEX
  8
C00-00-00-BLACK
 10
167.378
 20
154.419
 30
0.0
 40
0.400001
 41
0.400001
  0
VERTEX
  8
C00-00-00-BLACK
 10
165.883
 20
153.184
 30
0.0
 40
0.400001
 41
0.400001
  0
VERTEX
  8
C00-00-00-BLACK
 10
164.65
 20
151.689
 30
0.0
 40
0.400001
 41
0.400001
  0
VERTEX
  8
C00-00-00-BLACK
 10
163.718
 20
149.973
 30
0.0
 40
0.400001
 41
0.400001
  0
VERTEX
  8
C00-00-00-BLACK
 10
163.128
 20
148.077
 30
0.0
 40
0.400001
 41
0.400001
  0
VERTEX
  8
C00-00-00-BLACK
 10
162.924
 20
146.55
 30
0.0
 40
0.400001
 41
0.400001
  0
VERTEX
  8
C00-00-00-BLACK
 10
162.924
 20
146.04
 30
0.0
 40
0.400001
 41
0.400001
  0
SEQEND
 8
0
  0
POLYLINE
  8
C00-00-00-BLACK
 66
     1
 10
0
 20
0
 30
0.0
 70
     1
 40
1.13386
 41
1.13386
  0
VERTEX
  8
C00-00-00-BLACK
 10
185.622
 20
146.523
 30
0.0
 40
0.400001
 41
0.400001
  0
VERTEX
  8
C00-00-00-BLACK
 10
185.622
 20
146.014
 30
0.0
 40
0.400001
 41
0.400001
  0
VERTEX
  8
C00-00-00-BLACK
 10
185.826
 20
144.487
 30
0.0
 40
0.400001
 41
0.400001
  0
VERTEX
  8
C00-00-00-BLACK
 10
186.416
 20
142.591
 30
0.0
 40
0.400001
 41
0.400001
  0
VERTEX
  8
C00-00-00-BLACK
 10
187.346
 20
140.874
 30
0.0
 40
0.400001
 41
0.400001
  0
VERTEX
  8
C00-00-00-BLACK
 10
188.581
 20
139.379
 30
0.0
 40
0.400001
 41
0.400001
  0
VERTEX
  8
C00-00-00-BLACK
 10
190.076
 20
138.146
 30
0.0
 40
0.400001
 41
0.400001
  0
VERTEX
  8
C00-00-00-BLACK
 10
191.791
 20
137.214
 30
0.0
 40
0.400001
 41
0.400001
  0
VERTEX
  8
C00-00-00-BLACK
 10
193.687
 20
136.624
 30
0.0
 40
0.400001
 41
0.400001
  0
VERTEX
  8
C00-00-00-BLACK
 10
195.214
 20
136.419
 30
0.0
 40
0.400001
 41
0.400001
  0
VERTEX
  8
C00-00-00-BLACK
 10
195.724
 20
136.419
 30
0.0
 40
0.400001
 41
0.400001
  0
VERTEX
  8
C00-00-00-BLACK
 10
196.233
 20
136.419
 30
0.0
 40
0.400001
 41
0.400001
  0
VERTEX
  8
C00-00-00-BLACK
 10
197.759
 20
136.624
 30
0.0
 40
0.400001
 41
0.400001
  0
VERTEX
  8
C00-00-00-BLACK
 10
199.657
 20
137.214
 30
0.0
 40
0.400001
 41
0.400001
  0
VERTEX
  8
C00-00-00-BLACK
 10
201.373
 20
138.146
 30
0.0
 40
0.400001
 41
0.400001
  0
VERTEX
  8
C00-00-00-BLACK
 10
202.868
 20
139.379
 30
0.0
 40
0.400001
 41
0.400001
  0
VERTEX
  8
C00-00-00-BLACK
 10
204.101
 20
140.874
 30
0.0
 40
0.400001
 41
0.400001
  0
VERTEX
  8
C00-00-00-BLACK
 10
205.033
 20
142.591
 30
0.0
 40
0.400001
 41
0.400001
  0
VERTEX
  8
C00-00-00-BLACK
 10
205.623
 20
144.487
 30
0.0
 40
0.400001
 41
0.400001
  0
VERTEX
  8
C00-00-00-BLACK
 10
205.828
 20
146.014
 30
0.0
 40
0.400001
 41
0.400001
  0
VERTEX
  8
C00-00-00-BLACK
 10
205.828
 20
146.523
 30
0.0
 40
0.400001
 41
0.400001
  0
VERTEX
  8
C00-00-00-BLACK
 10
205.828
 20
147.032
 30
0.0
 40
0.400001
 41
0.400001
  0
VERTEX
  8
C00-00-00-BLACK
 10
205.623
 20
148.559
 30
0.0
 40
0.400001
 41
0.400001
  0
VERTEX
  8
C00-00-00-BLACK
 10
205.033
 20
150.455
 30
0.0
 40
0.400001
 41
0.400001
  0
VERTEX
  8
C00-00-00-BLACK
 10
204.101
 20
152.172
 30
0.0
 40
0.400001
 41
0.400001
  0
VERTEX
  8
C00-00-00-BLACK
 10
202.868
 20
153.668
 30
0.0
 40
0.400001
 41
0.400001
  0
VERTEX
  8
C00-00-00-BLACK
 10
201.373
 20
154.901
 30
0.0
 40
0.400001
 41
0.400001
  0
VERTEX
  8
C00-00-00-BLACK
 10
199.657
 20
155.833
 30
0.0
 40
0.400001
 41
0.400001
  0
VERTEX
  8
C00-00-00-BLACK
 10
197.759
 20
156.422
 30
0.0
 40
0.400001
 41
0.400001
  0
VERTEX
  8
C00-00-00-BLACK
 10
196.233
 20
156.626
 30
0.0
 40
0.400001
 41
0.400001
  0
VERTEX
  8
C00-00-00-BLACK
 10
195.724
 20
156.626
 30
0.0
 40
0.400001
 41
0.400001
  0
VERTEX
  8
C00-00-00-BLACK
 10
195.214
 20
156.626
 30
0.0
 40
0.400001
 41
0.400001
  0
VERTEX
  8
C00-00-00-BLACK
 10
193.687
 20
156.422
 30
0.0
 40
0.400001
 41
0.400001
  0
VERTEX
  8
C00-00-00-BLACK
 10
191.791
 20
155.833
 30
0.0
 40
0.400001
 41
0.400001
  0
VERTEX
  8
C00-00-00-BLACK
 10
190.076
 20
154.901
 30
0.0
 40
0.400001
 41
0.400001
  0
VERTEX
  8
C00-00-00-BLACK
 10
188.581
 20
153.668
 30
0.0
 40
0.400001
 41
0.400001
  0
VERTEX
  8
C00-00-00-BLACK
 10
187.346
 20
152.172
 30
0.0
 40
0.400001
 41
0.400001
  0
VERTEX
  8
C00-00-00-BLACK
 10
186.416
 20
150.455
 30
0.0
 40
0.400001
 41
0.400001
  0
VERTEX
  8
C00-00-00-BLACK
 10
185.826
 20
148.559
 30
0.0
 40
0.400001
 41
0.400001
  0
VERTEX
  8
C00-00-00-BLACK
 10
185.622
 20
147.032
 30
0.0
 40
0.400001
 41
0.400001
  0
VERTEX
  8
C00-00-00-BLACK
 10
185.622
 20
146.523
 30
0.0
 40
0.400001
 41
0.400001
  0
SEQEND
 8
0
  0
POLYLINE
  8
C00-00-00-BLACK
 66
     1
 10
0
 20
0
 30
0.0
 70
     1
 40
1.13386
 41
1.13386
  0
VERTEX
  8
C00-00-00-BLACK
 10
208.8
 20
146.04
 30
0.0
 40
0.400001
 41
0.400001
  0
VERTEX
  8
C00-00-00-BLACK
 10
208.8
 20
145.532
 30
0.0
 40
0.400001
 41
0.400001
  0
VERTEX
  8
C00-00-00-BLACK
 10
209.004
 20
144.005
 30
0.0
 40
0.400001
 41
0.400001
  0
VERTEX
  8
C00-00-00-BLACK
 10
209.594
 20
142.107
 30
0.0
 40
0.400001
 41
0.400001
  0
VERTEX
  8
C00-00-00-BLACK
 10
210.526
 20
140.392
 30
0.0
 40
0.400001
 41
0.400001
  0
VERTEX
  8
C00-00-00-BLACK
 10
211.759
 20
138.897
 30
0.0
 40
0.400001
 41
0.400001
  0
VERTEX
  8
C00-00-00-BLACK
 10
213.254
 20
137.663
 30
0.0
 40
0.400001
 41
0.400001
  0
VERTEX
  8
C00-00-00-BLACK
 10
214.971
 20
136.732
 30
0.0
 40
0.400001
 41
0.400001
  0
VERTEX
  8
C00-00-00-BLACK
 10
216.867
 20
136.142
 30
0.0
 40
0.400001
 41
0.400001
  0
VERTEX
  8
C00-00-00-BLACK
 10
218.394
 20
135.937
 30
0.0
 40
0.400001
 41
0.400001
  0
VERTEX
  8
C00-00-00-BLACK
 10
218.904
 20
135.937
 30
0.0
 40
0.400001
 41
0.400001
  0
VERTEX
  8
C00-00-00-BLACK
 10
219.413
 20
135.937
 30
0.0
 40
0.400001
 41
0.400001
  0
VERTEX
  8
C00-00-00-BLACK
 10
220.939
 20
136.142
 30
0.0
 40
0.400001
 41
0.400001
  0
VERTEX
  8
C00-00-00-BLACK
 10
222.836
 20
136.732
 30
0.0
 40
0.400001
 41
0.400001
  0
VERTEX
  8
C00-00-00-BLACK
 10
224.553
 20
137.663
 30
0.0
 40
0.400001
 41
0.400001
  0
VERTEX
  8
C00-00-00-BLACK
 10
226.048
 20
138.897
 30
0.0
 40
0.400001
 41
0.400001
  0
VERTEX
  8
C00-00-00-BLACK
 10
227.281
 20
140.392
 30
0.0
 40
0.400001
 41
0.400001
  0
VERTEX
  8
C00-00-00-BLACK
 10
228.213
 20
142.107
 30
0.0
 40
0.400001
 41
0.400001
  0
VERTEX
  8
C00-00-00-BLACK
 10
228.802
 20
144.005
 30
0.0
 40
0.400001
 41
0.400001
  0
VERTEX
  8
C00-00-00-BLACK
 10
229.008
 20
145.532
 30
0.0
 40
0.400001
 41
0.400001
  0
VERTEX
  8
C00-00-00-BLACK
 10
229.008
 20
146.04
 30
0.0
 40
0.400001
 41
0.400001
  0
VERTEX
  8
C00-00-00-BLACK
 10
229.008
 20
146.55
 30
0.0
 40
0.400001
 41
0.400001
  0
VERTEX
  8
C00-00-00-BLACK
 10
228.802
 20
148.077
 30
0.0
 40
0.400001
 41
0.400001
  0
VERTEX
  8
C00-00-00-BLACK
 10
228.213
 20
149.973
 30
0.0
 40
0.400001
 41
0.400001
  0
VERTEX
  8
C00-00-00-BLACK
 10
227.281
 20
151.689
 30
0.0
 40
0.400001
 41
0.400001
  0
VERTEX
  8
C00-00-00-BLACK
 10
226.048
 20
153.184
 30
0.0
 40
0.400001
 41
0.400001
  0
VERTEX
  8
C00-00-00-BLACK
 10
224.553
 20
154.419
 30
0.0
 40
0.400001
 41
0.400001
  0
VERTEX
  8
C00-00-00-BLACK
 10
222.836
 20
155.349
 30
0.0
 40
0.400001
 41
0.400001
  0
VERTEX
  8
C00-00-00-BLACK
 10
220.939
 20
155.939
 30
0.0
 40
0.400001
 41
0.400001
  0
VERTEX
  8
C00-00-00-BLACK
 10
219.413
 20
156.143
 30
0.0
 40
0.400001
 41
0.400001
  0
VERTEX
  8
C00-00-00-BLACK
 10
218.904
 20
156.143
 30
0.0
 40
0.400001
 41
0.400001
  0
VERTEX
  8
C00-00-00-BLACK
 10
218.394
 20
156.143
 30
0.0
 40
0.400001
 41
0.400001
  0
VERTEX
  8
C00-00-00-BLACK
 10
216.867
 20
155.939
 30
0.0
 40
0.400001
 41
0.400001
  0
VERTEX
  8
C00-00-00-BLACK
 10
214.971
 20
155.349
 30
0.0
 40
0.400001
 41
0.400001
  0
VERTEX
  8
C00-00-00-BLACK
 10
213.254
 20
154.419
 30
0.0
 40
0.400001
 41
0.400001
  0
VERTEX
  8
C00-00-00-BLACK
 10
211.759
 20
153.184
 30
0.0
 40
0.400001
 41
0.400001
  0
VERTEX
  8
C00-00-00-BLACK
 10
210.526
 20
151.689
 30
0.0
 40
0.400001
 41
0.400001
  0
VERTEX
  8
C00-00-00-BLACK
 10
209.594
 20
149.973
 30
0.0
 40
0.400001
 41
0.400001
  0
VERTEX
  8
C00-00-00-BLACK
 10
209.004
 20
148.077
 30
0.0
 40
0.400001
 41
0.400001
  0
VERTEX
  8
C00-00-00-BLACK
 10
208.8
 20
146.55
 30
0.0
 40
0.400001
 41
0.400001
  0
VERTEX
  8
C00-00-00-BLACK
 10
208.8
 20
146.04
 30
0.0
 40
0.400001
 41
0.400001
  0
SEQEND
 8
0
  0
POLYLINE
  8
C00-00-00-BLACK
 66
     1
 10
0
 20
0
 30
0.0
 40
0.425197
 41
0.425197
  0
VERTEX
  8
C00-00-00-BLACK
 10
139.7
 20
9.65179
 30
0.0
 40
0.15
 41
0.15
  0
VERTEX
  8
C00-00-00-BLACK
 10
139.7
 20
0.482314
 30
0.0
 40
0.15
 41
0.15
  0
SEQEND
 8
0
  0
POLYLINE
  8
C00-00-00-BLACK
 66
     1
 10
0
 20
0
 30
0.0
 40
0.425197
 41
0.425197
  0
VERTEX
  8
C00-00-00-BLACK
 10
139.7
 20
206.248
 30
0.0
 40
0.15
 41
0.15
  0
VERTEX
  8
C00-00-00-BLACK
 10
139.7
 20
215.418
 30
0.0
 40
0.15
 41
0.15
  0
SEQEND
 8
0
  0
ENDSEC
  0
EOF
