700 0 1 0           
30 Autodesk Translation Framework 20 ASM 229.3.0.65535 NT 24 Mon May 22 15:52:09 2023 
1 9.999999999999999547e-07 1.000000000000000036e-10 
body $1 -1 $-1 $2 $-1 $3 #
rgb_color-st-attrib $-1 -1 $4 $-1 $0 0.7490196078431372584 0.7490196078431372584 0.7490196078431372584 #
lump $-1 -1 $-1 $-1 $5 $0 #
transform $-1 -1 1 0 0 0 1 0 0 0 1 0 0 0 1 no_rotate no_reflect no_shear #
DXID-attrib $-1 -1 $-1 $1 $0 @10 ASM ENTITY @104 BASE_SOPORTE_1.IPT|:|3658AD565A142A5D9C8D09DE5A318A5FC913997F|:|DA4B9237BACCCDF19C0760CAB7AEC4A8359010B0 #
shell $-1 -1 $-1 $-1 $-1 $6 $-1 $2 #
face $7 -1 $-1 $8 $9 $5 $-1 $10 forward single #
DXID-attrib $-1 -1 $-1 $-1 $6 @10 ASM ENTITY @36 4fead0fe-0530-47c6-8791-68e3cfa01f05 #
face $11 -1 $-1 $12 $13 $5 $-1 $14 forward single #
loop $-1 -1 $-1 $15 $16 $6 #
cone-surface $-1 -1 $-1 -0.0001513160239596800238 83.01606668569093017 0 0 0 1 -2.50000000000000222 0 0 1 I I 0 -1 2.50000000000000222 forward I I I I #
DXID-attrib $-1 -1 $-1 $-1 $8 @10 ASM ENTITY @36 09b77282-b423-4920-8800-b21dbd304d19 #
face $17 -1 $-1 $18 $19 $5 $-1 $20 forward single #
loop $-1 -1 $-1 $21 $22 $8 #
cone-surface $-1 -1 $-1 -0.0001513160239596800238 23.01606668569093017 0 0 0 1 -2.50000000000000222 0 0 1 I I 0 -1 2.50000000000000222 forward I I I I #
loop $-1 -1 $-1 $-1 $23 $6 #
coedge $-1 -1 $-1 $16 $16 $24 $25 reversed $9 $-1 #
DXID-attrib $-1 -1 $-1 $-1 $12 @10 ASM ENTITY @36 b11d1820-b4a7-46b4-a94e-a22b307d8be0 #
face $26 -1 $-1 $27 $28 $5 $-1 $29 forward single #
loop $-1 -1 $-1 $-1 $30 $12 #
plane-surface $-1 -1 $-1 88.05756234337678734 -72.8240779997872778 0 -0.8660254037844399289 -0.499999999999997724 0 4.999999999999976907 -8.660254037844399733 0 forward_v I I I I #
loop $-1 -1 $-1 $-1 $31 $8 #
coedge $-1 -1 $-1 $22 $22 $32 $33 reversed $13 $-1 #
coedge $-1 -1 $-1 $23 $23 $34 $35 forward $15 $-1 #
coedge $-1 -1 $-1 $24 $24 $16 $25 forward $36 $-1 #
edge $37 -1 $-1 $38 -3.141592653589793116 $38 3.141592653589793116 $16 $39 forward @7 unknown #
DXID-attrib $-1 -1 $-1 $-1 $18 @10 ASM ENTITY @36 c9ba3728-157b-4d61-b3eb-9ddcfb3d8cf6 #
face $40 -1 $-1 $41 $42 $5 $-1 $43 forward single #
loop $-1 -1 $-1 $-1 $44 $18 #
cone-surface $-1 -1 $-1 18.77553004062150421 -112.8240779997869936 0 0 0 1 -69.28203230275526892 -39.99999999999970868 0 1 I I 0 -1 80 forward I I I I #
coedge $-1 -1 $-1 $45 $46 $47 $48 forward $19 $-1 #
coedge $-1 -1 $-1 $31 $31 $49 $50 forward $21 $-1 #
coedge $-1 -1 $-1 $32 $32 $22 $33 forward $51 $-1 #
edge $52 -1 $-1 $53 -3.141592653589793116 $53 3.141592653589793116 $22 $54 forward @7 unknown #
coedge $-1 -1 $-1 $34 $34 $23 $35 reversed $55 $-1 #
edge $56 -1 $-1 $57 -3.141592653589793116 $57 3.141592653589793116 $23 $58 forward @7 unknown #
loop $-1 -1 $-1 $-1 $24 $59 #
DXID-attrib $-1 -1 $-1 $-1 $25 @10 ASM ENTITY @36 fd5311ad-5c4f-4ae5-b302-1084bfc0d91b #
vertex $-1 -1 $-1 $25 $60 #
ellipse-curve $-1 -1 $-1 -0.0001513160239596800238 83.01606668569093017 12.00000000000000178 0 0 -1 -2.50000000000000222 -0 -0 1 I I #
DXID-attrib $-1 -1 $-1 $-1 $27 @10 ASM ENTITY @36 4b8c16be-c63c-409a-8259-2e12c08022f6 #
face $61 -1 $-1 $62 $63 $5 $-1 $64 forward single #
loop $-1 -1 $-1 $-1 $65 $27 #
plane-surface $-1 -1 $-1 39.99984868397604032 -32.70190101155435514 0 -0.4999999999999854561 -0.8660254037844471453 0 8.660254037844470787 -4.999999999999854339 0 forward_v I I I I #
coedge $-1 -1 $-1 $66 $67 $68 $69 forward $28 $-1 #
coedge $-1 -1 $-1 $70 $30 $71 $72 forward $19 $-1 #
coedge $-1 -1 $-1 $30 $70 $66 $73 reversed $19 $-1 #
coedge $-1 -1 $-1 $68 $74 $30 $48 reversed $75 $-1 #
edge $76 -1 $-1 $77 0 $78 6.016660498395395074 $30 $79 forward @7 unknown #
coedge $-1 -1 $-1 $49 $49 $31 $50 reversed $80 $-1 #
edge $81 -1 $-1 $82 -3.141592653589793116 $82 3.141592653589793116 $31 $83 forward @7 unknown #
loop $-1 -1 $-1 $36 $32 $59 #
DXID-attrib $-1 -1 $-1 $-1 $33 @10 ASM ENTITY @36 4400a6df-e5fa-47b8-beac-2a5d4dd6bbef #
vertex $-1 -1 $-1 $33 $84 #
ellipse-curve $-1 -1 $-1 -0.0001513160239596800238 23.01606668569093017 12.00000000000000178 0 0 -1 -2.50000000000000222 -0 -0 1 I I #
loop $-1 -1 $-1 $-1 $34 $85 #
DXID-attrib $-1 -1 $-1 $-1 $35 @10 ASM ENTITY @36 9db638e2-187b-4423-ae2a-18339bbf6146 #
vertex $-1 -1 $-1 $35 $86 #
ellipse-curve $-1 -1 $-1 -0.0001513160239596800238 83.01606668569093017 0 0 0 -1 -2.50000000000000222 -0 -0 1 I I #
face $87 -1 $-1 $85 $88 $5 $-1 $89 forward single #
point $-1 -1 $-1 2.49984868397604032 83.01606668569093017 12.00000000000000178 #
DXID-attrib $-1 -1 $-1 $-1 $41 @10 ASM ENTITY @36 aa6139ff-73e9-45da-8926-264277cb2243 #
face $90 -1 $-1 $91 $92 $5 $-1 $93 forward single #
loop $-1 -1 $-1 $-1 $94 $41 #
cone-surface $-1 -1 $-1 -0.0001513160239596800238 -101.983933314309354 0 0 0 1 -40.00000000000004263 -69.28203230275508417 0 1 I I 0 -1 80 forward I I I I #
coedge $-1 -1 $-1 $95 $96 $97 $98 forward $42 $-1 #
coedge $-1 -1 $-1 $99 $44 $46 $73 forward $28 $-1 #
coedge $-1 -1 $-1 $44 $99 $95 $100 reversed $28 $-1 #
coedge $-1 -1 $-1 $97 $47 $44 $69 reversed $75 $-1 #
edge $101 -1 $-1 $102 2.617993877991490859 $77 3.141592653589793116 $44 $103 forward @7 unknown #
coedge $-1 -1 $-1 $46 $45 $104 $105 reversed $19 $-1 #
coedge $-1 -1 $-1 $106 $107 $45 $72 reversed $108 $-1 #
edge $109 -1 $-1 $78 0 $110 1.200000000000000178 $71 $111 forward @7 tangent #
edge $112 -1 $-1 $77 0 $113 1.200000000000000178 $66 $114 forward @7 tangent #
coedge $-1 -1 $-1 $47 $115 $106 $116 reversed $75 $-1 #
loop $-1 -1 $-1 $80 $74 $85 #
DXID-attrib $-1 -1 $-1 $-1 $48 @10 ASM ENTITY @36 8346ef22-f2c7-4eaa-b459-250105b23bb3 #
vertex $-1 -1 $-1 $48 $117 #
vertex $-1 -1 $-1 $48 $118 #
straight-curve $-1 -1 $-1 88.05756234337678734 -72.8240779997872778 0 4.999999999999976907 -8.660254037844399733 0 F 0 F 6.016660498395395074 #
loop $-1 -1 $-1 $55 $49 $85 #
DXID-attrib $-1 -1 $-1 $-1 $50 @10 ASM ENTITY @36 8b3b10c0-d486-4517-a048-502c27b2ae1c #
vertex $-1 -1 $-1 $50 $119 #
ellipse-curve $-1 -1 $-1 -0.0001513160239596800238 23.01606668569093017 0 0 0 -1 -2.50000000000000222 -0 -0 1 I I #
point $-1 -1 $-1 2.49984868397604032 23.01606668569093017 12.00000000000000178 #
face $120 -1 $-1 $-1 $75 $5 $-1 $121 reversed single #
point $-1 -1 $-1 2.49984868397604032 83.01606668569093017 0 #
DXID-attrib $-1 -1 $-1 $-1 $59 @10 ASM ENTITY @36 aa57551c-742f-4445-a71c-91dfaf4426d9 #
loop $-1 -1 $-1 $51 $122 $59 #
plane-surface $-1 -1 $-1 -0.0001513160239596800238 14.95632030440617655 12.00000000000000178 0 0 1 10 0 0 forward_v I I I I #
DXID-attrib $-1 -1 $-1 $-1 $62 @10 ASM ENTITY @36 d2258d7f-da83-4384-9054-6af3e8cf9268 #
face $123 -1 $-1 $124 $125 $5 $-1 $126 forward single #
loop $-1 -1 $-1 $-1 $127 $62 #
plane-surface $-1 -1 $-1 -58.77583267266942357 -43.54204569703199468 0 0.4999999999999911182 -0.8660254037844438146 0 8.660254037844438812 4.999999999999911182 0 forward_v I I I I #
coedge $-1 -1 $-1 $128 $129 $130 $131 forward $63 $-1 #
coedge $-1 -1 $-1 $132 $65 $67 $100 forward $42 $-1 #
coedge $-1 -1 $-1 $65 $132 $128 $133 reversed $42 $-1 #
coedge $-1 -1 $-1 $130 $68 $65 $98 reversed $75 $-1 #
edge $134 -1 $-1 $135 0 $102 2.168028937095566544 $65 $136 forward @7 unknown #
coedge $-1 -1 $-1 $67 $66 $137 $138 reversed $28 $-1 #
edge $139 -1 $-1 $102 0 $140 1.200000000000000178 $95 $141 forward @7 tangent #
DXID-attrib $-1 -1 $-1 $-1 $69 @10 ASM ENTITY @36 3ae425b3-5bb7-4d6a-aa89-3baa494b86eb #
vertex $-1 -1 $-1 $69 $142 #
ellipse-curve $-1 -1 $-1 18.77553004062150421 -112.8240779997869936 0 0 0 -1 -69.28203230275526892 -39.99999999999970868 -0 1 F 2.617993877991490859 F 3.141592653589793116 #
coedge $-1 -1 $-1 $122 $137 $70 $105 forward $88 $-1 #
edge $143 -1 $-1 $113 0 $110 6.016660498395395074 $70 $144 forward @7 unknown #
coedge $-1 -1 $-1 $145 $71 $74 $116 forward $108 $-1 #
coedge $-1 -1 $-1 $71 $145 $122 $146 reversed $108 $-1 #
loop $-1 -1 $-1 $-1 $106 $147 #
DXID-attrib $-1 -1 $-1 $-1 $72 @10 ASM ENTITY @36 72fb36c5-e4e2-4b0f-a3d6-c99f700e7fe9 #
vertex $-1 -1 $-1 $72 $148 #
straight-curve $-1 -1 $-1 118.140864835353625 -124.9298863753548972 0 0 0 10 I I #
DXID-attrib $-1 -1 $-1 $-1 $73 @10 ASM ENTITY @36 94eb1fe4-c9cb-4930-9e7f-b07335a3b9ca #
vertex $-1 -1 $-1 $105 $149 #
straight-curve $-1 -1 $-1 88.05756234337678734 -72.8240779997872778 0 0 0 10 I I #
coedge $-1 -1 $-1 $74 $150 $151 $152 reversed $75 $-1 #
edge $153 -1 $-1 $78 -7.105427357600977355e-17 $154 3.141592653589793116 $106 $155 forward @7 unknown #
point $-1 -1 $-1 88.05756234337678734 -72.8240779997872778 0 #
point $-1 -1 $-1 118.140864835353625 -124.9298863753548972 0 #
point $-1 -1 $-1 2.49984868397604032 23.01606668569093017 0 #
DXID-attrib $-1 -1 $-1 $-1 $85 @10 ASM ENTITY @36 fcb3db34-b7c3-4ce3-9404-84a5a2a72baa #
plane-surface $-1 -1 $-1 -0.0001513160239596800238 14.95632030440617655 0 0 0 1 10 0 0 forward_v I I I I #
coedge $-1 -1 $-1 $156 $104 $107 $146 forward $88 $-1 #
DXID-attrib $-1 -1 $-1 $-1 $91 @10 ASM ENTITY @36 015a34c1-e6e1-44eb-84c0-25d74f826666 #
face $157 -1 $-1 $158 $159 $5 $-1 $160 forward single #
loop $-1 -1 $-1 $-1 $161 $91 #
cone-surface $-1 -1 $-1 -18.77583267266942357 -112.8240779997869936 0 0 0 1 40.00000000000004263 -69.28203230275508417 0 1 I I 0 -1 80 forward I I I I #
coedge $-1 -1 $-1 $162 $163 $164 $165 forward $92 $-1 #
coedge $-1 -1 $-1 $166 $94 $96 $133 forward $63 $-1 #
coedge $-1 -1 $-1 $94 $166 $162 $167 reversed $63 $-1 #
coedge $-1 -1 $-1 $164 $97 $94 $131 reversed $75 $-1 #
edge $168 -1 $-1 $169 2.094395102393194374 $135 3.141592653589793116 $94 $170 forward @7 unknown #
coedge $-1 -1 $-1 $96 $95 $171 $172 reversed $42 $-1 #
edge $173 -1 $-1 $135 0 $174 1.200000000000000178 $128 $175 forward @7 tangent #
DXID-attrib $-1 -1 $-1 $-1 $98 @10 ASM ENTITY @36 fe7a546b-0b5b-43a3-b668-556351fec03a #
vertex $-1 -1 $-1 $98 $176 #
straight-curve $-1 -1 $-1 39.99984868397604032 -32.70190101155435514 0 8.660254037844470787 -4.999999999999854339 0 F 0 F 2.168028937095566544 #
coedge $-1 -1 $-1 $104 $171 $99 $138 forward $88 $-1 #
edge $177 -1 $-1 $140 2.617993877991490859 $113 3.141592653589793116 $99 $178 forward @7 unknown #
DXID-attrib $-1 -1 $-1 $-1 $100 @10 ASM ENTITY @36 2fd09cf3-e98c-45ef-bb7a-b52f2b4d2eed #
vertex $-1 -1 $-1 $138 $179 #
straight-curve $-1 -1 $-1 58.77553004062150421 -43.54204569703199468 0 0 0 10 I I #
point $-1 -1 $-1 58.77553004062150421 -43.54204569703199468 0 #
DXID-attrib $-1 -1 $-1 $-1 $105 @10 ASM ENTITY @36 bfa9d421-6b59-40c8-bfc8-71897b6f6c84 #
straight-curve $-1 -1 $-1 88.05756234337678734 -72.8240779997872778 12.00000000000000178 4.999999999999976907 -8.660254037844399733 0 I I #
coedge $-1 -1 $-1 $107 $106 $180 $181 forward $108 $-1 #
edge $182 -1 $-1 $110 -7.105427357600977355e-17 $183 3.141592653589793116 $107 $184 forward @7 unknown #
face $185 -1 $-1 $59 $108 $5 $-1 $186 forward single #
point $-1 -1 $-1 118.140864835353625 -124.9298863753548972 12.00000000000000178 #
point $-1 -1 $-1 88.05756234337678734 -72.8240779997872778 12.00000000000000178 #
coedge $-1 -1 $-1 $115 $187 $188 $189 reversed $75 $-1 #
coedge $-1 -1 $-1 $190 $180 $115 $152 forward $191 $-1 #
edge $192 -1 $-1 $154 -3.882477710091160163e-14 $193 7.356406460551021986 $151 $194 forward @7 unknown #
DXID-attrib $-1 -1 $-1 $-1 $116 @10 ASM ENTITY @36 e3fa127e-9fe3-4667-a2f5-e332645f70af #
vertex $-1 -1 $-1 $152 $195 #
ellipse-curve $-1 -1 $-1 139.7914999299646865 -112.4298863753548972 0 0 0 1 -21.65063509461099045 -12.49999999999996092 0 1 F -7.105427357600977355e-17 F 3.141592653589793116 #
coedge $-1 -1 $-1 $196 $122 $197 $198 forward $88 $-1 #
DXID-attrib $-1 -1 $-1 $-1 $124 @10 ASM ENTITY @36 6e3c9802-2554-48dd-b41c-2c134587168d #
face $199 -1 $-1 $200 $201 $5 $-1 $202 forward single #
loop $-1 -1 $-1 $-1 $203 $124 #
plane-surface $-1 -1 $-1 -118.1411674674016865 -124.9298863753551814 0 0.8660254037844379305 -0.5000000000000012212 0 5.000000000000012434 8.660254037844378416 0 forward_v I I I I #
coedge $-1 -1 $-1 $204 $205 $206 $207 forward $125 $-1 #
coedge $-1 -1 $-1 $208 $127 $129 $167 forward $92 $-1 #
coedge $-1 -1 $-1 $127 $208 $204 $209 reversed $92 $-1 #
coedge $-1 -1 $-1 $206 $130 $127 $165 reversed $75 $-1 #
edge $210 -1 $-1 $211 0 $169 2.168028937095566544 $127 $212 forward @7 unknown #
coedge $-1 -1 $-1 $129 $128 $213 $214 reversed $63 $-1 #
edge $215 -1 $-1 $169 0 $216 1.200000000000000178 $162 $217 forward @7 tangent #
DXID-attrib $-1 -1 $-1 $-1 $131 @10 ASM ENTITY @36 af5be31e-f89f-4108-bf53-f6b25da34071 #
vertex $-1 -1 $-1 $131 $218 #
ellipse-curve $-1 -1 $-1 -0.0001513160239596800238 -101.983933314309354 0 0 0 -1 -40.00000000000004263 -69.28203230275508417 -0 1 F 2.094395102393194374 F 3.141592653589793116 #
coedge $-1 -1 $-1 $137 $213 $132 $172 forward $88 $-1 #
edge $219 -1 $-1 $174 0 $140 2.168028937095566544 $132 $220 forward @7 unknown #
DXID-attrib $-1 -1 $-1 $-1 $133 @10 ASM ENTITY @36 288af627-bb5c-4176-bdf2-b7809699f2ee #
vertex $-1 -1 $-1 $172 $221 #
straight-curve $-1 -1 $-1 39.99984868397604032 -32.70190101155435514 0 0 0 10 I I #
point $-1 -1 $-1 39.99984868397604032 -32.70190101155435514 0 #
DXID-attrib $-1 -1 $-1 $-1 $138 @10 ASM ENTITY @36 97a89b75-fef9-4ffa-a07c-61031988416b #
ellipse-curve $-1 -1 $-1 18.77553004062150421 -112.8240779997869936 12.00000000000000178 0 0 -1 -69.28203230275526892 -39.99999999999970868 -0 1 I I #
point $-1 -1 $-1 58.77553004062150421 -43.54204569703199468 12.00000000000000178 #
coedge $-1 -1 $-1 $151 $197 $145 $181 reversed $191 $-1 #
edge $222 -1 $-1 $154 0 $183 1.200000000000000178 $145 $223 forward @7 tangent #
DXID-attrib $-1 -1 $-1 $-1 $146 @10 ASM ENTITY @36 7acccdba-71f3-43c3-a5d3-6cffe5bbc81a #
vertex $-1 -1 $-1 $198 $224 #
ellipse-curve $-1 -1 $-1 139.7914999299646865 -112.4298863753548972 12.00000000000000178 0 0 1 -21.65063509461099045 -12.49999999999996092 0 1 I I #
DXID-attrib $-1 -1 $-1 $-1 $147 @10 ASM ENTITY @36 83d4a771-302e-4915-9896-2024ed997ffe #
cone-surface $-1 -1 $-1 139.7914999299646865 -112.4298863753548972 0 0 0 1 -21.65063509461099045 -12.49999999999996092 0 1 I I 0 1 25 forward I I I I #
coedge $-1 -1 $-1 $150 $225 $226 $227 reversed $75 $-1 #
coedge $-1 -1 $-1 $228 $229 $150 $189 forward $230 $-1 #
edge $231 -1 $-1 $193 0 $232 0.5235987755982994818 $188 $233 forward @7 unknown #
coedge $-1 -1 $-1 $197 $151 $229 $234 forward $191 $-1 #
loop $-1 -1 $-1 $-1 $151 $235 #
DXID-attrib $-1 -1 $-1 $-1 $152 @10 ASM ENTITY @36 fa8ab3b8-d544-4768-b4de-fca7cc90a85e #
vertex $-1 -1 $-1 $189 $236 #
straight-curve $-1 -1 $-1 161.4421350245754638 -99.92988637535461294 0 -4.999999999999984901 8.660254037844394404 0 F -3.882477710091160163e-14 F 7.356406460551021986 #
point $-1 -1 $-1 161.442135024575748 -99.92988637535489715 0 #
coedge $-1 -1 $-1 $237 $156 $238 $239 forward $88 $-1 #
coedge $-1 -1 $-1 $180 $190 $156 $198 reversed $191 $-1 #
edge $240 -1 $-1 $183 -3.882477710091160163e-14 $241 7.356406460551021986 $197 $242 forward @7 unknown #
DXID-attrib $-1 -1 $-1 $-1 $158 @10 ASM ENTITY @36 6eec2ee8-db8e-4bb6-9e0c-d65a5af569ca #
face $243 -1 $-1 $244 $245 $5 $-1 $246 forward single #
loop $-1 -1 $-1 $-1 $247 $158 #
cone-surface $-1 -1 $-1 -139.7918025620124638 -112.4298863753548972 0 0 0 1 -21.65063509461086966 12.50000000000017586 0 1 I I 0 1 25.00000000000000355 forward I I I I #
coedge $-1 -1 $-1 $248 $249 $250 $251 forward $159 $-1 #
coedge $-1 -1 $-1 $252 $161 $163 $209 forward $125 $-1 #
coedge $-1 -1 $-1 $161 $252 $248 $253 reversed $125 $-1 #
coedge $-1 -1 $-1 $250 $164 $161 $207 reversed $75 $-1 #
edge $254 -1 $-1 $255 2.617993877991493967 $211 3.141592653589793116 $161 $256 forward @7 unknown #
coedge $-1 -1 $-1 $163 $162 $257 $258 reversed $92 $-1 #
edge $259 -1 $-1 $211 0 $260 1.200000000000000178 $204 $261 forward @7 tangent #
DXID-attrib $-1 -1 $-1 $-1 $165 @10 ASM ENTITY @36 f80a66ba-83ff-4bd4-b17a-6af14b74a63f #
vertex $-1 -1 $-1 $165 $262 #
straight-curve $-1 -1 $-1 -58.77583267266942357 -43.54204569703199468 0 8.660254037844438812 4.999999999999911182 0 F 0 F 2.168028937095566544 #
coedge $-1 -1 $-1 $171 $257 $166 $214 forward $88 $-1 #
edge $263 -1 $-1 $216 2.094395102393194374 $174 3.141592653589793116 $166 $264 forward @7 unknown #
DXID-attrib $-1 -1 $-1 $-1 $167 @10 ASM ENTITY @36 69fcb6cf-4f16-49d0-a74d-fc978ee5eab2 #
vertex $-1 -1 $-1 $214 $265 #
straight-curve $-1 -1 $-1 -40.00015131602395968 -32.70190101155435514 0 0 0 10 I I #
point $-1 -1 $-1 -40.00015131602395968 -32.70190101155435514 0 #
DXID-attrib $-1 -1 $-1 $-1 $172 @10 ASM ENTITY @36 aacc7e84-249a-429b-8a6a-54dd73f85779 #
straight-curve $-1 -1 $-1 39.99984868397604032 -32.70190101155435514 12.00000000000000178 8.660254037844470787 -4.999999999999854339 0 I I #
point $-1 -1 $-1 39.99984868397604032 -32.70190101155435514 12.00000000000000178 #
DXID-attrib $-1 -1 $-1 $-1 $181 @10 ASM ENTITY @36 e6a31fdc-d984-493f-b3a1-05b870f4d37b #
straight-curve $-1 -1 $-1 161.442135024575748 -99.92988637535489715 0 0 0 10 I I #
point $-1 -1 $-1 161.442135024575748 -99.92988637535489715 12.00000000000000178 #
coedge $-1 -1 $-1 $187 $266 $267 $268 reversed $75 $-1 #
coedge $-1 -1 $-1 $269 $270 $187 $227 forward $271 $-1 #
edge $272 -1 $-1 $232 0 $273 2.237604307033966844 $226 $274 forward @7 unknown #
coedge $-1 -1 $-1 $238 $188 $270 $275 forward $230 $-1 #
coedge $-1 -1 $-1 $188 $238 $190 $234 reversed $230 $-1 #
loop $-1 -1 $-1 $-1 $188 $276 #
DXID-attrib $-1 -1 $-1 $-1 $189 @10 ASM ENTITY @36 d8bec9f4-0adc-403d-a338-69cc545500b6 #
vertex $-1 -1 $-1 $227 $277 #
ellipse-curve $-1 -1 $-1 55.3780704190651818 -76.22153762134303179 0 0 0 1 69.28203230275514102 39.99999999999992184 0 1 F 0 F 0.5235987755982994818 #
edge $278 -1 $-1 $193 0 $241 1.200000000000000178 $190 $279 forward @7 tangent #
face $280 -1 $-1 $147 $191 $5 $-1 $281 forward single #
point $-1 -1 $-1 124.6601027218204649 -36.22153762134303179 0 #
coedge $-1 -1 $-1 $282 $196 $283 $284 forward $88 $-1 #
coedge $-1 -1 $-1 $229 $228 $196 $239 reversed $230 $-1 #
edge $285 -1 $-1 $241 0 $286 0.5235987755982994818 $238 $287 forward @7 unknown #
DXID-attrib $-1 -1 $-1 $-1 $198 @10 ASM ENTITY @36 7d85dcfe-f3a1-4c0f-b97e-606ca900fffe #
vertex $-1 -1 $-1 $239 $288 #
straight-curve $-1 -1 $-1 161.4421350245754638 -99.92988637535461294 12.00000000000000178 -4.999999999999984901 8.660254037844394404 0 I I #
DXID-attrib $-1 -1 $-1 $-1 $200 @10 ASM ENTITY @36 42a95d50-0c37-4f2a-ae88-d06dfc158acb #
face $289 -1 $-1 $290 $291 $5 $-1 $292 forward single #
loop $-1 -1 $-1 $-1 $293 $200 #
plane-surface $-1 -1 $-1 -124.6604053538683843 -36.22153762134303179 0 -0.8660254037844387076 0.4999999999999999445 0 -4.999999999999999112 -8.660254037844387298 0 forward_v I I I I #
coedge $-1 -1 $-1 $294 $295 $296 $297 forward $201 $-1 #
coedge $-1 -1 $-1 $298 $203 $205 $253 forward $159 $-1 #
coedge $-1 -1 $-1 $203 $298 $294 $299 reversed $159 $-1 #
coedge $-1 -1 $-1 $296 $206 $203 $251 reversed $75 $-1 #
edge $300 -1 $-1 $301 -2.461392238570959792e-14 $255 6.016660498395419943 $203 $302 forward @7 unknown #
coedge $-1 -1 $-1 $205 $204 $303 $304 reversed $125 $-1 #
edge $305 -1 $-1 $255 0 $306 1.200000000000000178 $248 $307 forward @7 tangent #
DXID-attrib $-1 -1 $-1 $-1 $207 @10 ASM ENTITY @36 b4b5b49f-5447-4e77-a1ac-c56dc695edf8 #
vertex $-1 -1 $-1 $207 $308 #
ellipse-curve $-1 -1 $-1 -18.77583267266942357 -112.8240779997869936 0 0 0 -1 40.00000000000004263 -69.28203230275508417 0 1 F 2.617993877991493967 F 3.141592653589793116 #
coedge $-1 -1 $-1 $213 $303 $208 $258 forward $88 $-1 #
edge $309 -1 $-1 $260 0 $216 2.168028937095566544 $208 $310 forward @7 unknown #
DXID-attrib $-1 -1 $-1 $-1 $209 @10 ASM ENTITY @36 416ba017-579a-4ec4-b4f6-8bd34caaddf7 #
vertex $-1 -1 $-1 $258 $311 #
straight-curve $-1 -1 $-1 -58.77583267266942357 -43.54204569703199468 0 0 0 10 I I #
point $-1 -1 $-1 -58.77583267266942357 -43.54204569703199468 0 #
DXID-attrib $-1 -1 $-1 $-1 $214 @10 ASM ENTITY @36 ba5e4f13-4d0f-4442-b0c5-cdf90e2555c5 #
ellipse-curve $-1 -1 $-1 -0.0001513160239596800238 -101.983933314309354 12.00000000000000178 0 0 -1 -40.00000000000004263 -69.28203230275508417 -0 1 I I #
point $-1 -1 $-1 -40.00015131602395968 -32.70190101155435514 12.00000000000000178 #
coedge $-1 -1 $-1 $225 $312 $313 $314 reversed $75 $-1 #
coedge $-1 -1 $-1 $315 $316 $225 $268 forward $317 $-1 #
edge $318 -1 $-1 $273 2.094395102393191266 $319 3.141592653589793116 $267 $320 forward @7 unknown #
coedge $-1 -1 $-1 $283 $226 $316 $321 forward $271 $-1 #
coedge $-1 -1 $-1 $226 $283 $228 $275 reversed $271 $-1 #
loop $-1 -1 $-1 $-1 $226 $322 #
DXID-attrib $-1 -1 $-1 $-1 $227 @10 ASM ENTITY @36 e89f7fe7-f090-4eae-a575-7c6d62683ac4 #
vertex $-1 -1 $-1 $268 $323 #
straight-curve $-1 -1 $-1 95.3780704190651818 -6.939505318588032878 0 -8.66025403784433756 5.000000000000085265 0 F 0 F 2.237604307033966844 #
edge $324 -1 $-1 $232 0 $286 1.200000000000000178 $228 $325 forward @7 tangent #
face $326 -1 $-1 $235 $230 $5 $-1 $327 forward single #
point $-1 -1 $-1 95.3780704190651818 -6.939505318588032878 0 #
DXID-attrib $-1 -1 $-1 $-1 $234 @10 ASM ENTITY @36 f6360487-9458-44a5-abaa-d5f216aafdc6 #
straight-curve $-1 -1 $-1 124.6601027218204649 -36.22153762134303179 0 0 0 10 I I #
DXID-attrib $-1 -1 $-1 $-1 $235 @10 ASM ENTITY @36 09bd6b6f-d444-4db1-bd25-a1a6c7421850 #
plane-surface $-1 -1 $-1 161.442135024575748 -99.92988637535489715 0 0.8660254037844394848 0.4999999999999985012 0 -4.999999999999984901 8.660254037844394404 0 forward_v I I I I #
coedge $-1 -1 $-1 $328 $237 $329 $330 forward $88 $-1 #
coedge $-1 -1 $-1 $270 $269 $237 $284 reversed $271 $-1 #
edge $331 -1 $-1 $286 0 $332 2.237604307033966844 $283 $333 forward @7 unknown #
DXID-attrib $-1 -1 $-1 $-1 $239 @10 ASM ENTITY @36 903ad30b-fff5-4d19-8ba0-8cba479c622a #
vertex $-1 -1 $-1 $284 $334 #
ellipse-curve $-1 -1 $-1 55.3780704190651818 -76.22153762134303179 12.00000000000000178 0 0 1 69.28203230275514102 39.99999999999992184 0 1 I I #
point $-1 -1 $-1 124.6601027218204649 -36.22153762134303179 12.00000000000000178 #
DXID-attrib $-1 -1 $-1 $-1 $244 @10 ASM ENTITY @36 47830d35-3138-46e2-ac93-bf8a128ee839 #
face $335 -1 $-1 $336 $337 $5 $-1 $338 forward single #
loop $-1 -1 $-1 $-1 $339 $244 #
cone-surface $-1 -1 $-1 -55.37837305111310116 -76.22153762134303179 0 0 0 1 -40.0000000000002558 69.28203230275495628 0 1 I I 0 1 80 forward I I I I #
coedge $-1 -1 $-1 $340 $341 $342 $343 forward $245 $-1 #
coedge $-1 -1 $-1 $344 $247 $249 $299 forward $201 $-1 #
coedge $-1 -1 $-1 $247 $344 $340 $345 reversed $201 $-1 #
coedge $-1 -1 $-1 $342 $250 $247 $297 reversed $75 $-1 #
edge $346 -1 $-1 $347 -5.613287612504794876e-15 $301 3.141592653589787787 $247 $348 forward @7 unknown #
coedge $-1 -1 $-1 $249 $248 $349 $350 reversed $159 $-1 #
edge $351 -1 $-1 $301 0 $352 1.200000000000000178 $294 $353 forward @7 tangent #
DXID-attrib $-1 -1 $-1 $-1 $251 @10 ASM ENTITY @36 700b9982-0292-4560-b83e-fb2df46ef240 #
vertex $-1 -1 $-1 $251 $354 #
straight-curve $-1 -1 $-1 -118.1411674674015444 -124.9298863753548972 0 5.000000000000012434 8.660254037844378416 0 F -2.461392238570959792e-14 F 6.016660498395419943 #
coedge $-1 -1 $-1 $257 $349 $252 $304 forward $88 $-1 #
edge $355 -1 $-1 $306 2.617993877991493967 $260 3.141592653589793116 $252 $356 forward @7 unknown #
DXID-attrib $-1 -1 $-1 $-1 $253 @10 ASM ENTITY @36 a39f3ba0-92f0-47fb-b3ec-72115d8874de #
vertex $-1 -1 $-1 $304 $357 #
straight-curve $-1 -1 $-1 -88.0578649754247067 -72.82407799978699359 0 0 0 10 I I #
point $-1 -1 $-1 -88.0578649754247067 -72.82407799978699359 0 #
DXID-attrib $-1 -1 $-1 $-1 $258 @10 ASM ENTITY @36 1065cd4c-7525-4631-8582-7cd61b9b1bc5 #
straight-curve $-1 -1 $-1 -58.77583267266942357 -43.54204569703199468 12.00000000000000178 8.660254037844438812 4.999999999999911182 0 I I #
point $-1 -1 $-1 -58.77583267266942357 -43.54204569703199468 12.00000000000000178 #
coedge $-1 -1 $-1 $266 $358 $359 $360 reversed $75 $-1 #
coedge $-1 -1 $-1 $361 $362 $266 $314 forward $363 $-1 #
edge $364 -1 $-1 $319 0 $365 9.381197846482990599 $313 $366 forward @7 unknown #
coedge $-1 -1 $-1 $329 $267 $362 $367 forward $317 $-1 #
coedge $-1 -1 $-1 $267 $329 $269 $321 reversed $317 $-1 #
loop $-1 -1 $-1 $-1 $267 $368 #
DXID-attrib $-1 -1 $-1 $-1 $268 @10 ASM ENTITY @36 9316387c-000d-4219-90e8-5367ecbf4b20 #
vertex $-1 -1 $-1 $314 $369 #
ellipse-curve $-1 -1 $-1 115.9998486839759835 73.53054851933706004 0 -0 -0 -1 80 0 0 1 F 2.094395102393191266 F 3.141592653589793116 #
edge $370 -1 $-1 $273 0 $332 1.200000000000000178 $269 $371 forward @7 tangent #
face $372 -1 $-1 $276 $271 $5 $-1 $373 forward single #
point $-1 -1 $-1 75.99984868397626769 4.248516216581776916 0 #
DXID-attrib $-1 -1 $-1 $-1 $275 @10 ASM ENTITY @36 b09ebe43-9bd2-4561-825d-c5254ed9271e #
straight-curve $-1 -1 $-1 95.3780704190651818 -6.939505318588032878 0 0 0 10 I I #
DXID-attrib $-1 -1 $-1 $-1 $276 @10 ASM ENTITY @36 dfee59ce-826d-4388-8c6a-d602094a7992 #
cone-surface $-1 -1 $-1 55.3780704190651818 -76.22153762134303179 0 0 0 1 69.28203230275514102 39.99999999999992184 0 1 I I 0 1 80 forward I I I I #
coedge $-1 -1 $-1 $374 $282 $375 $376 forward $88 $-1 #
coedge $-1 -1 $-1 $316 $315 $282 $330 reversed $317 $-1 #
edge $377 -1 $-1 $332 2.094395102393191266 $378 3.141592653589793116 $329 $379 forward @7 unknown #
DXID-attrib $-1 -1 $-1 $-1 $284 @10 ASM ENTITY @36 15493105-a5e4-4e0d-965e-db9a8a2646ac #
vertex $-1 -1 $-1 $330 $380 #
straight-curve $-1 -1 $-1 95.3780704190651818 -6.939505318588032878 12.00000000000000178 -8.66025403784433756 5.000000000000085265 0 I I #
point $-1 -1 $-1 95.3780704190651818 -6.939505318588032878 12.00000000000000178 #
DXID-attrib $-1 -1 $-1 $-1 $290 @10 ASM ENTITY @36 178f3203-d1c5-4631-93e3-67353a8f0301 #
face $381 -1 $-1 $382 $383 $5 $-1 $384 forward single #
loop $-1 -1 $-1 $-1 $385 $290 #
plane-surface $-1 -1 $-1 -76.00015131602418705 4.248516216582061134 0 -0.499999999999997502 0.8660254037844401509 0 -8.660254037844401509 -4.999999999999975131 0 forward_v I I I I #
coedge $-1 -1 $-1 $386 $387 $388 $389 forward $291 $-1 #
coedge $-1 -1 $-1 $390 $293 $295 $345 forward $245 $-1 #
coedge $-1 -1 $-1 $293 $390 $386 $391 reversed $245 $-1 #
coedge $-1 -1 $-1 $388 $296 $293 $343 reversed $75 $-1 #
edge $392 -1 $-1 $393 0 $347 7.356406460551021986 $293 $394 forward @7 unknown #
coedge $-1 -1 $-1 $295 $294 $395 $396 reversed $201 $-1 #
edge $397 -1 $-1 $347 0 $398 1.200000000000000178 $340 $399 forward @7 tangent #
DXID-attrib $-1 -1 $-1 $-1 $297 @10 ASM ENTITY @36 3f54a6b3-2650-4273-8097-4b1d179a3edd #
vertex $-1 -1 $-1 $297 $400 #
ellipse-curve $-1 -1 $-1 -139.7918025620124638 -112.4298863753548972 0 0 0 1 -21.65063509461086966 12.50000000000017586 0 1 F -5.613287612504794876e-15 F 3.141592653589787787 #
coedge $-1 -1 $-1 $303 $395 $298 $350 forward $88 $-1 #
edge $401 -1 $-1 $352 -2.461392238570959792e-14 $306 6.016660498395419943 $298 $402 forward @7 unknown #
DXID-attrib $-1 -1 $-1 $-1 $299 @10 ASM ENTITY @36 ac0c2c45-3893-4fab-94a3-58dfd8bfd835 #
vertex $-1 -1 $-1 $350 $403 #
straight-curve $-1 -1 $-1 -118.1411674674015444 -124.9298863753551814 0 0 0 10 I I #
point $-1 -1 $-1 -118.1411674674015444 -124.9298863753551814 0 #
DXID-attrib $-1 -1 $-1 $-1 $304 @10 ASM ENTITY @36 0ac069f4-41a2-413d-a8b2-b95dcaaf54da #
ellipse-curve $-1 -1 $-1 -18.77583267266942357 -112.8240779997869936 12.00000000000000178 0 0 -1 40.00000000000004263 -69.28203230275508417 0 1 I I #
point $-1 -1 $-1 -88.0578649754247067 -72.82407799978699359 12.00000000000000178 #
coedge $-1 -1 $-1 $312 $404 $405 $406 reversed $75 $-1 #
coedge $-1 -1 $-1 $407 $408 $312 $360 forward $409 $-1 #
edge $410 -1 $-1 $365 -0 $411 7.199999999999988631 $359 $412 forward @7 unknown #
coedge $-1 -1 $-1 $375 $313 $408 $413 forward $363 $-1 #
coedge $-1 -1 $-1 $313 $375 $315 $367 reversed $363 $-1 #
loop $-1 -1 $-1 $-1 $313 $414 #
DXID-attrib $-1 -1 $-1 $-1 $314 @10 ASM ENTITY @36 b3701c75-2e33-4c47-9ebe-9f8ba72645c8 #
vertex $-1 -1 $-1 $360 $415 #
straight-curve $-1 -1 $-1 35.99984868397598348 73.53054851933706004 0 0 10 0 F 0 F 9.381197846482990599 #
edge $416 -1 $-1 $319 0 $378 1.200000000000000178 $315 $417 forward @7 tangent #
face $418 -1 $-1 $322 $317 $5 $-1 $419 forward single #
point $-1 -1 $-1 35.99984868397598348 73.53054851933706004 0 #
DXID-attrib $-1 -1 $-1 $-1 $321 @10 ASM ENTITY @36 2eecdcab-1b21-4f53-9727-2dfe633071f4 #
straight-curve $-1 -1 $-1 75.99984868397626769 4.248516216581776916 0 0 0 10 I I #
DXID-attrib $-1 -1 $-1 $-1 $322 @10 ASM ENTITY @36 90a73f22-2934-4c12-9ea3-0ce74790aa94 #
plane-surface $-1 -1 $-1 95.3780704190651818 -6.939505318588032878 0 0.5000000000000085487 0.8660254037844338226 0 -8.66025403784433756 5.000000000000085265 0 forward_v I I I I #
coedge $-1 -1 $-1 $420 $328 $421 $422 forward $88 $-1 #
coedge $-1 -1 $-1 $362 $361 $328 $376 reversed $363 $-1 #
edge $423 -1 $-1 $378 0 $424 9.381197846482990599 $375 $425 forward @7 unknown #
DXID-attrib $-1 -1 $-1 $-1 $330 @10 ASM ENTITY @36 b942a7c5-fca1-4643-999e-18fb6e538d42 #
vertex $-1 -1 $-1 $376 $426 #
ellipse-curve $-1 -1 $-1 115.9998486839759835 73.53054851933706004 12.00000000000000178 -0 -0 -1 80 0 0 1 I I #
point $-1 -1 $-1 75.99984868397626769 4.248516216581776916 12.00000000000000178 #
DXID-attrib $-1 -1 $-1 $-1 $336 @10 ASM ENTITY @36 654c26ef-5cb2-4efd-b4c0-aae969941820 #
face $427 -1 $-1 $428 $429 $5 $-1 $430 forward single #
loop $-1 -1 $-1 $-1 $431 $336 #
cone-surface $-1 -1 $-1 -116.0001513160240449 73.53054851933706004 0 0 0 1 -39.99999999999993605 69.28203230275514102 0 1 I I 0 -1 80.00000000000001421 forward I I I I #
coedge $-1 -1 $-1 $432 $433 $434 $435 forward $337 $-1 #
coedge $-1 -1 $-1 $436 $339 $341 $391 forward $291 $-1 #
coedge $-1 -1 $-1 $339 $436 $432 $437 reversed $291 $-1 #
coedge $-1 -1 $-1 $434 $342 $339 $389 reversed $75 $-1 #
edge $438 -1 $-1 $439 0 $393 0.523598775598295485 $339 $440 forward @7 unknown #
coedge $-1 -1 $-1 $341 $340 $441 $442 reversed $245 $-1 #
edge $443 -1 $-1 $393 0 $444 1.200000000000000178 $386 $445 forward @7 tangent #
DXID-attrib $-1 -1 $-1 $-1 $343 @10 ASM ENTITY @36 3821dc28-2242-4feb-a68f-8344e1c97fb3 #
vertex $-1 -1 $-1 $343 $446 #
straight-curve $-1 -1 $-1 -124.6604053538683843 -36.22153762134303179 0 -4.999999999999999112 -8.660254037844387298 0 F 0 F 7.356406460551021986 #
coedge $-1 -1 $-1 $349 $441 $344 $396 forward $88 $-1 #
edge $447 -1 $-1 $398 -5.613287612504794876e-15 $352 3.141592653589787787 $344 $448 forward @7 unknown #
DXID-attrib $-1 -1 $-1 $-1 $345 @10 ASM ENTITY @36 3a0f9a39-9c40-412b-a9e9-a6debcf266bd #
vertex $-1 -1 $-1 $396 $449 #
straight-curve $-1 -1 $-1 -161.4424376566233832 -99.92988637535461294 0 0 0 10 I I #
point $-1 -1 $-1 -161.4424376566233832 -99.92988637535461294 0 #
DXID-attrib $-1 -1 $-1 $-1 $350 @10 ASM ENTITY @36 e98b9933-b1f1-41ff-95e5-4c7b708a907c #
straight-curve $-1 -1 $-1 -118.1411674674015444 -124.9298863753548972 12.00000000000000178 5.000000000000012434 8.660254037844378416 0 I I #
point $-1 -1 $-1 -118.1411674674015444 -124.9298863753551814 12.00000000000000178 #
coedge $-1 -1 $-1 $358 $434 $431 $450 reversed $75 $-1 #
coedge $-1 -1 $-1 $451 $452 $358 $406 forward $429 $-1 #
edge $453 -1 $-1 $411 0 $454 9.381197846482990599 $405 $455 forward @7 unknown #
coedge $-1 -1 $-1 $421 $359 $452 $456 forward $409 $-1 #
coedge $-1 -1 $-1 $359 $421 $361 $413 reversed $409 $-1 #
loop $-1 -1 $-1 $-1 $359 $428 #
DXID-attrib $-1 -1 $-1 $-1 $360 @10 ASM ENTITY @36 2bee5896-af07-4467-a7df-363a18c64dd0 #
vertex $-1 -1 $-1 $406 $457 #
straight-curve $-1 -1 $-1 35.99984868397598348 167.342526984166966 0 -10 -0 -0 F -0 F 7.199999999999988631 #
edge $458 -1 $-1 $365 0 $424 1.200000000000000178 $361 $459 forward @7 unknown #
face $460 -1 $-1 $368 $363 $5 $-1 $461 forward single #
point $-1 -1 $-1 35.99984868397598348 167.342526984166966 0 #
DXID-attrib $-1 -1 $-1 $-1 $367 @10 ASM ENTITY @36 c8f20246-f965-4f27-b125-2630fd9eb0c3 #
straight-curve $-1 -1 $-1 35.99984868397598348 73.53054851933706004 0 0 0 10 I I #
DXID-attrib $-1 -1 $-1 $-1 $368 @10 ASM ENTITY @36 be791e30-5186-49e0-a433-e058199c8bcd #
cone-surface $-1 -1 $-1 115.9998486839759835 73.53054851933706004 0 0 0 1 80 0 0 1 I I 0 -1 80 forward I I I I #
coedge $-1 -1 $-1 $462 $374 $463 $464 forward $88 $-1 #
coedge $-1 -1 $-1 $408 $407 $374 $422 reversed $409 $-1 #
edge $465 -1 $-1 $424 -0 $466 7.199999999999988631 $421 $467 forward @7 unknown #
DXID-attrib $-1 -1 $-1 $-1 $376 @10 ASM ENTITY @36 d34f7143-4399-4dbf-9157-7d9f8a4807b9 #
vertex $-1 -1 $-1 $422 $468 #
straight-curve $-1 -1 $-1 35.99984868397598348 73.53054851933706004 12.00000000000000178 0 10 0 I I #
point $-1 -1 $-1 35.99984868397598348 73.53054851933706004 12.00000000000000178 #
DXID-attrib $-1 -1 $-1 $-1 $382 @10 ASM ENTITY @36 d98fcaee-cd08-42b5-b05b-1eeedf736d08 #
face $469 -1 $-1 $414 $409 $5 $-1 $470 forward single #
loop $-1 -1 $-1 $-1 $405 $382 #
plane-surface $-1 -1 $-1 -36.00015131602390284 167.342526984166966 0 -1 0 0 0 -10 0 forward_v I I I I #
coedge $-1 -1 $-1 $471 $472 $404 $450 forward $383 $-1 #
coedge $-1 -1 $-1 $473 $385 $387 $437 forward $337 $-1 #
coedge $-1 -1 $-1 $385 $473 $471 $474 reversed $337 $-1 #
coedge $-1 -1 $-1 $404 $388 $385 $435 reversed $75 $-1 #
edge $475 -1 $-1 $476 2.461392238570966103e-14 $439 2.237604307034030349 $385 $477 forward @7 unknown #
coedge $-1 -1 $-1 $387 $386 $478 $479 reversed $291 $-1 #
edge $480 -1 $-1 $439 0 $481 1.200000000000000178 $432 $482 forward @7 tangent #
DXID-attrib $-1 -1 $-1 $-1 $389 @10 ASM ENTITY @36 e175c74a-1531-48a8-9eac-87e0931ba811 #
vertex $-1 -1 $-1 $389 $483 #
ellipse-curve $-1 -1 $-1 -55.37837305111310116 -76.22153762134303179 0 0 0 1 -40.0000000000002558 69.28203230275495628 0 1 F 0 F 0.523598775598295485 #
coedge $-1 -1 $-1 $395 $478 $390 $442 forward $88 $-1 #
edge $484 -1 $-1 $444 0 $398 7.356406460551021986 $390 $485 forward @7 unknown #
DXID-attrib $-1 -1 $-1 $-1 $391 @10 ASM ENTITY @36 af82a0a3-4f27-4694-ac74-26071f1f9d43 #
vertex $-1 -1 $-1 $442 $486 #
straight-curve $-1 -1 $-1 -124.6604053538683843 -36.22153762134303179 0 0 0 10 I I #
point $-1 -1 $-1 -124.6604053538683843 -36.22153762134303179 0 #
DXID-attrib $-1 -1 $-1 $-1 $396 @10 ASM ENTITY @36 74bb8a5a-0105-4345-975d-bcbea45c9a8f #
ellipse-curve $-1 -1 $-1 -139.7918025620124638 -112.4298863753548972 12.00000000000000178 0 0 1 -21.65063509461086966 12.50000000000017586 0 1 I I #
point $-1 -1 $-1 -161.4424376566233832 -99.92988637535461294 12.00000000000000178 #
edge $487 -1 $-1 $454 2.094395102393194374 $476 3.141592653589793116 $431 $488 forward @7 unknown #
coedge $-1 -1 $-1 $463 $405 $472 $489 forward $429 $-1 #
coedge $-1 -1 $-1 $405 $463 $407 $456 reversed $429 $-1 #
DXID-attrib $-1 -1 $-1 $-1 $406 @10 ASM ENTITY @36 7803ccc2-5410-48ce-92a0-26fa28658c5d #
vertex $-1 -1 $-1 $450 $490 #
straight-curve $-1 -1 $-1 -36.00015131602390284 167.342526984166966 0 0 -10 0 F 0 F 9.381197846482990599 #
edge $491 -1 $-1 $411 0 $466 1.200000000000000178 $407 $492 forward @7 unknown #
point $-1 -1 $-1 -36.00015131602390284 167.342526984166966 0 #
DXID-attrib $-1 -1 $-1 $-1 $413 @10 ASM ENTITY @36 3ceecafa-4bda-47d5-88ca-c1b1cd509d3e #
straight-curve $-1 -1 $-1 35.99984868397598348 167.342526984166966 0 0 0 10 I I #
DXID-attrib $-1 -1 $-1 $-1 $414 @10 ASM ENTITY @36 e0740e9f-47b0-42ca-aa86-9e63315f55dd #
plane-surface $-1 -1 $-1 35.99984868397598348 73.53054851933706004 0 1 0 0 0 10 0 forward_v I I I I #
coedge $-1 -1 $-1 $493 $420 $494 $495 forward $88 $-1 #
coedge $-1 -1 $-1 $452 $451 $420 $464 reversed $429 $-1 #
edge $496 -1 $-1 $466 0 $497 9.381197846482990599 $463 $498 forward @7 unknown #
DXID-attrib $-1 -1 $-1 $-1 $422 @10 ASM ENTITY @36 42d02e9f-e59f-4ae8-a593-bbd24ad46eca #
vertex $-1 -1 $-1 $464 $499 #
straight-curve $-1 -1 $-1 35.99984868397598348 167.342526984166966 12.00000000000000178 -10 -0 -0 I I #
point $-1 -1 $-1 35.99984868397598348 167.342526984166966 12.00000000000000178 #
DXID-attrib $-1 -1 $-1 $-1 $428 @10 ASM ENTITY @36 a61dab28-dbe3-4982-a5d1-9444bb0ba548 #
plane-surface $-1 -1 $-1 35.99984868397598348 167.342526984166966 0 0 1 0 -10 -0 -0 forward_v I I I I #
coedge $-1 -1 $-1 $494 $431 $433 $474 forward $383 $-1 #
coedge $-1 -1 $-1 $431 $494 $451 $489 reversed $383 $-1 #
coedge $-1 -1 $-1 $433 $432 $493 $500 reversed $337 $-1 #
edge $501 -1 $-1 $476 0 $502 1.200000000000000178 $471 $503 forward @7 tangent #
DXID-attrib $-1 -1 $-1 $-1 $435 @10 ASM ENTITY @36 b1c63fa9-4c2c-4611-a4a3-fe9328f2ffad #
vertex $-1 -1 $-1 $435 $504 #
straight-curve $-1 -1 $-1 -76.00015131602390284 4.248516216582061134 0 -8.660254037844401509 -4.999999999999975131 0 F 2.461392238570966103e-14 F 2.237604307034030349 #
coedge $-1 -1 $-1 $441 $493 $436 $479 forward $88 $-1 #
edge $505 -1 $-1 $481 0 $444 0.523598775598295485 $436 $506 forward @7 unknown #
DXID-attrib $-1 -1 $-1 $-1 $437 @10 ASM ENTITY @36 82e8e0d3-453b-417a-90f0-39de91c04a0f #
vertex $-1 -1 $-1 $479 $507 #
straight-curve $-1 -1 $-1 -95.37837305111338537 -6.939505318588032878 0 0 0 10 I I #
point $-1 -1 $-1 -95.37837305111338537 -6.939505318588032878 0 #
DXID-attrib $-1 -1 $-1 $-1 $442 @10 ASM ENTITY @36 c3cd2907-abb1-4462-acfc-8d7239b1c6c6 #
straight-curve $-1 -1 $-1 -124.6604053538683843 -36.22153762134303179 12.00000000000000178 -4.999999999999999112 -8.660254037844387298 0 I I #
point $-1 -1 $-1 -124.6604053538683843 -36.22153762134303179 12.00000000000000178 #
DXID-attrib $-1 -1 $-1 $-1 $450 @10 ASM ENTITY @36 5ba98a6e-154c-4190-b6ae-d509927a1bd4 #
ellipse-curve $-1 -1 $-1 -116.0001513160240449 73.53054851933706004 0 0 0 -1 -39.99999999999993605 69.28203230275514102 0 1 F 2.094395102393194374 F 3.141592653589793116 #
edge $508 -1 $-1 $454 0 $497 1.200000000000000178 $451 $509 forward @7 tangent #
point $-1 -1 $-1 -36.00015131602390284 73.53054851933706004 0 #
DXID-attrib $-1 -1 $-1 $-1 $456 @10 ASM ENTITY @36 2db98511-e380-4495-99ce-90946d60cc91 #
straight-curve $-1 -1 $-1 -36.00015131602390284 167.342526984166966 0 0 0 10 I I #
coedge $-1 -1 $-1 $478 $462 $473 $500 forward $88 $-1 #
coedge $-1 -1 $-1 $472 $471 $462 $495 reversed $383 $-1 #
edge $510 -1 $-1 $497 2.094395102393194374 $502 3.141592653589793116 $494 $511 forward @7 unknown #
DXID-attrib $-1 -1 $-1 $-1 $464 @10 ASM ENTITY @36 466feb05-0109-4144-a571-247e5c9dc7d7 #
vertex $-1 -1 $-1 $495 $512 #
straight-curve $-1 -1 $-1 -36.00015131602390284 167.342526984166966 12.00000000000000178 0 -10 0 I I #
point $-1 -1 $-1 -36.00015131602390284 167.342526984166966 12.00000000000000178 #
edge $513 -1 $-1 $502 2.461392238570966103e-14 $481 2.237604307034030349 $473 $514 forward @7 unknown #
DXID-attrib $-1 -1 $-1 $-1 $474 @10 ASM ENTITY @36 890a7635-20df-478c-8589-cdd71fda4135 #
vertex $-1 -1 $-1 $500 $515 #
straight-curve $-1 -1 $-1 -76.00015131602418705 4.248516216582061134 0 0 0 10 I I #
point $-1 -1 $-1 -76.00015131602418705 4.248516216582061134 0 #
DXID-attrib $-1 -1 $-1 $-1 $479 @10 ASM ENTITY @36 923fee42-8539-40be-9488-0555b33052b9 #
ellipse-curve $-1 -1 $-1 -55.37837305111310116 -76.22153762134303179 12.00000000000000178 0 0 1 -40.0000000000002558 69.28203230275495628 0 1 I I #
point $-1 -1 $-1 -95.37837305111338537 -6.939505318588032878 12.00000000000000178 #
DXID-attrib $-1 -1 $-1 $-1 $489 @10 ASM ENTITY @36 5bcb8d3a-d18a-41af-861a-0a1a71a2348c #
straight-curve $-1 -1 $-1 -36.00015131602390284 73.53054851933706004 0 0 0 10 I I #
DXID-attrib $-1 -1 $-1 $-1 $495 @10 ASM ENTITY @36 642e6e2b-e687-4b06-b7a8-4c5b85b99330 #
ellipse-curve $-1 -1 $-1 -116.0001513160240449 73.53054851933706004 12.00000000000000178 0 0 -1 -39.99999999999993605 69.28203230275514102 0 1 I I #
point $-1 -1 $-1 -36.00015131602390284 73.53054851933706004 12.00000000000000178 #
DXID-attrib $-1 -1 $-1 $-1 $500 @10 ASM ENTITY @36 c72b48f1-cb3c-43c6-984b-547ae091f79f #
straight-curve $-1 -1 $-1 -76.00015131602390284 4.248516216582061134 12.00000000000000178 -8.660254037844401509 -4.999999999999975131 0 I I #
point $-1 -1 $-1 -76.00015131602418705 4.248516216582061134 12.00000000000000178 #
End-of-ACIS-data 