700 0 3 0           
30 Autodesk Translation Framework 20 ASM 229.3.0.65535 NT 24 Tue May 30 11:16:03 2023 
1 9.999999999999999547e-07 1.000000000000000036e-10 
body $3 -1 $-1 $4 $-1 $5 #
body $-1 -1 $-1 $6 $-1 $7 #
body $-1 -1 $-1 $8 $-1 $9 #
rgb_color-st-attrib $-1 -1 $10 $-1 $0 0.7490196078431372584 0.7490196078431372584 0.7490196078431372584 #
lump $-1 -1 $-1 $-1 $11 $0 #
transform $-1 -1 1 0 0 0 1 0 0 0 1 0 0 0 1 no_rotate no_reflect no_shear #
lump $-1 -1 $-1 $-1 $12 $1 #
transform $-1 -1 1 0 0 0 1 0 0 0 1 0 0 0 1 no_rotate no_reflect no_shear #
lump $-1 -1 $-1 $-1 $13 $2 #
transform $-1 -1 1 0 0 0 1 0 0 0 1 0 0 0 1 no_rotate no_reflect no_shear #
DXID-attrib $-1 -1 $-1 $3 $0 @10 ASM ENTITY @97 BORDE_3.IPT|:|2189D14BDF5C3D43FAB06F89DAAA766E08B9B208|:|DA4B9237BACCCDF19C0760CAB7AEC4A8359010B0 #
shell $-1 -1 $-1 $-1 $-1 $14 $-1 $4 #
shell $-1 -1 $-1 $-1 $-1 $-1 $15 $6 #
shell $-1 -1 $-1 $-1 $-1 $-1 $16 $8 #
face $17 -1 $-1 $18 $19 $11 $-1 $20 forward single #
wire $-1 -1 $-1 $-1 $21 $12 $-1 out #
wire $-1 -1 $-1 $-1 $22 $13 $-1 out #
DXID-attrib $-1 -1 $-1 $-1 $14 @10 ASM ENTITY @36 7b901b5d-27e7-4241-844f-739cf6f34499 #
face $23 -1 $-1 $24 $25 $11 $-1 $26 forward single #
loop $-1 -1 $-1 $27 $28 $14 #
cone-surface $-1 -1 $-1 100.169535737332609 -6.009650263959660066 0 0 0 1 -3.000000000000002665 0 0 1 I I 0 -1 3.000000000000002665 forward I I I I #
coedge $-1 -1 $-1 $21 $21 $-1 $29 forward $15 $-1 #
coedge $-1 -1 $-1 $22 $22 $-1 $30 forward $16 $-1 #
DXID-attrib $-1 -1 $-1 $-1 $18 @10 ASM ENTITY @36 212d8c26-f9a1-4e9b-bd74-afb3b0ca80de #
face $31 -1 $-1 $32 $33 $11 $-1 $34 forward single #
loop $-1 -1 $-1 $35 $36 $18 #
cone-surface $-1 -1 $-1 -19.43046426266739601 -6.009650263959660066 0 0 0 1 -3.000000000000002665 0 0 1 I I 0 -1 3.000000000000002665 forward I I I I #
loop $-1 -1 $-1 $-1 $37 $14 #
coedge $-1 -1 $-1 $28 $28 $38 $39 reversed $19 $-1 #
edge $-1 -1 $-1 $40 0 $41 1 $21 $42 forward @7 unknown #
edge $-1 -1 $-1 $43 0 $44 1 $22 $45 forward @7 unknown #
DXID-attrib $-1 -1 $-1 $-1 $24 @10 ASM ENTITY @36 585f5939-544e-4b5a-a228-1138f7040faf #
face $46 -1 $-1 $47 $48 $11 $-1 $49 forward single #
loop $-1 -1 $-1 $50 $51 $24 #
cone-surface $-1 -1 $-1 60.16953573733258054 4.990349736039997985 0 0 0 1 -2.999999999999999112 0 0 1 I I 0 -1 2.999999999999999112 forward I I I I #
loop $-1 -1 $-1 $-1 $52 $18 #
coedge $-1 -1 $-1 $36 $36 $53 $54 reversed $25 $-1 #
coedge $-1 -1 $-1 $37 $37 $55 $56 forward $27 $-1 #
coedge $-1 -1 $-1 $38 $38 $28 $39 forward $57 $-1 #
edge $58 -1 $-1 $59 -3.141592653589793116 $59 3.141592653589793116 $28 $60 forward @7 unknown #
vertex $-1 -1 $-1 $29 $61 #
vertex $-1 -1 $-1 $29 $62 #
straight-curve $-1 -1 $-1 137.6845357373325669 22.4953497360402821 12.00000000000000178 -275.0000000000000568 0 0 F 0 F 1 #
vertex $-1 -1 $-1 $30 $63 #
vertex $-1 -1 $-1 $30 $64 #
straight-curve $-1 -1 $-1 -137.3154642626674615 22.4953497360402821 12.00000000000000178 3.552713678800500929e-14 -45 0 F 0 F 1 #
DXID-attrib $-1 -1 $-1 $-1 $32 @10 ASM ENTITY @36 b2eabbcc-8187-4ad7-a812-e27354632e8c #
face $65 -1 $-1 $66 $67 $11 $-1 $68 forward single #
loop $-1 -1 $-1 $69 $70 $32 #
cone-surface $-1 -1 $-1 -59.43046426266742799 4.990349736039997985 0 0 0 1 -3.000000000000002665 0 0 1 I I 0 -1 3.000000000000002665 forward I I I I #
loop $-1 -1 $-1 $-1 $71 $24 #
coedge $-1 -1 $-1 $51 $51 $72 $73 reversed $33 $-1 #
coedge $-1 -1 $-1 $52 $52 $74 $75 forward $35 $-1 #
coedge $-1 -1 $-1 $53 $53 $36 $54 forward $76 $-1 #
edge $77 -1 $-1 $78 -3.141592653589793116 $78 3.141592653589793116 $36 $79 forward @7 unknown #
coedge $-1 -1 $-1 $55 $55 $37 $56 reversed $80 $-1 #
edge $81 -1 $-1 $82 -3.141592653589793116 $82 3.141592653589793116 $37 $83 forward @7 unknown #
loop $-1 -1 $-1 $-1 $38 $84 #
DXID-attrib $-1 -1 $-1 $-1 $39 @10 ASM ENTITY @36 3aace08d-9b7c-4b21-92d5-f8836f163428 #
vertex $-1 -1 $-1 $39 $85 #
ellipse-curve $-1 -1 $-1 100.169535737332609 -6.009650263959660066 12.00000000000000178 0 0 -1 -3.000000000000002665 -0 -0 1 I I #
point $-1 -1 $-1 137.6845357373325669 22.4953497360402821 12.00000000000000178 #
point $-1 -1 $-1 -137.3154642626674899 22.4953497360402821 12.00000000000000178 #
point $-1 -1 $-1 -137.3154642626674615 22.4953497360402821 12.00000000000000178 #
point $-1 -1 $-1 -137.3154642626674331 -22.5046502639597179 12.00000000000000178 #
DXID-attrib $-1 -1 $-1 $-1 $47 @10 ASM ENTITY @36 d680cca7-078c-43ff-ad3a-9e914d5e0bba #
face $86 -1 $-1 $87 $88 $11 $-1 $89 forward single #
loop $-1 -1 $-1 $-1 $90 $47 #
plane-surface $-1 -1 $-1 -137.1304642626674308 -22.50965026395972046 0 0 -1 0 10 0 0 forward_v I I I I #
loop $-1 -1 $-1 $-1 $91 $32 #
coedge $-1 -1 $-1 $70 $70 $92 $93 reversed $48 $-1 #
coedge $-1 -1 $-1 $71 $71 $94 $95 forward $50 $-1 #
coedge $-1 -1 $-1 $72 $72 $51 $73 forward $96 $-1 #
edge $97 -1 $-1 $98 -3.141592653589793116 $98 3.141592653589793116 $51 $99 forward @7 unknown #
coedge $-1 -1 $-1 $74 $74 $52 $75 reversed $100 $-1 #
edge $101 -1 $-1 $102 -3.141592653589793116 $102 3.141592653589793116 $52 $103 forward @7 unknown #
loop $-1 -1 $-1 $57 $53 $84 #
DXID-attrib $-1 -1 $-1 $-1 $54 @10 ASM ENTITY @36 983769ac-9457-48a3-aa66-933a345dc986 #
vertex $-1 -1 $-1 $54 $104 #
ellipse-curve $-1 -1 $-1 -19.43046426266739601 -6.009650263959660066 12.00000000000000178 0 0 -1 -3.000000000000002665 -0 -0 1 I I #
loop $-1 -1 $-1 $-1 $55 $105 #
DXID-attrib $-1 -1 $-1 $-1 $56 @10 ASM ENTITY @36 455f3462-891a-4e10-9d6b-92a6ba468c23 #
vertex $-1 -1 $-1 $56 $106 #
ellipse-curve $-1 -1 $-1 100.169535737332609 -6.009650263959660066 0 0 0 -1 -3.000000000000002665 -0 -0 1 I I #
face $107 -1 $-1 $105 $108 $11 $-1 $109 forward single #
point $-1 -1 $-1 103.169535737332609 -6.009650263959660066 12.00000000000000178 #
DXID-attrib $-1 -1 $-1 $-1 $66 @10 ASM ENTITY @36 25e1a9de-5fdd-4c10-8847-6f6be9e7b961 #
face $110 -1 $-1 $111 $112 $11 $-1 $113 forward single #
loop $-1 -1 $-1 $-1 $114 $66 #
plane-surface $-1 -1 $-1 -137.1304642626674593 22.49034973604027954 0 -1 0 0 0 -10 0 forward_v I I I I #
coedge $-1 -1 $-1 $115 $116 $117 $118 forward $67 $-1 #
coedge $-1 -1 $-1 $91 $91 $119 $120 forward $69 $-1 #
coedge $-1 -1 $-1 $92 $92 $70 $93 forward $121 $-1 #
edge $122 -1 $-1 $123 -3.141592653589793116 $123 3.141592653589793116 $70 $124 forward @7 unknown #
coedge $-1 -1 $-1 $94 $94 $71 $95 reversed $125 $-1 #
edge $126 -1 $-1 $127 -3.141592653589793116 $127 3.141592653589793116 $71 $128 forward @7 unknown #
loop $-1 -1 $-1 $76 $72 $84 #
DXID-attrib $-1 -1 $-1 $-1 $73 @10 ASM ENTITY @36 625fdcb3-e276-4310-9634-9c7f228b0471 #
vertex $-1 -1 $-1 $73 $129 #
ellipse-curve $-1 -1 $-1 60.16953573733258054 4.990349736039997985 12.00000000000000178 0 0 -1 -2.999999999999999112 -0 -0 1 I I #
loop $-1 -1 $-1 $80 $74 $105 #
DXID-attrib $-1 -1 $-1 $-1 $75 @10 ASM ENTITY @36 34295ef7-a241-4e1d-b611-5026a6bca231 #
vertex $-1 -1 $-1 $75 $130 #
ellipse-curve $-1 -1 $-1 -19.43046426266739601 -6.009650263959660066 0 0 0 -1 -3.000000000000002665 -0 -0 1 I I #
point $-1 -1 $-1 -16.43046426266738891 -6.009650263959660066 12.00000000000000178 #
face $131 -1 $-1 $-1 $132 $11 $-1 $133 reversed single #
point $-1 -1 $-1 103.169535737332609 -6.009650263959660066 0 #
DXID-attrib $-1 -1 $-1 $-1 $84 @10 ASM ENTITY @36 54a3c83a-447b-4bc0-ac44-e24cf3f4e857 #
loop $-1 -1 $-1 $121 $134 $84 #
plane-surface $-1 -1 $-1 0.3695357373325385275 -0.009650263959717905043 12.00000000000000178 0 0 1 10 0 0 forward_v I I I I #
DXID-attrib $-1 -1 $-1 $-1 $87 @10 ASM ENTITY @36 8315d9a9-4a46-4031-bc0d-46b2cc5ca952 #
face $135 -1 $-1 $84 $136 $11 $-1 $137 forward single #
loop $-1 -1 $-1 $-1 $138 $87 #
plane-surface $-1 -1 $-1 137.8695357373325692 22.49034973604027954 0 0 1 0 -10 -0 -0 forward_v I I I I #
coedge $-1 -1 $-1 $139 $140 $141 $142 forward $88 $-1 #
coedge $-1 -1 $-1 $143 $90 $144 $145 forward $67 $-1 #
coedge $-1 -1 $-1 $90 $143 $139 $146 reversed $67 $-1 #
coedge $-1 -1 $-1 $141 $147 $90 $118 reversed $132 $-1 #
edge $148 -1 $-1 $149 0 $150 27.5 $90 $151 forward @7 unknown #
coedge $-1 -1 $-1 $119 $119 $91 $120 reversed $152 $-1 #
edge $153 -1 $-1 $154 -3.141592653589793116 $154 3.141592653589793116 $91 $155 forward @7 unknown #
loop $-1 -1 $-1 $96 $92 $84 #
DXID-attrib $-1 -1 $-1 $-1 $93 @10 ASM ENTITY @36 64560ae8-2b35-4f27-83d3-ab23bc2f0357 #
vertex $-1 -1 $-1 $93 $156 #
ellipse-curve $-1 -1 $-1 -59.43046426266742799 4.990349736039997985 12.00000000000000178 0 0 -1 -3.000000000000002665 -0 -0 1 I I #
loop $-1 -1 $-1 $100 $94 $105 #
DXID-attrib $-1 -1 $-1 $-1 $95 @10 ASM ENTITY @36 4c9ec228-39b0-430e-af5a-87dc81d24171 #
vertex $-1 -1 $-1 $95 $157 #
ellipse-curve $-1 -1 $-1 60.16953573733258054 4.990349736039997985 0 0 0 -1 -2.999999999999999112 -0 -0 1 I I #
point $-1 -1 $-1 63.16953573733258764 4.990349736039997985 12.00000000000000178 #
point $-1 -1 $-1 -16.43046426266738891 -6.009650263959660066 0 #
DXID-attrib $-1 -1 $-1 $-1 $105 @10 ASM ENTITY @36 3215cf08-9d34-4c0b-ba45-b5e462b36df8 #
loop $-1 -1 $-1 $152 $147 $105 #
plane-surface $-1 -1 $-1 0.3695357373325385275 -0.009650263959717905043 0 0 0 1 10 0 0 forward_v I I I I #
coedge $-1 -1 $-1 $158 $159 $160 $161 forward $108 $-1 #
DXID-attrib $-1 -1 $-1 $-1 $111 @10 ASM ENTITY @36 7fe52463-c307-4214-9a17-cbd27ba791f3 #
loop $-1 -1 $-1 $-1 $162 $111 #
plane-surface $-1 -1 $-1 137.8695357373325692 -22.50965026395972046 0 1 0 0 0 10 0 forward_v I I I I #
coedge $-1 -1 $-1 $163 $164 $165 $166 forward $112 $-1 #
coedge $-1 -1 $-1 $167 $114 $116 $146 forward $88 $-1 #
coedge $-1 -1 $-1 $114 $167 $163 $168 reversed $88 $-1 #
coedge $-1 -1 $-1 $165 $117 $114 $142 reversed $132 $-1 #
edge $169 -1 $-1 $170 0 $149 4.5 $114 $171 forward @7 unknown #
coedge $-1 -1 $-1 $116 $115 $159 $172 reversed $67 $-1 #
coedge $-1 -1 $-1 $162 $160 $115 $145 reversed $136 $-1 #
edge $173 -1 $-1 $150 0 $174 1.200000000000000178 $144 $175 forward @7 unknown #
edge $176 -1 $-1 $149 0 $177 1.200000000000000178 $139 $178 forward @7 unknown #
coedge $-1 -1 $-1 $117 $165 $162 $179 reversed $132 $-1 #
DXID-attrib $-1 -1 $-1 $-1 $118 @10 ASM ENTITY @36 a21a14cf-16dc-4d9e-b5bc-5c89cb19e751 #
vertex $-1 -1 $-1 $118 $180 #
vertex $-1 -1 $-1 $118 $181 #
straight-curve $-1 -1 $-1 -137.1304642626674308 -22.50965026395972046 0 10 0 0 F 0 F 27.5 #
loop $-1 -1 $-1 $125 $119 $105 #
DXID-attrib $-1 -1 $-1 $-1 $120 @10 ASM ENTITY @36 4a28c70d-3b62-45e1-9fa0-1bca4a2e48ab #
vertex $-1 -1 $-1 $120 $182 #
ellipse-curve $-1 -1 $-1 -59.43046426266742799 4.990349736039997985 0 0 0 -1 -3.000000000000002665 -0 -0 1 I I #
point $-1 -1 $-1 -56.43046426266742088 4.990349736039997985 12.00000000000000178 #
point $-1 -1 $-1 63.16953573733258764 4.990349736039997985 0 #
coedge $-1 -1 $-1 $183 $134 $184 $185 forward $108 $-1 #
coedge $-1 -1 $-1 $134 $183 $143 $172 forward $108 $-1 #
coedge $-1 -1 $-1 $144 $186 $134 $161 reversed $136 $-1 #
edge $187 -1 $-1 $174 0 $188 4.5 $160 $189 forward @7 unknown #
coedge $-1 -1 $-1 $186 $144 $147 $179 forward $136 $-1 #
coedge $-1 -1 $-1 $184 $138 $140 $168 forward $112 $-1 #
coedge $-1 -1 $-1 $138 $184 $186 $190 reversed $112 $-1 #
coedge $-1 -1 $-1 $147 $141 $138 $166 reversed $132 $-1 #
edge $191 -1 $-1 $192 -0 $170 27.50000000000000355 $138 $193 forward @7 unknown #
coedge $-1 -1 $-1 $140 $139 $183 $194 reversed $88 $-1 #
edge $195 -1 $-1 $170 0 $196 1.200000000000000178 $163 $197 forward @7 unknown #
DXID-attrib $-1 -1 $-1 $-1 $142 @10 ASM ENTITY @36 94a5b2b6-8718-482a-8cfe-c5fa4b66703a #
vertex $-1 -1 $-1 $142 $198 #
straight-curve $-1 -1 $-1 -137.1304642626674593 22.49034973604027954 0 0 -10 0 F 0 F 4.5 #
edge $199 -1 $-1 $177 0 $174 27.5 $143 $200 forward @7 unknown #
DXID-attrib $-1 -1 $-1 $-1 $145 @10 ASM ENTITY @36 d6365a86-0636-4fdc-87ea-f8748d7223f6 #
vertex $-1 -1 $-1 $145 $201 #
straight-curve $-1 -1 $-1 137.8695357373325692 -22.50965026395972046 0 0 0 10 I I #
DXID-attrib $-1 -1 $-1 $-1 $146 @10 ASM ENTITY @36 2b202756-d002-426a-9c84-9dca7220992f #
vertex $-1 -1 $-1 $172 $202 #
straight-curve $-1 -1 $-1 -137.1304642626674308 -22.50965026395972046 0 0 0 10 I I #
edge $203 -1 $-1 $150 0 $192 4.5 $162 $204 forward @7 unknown #
point $-1 -1 $-1 -137.1304642626674308 -22.50965026395972046 0 #
point $-1 -1 $-1 137.8695357373325692 -22.50965026395972046 0 #
point $-1 -1 $-1 -56.43046426266742088 4.990349736039997985 0 #
coedge $-1 -1 $-1 $159 $158 $167 $194 forward $108 $-1 #
coedge $-1 -1 $-1 $164 $163 $158 $185 reversed $112 $-1 #
edge $205 -1 $-1 $188 -0 $196 27.50000000000000355 $184 $206 forward @7 unknown #
coedge $-1 -1 $-1 $160 $162 $164 $190 forward $136 $-1 #
DXID-attrib $-1 -1 $-1 $-1 $161 @10 ASM ENTITY @36 3ebf0419-a341-4395-ab12-eb54d7485afd #
vertex $-1 -1 $-1 $185 $207 #
straight-curve $-1 -1 $-1 137.8695357373325692 -22.50965026395972046 12.00000000000000178 0 10 0 I I #
edge $208 -1 $-1 $192 0 $188 1.200000000000000178 $186 $209 forward @7 unknown #
DXID-attrib $-1 -1 $-1 $-1 $166 @10 ASM ENTITY @36 73c6efeb-2914-42c8-bc21-c2c23e9e3cb7 #
vertex $-1 -1 $-1 $166 $210 #
straight-curve $-1 -1 $-1 137.8695357373325692 22.49034973604027954 0 -10 -0 -0 F -0 F 27.50000000000000355 #
edge $211 -1 $-1 $196 0 $177 4.5 $167 $212 forward @7 unknown #
DXID-attrib $-1 -1 $-1 $-1 $168 @10 ASM ENTITY @36 cbcc5abf-5e0b-4f7e-9560-a529b6e0c7b3 #
vertex $-1 -1 $-1 $194 $213 #
straight-curve $-1 -1 $-1 -137.1304642626674593 22.49034973604027954 0 0 0 10 I I #
point $-1 -1 $-1 -137.1304642626674593 22.49034973604027954 0 #
DXID-attrib $-1 -1 $-1 $-1 $172 @10 ASM ENTITY @36 c130039b-1aea-4911-996c-38f0ab7dd25f #
straight-curve $-1 -1 $-1 -137.1304642626674308 -22.50965026395972046 12.00000000000000178 10 0 0 I I #
point $-1 -1 $-1 137.8695357373325692 -22.50965026395972046 12.00000000000000178 #
point $-1 -1 $-1 -137.1304642626674308 -22.50965026395972046 12.00000000000000178 #
DXID-attrib $-1 -1 $-1 $-1 $179 @10 ASM ENTITY @36 bd655a56-b3f3-4416-a8d9-87918d230127 #
straight-curve $-1 -1 $-1 137.8695357373325692 -22.50965026395972046 0 0 10 0 F 0 F 4.5 #
DXID-attrib $-1 -1 $-1 $-1 $185 @10 ASM ENTITY @36 b9de07c5-25c9-4bb2-bfb1-e90da81ceecb #
straight-curve $-1 -1 $-1 137.8695357373325692 22.49034973604027954 12.00000000000000178 -10 -0 -0 I I #
point $-1 -1 $-1 137.8695357373325692 22.49034973604027954 12.00000000000000178 #
DXID-attrib $-1 -1 $-1 $-1 $190 @10 ASM ENTITY @36 4651766e-dcad-4d1f-9670-ab8aa581a6af #
straight-curve $-1 -1 $-1 137.8695357373325692 22.49034973604027954 0 0 0 10 I I #
point $-1 -1 $-1 137.8695357373325692 22.49034973604027954 0 #
DXID-attrib $-1 -1 $-1 $-1 $194 @10 ASM ENTITY @36 2bb4cab6-d731-42aa-8e1a-e3fd87dedf36 #
straight-curve $-1 -1 $-1 -137.1304642626674593 22.49034973604027954 12.00000000000000178 0 -10 0 I I #
point $-1 -1 $-1 -137.1304642626674593 22.49034973604027954 12.00000000000000178 #
End-of-ACIS-data 