700 0 3 0           
30 Autodesk Translation Framework 20 ASM 229.3.0.65535 NT 24 Tue May 30 11:17:35 2023 
1 9.999999999999999547e-07 1.000000000000000036e-10 
body $3 -1 $-1 $4 $-1 $5 #
body $-1 -1 $-1 $6 $-1 $7 #
body $-1 -1 $-1 $8 $-1 $9 #
rgb_color-st-attrib $-1 -1 $10 $-1 $0 0.7490196078431372584 0.7490196078431372584 0.7490196078431372584 #
lump $-1 -1 $-1 $-1 $11 $0 #
transform $-1 -1 1 0 0 0 1 0 0 0 1 0 0 0 1 no_rotate no_reflect no_shear #
lump $-1 -1 $-1 $-1 $12 $1 #
transform $-1 -1 1 0 0 0 1 0 0 0 1 0 0 0 1 no_rotate no_reflect no_shear #
lump $-1 -1 $-1 $-1 $13 $2 #
transform $-1 -1 1 0 0 0 1 0 0 0 1 0 0 0 1 no_rotate no_reflect no_shear #
DXID-attrib $-1 -1 $-1 $3 $0 @10 ASM ENTITY @97 BORDE_4.IPT|:|69D5EB21F505EB460A6A7568DE68530CC3B66FDC|:|DA4B9237BACCCDF19C0760CAB7AEC4A8359010B0 #
shell $-1 -1 $-1 $-1 $-1 $14 $-1 $4 #
shell $-1 -1 $-1 $-1 $-1 $-1 $15 $6 #
shell $-1 -1 $-1 $-1 $-1 $-1 $16 $8 #
face $17 -1 $-1 $18 $19 $11 $-1 $20 forward single #
wire $-1 -1 $-1 $-1 $21 $12 $-1 out #
wire $-1 -1 $-1 $-1 $22 $13 $-1 out #
DXID-attrib $-1 -1 $-1 $-1 $14 @10 ASM ENTITY @36 c0ee7b5a-1791-41e1-88d9-28fbabdcb829 #
face $23 -1 $-1 $24 $25 $11 $-1 $26 forward single #
loop $-1 -1 $-1 $27 $28 $14 #
cone-surface $-1 -1 $-1 19.43183024276833848 -6.010063772924471692 0 0 0 1 -3.000000000000002665 0 0 1 I I 0 -1 3.000000000000002665 forward I I I I #
coedge $-1 -1 $-1 $21 $21 $-1 $29 forward $15 $-1 #
coedge $-1 -1 $-1 $22 $22 $-1 $30 forward $16 $-1 #
DXID-attrib $-1 -1 $-1 $-1 $18 @10 ASM ENTITY @36 f427b4e8-ccbc-41f6-8c7e-7423a8ce2608 #
face $31 -1 $-1 $32 $33 $11 $-1 $34 forward single #
loop $-1 -1 $-1 $35 $36 $18 #
cone-surface $-1 -1 $-1 59.43183024276834203 4.989936227075186359 0 0 0 1 -3.000000000000002665 0 0 1 I I 0 -1 3.000000000000002665 forward I I I I #
loop $-1 -1 $-1 $-1 $37 $14 #
coedge $-1 -1 $-1 $28 $28 $38 $39 reversed $19 $-1 #
edge $-1 -1 $-1 $40 0 $41 1 $21 $42 forward @7 unknown #
edge $-1 -1 $-1 $43 0 $44 1 $22 $45 forward @7 unknown #
DXID-attrib $-1 -1 $-1 $-1 $24 @10 ASM ENTITY @36 b2004274-4cd2-4342-ae39-a693c5f34533 #
face $46 -1 $-1 $47 $48 $11 $-1 $49 forward single #
loop $-1 -1 $-1 $50 $51 $24 #
cone-surface $-1 -1 $-1 -60.16816975723166649 4.989936227075186359 0 0 0 1 -2.999999999999999112 0 0 1 I I 0 -1 2.999999999999999112 forward I I I I #
loop $-1 -1 $-1 $-1 $52 $18 #
coedge $-1 -1 $-1 $36 $36 $53 $54 reversed $25 $-1 #
coedge $-1 -1 $-1 $37 $37 $55 $56 forward $27 $-1 #
coedge $-1 -1 $-1 $38 $38 $28 $39 forward $57 $-1 #
edge $58 -1 $-1 $59 -3.141592653589793116 $59 3.141592653589793116 $28 $60 forward @7 unknown #
vertex $-1 -1 $-1 $29 $61 #
vertex $-1 -1 $-1 $29 $62 #
straight-curve $-1 -1 $-1 137.3158302427683566 22.49493622707575469 12.00000000000000178 -275.0000000000000568 0 0 F 0 F 1 #
vertex $-1 -1 $-1 $30 $63 #
vertex $-1 -1 $-1 $30 $64 #
straight-curve $-1 -1 $-1 -137.6841697572317003 22.49493622707575469 12.00000000000000178 1.421085471520200372e-13 -45.00000000000028422 0 F 0 F 1 #
DXID-attrib $-1 -1 $-1 $-1 $32 @10 ASM ENTITY @36 98382ed9-ec54-4582-81c0-5f2f9bdc138e #
face $65 -1 $-1 $66 $67 $11 $-1 $68 forward single #
loop $-1 -1 $-1 $69 $70 $32 #
cone-surface $-1 -1 $-1 -100.1681697572316665 -6.010063772924471692 0 0 0 1 -3.000000000000002665 0 0 1 I I 0 -1 3.000000000000002665 forward I I I I #
loop $-1 -1 $-1 $-1 $71 $24 #
coedge $-1 -1 $-1 $51 $51 $72 $73 reversed $33 $-1 #
coedge $-1 -1 $-1 $52 $52 $74 $75 forward $35 $-1 #
coedge $-1 -1 $-1 $53 $53 $36 $54 forward $76 $-1 #
edge $77 -1 $-1 $78 -3.141592653589793116 $78 3.141592653589793116 $36 $79 forward @7 unknown #
coedge $-1 -1 $-1 $55 $55 $37 $56 reversed $80 $-1 #
edge $81 -1 $-1 $82 -3.141592653589793116 $82 3.141592653589793116 $37 $83 forward @7 unknown #
loop $-1 -1 $-1 $-1 $38 $84 #
DXID-attrib $-1 -1 $-1 $-1 $39 @10 ASM ENTITY @36 49bfbf64-b8d2-4e95-acf3-74c53e8294a0 #
vertex $-1 -1 $-1 $39 $85 #
ellipse-curve $-1 -1 $-1 19.43183024276833848 -6.010063772924471692 12.00000000000000178 0 0 -1 -3.000000000000002665 -0 -0 1 I I #
point $-1 -1 $-1 137.3158302427683566 22.49493622707575469 12.00000000000000178 #
point $-1 -1 $-1 -137.6841697572317003 22.49493622707575469 12.00000000000000178 #
point $-1 -1 $-1 -137.6841697572317003 22.49493622707575469 12.00000000000000178 #
point $-1 -1 $-1 -137.6841697572315582 -22.50506377292452953 12.00000000000000178 #
DXID-attrib $-1 -1 $-1 $-1 $47 @10 ASM ENTITY @36 3415a5bf-db59-4a91-be24-5c7d84000fdf #
face $86 -1 $-1 $87 $88 $11 $-1 $89 forward single #
loop $-1 -1 $-1 $-1 $90 $47 #
plane-surface $-1 -1 $-1 -137.8681697572315556 -22.51006377292453209 0 0 -1 0 10 0 0 forward_v I I I I #
loop $-1 -1 $-1 $-1 $91 $32 #
coedge $-1 -1 $-1 $70 $70 $92 $93 reversed $48 $-1 #
coedge $-1 -1 $-1 $71 $71 $94 $95 forward $50 $-1 #
coedge $-1 -1 $-1 $72 $72 $51 $73 forward $96 $-1 #
edge $97 -1 $-1 $98 -3.141592653589793116 $98 3.141592653589793116 $51 $99 forward @7 unknown #
coedge $-1 -1 $-1 $74 $74 $52 $75 reversed $100 $-1 #
edge $101 -1 $-1 $102 -3.141592653589793116 $102 3.141592653589793116 $52 $103 forward @7 unknown #
loop $-1 -1 $-1 $57 $53 $84 #
DXID-attrib $-1 -1 $-1 $-1 $54 @10 ASM ENTITY @36 be9f5a87-6422-40b8-84d2-c522074ee8b1 #
vertex $-1 -1 $-1 $54 $104 #
ellipse-curve $-1 -1 $-1 59.43183024276834203 4.989936227075186359 12.00000000000000178 0 0 -1 -3.000000000000002665 -0 -0 1 I I #
loop $-1 -1 $-1 $-1 $55 $105 #
DXID-attrib $-1 -1 $-1 $-1 $56 @10 ASM ENTITY @36 0b10c57f-bb3e-4655-9929-d66a3a670eb2 #
vertex $-1 -1 $-1 $56 $106 #
ellipse-curve $-1 -1 $-1 19.43183024276833848 -6.010063772924471692 0 0 0 -1 -3.000000000000002665 -0 -0 1 I I #
face $107 -1 $-1 $105 $108 $11 $-1 $109 forward single #
point $-1 -1 $-1 22.43183024276831006 -6.010063772924471692 12.00000000000000178 #
DXID-attrib $-1 -1 $-1 $-1 $66 @10 ASM ENTITY @36 c10fd197-33a3-421a-8258-90b5ef8f6110 #
face $110 -1 $-1 $111 $112 $11 $-1 $113 forward single #
loop $-1 -1 $-1 $-1 $114 $66 #
plane-surface $-1 -1 $-1 -137.8681697572316978 22.48993622707575213 0 -1 0 0 -0 -10 -0 forward_v I I I I #
coedge $-1 -1 $-1 $115 $116 $117 $118 forward $67 $-1 #
coedge $-1 -1 $-1 $91 $91 $119 $120 forward $69 $-1 #
coedge $-1 -1 $-1 $92 $92 $70 $93 forward $121 $-1 #
edge $122 -1 $-1 $123 -3.141592653589793116 $123 3.141592653589793116 $70 $124 forward @7 unknown #
coedge $-1 -1 $-1 $94 $94 $71 $95 reversed $125 $-1 #
edge $126 -1 $-1 $127 -3.141592653589793116 $127 3.141592653589793116 $71 $128 forward @7 unknown #
loop $-1 -1 $-1 $76 $72 $84 #
DXID-attrib $-1 -1 $-1 $-1 $73 @10 ASM ENTITY @36 5f0255c1-5a29-4f14-aab6-0008c52f5c51 #
vertex $-1 -1 $-1 $73 $129 #
ellipse-curve $-1 -1 $-1 -60.16816975723166649 4.989936227075186359 12.00000000000000178 0 0 -1 -2.999999999999999112 -0 -0 1 I I #
loop $-1 -1 $-1 $80 $74 $105 #
DXID-attrib $-1 -1 $-1 $-1 $75 @10 ASM ENTITY @36 4e5d4b49-0242-4189-a0b3-6b0c878004e2 #
vertex $-1 -1 $-1 $75 $130 #
ellipse-curve $-1 -1 $-1 59.43183024276834203 4.989936227075186359 0 0 0 -1 -3.000000000000002665 -0 -0 1 I I #
point $-1 -1 $-1 62.43183024276831361 4.989936227075186359 12.00000000000000178 #
face $131 -1 $-1 $-1 $132 $11 $-1 $133 reversed single #
point $-1 -1 $-1 22.43183024276831006 -6.010063772924471692 0 #
DXID-attrib $-1 -1 $-1 $-1 $84 @10 ASM ENTITY @36 5f966ff4-2479-460f-8d6f-c34a55532959 #
loop $-1 -1 $-1 $121 $134 $84 #
plane-surface $-1 -1 $-1 -0.3681697572317002565 -0.01006377292424531431 12.00000000000000178 0 0 1 10 0 0 forward_v I I I I #
DXID-attrib $-1 -1 $-1 $-1 $87 @10 ASM ENTITY @36 a0387b0e-7926-44c6-a42c-2590f17c187c #
face $135 -1 $-1 $84 $136 $11 $-1 $137 forward single #
loop $-1 -1 $-1 $-1 $138 $87 #
plane-surface $-1 -1 $-1 137.1318302427683875 22.48993622707575213 0 0 1 0 -10 0 0 forward_v I I I I #
coedge $-1 -1 $-1 $139 $140 $141 $142 forward $88 $-1 #
coedge $-1 -1 $-1 $143 $90 $144 $145 forward $67 $-1 #
coedge $-1 -1 $-1 $90 $143 $139 $146 reversed $67 $-1 #
coedge $-1 -1 $-1 $141 $147 $90 $118 reversed $132 $-1 #
edge $148 -1 $-1 $149 0 $150 27.49999999999999289 $90 $151 forward @7 unknown #
coedge $-1 -1 $-1 $119 $119 $91 $120 reversed $152 $-1 #
edge $153 -1 $-1 $154 -3.141592653589793116 $154 3.141592653589793116 $91 $155 forward @7 unknown #
loop $-1 -1 $-1 $96 $92 $84 #
DXID-attrib $-1 -1 $-1 $-1 $93 @10 ASM ENTITY @36 6c2c7b66-71e5-4e9d-84d2-4a1a26720d38 #
vertex $-1 -1 $-1 $93 $156 #
ellipse-curve $-1 -1 $-1 -100.1681697572316665 -6.010063772924471692 12.00000000000000178 0 0 -1 -3.000000000000002665 -0 -0 1 I I #
loop $-1 -1 $-1 $100 $94 $105 #
DXID-attrib $-1 -1 $-1 $-1 $95 @10 ASM ENTITY @36 90931db4-9144-436b-91df-eea71c74498c #
vertex $-1 -1 $-1 $95 $157 #
ellipse-curve $-1 -1 $-1 -60.16816975723166649 4.989936227075186359 0 0 0 -1 -2.999999999999999112 -0 -0 1 I I #
point $-1 -1 $-1 -57.16816975723169492 4.989936227075186359 12.00000000000000178 #
point $-1 -1 $-1 62.43183024276831361 4.989936227075186359 0 #
DXID-attrib $-1 -1 $-1 $-1 $105 @10 ASM ENTITY @36 43f740a5-3a70-4c2a-bbe8-75f6ebc6ed8e #
loop $-1 -1 $-1 $152 $147 $105 #
plane-surface $-1 -1 $-1 -0.3681697572317002565 -0.01006377292424531431 0 0 0 1 10 0 0 forward_v I I I I #
coedge $-1 -1 $-1 $158 $159 $160 $161 forward $108 $-1 #
DXID-attrib $-1 -1 $-1 $-1 $111 @10 ASM ENTITY @36 929e2d26-baec-4ad6-b778-e57c9e35cdf1 #
loop $-1 -1 $-1 $-1 $162 $111 #
plane-surface $-1 -1 $-1 137.1318302427683875 -22.51006377292453209 0 1 2.153159805333629492e-15 0 -2.153159805333629335e-14 10 0 forward_v I I I I #
coedge $-1 -1 $-1 $163 $164 $165 $166 forward $112 $-1 #
coedge $-1 -1 $-1 $167 $114 $116 $146 forward $88 $-1 #
coedge $-1 -1 $-1 $114 $167 $163 $168 reversed $88 $-1 #
coedge $-1 -1 $-1 $165 $117 $114 $142 reversed $132 $-1 #
edge $169 -1 $-1 $170 -0 $149 4.500000000000028422 $114 $171 forward @7 unknown #
coedge $-1 -1 $-1 $116 $115 $159 $172 reversed $67 $-1 #
coedge $-1 -1 $-1 $162 $160 $115 $145 reversed $136 $-1 #
edge $173 -1 $-1 $150 0 $174 1.200000000000000178 $144 $175 forward @7 unknown #
edge $176 -1 $-1 $149 0 $177 1.200000000000000178 $139 $178 forward @7 unknown #
coedge $-1 -1 $-1 $117 $165 $162 $179 reversed $132 $-1 #
DXID-attrib $-1 -1 $-1 $-1 $118 @10 ASM ENTITY @36 b22bb360-192d-4b71-9a41-872ef1664827 #
vertex $-1 -1 $-1 $118 $180 #
vertex $-1 -1 $-1 $118 $181 #
straight-curve $-1 -1 $-1 -137.8681697572315556 -22.51006377292453209 0 10 0 0 F 0 F 27.49999999999999289 #
loop $-1 -1 $-1 $125 $119 $105 #
DXID-attrib $-1 -1 $-1 $-1 $120 @10 ASM ENTITY @36 a76289dd-4141-4477-9c7f-ec99f1c370ba #
vertex $-1 -1 $-1 $120 $182 #
ellipse-curve $-1 -1 $-1 -100.1681697572316665 -6.010063772924471692 0 0 0 -1 -3.000000000000002665 -0 -0 1 I I #
point $-1 -1 $-1 -97.16816975723169492 -6.010063772924471692 12.00000000000000178 #
point $-1 -1 $-1 -57.16816975723169492 4.989936227075186359 0 #
coedge $-1 -1 $-1 $183 $134 $184 $185 forward $108 $-1 #
coedge $-1 -1 $-1 $134 $183 $143 $172 forward $108 $-1 #
coedge $-1 -1 $-1 $144 $186 $134 $161 reversed $136 $-1 #
edge $187 -1 $-1 $174 0 $188 4.500000000000028422 $160 $189 forward @7 unknown #
coedge $-1 -1 $-1 $186 $144 $147 $179 forward $136 $-1 #
coedge $-1 -1 $-1 $184 $138 $140 $168 forward $112 $-1 #
coedge $-1 -1 $-1 $138 $184 $186 $190 reversed $112 $-1 #
coedge $-1 -1 $-1 $147 $141 $138 $166 reversed $132 $-1 #
edge $191 -1 $-1 $192 0 $170 27.50000000000000711 $138 $193 forward @7 unknown #
coedge $-1 -1 $-1 $140 $139 $183 $194 reversed $88 $-1 #
edge $195 -1 $-1 $170 0 $196 1.200000000000000178 $163 $197 forward @7 unknown #
DXID-attrib $-1 -1 $-1 $-1 $142 @10 ASM ENTITY @36 2819df1f-7c0e-4a47-a73f-a06b3a9ff046 #
vertex $-1 -1 $-1 $142 $198 #
straight-curve $-1 -1 $-1 -137.8681697572316978 22.48993622707575213 0 -0 -10 -0 F -0 F 4.500000000000028422 #
edge $199 -1 $-1 $177 0 $174 27.49999999999999289 $143 $200 forward @7 unknown #
DXID-attrib $-1 -1 $-1 $-1 $145 @10 ASM ENTITY @36 cdf01d35-72a7-42ac-8c0d-6697f7a587b1 #
vertex $-1 -1 $-1 $145 $201 #
straight-curve $-1 -1 $-1 137.1318302427683875 -22.51006377292453209 0 0 0 10 I I #
DXID-attrib $-1 -1 $-1 $-1 $146 @10 ASM ENTITY @36 559f819c-d5a3-4b0b-971b-69ed4cbd8077 #
vertex $-1 -1 $-1 $172 $202 #
straight-curve $-1 -1 $-1 -137.8681697572315556 -22.51006377292453209 0 0 0 10 I I #
edge $203 -1 $-1 $150 0 $192 4.500000000000028422 $162 $204 forward @7 unknown #
point $-1 -1 $-1 -137.8681697572315556 -22.51006377292453209 0 #
point $-1 -1 $-1 137.1318302427683875 -22.51006377292453209 0 #
point $-1 -1 $-1 -97.16816975723169492 -6.010063772924471692 0 #
coedge $-1 -1 $-1 $159 $158 $167 $194 forward $108 $-1 #
coedge $-1 -1 $-1 $164 $163 $158 $185 reversed $112 $-1 #
edge $205 -1 $-1 $188 0 $196 27.50000000000000711 $184 $206 forward @7 unknown #
coedge $-1 -1 $-1 $160 $162 $164 $190 forward $136 $-1 #
DXID-attrib $-1 -1 $-1 $-1 $161 @10 ASM ENTITY @36 9604d579-5862-45f5-b5f4-7f3424ed7ea0 #
vertex $-1 -1 $-1 $185 $207 #
straight-curve $-1 -1 $-1 137.1318302427683875 -22.51006377292453209 12.00000000000000178 -2.153159805333629335e-14 10 0 I I #
edge $208 -1 $-1 $192 0 $188 1.200000000000000178 $186 $209 forward @7 unknown #
DXID-attrib $-1 -1 $-1 $-1 $166 @10 ASM ENTITY @36 d229dfc6-f9cd-410c-8d48-fd5f23c1d06f #
vertex $-1 -1 $-1 $166 $210 #
straight-curve $-1 -1 $-1 137.1318302427683875 22.48993622707575213 0 -10 0 0 F 0 F 27.50000000000000711 #
edge $211 -1 $-1 $196 -0 $177 4.500000000000028422 $167 $212 forward @7 unknown #
DXID-attrib $-1 -1 $-1 $-1 $168 @10 ASM ENTITY @36 e8ef86ad-3cae-464e-a0d6-93386a8febc2 #
vertex $-1 -1 $-1 $194 $213 #
straight-curve $-1 -1 $-1 -137.8681697572316978 22.48993622707575213 0 0 0 10 I I #
point $-1 -1 $-1 -137.8681697572316978 22.48993622707575213 0 #
DXID-attrib $-1 -1 $-1 $-1 $172 @10 ASM ENTITY @36 0177760e-b7c2-47e6-94ed-23347c19814b #
straight-curve $-1 -1 $-1 -137.8681697572315556 -22.51006377292453209 12.00000000000000178 10 0 0 I I #
point $-1 -1 $-1 137.1318302427683875 -22.51006377292453209 12.00000000000000178 #
point $-1 -1 $-1 -137.8681697572315556 -22.51006377292453209 12.00000000000000178 #
DXID-attrib $-1 -1 $-1 $-1 $179 @10 ASM ENTITY @36 74423d77-7076-4038-8427-130427af559f #
straight-curve $-1 -1 $-1 137.1318302427683875 -22.51006377292453209 0 -2.153159805333629335e-14 10 0 F 0 F 4.500000000000028422 #
DXID-attrib $-1 -1 $-1 $-1 $185 @10 ASM ENTITY @36 90a4f01a-af3b-4651-ae26-2b0752292170 #
straight-curve $-1 -1 $-1 137.1318302427683875 22.48993622707575213 12.00000000000000178 -10 0 0 I I #
point $-1 -1 $-1 137.1318302427683875 22.48993622707575213 12.00000000000000178 #
DXID-attrib $-1 -1 $-1 $-1 $190 @10 ASM ENTITY @36 1a0f4b8d-ee37-4037-a78e-cde21a00c86a #
straight-curve $-1 -1 $-1 137.1318302427683875 22.48993622707575213 0 0 0 10 I I #
point $-1 -1 $-1 137.1318302427683875 22.48993622707575213 0 #
DXID-attrib $-1 -1 $-1 $-1 $194 @10 ASM ENTITY @36 1c63f230-4ed4-4c08-b410-d641e4156d7d #
straight-curve $-1 -1 $-1 -137.8681697572316978 22.48993622707575213 12.00000000000000178 -0 -10 -0 I I #
point $-1 -1 $-1 -137.8681697572316978 22.48993622707575213 12.00000000000000178 #
End-of-ACIS-data 