700 0 1 0           
30 Autodesk Translation Framework 20 ASM 229.3.0.65535 NT 24 Mon May 22 23:06:02 2023 
1 9.999999999999999547e-07 1.000000000000000036e-10 
body $1 -1 $-1 $2 $-1 $3 #
rgb_color-st-attrib $-1 -1 $4 $-1 $0 0.7490196078431372584 0.7490196078431372584 0.7490196078431372584 #
lump $-1 -1 $-1 $-1 $5 $0 #
transform $-1 -1 1 0 0 0 1 0 0 0 1 0 0 0 1 no_rotate no_reflect no_shear #
DXID-attrib $-1 -1 $-1 $1 $0 @10 ASM ENTITY @107 BRAZO_2_SOPORTE_1.IPT|:|13D45B9789B8771EA78B420B3D210212A2819445|:|DA4B9237BACCCDF19C0760CAB7AEC4A8359010B0 #
shell $-1 -1 $-1 $-1 $-1 $6 $-1 $2 #
face $7 -1 $-1 $8 $9 $5 $-1 $10 forward single #
DXID-attrib $-1 -1 $-1 $-1 $6 @10 ASM ENTITY @36 3888d689-e979-4d8e-98d2-58b774889e58 #
face $11 -1 $-1 $12 $13 $5 $-1 $14 forward single #
loop $-1 -1 $-1 $15 $16 $6 #
cone-surface $-1 -1 $-1 112.273399278082735 -34.89696274385721608 0 0 0 1 -2.50000000000000222 0 0 1 I I 0 -1 2.50000000000000222 forward I I I I #
DXID-attrib $-1 -1 $-1 $-1 $8 @10 ASM ENTITY @36 a3ecca98-de1b-4218-a68f-b8d7cc64daf9 #
face $17 -1 $-1 $18 $19 $5 $-1 $20 forward single #
loop $-1 -1 $-1 $21 $22 $8 #
cone-surface $-1 -1 $-1 -102.0198930813334925 14.96681448668965686 0 0 0 1 -2.499999999999998224 0 0 1 I I 0 -1 2.499999999999998224 forward I I I I #
loop $-1 -1 $-1 $-1 $23 $6 #
coedge $-1 -1 $-1 $16 $16 $24 $25 reversed $9 $-1 #
DXID-attrib $-1 -1 $-1 $-1 $12 @10 ASM ENTITY @36 5426e11d-83ec-4201-aa72-5330499af9b2 #
face $26 -1 $-1 $27 $28 $5 $-1 $29 forward single #
loop $-1 -1 $-1 $30 $31 $12 #
cone-surface $-1 -1 $-1 -112.0589434636629278 35.10303725614278392 0 0 0 1 -2.50000000000000222 0 0 1 I I 0 -1 2.50000000000000222 forward I I I I #
loop $-1 -1 $-1 $-1 $32 $8 #
coedge $-1 -1 $-1 $22 $22 $33 $34 reversed $13 $-1 #
coedge $-1 -1 $-1 $23 $23 $35 $36 forward $15 $-1 #
coedge $-1 -1 $-1 $24 $24 $16 $25 forward $37 $-1 #
edge $38 -1 $-1 $39 -3.141592653589793116 $39 3.141592653589793116 $16 $40 forward @7 unknown #
DXID-attrib $-1 -1 $-1 $-1 $18 @10 ASM ENTITY @36 e08a359e-8cb8-44ef-be8f-4cb8a11bc0f7 #
face $41 -1 $-1 $42 $43 $5 $-1 $44 forward single #
loop $-1 -1 $-1 $45 $46 $18 #
cone-surface $-1 -1 $-1 -62.01989308133349255 0.1030372561427839173 0 0 0 1 -2.50000000000000222 0 0 1 I I 0 -1 2.50000000000000222 forward I I I I #
loop $-1 -1 $-1 $-1 $47 $12 #
coedge $-1 -1 $-1 $31 $31 $48 $49 reversed $19 $-1 #
coedge $-1 -1 $-1 $32 $32 $50 $51 forward $21 $-1 #
coedge $-1 -1 $-1 $33 $33 $22 $34 forward $52 $-1 #
edge $53 -1 $-1 $54 -3.141592653589793116 $54 3.141592653589793116 $22 $55 forward @7 unknown #
coedge $-1 -1 $-1 $35 $35 $23 $36 reversed $56 $-1 #
edge $57 -1 $-1 $58 -3.141592653589793116 $58 3.141592653589793116 $23 $59 forward @7 unknown #
loop $-1 -1 $-1 $-1 $24 $60 #
DXID-attrib $-1 -1 $-1 $-1 $25 @10 ASM ENTITY @36 c6a2f89d-7a19-4d90-a591-d4a2628195a7 #
vertex $-1 -1 $-1 $25 $61 #
ellipse-curve $-1 -1 $-1 112.273399278082735 -34.89696274385721608 12.00000000000000178 0 0 -1 -2.50000000000000222 -0 -0 1 I I #
DXID-attrib $-1 -1 $-1 $-1 $27 @10 ASM ENTITY @36 3ee54533-adb5-4661-aa4c-30549dd03d56 #
face $62 -1 $-1 $63 $64 $5 $-1 $65 forward single #
loop $-1 -1 $-1 $-1 $66 $27 #
cone-surface $-1 -1 $-1 112.1703021418619528 -34.6029553388370914 0 0 0 1 -14.72171863238677147 -2.875754990465975602 0 1 I I 0 1 14.99996554183888264 forward I I I I #
loop $-1 -1 $-1 $-1 $67 $18 #
coedge $-1 -1 $-1 $46 $46 $68 $69 reversed $28 $-1 #
coedge $-1 -1 $-1 $47 $47 $70 $71 forward $30 $-1 #
coedge $-1 -1 $-1 $48 $48 $31 $49 forward $72 $-1 #
edge $73 -1 $-1 $74 -3.141592653589793116 $74 3.141592653589793116 $31 $75 forward @7 unknown #
coedge $-1 -1 $-1 $50 $50 $32 $51 reversed $76 $-1 #
edge $77 -1 $-1 $78 -3.141592653589793116 $78 3.141592653589793116 $32 $79 forward @7 unknown #
loop $-1 -1 $-1 $37 $33 $60 #
DXID-attrib $-1 -1 $-1 $-1 $34 @10 ASM ENTITY @36 4e581217-4a83-4773-bc51-bd60efb3a4ef #
vertex $-1 -1 $-1 $34 $80 #
ellipse-curve $-1 -1 $-1 -102.0198930813334925 14.96681448668965686 12.00000000000000178 0 0 -1 -2.499999999999998224 -0 -0 1 I I #
loop $-1 -1 $-1 $-1 $35 $81 #
DXID-attrib $-1 -1 $-1 $-1 $36 @10 ASM ENTITY @36 4c4cf948-6442-4c16-a87a-8f8f8c7c64b1 #
vertex $-1 -1 $-1 $36 $82 #
ellipse-curve $-1 -1 $-1 112.273399278082735 -34.89696274385721608 0 0 0 -1 -2.50000000000000222 -0 -0 1 I I #
face $83 -1 $-1 $81 $84 $5 $-1 $85 forward single #
point $-1 -1 $-1 114.773399278082735 -34.89696274385721608 12.00000000000000178 #
DXID-attrib $-1 -1 $-1 $-1 $42 @10 ASM ENTITY @36 692cf7b3-7a8e-40fb-ad71-0236379f493c #
face $86 -1 $-1 $87 $88 $5 $-1 $89 forward single #
loop $-1 -1 $-1 $-1 $90 $42 #
cone-surface $-1 -1 $-1 67.77346488765161325 -45.68616504032348757 0 0 0 1 -29.67511862182358584 -8.20745471102041968 0 1 I I 0 -1 30.78920229646672979 forward I I I I #
coedge $-1 -1 $-1 $91 $92 $93 $94 forward $43 $-1 #
coedge $-1 -1 $-1 $67 $67 $95 $96 forward $45 $-1 #
coedge $-1 -1 $-1 $68 $68 $46 $69 forward $97 $-1 #
edge $98 -1 $-1 $99 -3.141592653589793116 $99 3.141592653589793116 $46 $100 forward @7 unknown #
coedge $-1 -1 $-1 $70 $70 $47 $71 reversed $101 $-1 #
edge $102 -1 $-1 $103 -3.141592653589793116 $103 3.141592653589793116 $47 $104 forward @7 unknown #
loop $-1 -1 $-1 $52 $48 $60 #
DXID-attrib $-1 -1 $-1 $-1 $49 @10 ASM ENTITY @36 91665ced-ba13-49bd-81ac-e1344fa73c28 #
vertex $-1 -1 $-1 $49 $105 #
ellipse-curve $-1 -1 $-1 -112.0589434636629278 35.10303725614278392 12.00000000000000178 0 0 -1 -2.50000000000000222 -0 -0 1 I I #
loop $-1 -1 $-1 $56 $50 $81 #
DXID-attrib $-1 -1 $-1 $-1 $51 @10 ASM ENTITY @36 762218db-6641-42a1-8d9d-64557aadef37 #
vertex $-1 -1 $-1 $51 $106 #
ellipse-curve $-1 -1 $-1 -102.0198930813334925 14.96681448668965686 0 0 0 -1 -2.499999999999998224 -0 -0 1 I I #
point $-1 -1 $-1 -99.51989308133349255 14.96681448668965686 12.00000000000000178 #
face $107 -1 $-1 $-1 $108 $5 $-1 $109 reversed single #
point $-1 -1 $-1 114.773399278082735 -34.89696274385721608 0 #
DXID-attrib $-1 -1 $-1 $-1 $60 @10 ASM ENTITY @36 4540d136-7fec-4e41-99c4-52d9eced233e #
loop $-1 -1 $-1 $97 $110 $60 #
plane-surface $-1 -1 $-1 0.05566211001877263698 0.2500581877333729608 12.00000000000000178 0 0 1 10 0 0 forward_v I I I I #
DXID-attrib $-1 -1 $-1 $-1 $63 @10 ASM ENTITY @36 397b91c7-f06f-4a90-a8e1-e8f0a7bf1a52 #
face $111 -1 $-1 $112 $113 $5 $-1 $114 forward single #
loop $-1 -1 $-1 $-1 $115 $63 #
plane-surface $-1 -1 $-1 -65.87105729659768372 -14.89696274385721608 0 2.126664749582505287e-15 -1 0 10 2.126664749582505287e-14 0 forward_v I I I I #
coedge $-1 -1 $-1 $116 $117 $118 $119 forward $64 $-1 #
coedge $-1 -1 $-1 $120 $66 $121 $122 forward $43 $-1 #
coedge $-1 -1 $-1 $66 $120 $116 $123 reversed $43 $-1 #
coedge $-1 -1 $-1 $118 $124 $66 $94 reversed $108 $-1 #
edge $125 -1 $-1 $126 0 $127 3.275670164750946523 $66 $128 forward @7 unknown #
coedge $-1 -1 $-1 $95 $95 $67 $96 reversed $129 $-1 #
edge $130 -1 $-1 $131 -3.141592653589793116 $131 3.141592653589793116 $67 $132 forward @7 unknown #
loop $-1 -1 $-1 $72 $68 $60 #
DXID-attrib $-1 -1 $-1 $-1 $69 @10 ASM ENTITY @36 d8f4972b-3ef8-4b5e-8696-98396f45274d #
vertex $-1 -1 $-1 $69 $133 #
ellipse-curve $-1 -1 $-1 -62.01989308133349255 0.1030372561427839173 12.00000000000000178 0 0 -1 -2.50000000000000222 -0 -0 1 I I #
loop $-1 -1 $-1 $76 $70 $81 #
DXID-attrib $-1 -1 $-1 $-1 $71 @10 ASM ENTITY @36 5e2d8e0c-09d2-4d78-b2e7-ce92623d381d #
vertex $-1 -1 $-1 $71 $134 #
ellipse-curve $-1 -1 $-1 -112.0589434636629278 35.10303725614278392 0 0 0 -1 -2.50000000000000222 -0 -0 1 I I #
point $-1 -1 $-1 -109.5589434636629278 35.10303725614278392 12.00000000000000178 #
point $-1 -1 $-1 -99.51989308133349255 14.96681448668965686 0 #
DXID-attrib $-1 -1 $-1 $-1 $81 @10 ASM ENTITY @36 a6cb7db5-a1f9-4df8-96f8-83dacfeafaf0 #
loop $-1 -1 $-1 $129 $124 $81 #
plane-surface $-1 -1 $-1 0.05566211001877263698 0.2500581877333729608 0 0 0 1 10 0 0 forward_v I I I I #
coedge $-1 -1 $-1 $135 $136 $137 $138 forward $84 $-1 #
DXID-attrib $-1 -1 $-1 $-1 $87 @10 ASM ENTITY @36 5df6396a-ec75-483f-9822-18af083e7252 #
face $139 -1 $-1 $140 $141 $5 $-1 $142 forward single #
loop $-1 -1 $-1 $-1 $143 $87 #
cone-surface $-1 -1 $-1 -65.87105729659796793 48.07904909302550323 0 0 0 1 -60.62881749878023641 -17.0330430510444053 0 1 I I 0 1 62.97601183688225035 forward I I I I #
coedge $-1 -1 $-1 $144 $145 $146 $147 forward $88 $-1 #
coedge $-1 -1 $-1 $148 $90 $92 $123 forward $64 $-1 #
coedge $-1 -1 $-1 $90 $148 $144 $149 reversed $64 $-1 #
coedge $-1 -1 $-1 $146 $93 $90 $119 reversed $108 $-1 #
edge $150 -1 $-1 $151 1.840628052210755206 $126 3.141592653589793116 $90 $152 forward @7 unknown #
coedge $-1 -1 $-1 $92 $91 $136 $153 reversed $43 $-1 #
coedge $-1 -1 $-1 $154 $137 $91 $122 reversed $155 $-1 #
edge $156 -1 $-1 $127 0 $157 1.200000000000000178 $121 $158 forward @7 unknown #
edge $159 -1 $-1 $126 0 $160 1.200000000000000178 $116 $161 forward @7 unknown #
coedge $-1 -1 $-1 $93 $162 $154 $163 reversed $108 $-1 #
DXID-attrib $-1 -1 $-1 $-1 $94 @10 ASM ENTITY @36 36c940b0-c353-4f75-873b-da0206ea3e19 #
vertex $-1 -1 $-1 $94 $164 #
vertex $-1 -1 $-1 $94 $165 #
ellipse-curve $-1 -1 $-1 112.1703021418619528 -34.6029553388370914 0 0 0 1 -14.72171863238677147 -2.875754990465975602 0 1 F 0 F 3.275670164750946523 #
loop $-1 -1 $-1 $101 $95 $81 #
DXID-attrib $-1 -1 $-1 $-1 $96 @10 ASM ENTITY @36 74a2aadd-5f7d-4609-af20-9823248cac35 #
vertex $-1 -1 $-1 $96 $166 #
ellipse-curve $-1 -1 $-1 -62.01989308133349255 0.1030372561427839173 0 0 0 -1 -2.50000000000000222 -0 -0 1 I I #
point $-1 -1 $-1 -59.51989308133349255 0.1030372561427839173 12.00000000000000178 #
point $-1 -1 $-1 -109.5589434636629278 35.10303725614278392 0 #
coedge $-1 -1 $-1 $167 $110 $168 $169 forward $84 $-1 #
coedge $-1 -1 $-1 $110 $170 $120 $153 forward $84 $-1 #
coedge $-1 -1 $-1 $121 $171 $110 $138 reversed $155 $-1 #
edge $172 -1 $-1 $157 3.830992106500644994e-17 $173 1.223036031068984952 $137 $174 forward @7 unknown #
DXID-attrib $-1 -1 $-1 $-1 $112 @10 ASM ENTITY @36 e90c720b-c4d5-4dd4-a646-5dbab6a7415a #
face $175 -1 $-1 $176 $177 $5 $-1 $178 forward single #
loop $-1 -1 $-1 $-1 $179 $112 #
cone-surface $-1 -1 $-1 -112.0589434636629278 35.10303725614278392 0 0 0 1 14.87189000889339141 1.956243227049576205 0 1 I I 0 1 15.00000000000001599 forward I I I I #
coedge $-1 -1 $-1 $180 $181 $182 $183 forward $113 $-1 #
coedge $-1 -1 $-1 $184 $115 $117 $149 forward $88 $-1 #
coedge $-1 -1 $-1 $115 $184 $180 $185 reversed $88 $-1 #
coedge $-1 -1 $-1 $182 $118 $115 $147 reversed $108 $-1 #
edge $186 -1 $-1 $187 0 $151 13.36445221842491549 $115 $188 forward @7 unknown #
coedge $-1 -1 $-1 $117 $116 $170 $189 reversed $64 $-1 #
edge $190 -1 $-1 $151 0 $191 1.200000000000000178 $144 $192 forward @7 tangent #
DXID-attrib $-1 -1 $-1 $-1 $119 @10 ASM ENTITY @36 3ded760a-9fb5-47d4-a91c-992d7c1d227c #
vertex $-1 -1 $-1 $119 $193 #
ellipse-curve $-1 -1 $-1 67.77346488765161325 -45.68616504032348757 0 0 0 -1 -29.67511862182358584 -8.20745471102041968 -0 1 F 1.840628052210755206 F 3.141592653589793116 #
edge $194 -1 $-1 $160 0 $157 3.275670164750946523 $120 $195 forward @7 unknown #
coedge $-1 -1 $-1 $171 $121 $124 $163 forward $155 $-1 #
loop $-1 -1 $-1 $-1 $154 $196 #
DXID-attrib $-1 -1 $-1 $-1 $122 @10 ASM ENTITY @36 171e5c05-125b-4c7c-a389-99097c6c37ea #
vertex $-1 -1 $-1 $122 $197 #
straight-curve $-1 -1 $-1 126.3754744653104467 -29.7850672623576429 0 0 0 10 I I #
DXID-attrib $-1 -1 $-1 $-1 $123 @10 ASM ENTITY @36 8ae91ffc-4ca2-417d-9468-40aa7dc2b51d #
vertex $-1 -1 $-1 $153 $198 #
straight-curve $-1 -1 $-1 97.44858350947524173 -37.47871032930305546 0 0 0 10 I I #
coedge $-1 -1 $-1 $124 $199 $200 $201 reversed $108 $-1 #
edge $202 -1 $-1 $127 3.830992106500644994e-17 $203 1.223036031068984952 $154 $204 forward @7 unknown #
point $-1 -1 $-1 97.44858350947524173 -37.47871032930305546 0 #
point $-1 -1 $-1 126.3754744653104467 -29.7850672623576429 0 #
point $-1 -1 $-1 -59.51989308133349255 0.1030372561427839173 0 #
coedge $-1 -1 $-1 $205 $135 $206 $207 forward $84 $-1 #
coedge $-1 -1 $-1 $208 $209 $135 $169 reversed $210 $-1 #
edge $211 -1 $-1 $173 -6.005401912051771866e-29 $212 13.45111582499113467 $168 $213 forward @7 unknown #
coedge $-1 -1 $-1 $136 $214 $148 $189 forward $84 $-1 #
coedge $-1 -1 $-1 $137 $154 $208 $215 forward $155 $-1 #
DXID-attrib $-1 -1 $-1 $-1 $138 @10 ASM ENTITY @36 0c1f5b5f-7bfd-4f31-bc9c-518930c2e2f8 #
vertex $-1 -1 $-1 $169 $216 #
ellipse-curve $-1 -1 $-1 62.35760089331620293 -52.99106172083810407 12.00000000000000178 0 0 1 64.01787357199418693 23.20599445848043985 0 1 I I #
DXID-attrib $-1 -1 $-1 $-1 $140 @10 ASM ENTITY @36 f2810dba-111e-49dd-9586-1d642b1caa8f #
face $217 -1 $-1 $196 $210 $5 $-1 $218 forward single #
loop $-1 -1 $-1 $-1 $219 $140 #
cone-surface $-1 -1 $-1 -72.1535573565951438 40.35217783263107094 0 0 0 1 25.03349609817441745 3.292897349438714816 0 1 I I 0 -1 25.24914057648803123 forward I I I I #
coedge $-1 -1 $-1 $220 $221 $222 $223 forward $141 $-1 #
coedge $-1 -1 $-1 $224 $143 $145 $185 forward $113 $-1 #
coedge $-1 -1 $-1 $143 $224 $220 $225 reversed $113 $-1 #
coedge $-1 -1 $-1 $222 $146 $143 $183 reversed $108 $-1 #
edge $226 -1 $-1 $227 -5.822684473486020878e-16 $187 1.296916433818926739 $143 $228 forward @7 unknown #
coedge $-1 -1 $-1 $145 $144 $214 $229 reversed $88 $-1 #
edge $230 -1 $-1 $187 0 $231 1.200000000000000178 $180 $232 forward @7 tangent #
DXID-attrib $-1 -1 $-1 $-1 $147 @10 ASM ENTITY @36 1cf2309d-5548-4dc3-b4d2-91e1fe855457 #
vertex $-1 -1 $-1 $147 $233 #
straight-curve $-1 -1 $-1 -65.87105729659768372 -14.89696274385721608 0 10 2.126664749582505287e-14 0 F 0 F 13.36445221842491549 #
edge $234 -1 $-1 $191 1.840628052210755206 $160 3.141592653589793116 $148 $235 forward @7 unknown #
DXID-attrib $-1 -1 $-1 $-1 $149 @10 ASM ENTITY @36 209399af-36d7-4add-9bc0-0e48441bcd85 #
vertex $-1 -1 $-1 $189 $236 #
straight-curve $-1 -1 $-1 67.77346488765147114 -14.89696274385693187 0 0 0 10 I I #
point $-1 -1 $-1 67.77346488765147114 -14.89696274385693187 0 #
DXID-attrib $-1 -1 $-1 $-1 $153 @10 ASM ENTITY @36 33b55b8c-0a4c-4e65-bdea-1da2399a6095 #
ellipse-curve $-1 -1 $-1 112.1703021418619528 -34.6029553388370914 12.00000000000000178 0 0 1 -14.72171863238677147 -2.875754990465975602 0 1 I I #
face $237 -1 $-1 $60 $155 $5 $-1 $238 forward single #
point $-1 -1 $-1 126.3754744653104467 -29.7850672623576429 12.00000000000000178 #
point $-1 -1 $-1 97.44858350947524173 -37.47871032930305546 12.00000000000000178 #
coedge $-1 -1 $-1 $162 $222 $219 $239 reversed $108 $-1 #
coedge $-1 -1 $-1 $209 $208 $162 $201 forward $210 $-1 #
edge $240 -1 $-1 $203 -6.005401912051771866e-29 $241 13.45111582499113467 $200 $242 forward @7 unknown #
DXID-attrib $-1 -1 $-1 $-1 $163 @10 ASM ENTITY @36 cee16c2a-2925-478a-9ff5-663e472ad4a1 #
vertex $-1 -1 $-1 $201 $243 #
ellipse-curve $-1 -1 $-1 62.35760089331620293 -52.99106172083810407 0 0 0 1 64.01787357199418693 23.20599445848043985 0 1 F 3.830992106500644994e-17 F 1.223036031068984952 #
coedge $-1 -1 $-1 $244 $167 $245 $246 forward $84 $-1 #
coedge $-1 -1 $-1 $247 $248 $167 $207 reversed $177 $-1 #
edge $249 -1 $-1 $212 1.701585095432875505 $250 3.14159265358979356 $206 $251 forward @7 unknown #
coedge $-1 -1 $-1 $200 $168 $171 $215 reversed $210 $-1 #
coedge $-1 -1 $-1 $168 $200 $247 $252 forward $210 $-1 #
loop $-1 -1 $-1 $-1 $200 $176 #
DXID-attrib $-1 -1 $-1 $-1 $169 @10 ASM ENTITY @36 38f246c6-0610-43cd-84e4-c97f75e846c5 #
vertex $-1 -1 $-1 $207 $253 #
straight-curve $-1 -1 $-1 62.35760089331620293 15.10303725614278392 12.00000000000000178 -10 2.112962954166126951e-14 0 I I #
coedge $-1 -1 $-1 $170 $244 $184 $229 forward $84 $-1 #
edge $254 -1 $-1 $203 0 $173 1.200000000000000178 $171 $255 forward @7 tangent #
point $-1 -1 $-1 62.35760089331620293 15.1030372561424997 12.00000000000000178 #
DXID-attrib $-1 -1 $-1 $-1 $176 @10 ASM ENTITY @36 01489dec-19af-4f70-95d7-6ff4bd547e12 #
plane-surface $-1 -1 $-1 62.35760089331620293 15.10303725614278392 0 2.112962954166126872e-15 1 0 -10 2.112962954166126951e-14 0 forward_v I I I I #
coedge $-1 -1 $-1 $248 $247 $199 $239 forward $177 $-1 #
coedge $-1 -1 $-1 $245 $179 $181 $225 forward $141 $-1 #
coedge $-1 -1 $-1 $179 $245 $248 $256 reversed $141 $-1 #
coedge $-1 -1 $-1 $199 $182 $179 $223 reversed $108 $-1 #
edge $257 -1 $-1 $258 2.467162276944779233e-17 $227 3.284683777927775328 $179 $259 forward @7 unknown #
coedge $-1 -1 $-1 $181 $180 $244 $260 reversed $113 $-1 #
edge $261 -1 $-1 $227 0 $262 1.200000000000000178 $220 $263 forward @7 tangent #
DXID-attrib $-1 -1 $-1 $-1 $183 @10 ASM ENTITY @36 31c89e3d-7d67-4296-a359-eed06a6c4704 #
vertex $-1 -1 $-1 $183 $264 #
ellipse-curve $-1 -1 $-1 -65.87105729659796793 48.07904909302550323 0 0 0 1 -60.62881749878023641 -17.0330430510444053 0 1 F -5.822684473486020878e-16 F 1.296916433818926739 #
edge $265 -1 $-1 $231 0 $191 13.36445221842491549 $184 $266 forward @7 unknown #
DXID-attrib $-1 -1 $-1 $-1 $185 @10 ASM ENTITY @36 22e09ded-59d6-4bec-be8a-c494e2c29ccb #
vertex $-1 -1 $-1 $229 $267 #
straight-curve $-1 -1 $-1 -65.87105729659768372 -14.89696274385721608 0 0 0 10 I I #
point $-1 -1 $-1 -65.87105729659768372 -14.89696274385721608 0 #
DXID-attrib $-1 -1 $-1 $-1 $189 @10 ASM ENTITY @36 fb8a4b17-5ee1-4915-ab9f-40c8e0a267f4 #
ellipse-curve $-1 -1 $-1 67.77346488765161325 -45.68616504032348757 12.00000000000000178 0 0 -1 -29.67511862182358584 -8.20745471102041968 -0 1 I I #
point $-1 -1 $-1 67.77346488765147114 -14.89696274385693187 12.00000000000000178 #
DXID-attrib $-1 -1 $-1 $-1 $196 @10 ASM ENTITY @36 bcbb79e8-2421-4b67-bf62-db40652aa0b3 #
cone-surface $-1 -1 $-1 62.35760089331620293 -52.99106172083810407 0 0 0 1 64.01787357199418693 23.20599445848043985 0 1 I I 0 1 68.09409897698080272 forward I I I I #
edge $268 -1 $-1 $241 1.701585095432875505 $258 3.14159265358979356 $219 $269 forward @7 unknown #
DXID-attrib $-1 -1 $-1 $-1 $201 @10 ASM ENTITY @36 5e29f934-5b54-4dde-b5a0-944314873067 #
vertex $-1 -1 $-1 $239 $270 #
straight-curve $-1 -1 $-1 62.35760089331620293 15.10303725614278392 0 -10 2.112962954166126951e-14 0 F -6.005401912051771866e-29 F 13.45111582499113467 #
point $-1 -1 $-1 62.35760089331620293 15.1030372561424997 0 #
coedge $-1 -1 $-1 $214 $205 $224 $260 forward $84 $-1 #
coedge $-1 -1 $-1 $221 $220 $205 $246 reversed $141 $-1 #
edge $271 -1 $-1 $250 2.467162276944779233e-17 $262 3.284683777927775328 $245 $272 forward @7 unknown #
coedge $-1 -1 $-1 $219 $206 $209 $252 reversed $177 $-1 #
coedge $-1 -1 $-1 $206 $219 $221 $256 forward $177 $-1 #
DXID-attrib $-1 -1 $-1 $-1 $207 @10 ASM ENTITY @36 387b2ae9-8d21-4077-8e7a-f24921b348e2 #
vertex $-1 -1 $-1 $246 $273 #
ellipse-curve $-1 -1 $-1 -72.1535573565951438 40.35217783263107094 12.00000000000000178 0 0 -1 25.03349609817441745 3.292897349438714816 0 1 I I #
edge $274 -1 $-1 $241 0 $212 1.200000000000000178 $209 $275 forward @7 tangent #
point $-1 -1 $-1 -72.1535573565951438 15.10303725614306813 12.00000000000000178 #
DXID-attrib $-1 -1 $-1 $-1 $215 @10 ASM ENTITY @36 e91f0757-4cb8-4c48-b42b-a2198a511796 #
straight-curve $-1 -1 $-1 62.35760089331620293 15.1030372561424997 0 0 0 10 I I #
edge $276 -1 $-1 $258 0 $250 1.200000000000000178 $248 $277 forward @7 tangent #
DXID-attrib $-1 -1 $-1 $-1 $223 @10 ASM ENTITY @36 52eb5658-8e86-4d87-b7b7-2474436d7081 #
vertex $-1 -1 $-1 $223 $278 #
ellipse-curve $-1 -1 $-1 -112.0589434636629278 35.10303725614278392 0 0 0 1 14.87189000889339141 1.956243227049576205 0 1 F 2.467162276944779233e-17 F 3.284683777927775328 #
edge $279 -1 $-1 $262 -5.822684473486020878e-16 $231 1.296916433818926739 $224 $280 forward @7 unknown #
DXID-attrib $-1 -1 $-1 $-1 $225 @10 ASM ENTITY @36 46532f7d-2d24-4af1-bbe1-7c6d33665b4b #
vertex $-1 -1 $-1 $260 $281 #
straight-curve $-1 -1 $-1 -126.4998747953782754 31.04600604198111569 0 0 0 10 I I #
point $-1 -1 $-1 -126.4998747953782754 31.04600604198111569 0 #
DXID-attrib $-1 -1 $-1 $-1 $229 @10 ASM ENTITY @36 bead2375-f7d3-4afb-87bb-d35ccd2e52fa #
straight-curve $-1 -1 $-1 -65.87105729659768372 -14.89696274385721608 12.00000000000000178 10 2.126664749582505287e-14 0 I I #
point $-1 -1 $-1 -65.87105729659768372 -14.89696274385721608 12.00000000000000178 #
DXID-attrib $-1 -1 $-1 $-1 $239 @10 ASM ENTITY @36 7a2d69ee-23ab-43cb-be91-6ee5b692b6a9 #
ellipse-curve $-1 -1 $-1 -72.1535573565951438 40.35217783263107094 0 0 0 -1 25.03349609817441745 3.292897349438714816 0 1 F 1.701585095432875505 F 3.14159265358979356 #
point $-1 -1 $-1 -72.1535573565951438 15.10303725614306813 0 #
DXID-attrib $-1 -1 $-1 $-1 $246 @10 ASM ENTITY @36 df74d467-2e0a-4d03-8e8e-8e1167d94cc3 #
ellipse-curve $-1 -1 $-1 -112.0589434636629278 35.10303725614278392 12.00000000000000178 0 0 1 14.87189000889339141 1.956243227049576205 0 1 I I #
point $-1 -1 $-1 -97.1870534547696252 37.05928048319236723 12.00000000000000178 #
DXID-attrib $-1 -1 $-1 $-1 $252 @10 ASM ENTITY @36 3db52dd1-0bb9-4bc6-b2f7-a6f100924dc3 #
straight-curve $-1 -1 $-1 -72.1535573565951438 15.10303725614306813 0 0 0 10 I I #
DXID-attrib $-1 -1 $-1 $-1 $256 @10 ASM ENTITY @36 7257b589-3f68-4f83-b91c-ffcd6868d8d7 #
straight-curve $-1 -1 $-1 -97.1870534547696252 37.05928048319236723 0 0 0 10 I I #
point $-1 -1 $-1 -97.1870534547696252 37.05928048319236723 0 #
DXID-attrib $-1 -1 $-1 $-1 $260 @10 ASM ENTITY @36 5b97e68f-14b8-40a1-a928-c2781a3ac5ab #
ellipse-curve $-1 -1 $-1 -65.87105729659796793 48.07904909302550323 12.00000000000000178 0 0 1 -60.62881749878023641 -17.0330430510444053 0 1 I I #
point $-1 -1 $-1 -126.4998747953782754 31.04600604198111569 12.00000000000000178 #
End-of-ACIS-data 