700 0 1 0           
30 Autodesk Translation Framework 20 ASM 229.3.0.65535 NT 24 Mon May 22 19:35:49 2023 
1 9.999999999999999547e-07 1.000000000000000036e-10 
body $1 -1 $-1 $2 $-1 $3 #
rgb_color-st-attrib $-1 -1 $4 $-1 $0 0.7490196078431372584 0.7490196078431372584 0.7490196078431372584 #
lump $-1 -1 $-1 $-1 $5 $0 #
transform $-1 -1 1 0 0 0 1 0 0 0 1 0 0 0 1 no_rotate no_reflect no_shear #
DXID-attrib $-1 -1 $-1 $1 $0 @10 ASM ENTITY @107 BRAZO_2_SOPORTE_1.IPT|:|13D45B9789B8771EA78B420B3D210212A2819445|:|DA4B9237BACCCDF19C0760CAB7AEC4A8359010B0 #
shell $-1 -1 $-1 $-1 $-1 $6 $-1 $2 #
face $7 -1 $-1 $8 $9 $5 $-1 $10 forward single #
DXID-attrib $-1 -1 $-1 $-1 $6 @10 ASM ENTITY @36 f4b681f8-1e06-4ac4-917f-db47c399afee #
face $11 -1 $-1 $12 $13 $5 $-1 $14 forward single #
loop $-1 -1 $-1 $15 $16 $6 #
cone-surface $-1 -1 $-1 1226.811399278082718 2335.220037256142859 0 0 0 1 -2.50000000000000222 0 0 1 I I 0 -1 2.50000000000000222 forward I I I I #
DXID-attrib $-1 -1 $-1 $-1 $8 @10 ASM ENTITY @36 55eb18ed-e8a9-44f6-8b11-eebb15523a0a #
face $17 -1 $-1 $18 $19 $5 $-1 $20 forward single #
loop $-1 -1 $-1 $21 $22 $8 #
cone-surface $-1 -1 $-1 1012.51810691866649 2385.083814486689789 0 0 0 1 -2.499999999999998224 0 0 1 I I 0 -1 2.499999999999998224 forward I I I I #
loop $-1 -1 $-1 $-1 $23 $6 #
coedge $-1 -1 $-1 $16 $16 $24 $25 reversed $9 $-1 #
DXID-attrib $-1 -1 $-1 $-1 $12 @10 ASM ENTITY @36 78b85a81-b1b7-4fbb-9021-736416178976 #
face $26 -1 $-1 $27 $28 $5 $-1 $29 forward single #
loop $-1 -1 $-1 $30 $31 $12 #
cone-surface $-1 -1 $-1 1002.479056536337112 2405.220037256142859 0 0 0 1 -2.50000000000000222 0 0 1 I I 0 -1 2.50000000000000222 forward I I I I #
loop $-1 -1 $-1 $-1 $32 $8 #
coedge $-1 -1 $-1 $22 $22 $33 $34 reversed $13 $-1 #
coedge $-1 -1 $-1 $23 $23 $35 $36 forward $15 $-1 #
coedge $-1 -1 $-1 $24 $24 $16 $25 forward $37 $-1 #
edge $38 -1 $-1 $39 -3.141592653589793116 $39 3.141592653589793116 $16 $40 forward @7 unknown #
DXID-attrib $-1 -1 $-1 $-1 $18 @10 ASM ENTITY @36 bc38406a-820a-45a3-8976-b9d65af4116c #
face $41 -1 $-1 $42 $43 $5 $-1 $44 forward single #
loop $-1 -1 $-1 $45 $46 $18 #
cone-surface $-1 -1 $-1 1052.51810691866649 2370.220037256142859 0 0 0 1 -2.50000000000000222 0 0 1 I I 0 -1 2.50000000000000222 forward I I I I #
loop $-1 -1 $-1 $-1 $47 $12 #
coedge $-1 -1 $-1 $31 $31 $48 $49 reversed $19 $-1 #
coedge $-1 -1 $-1 $32 $32 $50 $51 forward $21 $-1 #
coedge $-1 -1 $-1 $33 $33 $22 $34 forward $52 $-1 #
edge $53 -1 $-1 $54 -3.141592653589793116 $54 3.141592653589793116 $22 $55 forward @7 unknown #
coedge $-1 -1 $-1 $35 $35 $23 $36 reversed $56 $-1 #
edge $57 -1 $-1 $58 -3.141592653589793116 $58 3.141592653589793116 $23 $59 forward @7 unknown #
loop $-1 -1 $-1 $-1 $24 $60 #
DXID-attrib $-1 -1 $-1 $-1 $25 @10 ASM ENTITY @36 053873eb-be32-46a9-ac97-dee472815871 #
vertex $-1 -1 $-1 $25 $61 #
ellipse-curve $-1 -1 $-1 1226.811399278082718 2335.220037256142859 12.00000000000000178 0 0 -1 -2.50000000000000222 -0 -0 1 I I #
DXID-attrib $-1 -1 $-1 $-1 $27 @10 ASM ENTITY @36 0e37a5e6-d9bc-43f0-9310-449541bd4152 #
face $62 -1 $-1 $63 $64 $5 $-1 $65 forward single #
loop $-1 -1 $-1 $-1 $66 $27 #
cone-surface $-1 -1 $-1 1226.708302141862077 2335.514044661163098 0 0 0 1 -14.72171863238677147 -2.875754990465975602 0 1 I I 0 1 14.99996554183888264 forward I I I I #
loop $-1 -1 $-1 $-1 $67 $18 #
coedge $-1 -1 $-1 $46 $46 $68 $69 reversed $28 $-1 #
coedge $-1 -1 $-1 $47 $47 $70 $71 forward $30 $-1 #
coedge $-1 -1 $-1 $48 $48 $31 $49 forward $72 $-1 #
edge $73 -1 $-1 $74 -3.141592653589793116 $74 3.141592653589793116 $31 $75 forward @7 unknown #
coedge $-1 -1 $-1 $50 $50 $32 $51 reversed $76 $-1 #
edge $77 -1 $-1 $78 -3.141592653589793116 $78 3.141592653589793116 $32 $79 forward @7 unknown #
loop $-1 -1 $-1 $37 $33 $60 #
DXID-attrib $-1 -1 $-1 $-1 $34 @10 ASM ENTITY @36 f466ae95-4318-4fdd-9708-b231d89a85ab #
vertex $-1 -1 $-1 $34 $80 #
ellipse-curve $-1 -1 $-1 1012.51810691866649 2385.083814486689789 12.00000000000000178 0 0 -1 -2.499999999999998224 -0 -0 1 I I #
loop $-1 -1 $-1 $-1 $35 $81 #
DXID-attrib $-1 -1 $-1 $-1 $36 @10 ASM ENTITY @36 b3fd63b3-eef8-42a8-b86a-de4bbdd955d4 #
vertex $-1 -1 $-1 $36 $82 #
ellipse-curve $-1 -1 $-1 1226.811399278082718 2335.220037256142859 0 0 0 -1 -2.50000000000000222 -0 -0 1 I I #
face $83 -1 $-1 $81 $84 $5 $-1 $85 forward single #
point $-1 -1 $-1 1229.311399278082718 2335.220037256142859 12.00000000000000178 #
DXID-attrib $-1 -1 $-1 $-1 $42 @10 ASM ENTITY @36 c394ad79-4822-435a-ab09-eaeac5055bc2 #
face $86 -1 $-1 $87 $88 $5 $-1 $89 forward single #
loop $-1 -1 $-1 $-1 $90 $42 #
cone-surface $-1 -1 $-1 1182.311464887651709 2324.430834959676758 0 0 0 1 -29.67511862182358584 -8.20745471102041968 0 1 I I 0 -1 30.78920229646672979 forward I I I I #
coedge $-1 -1 $-1 $91 $92 $93 $94 forward $43 $-1 #
coedge $-1 -1 $-1 $67 $67 $95 $96 forward $45 $-1 #
coedge $-1 -1 $-1 $68 $68 $46 $69 forward $97 $-1 #
edge $98 -1 $-1 $99 -3.141592653589793116 $99 3.141592653589793116 $46 $100 forward @7 unknown #
coedge $-1 -1 $-1 $70 $70 $47 $71 reversed $101 $-1 #
edge $102 -1 $-1 $103 -3.141592653589793116 $103 3.141592653589793116 $47 $104 forward @7 unknown #
loop $-1 -1 $-1 $52 $48 $60 #
DXID-attrib $-1 -1 $-1 $-1 $49 @10 ASM ENTITY @36 2e27eebd-2c9b-4a00-ad68-efbd06efcdb1 #
vertex $-1 -1 $-1 $49 $105 #
ellipse-curve $-1 -1 $-1 1002.479056536337112 2405.220037256142859 12.00000000000000178 0 0 -1 -2.50000000000000222 -0 -0 1 I I #
loop $-1 -1 $-1 $56 $50 $81 #
DXID-attrib $-1 -1 $-1 $-1 $51 @10 ASM ENTITY @36 61dae0b3-5014-4f08-bd75-9658799dc8b6 #
vertex $-1 -1 $-1 $51 $106 #
ellipse-curve $-1 -1 $-1 1012.51810691866649 2385.083814486689789 0 0 0 -1 -2.499999999999998224 -0 -0 1 I I #
point $-1 -1 $-1 1015.01810691866649 2385.083814486689789 12.00000000000000178 #
face $107 -1 $-1 $-1 $108 $5 $-1 $109 reversed single #
point $-1 -1 $-1 1229.311399278082718 2335.220037256142859 0 #
DXID-attrib $-1 -1 $-1 $-1 $60 @10 ASM ENTITY @36 44805c9b-7fee-4c62-9467-b7fb57273cb0 #
loop $-1 -1 $-1 $97 $110 $60 #
plane-surface $-1 -1 $-1 1114.59366211001884 2370.367058187733619 12.00000000000000178 0 0 1 10 0 0 forward_v I I I I #
DXID-attrib $-1 -1 $-1 $-1 $63 @10 ASM ENTITY @36 acf6f82e-6540-4f4b-b436-bcfdfa7d940d #
face $111 -1 $-1 $112 $113 $5 $-1 $114 forward single #
loop $-1 -1 $-1 $-1 $115 $63 #
plane-surface $-1 -1 $-1 1048.666942703402356 2355.220037256142859 0 2.126664749582505287e-15 -1 0 10 2.126664749582505287e-14 0 forward_v I I I I #
coedge $-1 -1 $-1 $116 $117 $118 $119 forward $64 $-1 #
coedge $-1 -1 $-1 $120 $66 $121 $122 forward $43 $-1 #
coedge $-1 -1 $-1 $66 $120 $116 $123 reversed $43 $-1 #
coedge $-1 -1 $-1 $118 $124 $66 $94 reversed $108 $-1 #
edge $125 -1 $-1 $126 0 $127 3.275670164750946523 $66 $128 forward @7 unknown #
coedge $-1 -1 $-1 $95 $95 $67 $96 reversed $129 $-1 #
edge $130 -1 $-1 $131 -3.141592653589793116 $131 3.141592653589793116 $67 $132 forward @7 unknown #
loop $-1 -1 $-1 $72 $68 $60 #
DXID-attrib $-1 -1 $-1 $-1 $69 @10 ASM ENTITY @36 7c58086d-6c9a-4167-ad34-d285b9657f87 #
vertex $-1 -1 $-1 $69 $133 #
ellipse-curve $-1 -1 $-1 1052.51810691866649 2370.220037256142859 12.00000000000000178 0 0 -1 -2.50000000000000222 -0 -0 1 I I #
loop $-1 -1 $-1 $76 $70 $81 #
DXID-attrib $-1 -1 $-1 $-1 $71 @10 ASM ENTITY @36 ee86bdd6-2bb2-4ae5-9ce0-9fdd27bd4d95 #
vertex $-1 -1 $-1 $71 $134 #
ellipse-curve $-1 -1 $-1 1002.479056536337112 2405.220037256142859 0 0 0 -1 -2.50000000000000222 -0 -0 1 I I #
point $-1 -1 $-1 1004.979056536337112 2405.220037256142859 12.00000000000000178 #
point $-1 -1 $-1 1015.01810691866649 2385.083814486689789 0 #
DXID-attrib $-1 -1 $-1 $-1 $81 @10 ASM ENTITY @36 f0618807-8e81-46ee-a423-f70453d0735a #
loop $-1 -1 $-1 $129 $124 $81 #
plane-surface $-1 -1 $-1 1114.59366211001884 2370.367058187733619 0 0 0 1 10 0 0 forward_v I I I I #
coedge $-1 -1 $-1 $135 $136 $137 $138 forward $84 $-1 #
DXID-attrib $-1 -1 $-1 $-1 $87 @10 ASM ENTITY @36 1910f629-ddc3-485b-b360-b44ee1745e62 #
face $139 -1 $-1 $140 $141 $5 $-1 $142 forward single #
loop $-1 -1 $-1 $-1 $143 $87 #
cone-surface $-1 -1 $-1 1048.666942703402128 2418.196049093025522 0 0 0 1 -60.62881749878023641 -17.0330430510444053 0 1 I I 0 1 62.97601183688225035 forward I I I I #
coedge $-1 -1 $-1 $144 $145 $146 $147 forward $88 $-1 #
coedge $-1 -1 $-1 $148 $90 $92 $123 forward $64 $-1 #
coedge $-1 -1 $-1 $90 $148 $144 $149 reversed $64 $-1 #
coedge $-1 -1 $-1 $146 $93 $90 $119 reversed $108 $-1 #
edge $150 -1 $-1 $151 1.840628052210755206 $126 3.141592653589793116 $90 $152 forward @7 unknown #
coedge $-1 -1 $-1 $92 $91 $136 $153 reversed $43 $-1 #
coedge $-1 -1 $-1 $154 $137 $91 $122 reversed $155 $-1 #
edge $156 -1 $-1 $127 0 $157 1.200000000000000178 $121 $158 forward @7 unknown #
edge $159 -1 $-1 $126 0 $160 1.200000000000000178 $116 $161 forward @7 unknown #
coedge $-1 -1 $-1 $93 $162 $154 $163 reversed $108 $-1 #
DXID-attrib $-1 -1 $-1 $-1 $94 @10 ASM ENTITY @36 b9de08a7-0ca5-4b41-9c70-4abb6769717e #
vertex $-1 -1 $-1 $94 $164 #
vertex $-1 -1 $-1 $94 $165 #
ellipse-curve $-1 -1 $-1 1226.708302141862077 2335.514044661163098 0 0 0 1 -14.72171863238677147 -2.875754990465975602 0 1 F 0 F 3.275670164750946523 #
loop $-1 -1 $-1 $101 $95 $81 #
DXID-attrib $-1 -1 $-1 $-1 $96 @10 ASM ENTITY @36 b9e4f8b3-b5cb-4427-95a0-d61083202bf7 #
vertex $-1 -1 $-1 $96 $166 #
ellipse-curve $-1 -1 $-1 1052.51810691866649 2370.220037256142859 0 0 0 -1 -2.50000000000000222 -0 -0 1 I I #
point $-1 -1 $-1 1055.01810691866649 2370.220037256142859 12.00000000000000178 #
point $-1 -1 $-1 1004.979056536337112 2405.220037256142859 0 #
coedge $-1 -1 $-1 $167 $110 $168 $169 forward $84 $-1 #
coedge $-1 -1 $-1 $110 $170 $120 $153 forward $84 $-1 #
coedge $-1 -1 $-1 $121 $171 $110 $138 reversed $155 $-1 #
edge $172 -1 $-1 $157 3.830992106500644994e-17 $173 1.223036031068984952 $137 $174 forward @7 unknown #
DXID-attrib $-1 -1 $-1 $-1 $112 @10 ASM ENTITY @36 93d76750-66af-4602-ae81-251e4d7ccf43 #
face $175 -1 $-1 $176 $177 $5 $-1 $178 forward single #
loop $-1 -1 $-1 $-1 $179 $112 #
cone-surface $-1 -1 $-1 1002.479056536337112 2405.220037256142859 0 0 0 1 14.87189000889339141 1.956243227049576205 0 1 I I 0 1 15.00000000000001599 forward I I I I #
coedge $-1 -1 $-1 $180 $181 $182 $183 forward $113 $-1 #
coedge $-1 -1 $-1 $184 $115 $117 $149 forward $88 $-1 #
coedge $-1 -1 $-1 $115 $184 $180 $185 reversed $88 $-1 #
coedge $-1 -1 $-1 $182 $118 $115 $147 reversed $108 $-1 #
edge $186 -1 $-1 $187 0 $151 13.36445221842491549 $115 $188 forward @7 unknown #
coedge $-1 -1 $-1 $117 $116 $170 $189 reversed $64 $-1 #
edge $190 -1 $-1 $151 0 $191 1.200000000000000178 $144 $192 forward @7 tangent #
DXID-attrib $-1 -1 $-1 $-1 $119 @10 ASM ENTITY @36 43d8edb3-5651-4a98-aa06-b9515ca6cc4c #
vertex $-1 -1 $-1 $119 $193 #
ellipse-curve $-1 -1 $-1 1182.311464887651709 2324.430834959676758 0 0 0 -1 -29.67511862182358584 -8.20745471102041968 -0 1 F 1.840628052210755206 F 3.141592653589793116 #
edge $194 -1 $-1 $160 0 $157 3.275670164750946523 $120 $195 forward @7 unknown #
coedge $-1 -1 $-1 $171 $121 $124 $163 forward $155 $-1 #
loop $-1 -1 $-1 $-1 $154 $196 #
DXID-attrib $-1 -1 $-1 $-1 $122 @10 ASM ENTITY @36 d928de6c-f263-4c13-a410-4d47287a86ec #
vertex $-1 -1 $-1 $122 $197 #
straight-curve $-1 -1 $-1 1240.913474465310401 2340.331932737642546 0 0 0 10 I I #
DXID-attrib $-1 -1 $-1 $-1 $123 @10 ASM ENTITY @36 d492d491-ca7d-49cb-85d7-c9fcdb9c2c44 #
vertex $-1 -1 $-1 $153 $198 #
straight-curve $-1 -1 $-1 1211.986583509475167 2332.638289670697304 0 0 0 10 I I #
coedge $-1 -1 $-1 $124 $199 $200 $201 reversed $108 $-1 #
edge $202 -1 $-1 $127 3.830992106500644994e-17 $203 1.223036031068984952 $154 $204 forward @7 unknown #
point $-1 -1 $-1 1211.986583509475167 2332.638289670697304 0 #
point $-1 -1 $-1 1240.913474465310401 2340.331932737642546 0 #
point $-1 -1 $-1 1055.01810691866649 2370.220037256142859 0 #
coedge $-1 -1 $-1 $205 $135 $206 $207 forward $84 $-1 #
coedge $-1 -1 $-1 $208 $209 $135 $169 reversed $210 $-1 #
edge $211 -1 $-1 $173 -6.005401912051771866e-29 $212 13.45111582499113467 $168 $213 forward @7 unknown #
coedge $-1 -1 $-1 $136 $214 $148 $189 forward $84 $-1 #
coedge $-1 -1 $-1 $137 $154 $208 $215 forward $155 $-1 #
DXID-attrib $-1 -1 $-1 $-1 $138 @10 ASM ENTITY @36 ea09618c-adf2-49df-933c-b1b34cc45c4b #
vertex $-1 -1 $-1 $169 $216 #
ellipse-curve $-1 -1 $-1 1176.895600893316214 2317.125938279162256 12.00000000000000178 0 0 1 64.01787357199418693 23.20599445848043985 0 1 I I #
DXID-attrib $-1 -1 $-1 $-1 $140 @10 ASM ENTITY @36 da02e0d8-f34c-47cd-9f4d-1b6c3328f97b #
face $217 -1 $-1 $196 $210 $5 $-1 $218 forward single #
loop $-1 -1 $-1 $-1 $219 $140 #
cone-surface $-1 -1 $-1 1042.384442643404782 2410.469177832631431 0 0 0 1 25.03349609817441745 3.292897349438714816 0 1 I I 0 -1 25.24914057648803123 forward I I I I #
coedge $-1 -1 $-1 $220 $221 $222 $223 forward $141 $-1 #
coedge $-1 -1 $-1 $224 $143 $145 $185 forward $113 $-1 #
coedge $-1 -1 $-1 $143 $224 $220 $225 reversed $113 $-1 #
coedge $-1 -1 $-1 $222 $146 $143 $183 reversed $108 $-1 #
edge $226 -1 $-1 $227 -5.822684473486020878e-16 $187 1.296916433818926739 $143 $228 forward @7 unknown #
coedge $-1 -1 $-1 $145 $144 $214 $229 reversed $88 $-1 #
edge $230 -1 $-1 $187 0 $231 1.200000000000000178 $180 $232 forward @7 tangent #
DXID-attrib $-1 -1 $-1 $-1 $147 @10 ASM ENTITY @36 80ec52f3-a40c-43fc-a0c9-5759a89b4e21 #
vertex $-1 -1 $-1 $147 $233 #
straight-curve $-1 -1 $-1 1048.666942703402356 2355.220037256142859 0 10 2.126664749582505287e-14 0 F 0 F 13.36445221842491549 #
edge $234 -1 $-1 $191 1.840628052210755206 $160 3.141592653589793116 $148 $235 forward @7 unknown #
DXID-attrib $-1 -1 $-1 $-1 $149 @10 ASM ENTITY @36 f9038655-1fa8-4ee7-b641-c68d18b373b7 #
vertex $-1 -1 $-1 $189 $236 #
straight-curve $-1 -1 $-1 1182.311464887651482 2355.220037256143314 0 0 0 10 I I #
point $-1 -1 $-1 1182.311464887651482 2355.220037256143314 0 #
DXID-attrib $-1 -1 $-1 $-1 $153 @10 ASM ENTITY @36 5a1e13a3-5dd1-483b-bc9c-74913c37b315 #
ellipse-curve $-1 -1 $-1 1226.708302141862077 2335.514044661163098 12.00000000000000178 0 0 1 -14.72171863238677147 -2.875754990465975602 0 1 I I #
face $237 -1 $-1 $60 $155 $5 $-1 $238 forward single #
point $-1 -1 $-1 1240.913474465310401 2340.331932737642546 12.00000000000000178 #
point $-1 -1 $-1 1211.986583509475167 2332.638289670697304 12.00000000000000178 #
coedge $-1 -1 $-1 $162 $222 $219 $239 reversed $108 $-1 #
coedge $-1 -1 $-1 $209 $208 $162 $201 forward $210 $-1 #
edge $240 -1 $-1 $203 -6.005401912051771866e-29 $241 13.45111582499113467 $200 $242 forward @7 unknown #
DXID-attrib $-1 -1 $-1 $-1 $163 @10 ASM ENTITY @36 7f431824-c103-436e-a9db-27a939c61e43 #
vertex $-1 -1 $-1 $201 $243 #
ellipse-curve $-1 -1 $-1 1176.895600893316214 2317.125938279162256 0 0 0 1 64.01787357199418693 23.20599445848043985 0 1 F 3.830992106500644994e-17 F 1.223036031068984952 #
coedge $-1 -1 $-1 $244 $167 $245 $246 forward $84 $-1 #
coedge $-1 -1 $-1 $247 $248 $167 $207 reversed $177 $-1 #
edge $249 -1 $-1 $212 1.701585095432875505 $250 3.14159265358979356 $206 $251 forward @7 unknown #
coedge $-1 -1 $-1 $200 $168 $171 $215 reversed $210 $-1 #
coedge $-1 -1 $-1 $168 $200 $247 $252 forward $210 $-1 #
loop $-1 -1 $-1 $-1 $200 $176 #
DXID-attrib $-1 -1 $-1 $-1 $169 @10 ASM ENTITY @36 e42ca029-8821-49b2-9001-03d9cd6310b8 #
vertex $-1 -1 $-1 $207 $253 #
straight-curve $-1 -1 $-1 1176.895600893316214 2385.220037256142859 12.00000000000000178 -10 2.112962954166126951e-14 0 I I #
coedge $-1 -1 $-1 $170 $244 $184 $229 forward $84 $-1 #
edge $254 -1 $-1 $203 0 $173 1.200000000000000178 $171 $255 forward @7 tangent #
point $-1 -1 $-1 1176.895600893316214 2385.220037256142859 12.00000000000000178 #
DXID-attrib $-1 -1 $-1 $-1 $176 @10 ASM ENTITY @36 c693bca8-1631-4351-a936-5d13575c647d #
plane-surface $-1 -1 $-1 1176.895600893316214 2385.220037256142859 0 2.112962954166126872e-15 1 0 -10 2.112962954166126951e-14 0 forward_v I I I I #
coedge $-1 -1 $-1 $248 $247 $199 $239 forward $177 $-1 #
coedge $-1 -1 $-1 $245 $179 $181 $225 forward $141 $-1 #
coedge $-1 -1 $-1 $179 $245 $248 $256 reversed $141 $-1 #
coedge $-1 -1 $-1 $199 $182 $179 $223 reversed $108 $-1 #
edge $257 -1 $-1 $258 2.467162276944779233e-17 $227 3.284683777927775328 $179 $259 forward @7 unknown #
coedge $-1 -1 $-1 $181 $180 $244 $260 reversed $113 $-1 #
edge $261 -1 $-1 $227 0 $262 1.200000000000000178 $220 $263 forward @7 tangent #
DXID-attrib $-1 -1 $-1 $-1 $183 @10 ASM ENTITY @36 44abcf0a-14b6-4f36-837c-0fcd682ef7fc #
vertex $-1 -1 $-1 $183 $264 #
ellipse-curve $-1 -1 $-1 1048.666942703402128 2418.196049093025522 0 0 0 1 -60.62881749878023641 -17.0330430510444053 0 1 F -5.822684473486020878e-16 F 1.296916433818926739 #
edge $265 -1 $-1 $231 0 $191 13.36445221842491549 $184 $266 forward @7 unknown #
DXID-attrib $-1 -1 $-1 $-1 $185 @10 ASM ENTITY @36 b25ef4d1-873f-4eb1-a87a-9b57249a6a9b #
vertex $-1 -1 $-1 $229 $267 #
straight-curve $-1 -1 $-1 1048.666942703402356 2355.220037256142859 0 0 0 10 I I #
point $-1 -1 $-1 1048.666942703402356 2355.220037256142859 0 #
DXID-attrib $-1 -1 $-1 $-1 $189 @10 ASM ENTITY @36 f1c1dd24-9e0e-45b3-9976-a4ea74822be2 #
ellipse-curve $-1 -1 $-1 1182.311464887651709 2324.430834959676758 12.00000000000000178 0 0 -1 -29.67511862182358584 -8.20745471102041968 -0 1 I I #
point $-1 -1 $-1 1182.311464887651482 2355.220037256143314 12.00000000000000178 #
DXID-attrib $-1 -1 $-1 $-1 $196 @10 ASM ENTITY @36 28b70970-3ea9-46a0-a6b4-56a5e4332cd4 #
cone-surface $-1 -1 $-1 1176.895600893316214 2317.125938279162256 0 0 0 1 64.01787357199418693 23.20599445848043985 0 1 I I 0 1 68.09409897698080272 forward I I I I #
edge $268 -1 $-1 $241 1.701585095432875505 $258 3.14159265358979356 $219 $269 forward @7 unknown #
DXID-attrib $-1 -1 $-1 $-1 $201 @10 ASM ENTITY @36 8dcb797b-e1f0-4672-9f48-11b507da20b9 #
vertex $-1 -1 $-1 $239 $270 #
straight-curve $-1 -1 $-1 1176.895600893316214 2385.220037256142859 0 -10 2.112962954166126951e-14 0 F -6.005401912051771866e-29 F 13.45111582499113467 #
point $-1 -1 $-1 1176.895600893316214 2385.220037256142859 0 #
coedge $-1 -1 $-1 $214 $205 $224 $260 forward $84 $-1 #
coedge $-1 -1 $-1 $221 $220 $205 $246 reversed $141 $-1 #
edge $271 -1 $-1 $250 2.467162276944779233e-17 $262 3.284683777927775328 $245 $272 forward @7 unknown #
coedge $-1 -1 $-1 $219 $206 $209 $252 reversed $177 $-1 #
coedge $-1 -1 $-1 $206 $219 $221 $256 forward $177 $-1 #
DXID-attrib $-1 -1 $-1 $-1 $207 @10 ASM ENTITY @36 8b1140d0-5fcf-42d9-b25a-461727804b94 #
vertex $-1 -1 $-1 $246 $273 #
ellipse-curve $-1 -1 $-1 1042.384442643404782 2410.469177832631431 12.00000000000000178 0 0 -1 25.03349609817441745 3.292897349438714816 0 1 I I #
edge $274 -1 $-1 $241 0 $212 1.200000000000000178 $209 $275 forward @7 tangent #
point $-1 -1 $-1 1042.384442643404782 2385.220037256143314 12.00000000000000178 #
DXID-attrib $-1 -1 $-1 $-1 $215 @10 ASM ENTITY @36 07bcd671-542f-4e33-9ccb-2d5f689e1a65 #
straight-curve $-1 -1 $-1 1176.895600893316214 2385.220037256142859 0 0 0 10 I I #
edge $276 -1 $-1 $258 0 $250 1.200000000000000178 $248 $277 forward @7 tangent #
DXID-attrib $-1 -1 $-1 $-1 $223 @10 ASM ENTITY @36 149a474b-6389-4d4a-8dac-b5a4611ac756 #
vertex $-1 -1 $-1 $223 $278 #
ellipse-curve $-1 -1 $-1 1002.479056536337112 2405.220037256142859 0 0 0 1 14.87189000889339141 1.956243227049576205 0 1 F 2.467162276944779233e-17 F 3.284683777927775328 #
edge $279 -1 $-1 $262 -5.822684473486020878e-16 $231 1.296916433818926739 $224 $280 forward @7 unknown #
DXID-attrib $-1 -1 $-1 $-1 $225 @10 ASM ENTITY @36 94f37b63-016a-43f8-abd1-39a9140e6194 #
vertex $-1 -1 $-1 $260 $281 #
straight-curve $-1 -1 $-1 988.0381252046217924 2401.163006041981134 0 0 0 10 I I #
point $-1 -1 $-1 988.0381252046217924 2401.163006041981134 0 #
DXID-attrib $-1 -1 $-1 $-1 $229 @10 ASM ENTITY @36 bb6de968-ca3c-4db2-b383-9da20e535ed5 #
straight-curve $-1 -1 $-1 1048.666942703402356 2355.220037256142859 12.00000000000000178 10 2.126664749582505287e-14 0 I I #
point $-1 -1 $-1 1048.666942703402356 2355.220037256142859 12.00000000000000178 #
DXID-attrib $-1 -1 $-1 $-1 $239 @10 ASM ENTITY @36 70716048-ef82-4bc2-b5da-0e4283101b22 #
ellipse-curve $-1 -1 $-1 1042.384442643404782 2410.469177832631431 0 0 0 -1 25.03349609817441745 3.292897349438714816 0 1 F 1.701585095432875505 F 3.14159265358979356 #
point $-1 -1 $-1 1042.384442643404782 2385.220037256143314 0 #
DXID-attrib $-1 -1 $-1 $-1 $246 @10 ASM ENTITY @36 c23f73bd-d304-48d5-b266-308e30d7acc0 #
ellipse-curve $-1 -1 $-1 1002.479056536337112 2405.220037256142859 12.00000000000000178 0 0 1 14.87189000889339141 1.956243227049576205 0 1 I I #
point $-1 -1 $-1 1017.350946545230386 2407.176280483192386 12.00000000000000178 #
DXID-attrib $-1 -1 $-1 $-1 $252 @10 ASM ENTITY @36 44ea41d3-5131-4538-88b9-92f2aed7e895 #
straight-curve $-1 -1 $-1 1042.384442643404782 2385.220037256143314 0 0 0 10 I I #
DXID-attrib $-1 -1 $-1 $-1 $256 @10 ASM ENTITY @36 09ea492a-344b-4314-be08-8d4a7a8b103d #
straight-curve $-1 -1 $-1 1017.350946545230386 2407.176280483192386 0 0 0 10 I I #
point $-1 -1 $-1 1017.350946545230386 2407.176280483192386 0 #
DXID-attrib $-1 -1 $-1 $-1 $260 @10 ASM ENTITY @36 4cac2f76-91e5-407c-850d-29609875f9f1 #
ellipse-curve $-1 -1 $-1 1048.666942703402128 2418.196049093025522 12.00000000000000178 0 0 1 -60.62881749878023641 -17.0330430510444053 0 1 I I #
point $-1 -1 $-1 988.0381252046217924 2401.163006041981134 12.00000000000000178 #
End-of-ACIS-data 