700 0 1 0           
30 Autodesk Translation Framework 20 ASM 229.3.0.65535 NT 24 Mon May 22 19:33:04 2023 
1 9.999999999999999547e-07 1.000000000000000036e-10 
body $1 -1 $-1 $2 $-1 $3 #
rgb_color-st-attrib $-1 -1 $4 $-1 $0 0.7490196078431372584 0.7490196078431372584 0.7490196078431372584 #
lump $-1 -1 $-1 $-1 $5 $0 #
transform $-1 -1 1 0 0 0 1 0 0 0 1 0 0 0 1 no_rotate no_reflect no_shear #
DXID-attrib $-1 -1 $-1 $1 $0 @10 ASM ENTITY @105 BRAZO_SOPORTE_1.IPT|:|F8DB9C70CD0F8CF9B1643239376E4D52D4448501|:|DA4B9237BACCCDF19C0760CAB7AEC4A8359010B0 #
shell $-1 -1 $-1 $-1 $-1 $6 $-1 $2 #
face $7 -1 $-1 $8 $9 $5 $-1 $10 forward single #
DXID-attrib $-1 -1 $-1 $-1 $6 @10 ASM ENTITY @36 5bcd5cdd-8b67-40cb-a1d8-035dd921cdfc #
face $11 -1 $-1 $12 $13 $5 $-1 $14 forward single #
loop $-1 -1 $-1 $15 $16 $6 #
cone-surface $-1 -1 $-1 1542.478241220044083 2193.771255386422581 0 0 0 1 -2.50000000000000222 0 0 1 I I 0 -1 2.50000000000000222 forward I I I I #
DXID-attrib $-1 -1 $-1 $-1 $8 @10 ASM ENTITY @36 55ae2b9b-3455-41e6-845c-987f4e5016e4 #
face $17 -1 $-1 $18 $19 $5 $-1 $20 forward single #
loop $-1 -1 $-1 $21 $22 $8 #
cone-surface $-1 -1 $-1 1426.209016045204407 2380.5585105918517 0 0 0 1 -2.499999999999998224 0 0 1 I I 0 -1 2.499999999999998224 forward I I I I #
loop $-1 -1 $-1 $-1 $23 $6 #
coedge $-1 -1 $-1 $16 $16 $24 $25 reversed $9 $-1 #
DXID-attrib $-1 -1 $-1 $-1 $12 @10 ASM ENTITY @36 9bf559f8-84b9-4209-bcfd-0133b106e19f #
face $26 -1 $-1 $27 $28 $5 $-1 $29 forward single #
loop $-1 -1 $-1 $30 $31 $12 #
cone-surface $-1 -1 $-1 1433.348795110949141 2401.89565086163384 0 0 0 1 -2.50000000000000222 0 0 1 I I 0 -1 2.50000000000000222 forward I I I I #
loop $-1 -1 $-1 $-1 $32 $8 #
coedge $-1 -1 $-1 $22 $22 $33 $34 reversed $13 $-1 #
coedge $-1 -1 $-1 $23 $23 $35 $36 forward $15 $-1 #
coedge $-1 -1 $-1 $24 $24 $16 $25 forward $37 $-1 #
edge $38 -1 $-1 $39 -3.141592653589793116 $39 3.141592653589793116 $16 $40 forward @7 unknown #
DXID-attrib $-1 -1 $-1 $-1 $18 @10 ASM ENTITY @36 8e8558c5-da57-4668-89fe-e6f6f59822b2 #
face $41 -1 $-1 $42 $43 $5 $-1 $44 forward single #
loop $-1 -1 $-1 $45 $46 $18 #
cone-surface $-1 -1 $-1 1443.983009618900496 2341.763961670624667 0 0 0 1 -2.50000000000000222 0 0 1 I I 0 -1 2.50000000000000222 forward I I I I #
loop $-1 -1 $-1 $-1 $47 $12 #
coedge $-1 -1 $-1 $31 $31 $48 $49 reversed $19 $-1 #
coedge $-1 -1 $-1 $32 $32 $50 $51 forward $21 $-1 #
coedge $-1 -1 $-1 $33 $33 $22 $34 forward $52 $-1 #
edge $53 -1 $-1 $54 -3.141592653589793116 $54 3.141592653589793116 $22 $55 forward @7 unknown #
coedge $-1 -1 $-1 $35 $35 $23 $36 reversed $56 $-1 #
edge $57 -1 $-1 $58 -3.141592653589793116 $58 3.141592653589793116 $23 $59 forward @7 unknown #
loop $-1 -1 $-1 $-1 $24 $60 #
DXID-attrib $-1 -1 $-1 $-1 $25 @10 ASM ENTITY @36 0f1bf542-8420-475c-b523-e5477eb6ad46 #
vertex $-1 -1 $-1 $25 $61 #
ellipse-curve $-1 -1 $-1 1542.478241220044083 2193.771255386422581 12.00000000000000178 0 0 -1 -2.50000000000000222 -0 -0 1 I I #
DXID-attrib $-1 -1 $-1 $-1 $27 @10 ASM ENTITY @36 971ff18a-5599-48e2-9c44-7f80170f5868 #
face $62 -1 $-1 $63 $64 $5 $-1 $65 forward single #
loop $-1 -1 $-1 $-1 $66 $27 #
cone-surface $-1 -1 $-1 1542.613235165709966 2194.052050700373456 0 0 0 1 -12.44329293047021956 8.376361220892020398 0 1 I I 0 1 14.99996554183888264 forward I I I I #
loop $-1 -1 $-1 $-1 $67 $18 #
coedge $-1 -1 $-1 $46 $46 $68 $69 reversed $28 $-1 #
coedge $-1 -1 $-1 $47 $47 $70 $71 forward $30 $-1 #
coedge $-1 -1 $-1 $48 $48 $31 $49 forward $72 $-1 #
edge $73 -1 $-1 $74 -3.141592653589793116 $74 3.141592653589793116 $31 $75 forward @7 unknown #
coedge $-1 -1 $-1 $50 $50 $32 $51 reversed $76 $-1 #
edge $77 -1 $-1 $78 -3.141592653589793116 $78 3.141592653589793116 $32 $79 forward @7 unknown #
loop $-1 -1 $-1 $37 $33 $60 #
DXID-attrib $-1 -1 $-1 $-1 $34 @10 ASM ENTITY @36 68d2f490-bb34-42a5-b886-32c3012b7a15 #
vertex $-1 -1 $-1 $34 $80 #
ellipse-curve $-1 -1 $-1 1426.209016045204407 2380.5585105918517 12.00000000000000178 0 0 -1 -2.499999999999998224 -0 -0 1 I I #
loop $-1 -1 $-1 $-1 $35 $81 #
DXID-attrib $-1 -1 $-1 $-1 $36 @10 ASM ENTITY @36 e6b15fc8-673c-459a-8fea-784601625033 #
vertex $-1 -1 $-1 $36 $82 #
ellipse-curve $-1 -1 $-1 1542.478241220044083 2193.771255386422581 0 0 0 -1 -2.50000000000000222 -0 -0 1 I I #
face $83 -1 $-1 $81 $84 $5 $-1 $85 forward single #
point $-1 -1 $-1 1544.978241220044083 2193.771255386422581 12.00000000000000178 #
DXID-attrib $-1 -1 $-1 $-1 $42 @10 ASM ENTITY @36 6374c1a6-c31c-47ff-a3b4-659544048500 #
face $86 -1 $-1 $87 $88 $5 $-1 $89 forward single #
loop $-1 -1 $-1 $-1 $90 $42 #
cone-surface $-1 -1 $-1 1503.382917742788777 2217.608342648828057 0 0 0 1 -26.78702449245083272 15.17993072756234696 0 1 I I 0 -1 30.78920229646673334 forward I I I I #
coedge $-1 -1 $-1 $91 $92 $93 $94 forward $43 $-1 #
coedge $-1 -1 $-1 $67 $67 $95 $96 forward $45 $-1 #
coedge $-1 -1 $-1 $68 $68 $46 $69 forward $97 $-1 #
edge $98 -1 $-1 $99 -3.141592653589793116 $99 3.141592653589793116 $46 $100 forward @7 unknown #
coedge $-1 -1 $-1 $70 $70 $47 $71 reversed $101 $-1 #
edge $102 -1 $-1 $103 -3.141592653589793116 $103 3.141592653589793116 $47 $104 forward @7 unknown #
loop $-1 -1 $-1 $52 $48 $60 #
DXID-attrib $-1 -1 $-1 $-1 $49 @10 ASM ENTITY @36 0905d9c0-8a1d-432c-b117-cc8f61684227 #
vertex $-1 -1 $-1 $49 $105 #
ellipse-curve $-1 -1 $-1 1433.348795110949141 2401.89565086163384 12.00000000000000178 0 0 -1 -2.50000000000000222 -0 -0 1 I I #
loop $-1 -1 $-1 $56 $50 $81 #
DXID-attrib $-1 -1 $-1 $-1 $51 @10 ASM ENTITY @36 2cc3a70a-bcd4-469d-8692-fe4ac199a645 #
vertex $-1 -1 $-1 $51 $106 #
ellipse-curve $-1 -1 $-1 1426.209016045204407 2380.5585105918517 0 0 0 -1 -2.499999999999998224 -0 -0 1 I I #
point $-1 -1 $-1 1428.709016045204407 2380.5585105918517 12.00000000000000178 #
face $107 -1 $-1 $-1 $108 $5 $-1 $109 reversed single #
point $-1 -1 $-1 1544.978241220044083 2193.771255386422581 0 #
DXID-attrib $-1 -1 $-1 $-1 $60 @10 ASM ENTITY @36 a4c0b8ee-63d6-4f0d-ad0b-8bd143129a02 #
loop $-1 -1 $-1 $97 $110 $60 #
plane-surface $-1 -1 $-1 1487.345028669410112 2297.973868010084516 12.00000000000000178 0 0 1 10 0 0 forward_v I I I I #
DXID-attrib $-1 -1 $-1 $-1 $63 @10 ASM ENTITY @36 4788522e-65e5-4150-8cea-1d10e8e9ce2c #
face $111 -1 $-1 $112 $113 $5 $-1 $114 forward single #
loop $-1 -1 $-1 $-1 $115 $63 #
plane-surface $-1 -1 $-1 1430.65322356902584 2333.880544284902044 0 -0.7071067811865454633 -0.7071067811865496822 0 7.071067811865496822 -7.071067811865454189 0 forward_v I I I I #
coedge $-1 -1 $-1 $116 $117 $118 $119 forward $64 $-1 #
coedge $-1 -1 $-1 $120 $66 $121 $122 forward $43 $-1 #
coedge $-1 -1 $-1 $66 $120 $116 $123 reversed $43 $-1 #
coedge $-1 -1 $-1 $118 $124 $66 $94 reversed $108 $-1 #
edge $125 -1 $-1 $126 -9.868694448668801431e-17 $127 3.275670164751040225 $66 $128 forward @7 unknown #
coedge $-1 -1 $-1 $95 $95 $67 $96 reversed $129 $-1 #
edge $130 -1 $-1 $131 -3.141592653589793116 $131 3.141592653589793116 $67 $132 forward @7 unknown #
loop $-1 -1 $-1 $72 $68 $60 #
DXID-attrib $-1 -1 $-1 $-1 $69 @10 ASM ENTITY @36 963f0506-9b2c-4592-aff4-44874331d90c #
vertex $-1 -1 $-1 $69 $133 #
ellipse-curve $-1 -1 $-1 1443.983009618900496 2341.763961670624667 12.00000000000000178 0 0 -1 -2.50000000000000222 -0 -0 1 I I #
loop $-1 -1 $-1 $76 $70 $81 #
DXID-attrib $-1 -1 $-1 $-1 $71 @10 ASM ENTITY @36 b707f4f3-08bd-4ecc-8a08-1229622e47f7 #
vertex $-1 -1 $-1 $71 $134 #
ellipse-curve $-1 -1 $-1 1433.348795110949141 2401.89565086163384 0 0 0 -1 -2.50000000000000222 -0 -0 1 I I #
point $-1 -1 $-1 1435.848795110949141 2401.89565086163384 12.00000000000000178 #
point $-1 -1 $-1 1428.709016045204407 2380.5585105918517 0 #
DXID-attrib $-1 -1 $-1 $-1 $81 @10 ASM ENTITY @36 5c621f37-edce-46d0-ad4d-9e05a5e41e37 #
loop $-1 -1 $-1 $129 $124 $81 #
plane-surface $-1 -1 $-1 1487.345028669410112 2297.973868010084516 0 0 0 1 10 0 0 forward_v I I I I #
coedge $-1 -1 $-1 $135 $136 $137 $138 forward $84 $-1 #
DXID-attrib $-1 -1 $-1 $-1 $87 @10 ASM ENTITY @36 be7037ae-83e8-4697-84d5-ef7ef225df10 #
face $139 -1 $-1 $140 $141 $5 $-1 $142 forward single #
loop $-1 -1 $-1 $-1 $143 $87 #
cone-surface $-1 -1 $-1 1475.183988590969875 2378.411309306846306 0 0 0 1 -54.91522823434493006 30.82686774307339306 0 1 I I 0 1 62.97601183688225035 forward I I I I #
coedge $-1 -1 $-1 $144 $145 $146 $147 forward $88 $-1 #
coedge $-1 -1 $-1 $148 $90 $92 $123 forward $64 $-1 #
coedge $-1 -1 $-1 $90 $148 $144 $149 reversed $64 $-1 #
coedge $-1 -1 $-1 $146 $93 $90 $119 reversed $108 $-1 #
edge $150 -1 $-1 $151 1.840628052210777188 $126 3.141592653589793116 $90 $152 forward @7 unknown #
coedge $-1 -1 $-1 $92 $91 $136 $153 reversed $43 $-1 #
coedge $-1 -1 $-1 $154 $137 $91 $122 reversed $155 $-1 #
edge $156 -1 $-1 $127 0 $157 1.200000000000000178 $121 $158 forward @7 unknown #
edge $159 -1 $-1 $126 0 $160 1.200000000000000178 $116 $161 forward @7 unknown #
coedge $-1 -1 $-1 $93 $162 $154 $163 reversed $108 $-1 #
DXID-attrib $-1 -1 $-1 $-1 $94 @10 ASM ENTITY @36 45e62c31-f37e-40f7-86c8-aec913c648ee #
vertex $-1 -1 $-1 $94 $164 #
vertex $-1 -1 $-1 $94 $165 #
ellipse-curve $-1 -1 $-1 1542.613235165709966 2194.052050700373456 0 0 0 1 -12.44329293047021956 8.376361220892020398 0 1 F -9.868694448668801431e-17 F 3.275670164751040225 #
loop $-1 -1 $-1 $101 $95 $81 #
DXID-attrib $-1 -1 $-1 $-1 $96 @10 ASM ENTITY @36 d50dea64-c2c1-463e-8573-087ab49d2e04 #
vertex $-1 -1 $-1 $96 $166 #
ellipse-curve $-1 -1 $-1 1443.983009618900496 2341.763961670624667 0 0 0 -1 -2.50000000000000222 -0 -0 1 I I #
point $-1 -1 $-1 1446.483009618900496 2341.763961670624667 12.00000000000000178 #
point $-1 -1 $-1 1435.848795110949141 2401.89565086163384 0 #
coedge $-1 -1 $-1 $167 $110 $168 $169 forward $84 $-1 #
coedge $-1 -1 $-1 $110 $170 $120 $153 forward $84 $-1 #
coedge $-1 -1 $-1 $121 $171 $110 $138 reversed $155 $-1 #
edge $172 -1 $-1 $157 0 $173 1.223036031068984286 $137 $174 forward @7 unknown #
DXID-attrib $-1 -1 $-1 $-1 $112 @10 ASM ENTITY @36 5c41e432-7923-46de-8bad-b32e31a8dd31 #
face $175 -1 $-1 $176 $177 $5 $-1 $178 forward single #
loop $-1 -1 $-1 $-1 $179 $112 #
cone-surface $-1 -1 $-1 1433.348795110949141 2401.89565086163384 0 0 0 1 11.89928712584585213 -9.132741422852149071 0 1 I I 0 1 15.00000000000001066 forward I I I I #
coedge $-1 -1 $-1 $180 $181 $182 $183 forward $113 $-1 #
coedge $-1 -1 $-1 $184 $115 $117 $149 forward $88 $-1 #
coedge $-1 -1 $-1 $115 $184 $180 $185 reversed $88 $-1 #
coedge $-1 -1 $-1 $182 $118 $115 $147 reversed $108 $-1 #
edge $186 -1 $-1 $187 0 $151 13.36445221842494213 $115 $188 forward @7 unknown #
coedge $-1 -1 $-1 $117 $116 $170 $189 reversed $64 $-1 #
edge $190 -1 $-1 $151 0 $191 1.200000000000000178 $144 $192 forward @7 tangent #
DXID-attrib $-1 -1 $-1 $-1 $119 @10 ASM ENTITY @36 df9afe70-4126-4b60-9f5b-fea7708617d5 #
vertex $-1 -1 $-1 $119 $193 #
ellipse-curve $-1 -1 $-1 1503.382917742788777 2217.608342648828057 0 0 0 -1 -26.78702449245083272 15.17993072756234696 0 1 F 1.840628052210777188 F 3.141592653589793116 #
edge $194 -1 $-1 $160 -9.868694448668801431e-17 $157 3.275670164751040225 $120 $195 forward @7 unknown #
coedge $-1 -1 $-1 $171 $121 $124 $163 forward $155 $-1 #
loop $-1 -1 $-1 $-1 $154 $196 #
DXID-attrib $-1 -1 $-1 $-1 $122 @10 ASM ENTITY @36 4767ce93-d8ce-4435-b5ec-0faafe4c4bd9 #
vertex $-1 -1 $-1 $122 $197 #
straight-curve $-1 -1 $-1 1556.064570173420634 2187.414238352416305 0 0 0 10 I I #
DXID-attrib $-1 -1 $-1 $-1 $123 @10 ASM ENTITY @36 03653520-a1fd-49b5-a7a2-759bb485a9da #
vertex $-1 -1 $-1 $153 $198 #
straight-curve $-1 -1 $-1 1530.16994223523966 2202.428411921265251 0 0 0 10 I I #
coedge $-1 -1 $-1 $124 $199 $200 $201 reversed $108 $-1 #
edge $202 -1 $-1 $127 0 $203 1.223036031068984286 $154 $204 forward @7 unknown #
point $-1 -1 $-1 1530.16994223523966 2202.428411921265251 0 #
point $-1 -1 $-1 1556.064570173420634 2187.414238352416305 0 #
point $-1 -1 $-1 1446.483009618900496 2341.763961670624667 0 #
coedge $-1 -1 $-1 $205 $135 $206 $207 forward $84 $-1 #
coedge $-1 -1 $-1 $208 $209 $135 $169 reversed $210 $-1 #
edge $211 -1 $-1 $173 -2.009718347115232213e-14 $212 13.45111582499115421 $168 $213 forward @7 unknown #
coedge $-1 -1 $-1 $136 $214 $148 $189 forward $84 $-1 #
coedge $-1 -1 $-1 $137 $154 $208 $215 forward $155 $-1 #
DXID-attrib $-1 -1 $-1 $-1 $138 @10 ASM ENTITY @36 92f86878-25d4-4961-ac20-0be5037ae1ed #
vertex $-1 -1 $-1 $169 $216 #
ellipse-curve $-1 -1 $-1 1494.387981607751499 2216.272594826547902 12.00000000000000178 0 0 1 61.67658856566905001 -28.85835647413132676 0 1 I I #
DXID-attrib $-1 -1 $-1 $-1 $140 @10 ASM ENTITY @36 3c8e09da-c71b-4b86-ac1d-d3e5170c4a8e #
face $217 -1 $-1 $196 $210 $5 $-1 $218 forward single #
loop $-1 -1 $-1 $-1 $219 $140 #
cone-surface $-1 -1 $-1 1465.277867130160303 2377.389984636495228 0 0 0 1 20.02978489336554446 -15.37292480228664004 0 1 I I 0 -1 25.24914057648803123 forward I I I I #
coedge $-1 -1 $-1 $220 $221 $222 $223 forward $141 $-1 #
coedge $-1 -1 $-1 $224 $143 $145 $185 forward $113 $-1 #
coedge $-1 -1 $-1 $143 $224 $220 $225 reversed $113 $-1 #
coedge $-1 -1 $-1 $222 $146 $143 $183 reversed $108 $-1 #
edge $226 -1 $-1 $227 -2.149914267133304598e-15 $187 1.296916433818925185 $143 $228 forward @7 unknown #
coedge $-1 -1 $-1 $145 $144 $214 $229 reversed $88 $-1 #
edge $230 -1 $-1 $187 0 $231 1.200000000000000178 $180 $232 forward @7 tangent #
DXID-attrib $-1 -1 $-1 $-1 $147 @10 ASM ENTITY @36 f9f39e4a-56a8-485b-87bc-934e275684fe #
vertex $-1 -1 $-1 $147 $233 #
straight-curve $-1 -1 $-1 1430.65322356902584 2333.880544284902044 0 7.071067811865496822 -7.071067811865454189 0 F 0 F 13.36445221842494213 #
edge $234 -1 $-1 $191 1.840628052210777188 $160 3.141592653589793116 $148 $235 forward @7 unknown #
DXID-attrib $-1 -1 $-1 $-1 $149 @10 ASM ENTITY @36 44fc74a8-007e-461c-b443-811ded220beb #
vertex $-1 -1 $-1 $189 $236 #
straight-curve $-1 -1 $-1 1525.154171473944871 2239.379596379983923 0 0 0 10 I I #
point $-1 -1 $-1 1525.154171473944871 2239.379596379983923 0 #
DXID-attrib $-1 -1 $-1 $-1 $153 @10 ASM ENTITY @36 e6d788ae-9678-4bac-876c-3b0d523956e8 #
ellipse-curve $-1 -1 $-1 1542.613235165709966 2194.052050700373456 12.00000000000000178 0 0 1 -12.44329293047021956 8.376361220892020398 0 1 I I #
face $237 -1 $-1 $60 $155 $5 $-1 $238 forward single #
point $-1 -1 $-1 1556.064570173420634 2187.414238352416305 12.00000000000000178 #
point $-1 -1 $-1 1530.16994223523966 2202.428411921265251 12.00000000000000178 #
coedge $-1 -1 $-1 $162 $222 $219 $239 reversed $108 $-1 #
coedge $-1 -1 $-1 $209 $208 $162 $201 forward $210 $-1 #
edge $240 -1 $-1 $203 -2.009718347115232213e-14 $241 13.45111582499115421 $200 $242 forward @7 unknown #
DXID-attrib $-1 -1 $-1 $-1 $163 @10 ASM ENTITY @36 d11ea2cc-1416-447b-8de1-ee16814cd2a6 #
vertex $-1 -1 $-1 $201 $243 #
ellipse-curve $-1 -1 $-1 1494.387981607751499 2216.272594826547902 0 0 0 1 61.67658856566905001 -28.85835647413132676 0 1 F 0 F 1.223036031068984286 #
coedge $-1 -1 $-1 $244 $167 $245 $246 forward $84 $-1 #
coedge $-1 -1 $-1 $247 $248 $167 $207 reversed $177 $-1 #
edge $249 -1 $-1 $212 1.701585095432882833 $250 3.141592653589794892 $206 $251 forward @7 unknown #
coedge $-1 -1 $-1 $200 $168 $171 $215 reversed $210 $-1 #
coedge $-1 -1 $-1 $168 $200 $247 $252 forward $210 $-1 #
loop $-1 -1 $-1 $-1 $200 $176 #
DXID-attrib $-1 -1 $-1 $-1 $169 @10 ASM ENTITY @36 44ae7918-d56f-434e-a574-71f617ddc128 #
vertex $-1 -1 $-1 $207 $253 #
straight-curve $-1 -1 $-1 1542.537780753162224 2264.422393971958627 12.00000000000000178 -7.071067811865475505 7.071067811865475505 0 I I #
coedge $-1 -1 $-1 $170 $244 $184 $229 forward $84 $-1 #
edge $254 -1 $-1 $203 0 $173 1.200000000000000178 $171 $255 forward @7 tangent #
point $-1 -1 $-1 1542.537780753162679 2264.422393971958627 12.00000000000000178 #
DXID-attrib $-1 -1 $-1 $-1 $176 @10 ASM ENTITY @36 ca937bc7-e87a-4d3f-8c22-85921c4825c9 #
plane-surface $-1 -1 $-1 1542.537780753162679 2264.422393971958172 0 0.7071067811865475727 0.7071067811865475727 0 -7.071067811865475505 7.071067811865475505 0 forward_v I I I I #
coedge $-1 -1 $-1 $248 $247 $199 $239 forward $177 $-1 #
coedge $-1 -1 $-1 $245 $179 $181 $225 forward $141 $-1 #
coedge $-1 -1 $-1 $179 $245 $248 $256 reversed $141 $-1 #
coedge $-1 -1 $-1 $199 $182 $179 $223 reversed $108 $-1 #
edge $257 -1 $-1 $258 -9.868649107779124327e-17 $227 3.284683777927808634 $179 $259 forward @7 unknown #
coedge $-1 -1 $-1 $181 $180 $244 $260 reversed $113 $-1 #
edge $261 -1 $-1 $227 0 $262 1.200000000000000178 $220 $263 forward @7 tangent #
DXID-attrib $-1 -1 $-1 $-1 $183 @10 ASM ENTITY @36 b320052b-9b37-44a9-89af-5f4e7109b553 #
vertex $-1 -1 $-1 $183 $264 #
ellipse-curve $-1 -1 $-1 1475.183988590969875 2378.411309306846306 0 0 0 1 -54.91522823434493006 30.82686774307339306 0 1 F -2.149914267133304598e-15 F 1.296916433818925185 #
edge $265 -1 $-1 $231 0 $191 13.36445221842494213 $184 $266 forward @7 unknown #
DXID-attrib $-1 -1 $-1 $-1 $185 @10 ASM ENTITY @36 cfc86a2a-58fb-41ec-a81d-6992931e3be6 #
vertex $-1 -1 $-1 $229 $267 #
straight-curve $-1 -1 $-1 1430.65322356902584 2333.880544284902044 0 0 0 10 I I #
point $-1 -1 $-1 1430.65322356902584 2333.880544284902044 0 #
DXID-attrib $-1 -1 $-1 $-1 $189 @10 ASM ENTITY @36 d7666ceb-5555-4a9b-a416-a197b45126dd #
ellipse-curve $-1 -1 $-1 1503.382917742788777 2217.608342648828057 12.00000000000000178 0 0 -1 -26.78702449245083272 15.17993072756234696 0 1 I I #
point $-1 -1 $-1 1525.154171473944871 2239.379596379983923 12.00000000000000178 #
DXID-attrib $-1 -1 $-1 $-1 $196 @10 ASM ENTITY @36 6b8f392c-4d4e-47b8-acf7-7aab337c9e01 #
cone-surface $-1 -1 $-1 1494.387981607751499 2216.272594826547902 0 0 0 1 61.67658856566905001 -28.85835647413132676 0 1 I I 0 1 68.0940989769807743 forward I I I I #
edge $268 -1 $-1 $241 1.701585095432882833 $258 3.141592653589794892 $219 $269 forward @7 unknown #
DXID-attrib $-1 -1 $-1 $-1 $201 @10 ASM ENTITY @36 9dedf4bb-2b27-4fb0-af69-cb2edccd3cd9 #
vertex $-1 -1 $-1 $239 $270 #
straight-curve $-1 -1 $-1 1542.537780753162224 2264.422393971958627 0 -7.071067811865475505 7.071067811865475505 0 F -2.009718347115232213e-14 F 13.45111582499115421 #
point $-1 -1 $-1 1542.537780753162679 2264.422393971958627 0 #
coedge $-1 -1 $-1 $214 $205 $224 $260 forward $84 $-1 #
coedge $-1 -1 $-1 $221 $220 $205 $246 reversed $141 $-1 #
edge $271 -1 $-1 $250 -9.868649107779124327e-17 $262 3.284683777927808634 $245 $272 forward @7 unknown #
coedge $-1 -1 $-1 $219 $206 $209 $252 reversed $177 $-1 #
coedge $-1 -1 $-1 $206 $219 $221 $256 forward $177 $-1 #
DXID-attrib $-1 -1 $-1 $-1 $207 @10 ASM ENTITY @36 22b89a9a-07f0-4b13-91a7-9a723d5a3947 #
vertex $-1 -1 $-1 $246 $273 #
ellipse-curve $-1 -1 $-1 1465.277867130160303 2377.389984636495228 12.00000000000000178 0 0 -1 20.02978489336554446 -15.37292480228664004 0 1 I I #
edge $274 -1 $-1 $241 0 $212 1.200000000000000178 $209 $275 forward @7 tangent #
point $-1 -1 $-1 1447.424028609393417 2359.536146115728116 12.00000000000000178 #
DXID-attrib $-1 -1 $-1 $-1 $215 @10 ASM ENTITY @36 438e2738-733c-4af1-bc1f-cd06f4c4073a #
straight-curve $-1 -1 $-1 1542.537780753162679 2264.422393971958627 0 0 0 10 I I #
edge $276 -1 $-1 $258 0 $250 1.200000000000000178 $248 $277 forward @7 tangent #
DXID-attrib $-1 -1 $-1 $-1 $223 @10 ASM ENTITY @36 e35648c9-a8ec-4e77-9e76-47ab9f7fae2d #
vertex $-1 -1 $-1 $223 $278 #
ellipse-curve $-1 -1 $-1 1433.348795110949141 2401.89565086163384 0 0 0 1 11.89928712584585213 -9.132741422852149071 0 1 F -9.868649107779124327e-17 F 3.284683777927808634 #
edge $279 -1 $-1 $262 -2.149914267133304598e-15 $231 1.296916433818925185 $224 $280 forward @7 unknown #
DXID-attrib $-1 -1 $-1 $-1 $225 @10 ASM ENTITY @36 17480eab-2ba1-4752-82ad-c5153b7280d9 #
vertex $-1 -1 $-1 $260 $281 #
straight-curve $-1 -1 $-1 1420.268760356624625 2409.238177049919614 0 0 0 10 I I #
point $-1 -1 $-1 1420.268760356624625 2409.238177049919614 0 #
DXID-attrib $-1 -1 $-1 $-1 $229 @10 ASM ENTITY @36 12a1bed3-58f4-4952-8b5b-95801447e26d #
straight-curve $-1 -1 $-1 1430.65322356902584 2333.880544284902044 12.00000000000000178 7.071067811865496822 -7.071067811865454189 0 I I #
point $-1 -1 $-1 1430.65322356902584 2333.880544284902044 12.00000000000000178 #
DXID-attrib $-1 -1 $-1 $-1 $239 @10 ASM ENTITY @36 c3190d2c-91d3-4f90-8443-dd584cfca1cc #
ellipse-curve $-1 -1 $-1 1465.277867130160303 2377.389984636495228 0 0 0 -1 20.02978489336554446 -15.37292480228664004 0 1 F 1.701585095432882833 F 3.141592653589794892 #
point $-1 -1 $-1 1447.424028609393417 2359.536146115728116 0 #
DXID-attrib $-1 -1 $-1 $-1 $246 @10 ASM ENTITY @36 c6322fa5-0a68-47c7-b3d0-cc2ae4369117 #
ellipse-curve $-1 -1 $-1 1433.348795110949141 2401.89565086163384 12.00000000000000178 0 0 1 11.89928712584585213 -9.132741422852149071 0 1 I I #
point $-1 -1 $-1 1445.248082236794744 2392.762909438782117 12.00000000000000178 #
DXID-attrib $-1 -1 $-1 $-1 $252 @10 ASM ENTITY @36 b4ab2e0d-7370-4834-b83c-72e8a3877e18 #
straight-curve $-1 -1 $-1 1447.424028609393417 2359.536146115728116 0 0 0 10 I I #
DXID-attrib $-1 -1 $-1 $-1 $256 @10 ASM ENTITY @36 cd7384ec-0cbe-44ec-a938-ee9746f888be #
straight-curve $-1 -1 $-1 1445.248082236794744 2392.762909438782117 0 0 0 10 I I #
point $-1 -1 $-1 1445.248082236794744 2392.762909438782117 0 #
DXID-attrib $-1 -1 $-1 $-1 $260 @10 ASM ENTITY @36 d283d05d-9523-4300-80b1-80f547c81ae1 #
ellipse-curve $-1 -1 $-1 1475.183988590969875 2378.411309306846306 12.00000000000000178 0 0 1 -54.91522823434493006 30.82686774307339306 0 1 I I #
point $-1 -1 $-1 1420.268760356624625 2409.238177049919614 12.00000000000000178 #
End-of-ACIS-data 