700 0 1 0           
30 Autodesk Translation Framework 20 ASM 229.3.0.65535 NT 24 Mon May 22 23:02:33 2023 
1 9.999999999999999547e-07 1.000000000000000036e-10 
body $1 -1 $-1 $2 $-1 $3 #
rgb_color-st-attrib $-1 -1 $4 $-1 $0 0.7490196078431372584 0.7490196078431372584 0.7490196078431372584 #
lump $-1 -1 $-1 $-1 $5 $0 #
transform $-1 -1 1 0 0 0 1 0 0 0 1 0 0 0 1 no_rotate no_reflect no_shear #
DXID-attrib $-1 -1 $-1 $1 $0 @10 ASM ENTITY @105 BRAZO_SOPORTE_1.IPT|:|F8DB9C70CD0F8CF9B1643239376E4D52D4448501|:|DA4B9237BACCCDF19C0760CAB7AEC4A8359010B0 #
shell $-1 -1 $-1 $-1 $-1 $6 $-1 $2 #
face $7 -1 $-1 $8 $9 $5 $-1 $10 forward single #
DXID-attrib $-1 -1 $-1 $-1 $6 @10 ASM ENTITY @36 947a908f-9664-4fe7-9c23-2ccb8c1fe329 #
face $11 -1 $-1 $12 $13 $5 $-1 $14 forward single #
loop $-1 -1 $-1 $15 $16 $6 #
cone-surface $-1 -1 $-1 54.71324122004375567 -104.0657446135776354 0 0 0 1 -2.50000000000000222 0 0 1 I I 0 -1 2.50000000000000222 forward I I I I #
DXID-attrib $-1 -1 $-1 $-1 $8 @10 ASM ENTITY @36 c345a790-8f27-468f-baaf-66706c483560 #
face $17 -1 $-1 $18 $19 $5 $-1 $20 forward single #
loop $-1 -1 $-1 $21 $22 $8 #
cone-surface $-1 -1 $-1 -61.55598395479586316 82.72151059185176791 0 0 0 1 -2.499999999999998224 0 0 1 I I 0 -1 2.499999999999998224 forward I I I I #
loop $-1 -1 $-1 $-1 $23 $6 #
coedge $-1 -1 $-1 $16 $16 $24 $25 reversed $9 $-1 #
DXID-attrib $-1 -1 $-1 $-1 $12 @10 ASM ENTITY @36 523968b6-0a29-4cc3-8785-d82aa06a373d #
face $26 -1 $-1 $27 $28 $5 $-1 $29 forward single #
loop $-1 -1 $-1 $30 $31 $12 #
cone-surface $-1 -1 $-1 -54.41620488905101638 104.0586508616337369 0 0 0 1 -2.50000000000000222 0 0 1 I I 0 -1 2.50000000000000222 forward I I I I #
loop $-1 -1 $-1 $-1 $32 $8 #
coedge $-1 -1 $-1 $22 $22 $33 $34 reversed $13 $-1 #
coedge $-1 -1 $-1 $23 $23 $35 $36 forward $15 $-1 #
coedge $-1 -1 $-1 $24 $24 $16 $25 forward $37 $-1 #
edge $38 -1 $-1 $39 -3.141592653589793116 $39 3.141592653589793116 $16 $40 forward @7 unknown #
DXID-attrib $-1 -1 $-1 $-1 $18 @10 ASM ENTITY @36 e75cdba1-8a18-4805-9024-da648c266df7 #
face $41 -1 $-1 $42 $43 $5 $-1 $44 forward single #
loop $-1 -1 $-1 $45 $46 $18 #
cone-surface $-1 -1 $-1 -43.78199038109983121 43.92696167062439372 0 0 0 1 -2.50000000000000222 0 0 1 I I 0 -1 2.50000000000000222 forward I I I I #
loop $-1 -1 $-1 $-1 $47 $12 #
coedge $-1 -1 $-1 $31 $31 $48 $49 reversed $19 $-1 #
coedge $-1 -1 $-1 $32 $32 $50 $51 forward $21 $-1 #
coedge $-1 -1 $-1 $33 $33 $22 $34 forward $52 $-1 #
edge $53 -1 $-1 $54 -3.141592653589793116 $54 3.141592653589793116 $22 $55 forward @7 unknown #
coedge $-1 -1 $-1 $35 $35 $23 $36 reversed $56 $-1 #
edge $57 -1 $-1 $58 -3.141592653589793116 $58 3.141592653589793116 $23 $59 forward @7 unknown #
loop $-1 -1 $-1 $-1 $24 $60 #
DXID-attrib $-1 -1 $-1 $-1 $25 @10 ASM ENTITY @36 967a70e0-cb6c-4968-8ed4-14f5658fcfc3 #
vertex $-1 -1 $-1 $25 $61 #
ellipse-curve $-1 -1 $-1 54.71324122004375567 -104.0657446135776354 12.00000000000000178 0 0 -1 -2.50000000000000222 -0 -0 1 I I #
DXID-attrib $-1 -1 $-1 $-1 $27 @10 ASM ENTITY @36 d6c3d78c-0c41-4cc6-9363-f7122e2b9ebe #
face $62 -1 $-1 $63 $64 $5 $-1 $65 forward single #
loop $-1 -1 $-1 $-1 $66 $27 #
cone-surface $-1 -1 $-1 54.84823516570969559 -103.7849492996267031 0 0 0 1 -12.44329293047021956 8.376361220892020398 0 1 I I 0 1 14.99996554183888264 forward I I I I #
loop $-1 -1 $-1 $-1 $67 $18 #
coedge $-1 -1 $-1 $46 $46 $68 $69 reversed $28 $-1 #
coedge $-1 -1 $-1 $47 $47 $70 $71 forward $30 $-1 #
coedge $-1 -1 $-1 $48 $48 $31 $49 forward $72 $-1 #
edge $73 -1 $-1 $74 -3.141592653589793116 $74 3.141592653589793116 $31 $75 forward @7 unknown #
coedge $-1 -1 $-1 $50 $50 $32 $51 reversed $76 $-1 #
edge $77 -1 $-1 $78 -3.141592653589793116 $78 3.141592653589793116 $32 $79 forward @7 unknown #
loop $-1 -1 $-1 $37 $33 $60 #
DXID-attrib $-1 -1 $-1 $-1 $34 @10 ASM ENTITY @36 3ed3506c-760f-41ba-9159-fb536f87d6fa #
vertex $-1 -1 $-1 $34 $80 #
ellipse-curve $-1 -1 $-1 -61.55598395479586316 82.72151059185176791 12.00000000000000178 0 0 -1 -2.499999999999998224 -0 -0 1 I I #
loop $-1 -1 $-1 $-1 $35 $81 #
DXID-attrib $-1 -1 $-1 $-1 $36 @10 ASM ENTITY @36 a59ce5ce-fc7d-4ac1-8890-f133a84c9bf0 #
vertex $-1 -1 $-1 $36 $82 #
ellipse-curve $-1 -1 $-1 54.71324122004375567 -104.0657446135776354 0 0 0 -1 -2.50000000000000222 -0 -0 1 I I #
face $83 -1 $-1 $81 $84 $5 $-1 $85 forward single #
point $-1 -1 $-1 57.21324122004375567 -104.0657446135776354 12.00000000000000178 #
DXID-attrib $-1 -1 $-1 $-1 $42 @10 ASM ENTITY @36 0796c388-18c8-4269-a7fd-311c33e84b96 #
face $86 -1 $-1 $87 $88 $5 $-1 $89 forward single #
loop $-1 -1 $-1 $-1 $90 $42 #
cone-surface $-1 -1 $-1 15.61791774278844969 -80.22865735117221675 0 0 0 1 -26.78702449245083272 15.17993072756234696 0 1 I I 0 -1 30.78920229646673334 forward I I I I #
coedge $-1 -1 $-1 $91 $92 $93 $94 forward $43 $-1 #
coedge $-1 -1 $-1 $67 $67 $95 $96 forward $45 $-1 #
coedge $-1 -1 $-1 $68 $68 $46 $69 forward $97 $-1 #
edge $98 -1 $-1 $99 -3.141592653589793116 $99 3.141592653589793116 $46 $100 forward @7 unknown #
coedge $-1 -1 $-1 $70 $70 $47 $71 reversed $101 $-1 #
edge $102 -1 $-1 $103 -3.141592653589793116 $103 3.141592653589793116 $47 $104 forward @7 unknown #
loop $-1 -1 $-1 $52 $48 $60 #
DXID-attrib $-1 -1 $-1 $-1 $49 @10 ASM ENTITY @36 0ad9368d-b833-4fe9-8407-3b9dbc21523b #
vertex $-1 -1 $-1 $49 $105 #
ellipse-curve $-1 -1 $-1 -54.41620488905101638 104.0586508616337369 12.00000000000000178 0 0 -1 -2.50000000000000222 -0 -0 1 I I #
loop $-1 -1 $-1 $56 $50 $81 #
DXID-attrib $-1 -1 $-1 $-1 $51 @10 ASM ENTITY @36 d0511e89-8464-4e1e-826a-abf95849b2ff #
vertex $-1 -1 $-1 $51 $106 #
ellipse-curve $-1 -1 $-1 -61.55598395479586316 82.72151059185176791 0 0 0 -1 -2.499999999999998224 -0 -0 1 I I #
point $-1 -1 $-1 -59.05598395479586316 82.72151059185176791 12.00000000000000178 #
face $107 -1 $-1 $-1 $108 $5 $-1 $109 reversed single #
point $-1 -1 $-1 57.21324122004375567 -104.0657446135776354 0 #
DXID-attrib $-1 -1 $-1 $-1 $60 @10 ASM ENTITY @36 6f75a637-a8a6-42b7-b753-8be50599799a #
loop $-1 -1 $-1 $97 $110 $60 #
plane-surface $-1 -1 $-1 -0.4199713305902719185 0.1368680100841856984 12.00000000000000178 0 0 1 10 0 0 forward_v I I I I #
DXID-attrib $-1 -1 $-1 $-1 $63 @10 ASM ENTITY @36 4a964dfe-d582-4d28-b0fc-db41d497907f #
face $111 -1 $-1 $112 $113 $5 $-1 $114 forward single #
loop $-1 -1 $-1 $-1 $115 $63 #
plane-surface $-1 -1 $-1 -57.11177643097443024 36.04354428490211149 0 -0.7071067811865454633 -0.7071067811865496822 0 7.071067811865496822 -7.071067811865454189 0 forward_v I I I I #
coedge $-1 -1 $-1 $116 $117 $118 $119 forward $64 $-1 #
coedge $-1 -1 $-1 $120 $66 $121 $122 forward $43 $-1 #
coedge $-1 -1 $-1 $66 $120 $116 $123 reversed $43 $-1 #
coedge $-1 -1 $-1 $118 $124 $66 $94 reversed $108 $-1 #
edge $125 -1 $-1 $126 -9.868694448668801431e-17 $127 3.275670164751040225 $66 $128 forward @7 unknown #
coedge $-1 -1 $-1 $95 $95 $67 $96 reversed $129 $-1 #
edge $130 -1 $-1 $131 -3.141592653589793116 $131 3.141592653589793116 $67 $132 forward @7 unknown #
loop $-1 -1 $-1 $72 $68 $60 #
DXID-attrib $-1 -1 $-1 $-1 $69 @10 ASM ENTITY @36 50e60ac7-4983-4207-83d1-62c876956ab6 #
vertex $-1 -1 $-1 $69 $133 #
ellipse-curve $-1 -1 $-1 -43.78199038109983121 43.92696167062439372 12.00000000000000178 0 0 -1 -2.50000000000000222 -0 -0 1 I I #
loop $-1 -1 $-1 $76 $70 $81 #
DXID-attrib $-1 -1 $-1 $-1 $71 @10 ASM ENTITY @36 4be39049-8c48-4a84-8774-0a8b7cf03a82 #
vertex $-1 -1 $-1 $71 $134 #
ellipse-curve $-1 -1 $-1 -54.41620488905101638 104.0586508616337369 0 0 0 -1 -2.50000000000000222 -0 -0 1 I I #
point $-1 -1 $-1 -51.91620488905101638 104.0586508616337369 12.00000000000000178 #
point $-1 -1 $-1 -59.05598395479586316 82.72151059185176791 0 #
DXID-attrib $-1 -1 $-1 $-1 $81 @10 ASM ENTITY @36 601355ab-4938-458c-9189-b0466c9656e5 #
loop $-1 -1 $-1 $129 $124 $81 #
plane-surface $-1 -1 $-1 -0.4199713305902719185 0.1368680100841856984 0 0 0 1 10 0 0 forward_v I I I I #
coedge $-1 -1 $-1 $135 $136 $137 $138 forward $84 $-1 #
DXID-attrib $-1 -1 $-1 $-1 $87 @10 ASM ENTITY @36 34ca22fe-1fb1-40f6-80c8-b6ee0ed8d454 #
face $139 -1 $-1 $140 $141 $5 $-1 $142 forward single #
loop $-1 -1 $-1 $-1 $143 $87 #
cone-surface $-1 -1 $-1 -12.58101140903050918 80.57430930684603254 0 0 0 1 -54.91522823434493006 30.82686774307339306 0 1 I I 0 1 62.97601183688225035 forward I I I I #
coedge $-1 -1 $-1 $144 $145 $146 $147 forward $88 $-1 #
coedge $-1 -1 $-1 $148 $90 $92 $123 forward $64 $-1 #
coedge $-1 -1 $-1 $90 $148 $144 $149 reversed $64 $-1 #
coedge $-1 -1 $-1 $146 $93 $90 $119 reversed $108 $-1 #
edge $150 -1 $-1 $151 1.840628052210777188 $126 3.141592653589793116 $90 $152 forward @7 unknown #
coedge $-1 -1 $-1 $92 $91 $136 $153 reversed $43 $-1 #
coedge $-1 -1 $-1 $154 $137 $91 $122 reversed $155 $-1 #
edge $156 -1 $-1 $127 0 $157 1.200000000000000178 $121 $158 forward @7 unknown #
edge $159 -1 $-1 $126 0 $160 1.200000000000000178 $116 $161 forward @7 unknown #
coedge $-1 -1 $-1 $93 $162 $154 $163 reversed $108 $-1 #
DXID-attrib $-1 -1 $-1 $-1 $94 @10 ASM ENTITY @36 7c1156ab-a887-4491-96d6-d8750ca31fc6 #
vertex $-1 -1 $-1 $94 $164 #
vertex $-1 -1 $-1 $94 $165 #
ellipse-curve $-1 -1 $-1 54.84823516570969559 -103.7849492996267031 0 0 0 1 -12.44329293047021956 8.376361220892020398 0 1 F -9.868694448668801431e-17 F 3.275670164751040225 #
loop $-1 -1 $-1 $101 $95 $81 #
DXID-attrib $-1 -1 $-1 $-1 $96 @10 ASM ENTITY @36 829acd9d-b527-4c7b-86d7-e4d3fc03d516 #
vertex $-1 -1 $-1 $96 $166 #
ellipse-curve $-1 -1 $-1 -43.78199038109983121 43.92696167062439372 0 0 0 -1 -2.50000000000000222 -0 -0 1 I I #
point $-1 -1 $-1 -41.28199038109983121 43.92696167062439372 12.00000000000000178 #
point $-1 -1 $-1 -51.91620488905101638 104.0586508616337369 0 #
coedge $-1 -1 $-1 $167 $110 $168 $169 forward $84 $-1 #
coedge $-1 -1 $-1 $110 $170 $120 $153 forward $84 $-1 #
coedge $-1 -1 $-1 $121 $171 $110 $138 reversed $155 $-1 #
edge $172 -1 $-1 $157 0 $173 1.223036031068984286 $137 $174 forward @7 unknown #
DXID-attrib $-1 -1 $-1 $-1 $112 @10 ASM ENTITY @36 f44aafa7-a901-40a6-82bc-9822ebdc8be4 #
face $175 -1 $-1 $176 $177 $5 $-1 $178 forward single #
loop $-1 -1 $-1 $-1 $179 $112 #
cone-surface $-1 -1 $-1 -54.41620488905101638 104.0586508616337369 0 0 0 1 11.89928712584585213 -9.132741422852149071 0 1 I I 0 1 15.00000000000001066 forward I I I I #
coedge $-1 -1 $-1 $180 $181 $182 $183 forward $113 $-1 #
coedge $-1 -1 $-1 $184 $115 $117 $149 forward $88 $-1 #
coedge $-1 -1 $-1 $115 $184 $180 $185 reversed $88 $-1 #
coedge $-1 -1 $-1 $182 $118 $115 $147 reversed $108 $-1 #
edge $186 -1 $-1 $187 0 $151 13.36445221842494213 $115 $188 forward @7 unknown #
coedge $-1 -1 $-1 $117 $116 $170 $189 reversed $64 $-1 #
edge $190 -1 $-1 $151 0 $191 1.200000000000000178 $144 $192 forward @7 tangent #
DXID-attrib $-1 -1 $-1 $-1 $119 @10 ASM ENTITY @36 89efa0b8-af3c-4ea6-82a5-0dfb233df2b6 #
vertex $-1 -1 $-1 $119 $193 #
ellipse-curve $-1 -1 $-1 15.61791774278844969 -80.22865735117221675 0 0 0 -1 -26.78702449245083272 15.17993072756234696 0 1 F 1.840628052210777188 F 3.141592653589793116 #
edge $194 -1 $-1 $160 -9.868694448668801431e-17 $157 3.275670164751040225 $120 $195 forward @7 unknown #
coedge $-1 -1 $-1 $171 $121 $124 $163 forward $155 $-1 #
loop $-1 -1 $-1 $-1 $154 $196 #
DXID-attrib $-1 -1 $-1 $-1 $122 @10 ASM ENTITY @36 256b4cc6-8e97-452b-abbb-32c0907c7620 #
vertex $-1 -1 $-1 $122 $197 #
straight-curve $-1 -1 $-1 68.29957017342024983 -110.4227616475836271 0 0 0 10 I I #
DXID-attrib $-1 -1 $-1 $-1 $123 @10 ASM ENTITY @36 43e8f76c-c0fd-4ecf-a304-80af05ae8511 #
vertex $-1 -1 $-1 $153 $198 #
straight-curve $-1 -1 $-1 42.40494223523938899 -95.4085880787346241 0 0 0 10 I I #
coedge $-1 -1 $-1 $124 $199 $200 $201 reversed $108 $-1 #
edge $202 -1 $-1 $127 0 $203 1.223036031068984286 $154 $204 forward @7 unknown #
point $-1 -1 $-1 42.40494223523938899 -95.4085880787346241 0 #
point $-1 -1 $-1 68.29957017342024983 -110.4227616475836271 0 #
point $-1 -1 $-1 -41.28199038109983121 43.92696167062439372 0 #
coedge $-1 -1 $-1 $205 $135 $206 $207 forward $84 $-1 #
coedge $-1 -1 $-1 $208 $209 $135 $169 reversed $210 $-1 #
edge $211 -1 $-1 $173 -2.009718347115232213e-14 $212 13.45111582499115421 $168 $213 forward @7 unknown #
coedge $-1 -1 $-1 $136 $214 $148 $189 forward $84 $-1 #
coedge $-1 -1 $-1 $137 $154 $208 $215 forward $155 $-1 #
DXID-attrib $-1 -1 $-1 $-1 $138 @10 ASM ENTITY @36 e3a2333e-32db-44aa-8465-e59d7da2aed3 #
vertex $-1 -1 $-1 $169 $216 #
ellipse-curve $-1 -1 $-1 6.622981607751228239 -81.56440517345231456 12.00000000000000178 0 0 1 61.67658856566905001 -28.85835647413132676 0 1 I I #
DXID-attrib $-1 -1 $-1 $-1 $140 @10 ASM ENTITY @36 d5b1c4b4-df7f-4cbf-a13b-ce53069e1dd6 #
face $217 -1 $-1 $196 $210 $5 $-1 $218 forward single #
loop $-1 -1 $-1 $-1 $219 $140 #
cone-surface $-1 -1 $-1 -22.48713286983985427 79.55298463649512541 0 0 0 1 20.02978489336554446 -15.37292480228664004 0 1 I I 0 -1 25.24914057648803123 forward I I I I #
coedge $-1 -1 $-1 $220 $221 $222 $223 forward $141 $-1 #
coedge $-1 -1 $-1 $224 $143 $145 $185 forward $113 $-1 #
coedge $-1 -1 $-1 $143 $224 $220 $225 reversed $113 $-1 #
coedge $-1 -1 $-1 $222 $146 $143 $183 reversed $108 $-1 #
edge $226 -1 $-1 $227 -2.149914267133304598e-15 $187 1.296916433818925185 $143 $228 forward @7 unknown #
coedge $-1 -1 $-1 $145 $144 $214 $229 reversed $88 $-1 #
edge $230 -1 $-1 $187 0 $231 1.200000000000000178 $180 $232 forward @7 tangent #
DXID-attrib $-1 -1 $-1 $-1 $147 @10 ASM ENTITY @36 317dafc6-d1ef-448d-b9b4-2bd51961b771 #
vertex $-1 -1 $-1 $147 $233 #
straight-curve $-1 -1 $-1 -57.11177643097443024 36.04354428490211149 0 7.071067811865496822 -7.071067811865454189 0 F 0 F 13.36445221842494213 #
edge $234 -1 $-1 $191 1.840628052210777188 $160 3.141592653589793116 $148 $235 forward @7 unknown #
DXID-attrib $-1 -1 $-1 $-1 $149 @10 ASM ENTITY @36 41e3fd50-c071-41a4-8c8f-e706f8665683 #
vertex $-1 -1 $-1 $189 $236 #
straight-curve $-1 -1 $-1 37.38917147394460017 -58.45740362001635049 0 0 0 10 I I #
point $-1 -1 $-1 37.38917147394460017 -58.45740362001635049 0 #
DXID-attrib $-1 -1 $-1 $-1 $153 @10 ASM ENTITY @36 8431452e-b5f5-4173-a32b-a25df436214e #
ellipse-curve $-1 -1 $-1 54.84823516570969559 -103.7849492996267031 12.00000000000000178 0 0 1 -12.44329293047021956 8.376361220892020398 0 1 I I #
face $237 -1 $-1 $60 $155 $5 $-1 $238 forward single #
point $-1 -1 $-1 68.29957017342024983 -110.4227616475836271 12.00000000000000178 #
point $-1 -1 $-1 42.40494223523938899 -95.4085880787346241 12.00000000000000178 #
coedge $-1 -1 $-1 $162 $222 $219 $239 reversed $108 $-1 #
coedge $-1 -1 $-1 $209 $208 $162 $201 forward $210 $-1 #
edge $240 -1 $-1 $203 -2.009718347115232213e-14 $241 13.45111582499115421 $200 $242 forward @7 unknown #
DXID-attrib $-1 -1 $-1 $-1 $163 @10 ASM ENTITY @36 fd824827-e8a3-4ed0-b8ec-7aacc83d5e01 #
vertex $-1 -1 $-1 $201 $243 #
ellipse-curve $-1 -1 $-1 6.622981607751228239 -81.56440517345231456 0 0 0 1 61.67658856566905001 -28.85835647413132676 0 1 F 0 F 1.223036031068984286 #
coedge $-1 -1 $-1 $244 $167 $245 $246 forward $84 $-1 #
coedge $-1 -1 $-1 $247 $248 $167 $207 reversed $177 $-1 #
edge $249 -1 $-1 $212 1.701585095432882833 $250 3.141592653589794892 $206 $251 forward @7 unknown #
coedge $-1 -1 $-1 $200 $168 $171 $215 reversed $210 $-1 #
coedge $-1 -1 $-1 $168 $200 $247 $252 forward $210 $-1 #
loop $-1 -1 $-1 $-1 $200 $176 #
DXID-attrib $-1 -1 $-1 $-1 $169 @10 ASM ENTITY @36 14a2792b-00a6-4fe8-ad95-aab8325ecf4a #
vertex $-1 -1 $-1 $207 $253 #
straight-curve $-1 -1 $-1 54.77278075316206696 -33.41460602804147584 12.00000000000000178 -7.071067811865475505 7.071067811865475505 0 I I #
coedge $-1 -1 $-1 $170 $244 $184 $229 forward $84 $-1 #
edge $254 -1 $-1 $203 0 $173 1.200000000000000178 $171 $255 forward @7 tangent #
point $-1 -1 $-1 54.77278075316235117 -33.41460602804147584 12.00000000000000178 #
DXID-attrib $-1 -1 $-1 $-1 $176 @10 ASM ENTITY @36 b0bb1d6e-e56a-482c-bb63-b283fed53a4f #
plane-surface $-1 -1 $-1 54.77278075316235117 -33.41460602804176006 0 0.7071067811865475727 0.7071067811865475727 0 -7.071067811865475505 7.071067811865475505 0 forward_v I I I I #
coedge $-1 -1 $-1 $248 $247 $199 $239 forward $177 $-1 #
coedge $-1 -1 $-1 $245 $179 $181 $225 forward $141 $-1 #
coedge $-1 -1 $-1 $179 $245 $248 $256 reversed $141 $-1 #
coedge $-1 -1 $-1 $199 $182 $179 $223 reversed $108 $-1 #
edge $257 -1 $-1 $258 -9.868649107779124327e-17 $227 3.284683777927808634 $179 $259 forward @7 unknown #
coedge $-1 -1 $-1 $181 $180 $244 $260 reversed $113 $-1 #
edge $261 -1 $-1 $227 0 $262 1.200000000000000178 $220 $263 forward @7 tangent #
DXID-attrib $-1 -1 $-1 $-1 $183 @10 ASM ENTITY @36 7e395e9a-d795-41a3-ad6f-16e683a6ee2f #
vertex $-1 -1 $-1 $183 $264 #
ellipse-curve $-1 -1 $-1 -12.58101140903050918 80.57430930684603254 0 0 0 1 -54.91522823434493006 30.82686774307339306 0 1 F -2.149914267133304598e-15 F 1.296916433818925185 #
edge $265 -1 $-1 $231 0 $191 13.36445221842494213 $184 $266 forward @7 unknown #
DXID-attrib $-1 -1 $-1 $-1 $185 @10 ASM ENTITY @36 0125d7e2-d372-408d-a4cf-5079907a66a6 #
vertex $-1 -1 $-1 $229 $267 #
straight-curve $-1 -1 $-1 -57.11177643097443024 36.04354428490211149 0 0 0 10 I I #
point $-1 -1 $-1 -57.11177643097443024 36.04354428490211149 0 #
DXID-attrib $-1 -1 $-1 $-1 $189 @10 ASM ENTITY @36 bdf7f384-402f-47c5-ad2d-8f4ad3ef1850 #
ellipse-curve $-1 -1 $-1 15.61791774278844969 -80.22865735117221675 12.00000000000000178 0 0 -1 -26.78702449245083272 15.17993072756234696 0 1 I I #
point $-1 -1 $-1 37.38917147394460017 -58.45740362001635049 12.00000000000000178 #
DXID-attrib $-1 -1 $-1 $-1 $196 @10 ASM ENTITY @36 a00466f8-bb22-4b2b-ad96-209e7fe4defa #
cone-surface $-1 -1 $-1 6.622981607751228239 -81.56440517345231456 0 0 0 1 61.67658856566905001 -28.85835647413132676 0 1 I I 0 1 68.0940989769807743 forward I I I I #
edge $268 -1 $-1 $241 1.701585095432882833 $258 3.141592653589794892 $219 $269 forward @7 unknown #
DXID-attrib $-1 -1 $-1 $-1 $201 @10 ASM ENTITY @36 79add6e0-3b6a-4fee-8d64-32bda69ca024 #
vertex $-1 -1 $-1 $239 $270 #
straight-curve $-1 -1 $-1 54.77278075316206696 -33.41460602804147584 0 -7.071067811865475505 7.071067811865475505 0 F -2.009718347115232213e-14 F 13.45111582499115421 #
point $-1 -1 $-1 54.77278075316235117 -33.41460602804147584 0 #
coedge $-1 -1 $-1 $214 $205 $224 $260 forward $84 $-1 #
coedge $-1 -1 $-1 $221 $220 $205 $246 reversed $141 $-1 #
edge $271 -1 $-1 $250 -9.868649107779124327e-17 $262 3.284683777927808634 $245 $272 forward @7 unknown #
coedge $-1 -1 $-1 $219 $206 $209 $252 reversed $177 $-1 #
coedge $-1 -1 $-1 $206 $219 $221 $256 forward $177 $-1 #
DXID-attrib $-1 -1 $-1 $-1 $207 @10 ASM ENTITY @36 7c69f8b2-316d-4e4d-8b65-b57ce24f5e53 #
vertex $-1 -1 $-1 $246 $273 #
ellipse-curve $-1 -1 $-1 -22.48713286983985427 79.55298463649512541 12.00000000000000178 0 0 -1 20.02978489336554446 -15.37292480228664004 0 1 I I #
edge $274 -1 $-1 $241 0 $212 1.200000000000000178 $209 $275 forward @7 tangent #
point $-1 -1 $-1 -40.34097139060691006 61.69914611572806962 12.00000000000000178 #
DXID-attrib $-1 -1 $-1 $-1 $215 @10 ASM ENTITY @36 643daee7-8b4e-48f6-8eea-fdc4550fbee1 #
straight-curve $-1 -1 $-1 54.77278075316235117 -33.41460602804147584 0 0 0 10 I I #
edge $276 -1 $-1 $258 0 $250 1.200000000000000178 $248 $277 forward @7 tangent #
DXID-attrib $-1 -1 $-1 $-1 $223 @10 ASM ENTITY @36 cb5cc035-c314-4f99-bd45-b9800d88d86a #
vertex $-1 -1 $-1 $223 $278 #
ellipse-curve $-1 -1 $-1 -54.41620488905101638 104.0586508616337369 0 0 0 1 11.89928712584585213 -9.132741422852149071 0 1 F -9.868649107779124327e-17 F 3.284683777927808634 #
edge $279 -1 $-1 $262 -2.149914267133304598e-15 $231 1.296916433818925185 $224 $280 forward @7 unknown #
DXID-attrib $-1 -1 $-1 $-1 $225 @10 ASM ENTITY @36 846712a1-0548-4939-9908-2ec4869ed1f5 #
vertex $-1 -1 $-1 $260 $281 #
straight-curve $-1 -1 $-1 -67.49623964337558846 111.4011770499195109 0 0 0 10 I I #
point $-1 -1 $-1 -67.49623964337558846 111.4011770499195109 0 #
DXID-attrib $-1 -1 $-1 $-1 $229 @10 ASM ENTITY @36 3783e0e9-728e-46f6-85d8-69bd50946408 #
straight-curve $-1 -1 $-1 -57.11177643097443024 36.04354428490211149 12.00000000000000178 7.071067811865496822 -7.071067811865454189 0 I I #
point $-1 -1 $-1 -57.11177643097443024 36.04354428490211149 12.00000000000000178 #
DXID-attrib $-1 -1 $-1 $-1 $239 @10 ASM ENTITY @36 d83a581e-293c-4977-813c-d8a5568bc6a3 #
ellipse-curve $-1 -1 $-1 -22.48713286983985427 79.55298463649512541 0 0 0 -1 20.02978489336554446 -15.37292480228664004 0 1 F 1.701585095432882833 F 3.141592653589794892 #
point $-1 -1 $-1 -40.34097139060691006 61.69914611572806962 0 #
DXID-attrib $-1 -1 $-1 $-1 $246 @10 ASM ENTITY @36 a0b428df-9d6f-402e-a90a-66f4dd0af3f9 #
ellipse-curve $-1 -1 $-1 -54.41620488905101638 104.0586508616337369 12.00000000000000178 0 0 1 11.89928712584585213 -9.132741422852149071 0 1 I I #
point $-1 -1 $-1 -42.51691776320541294 94.92590943878184362 12.00000000000000178 #
DXID-attrib $-1 -1 $-1 $-1 $252 @10 ASM ENTITY @36 d1ef323c-560f-4983-80fa-965818ba2ae0 #
straight-curve $-1 -1 $-1 -40.34097139060691006 61.69914611572806962 0 0 0 10 I I #
DXID-attrib $-1 -1 $-1 $-1 $256 @10 ASM ENTITY @36 e93cff67-7a49-447b-8e10-0ffa5c1bb9a7 #
straight-curve $-1 -1 $-1 -42.51691776320541294 94.92590943878184362 0 0 0 10 I I #
point $-1 -1 $-1 -42.51691776320541294 94.92590943878184362 0 #
DXID-attrib $-1 -1 $-1 $-1 $260 @10 ASM ENTITY @36 ce2d945d-4ef1-4b14-9e38-bb8bd8d62030 #
ellipse-curve $-1 -1 $-1 -12.58101140903050918 80.57430930684603254 12.00000000000000178 0 0 1 -54.91522823434493006 30.82686774307339306 0 1 I I #
point $-1 -1 $-1 -67.49623964337558846 111.4011770499195109 12.00000000000000178 #
End-of-ACIS-data 