700 0 5 0           
30 Autodesk Translation Framework 20 ASM 229.3.0.65535 NT 24 Tue May 30 10:27:45 2023 
1 9.999999999999999547e-07 1.000000000000000036e-10 
body $5 -1 $-1 $6 $-1 $7 #
body $-1 -1 $-1 $8 $-1 $9 #
body $-1 -1 $-1 $10 $-1 $11 #
body $-1 -1 $-1 $12 $-1 $13 #
body $-1 -1 $-1 $14 $-1 $15 #
rgb_color-st-attrib $-1 -1 $16 $-1 $0 0.7490196078431372584 0.7490196078431372584 0.7490196078431372584 #
lump $-1 -1 $-1 $-1 $17 $0 #
transform $-1 -1 1 0 0 0 1 0 0 0 1 0 0 0 1 no_rotate no_reflect no_shear #
lump $-1 -1 $-1 $-1 $18 $1 #
transform $-1 -1 1 0 0 0 1 0 0 0 1 0 0 0 1 no_rotate no_reflect no_shear #
lump $-1 -1 $-1 $-1 $19 $2 #
transform $-1 -1 1 0 0 0 1 0 0 0 1 0 0 0 1 no_rotate no_reflect no_shear #
lump $-1 -1 $-1 $-1 $20 $3 #
transform $-1 -1 1 0 0 0 1 0 0 0 1 0 0 0 1 no_rotate no_reflect no_shear #
lump $-1 -1 $-1 $-1 $21 $4 #
transform $-1 -1 1 0 0 0 1 0 0 0 1 0 0 0 1 no_rotate no_reflect no_shear #
DXID-attrib $-1 -1 $-1 $5 $0 @10 ASM ENTITY @99 FRONTAL_1.IPT|:|B6C29E981410437054EC2B845DFBE1AED64CB662|:|DA4B9237BACCCDF19C0760CAB7AEC4A8359010B0 #
shell $-1 -1 $-1 $-1 $-1 $22 $-1 $6 #
shell $-1 -1 $-1 $-1 $-1 $-1 $23 $8 #
shell $-1 -1 $-1 $-1 $-1 $-1 $24 $10 #
shell $-1 -1 $-1 $-1 $-1 $-1 $25 $12 #
shell $-1 -1 $-1 $-1 $-1 $-1 $26 $14 #
face $27 -1 $-1 $28 $29 $17 $-1 $30 forward single #
wire $-1 -1 $-1 $-1 $31 $18 $-1 out #
wire $-1 -1 $-1 $-1 $32 $19 $-1 out #
wire $-1 -1 $-1 $-1 $33 $20 $-1 out #
wire $-1 -1 $-1 $-1 $34 $21 $-1 out #
DXID-attrib $-1 -1 $-1 $-1 $22 @10 ASM ENTITY @36 e91d8caa-3096-433f-a032-c7e479f328a2 #
face $35 -1 $-1 $36 $37 $17 $-1 $38 forward single #
loop $-1 -1 $-1 $-1 $39 $22 #
plane-surface $-1 -1 $-1 69.99975171059986678 5.954531482869640513 0 0 1 0 -10 0 0 forward_v I I I I #
coedge $-1 -1 $-1 $31 $31 $-1 $40 forward $23 $-1 #
coedge $-1 -1 $-1 $32 $32 $-1 $41 forward $24 $-1 #
coedge $-1 -1 $-1 $33 $33 $-1 $42 forward $25 $-1 #
coedge $-1 -1 $-1 $34 $34 $-1 $43 forward $26 $-1 #
DXID-attrib $-1 -1 $-1 $-1 $28 @10 ASM ENTITY @36 526be73a-d6a0-4aed-83f1-656fcbe00be1 #
face $44 -1 $-1 $45 $46 $17 $-1 $47 forward single #
loop $-1 -1 $-1 $-1 $48 $28 #
cone-surface $-1 -1 $-1 69.99975171059986678 15.95453148286964051 0 0 0 1 0 10.00000000000000888 0 1 I I 0 -1 10.00000000000000888 forward I I I I #
coedge $-1 -1 $-1 $49 $50 $51 $52 forward $29 $-1 #
edge $-1 -1 $-1 $53 0 $54 1.000000000000000222 $31 $55 forward @7 unknown #
edge $-1 -1 $-1 $56 0 $57 1 $32 $58 forward @7 unknown #
edge $-1 -1 $-1 $59 0 $60 0.999999999999999889 $33 $61 forward @7 unknown #
edge $-1 -1 $-1 $62 0 $63 1 $34 $64 forward @7 unknown #
DXID-attrib $-1 -1 $-1 $-1 $36 @10 ASM ENTITY @36 2d769956-8a02-4b00-88d9-5ed054b759f0 #
face $65 -1 $-1 $66 $67 $17 $-1 $68 forward single #
loop $-1 -1 $-1 $-1 $69 $36 #
plane-surface $-1 -1 $-1 79.99975171059986678 38.9545314828697542 0 -1 0 0 -0 -10 -0 forward_v I I I I #
coedge $-1 -1 $-1 $70 $71 $72 $73 forward $37 $-1 #
coedge $-1 -1 $-1 $74 $39 $75 $76 forward $29 $-1 #
coedge $-1 -1 $-1 $39 $74 $70 $77 reversed $29 $-1 #
coedge $-1 -1 $-1 $72 $78 $39 $52 reversed $79 $-1 #
edge $80 -1 $-1 $81 0 $82 14.00000000000001421 $39 $83 forward @7 unknown #
vertex $-1 -1 $-1 $40 $84 #
vertex $-1 -1 $-1 $40 $85 #
straight-curve $-1 -1 $-1 0 0 12.00000000000000178 -0.0002482894002397983968 -6.045468517130530017 0 F 0 F 1.000000000000000222 #
vertex $-1 -1 $-1 $41 $86 #
vertex $-1 -1 $-1 $41 $87 #
straight-curve $-1 -1 $-1 -119.5002482894002327 -6.045468517130530017 12.00000000000000178 239 0 0 F 0 F 1 #
vertex $-1 -1 $-1 $42 $88 #
vertex $-1 -1 $-1 $42 $89 #
straight-curve $-1 -1 $-1 54.15335145532718997 -14.67685954392760195 12.00000000000000178 0.0003544940967259435638 8.63139102679707193 0 F 0 F 0.999999999999999889 #
vertex $-1 -1 $-1 $43 $90 #
vertex $-1 -1 $-1 $43 $91 #
straight-curve $-1 -1 $-1 54.15352870237558847 -10.36116403052906421 12.00000000000000178 -54.15395414747880665 0.002224120886211711223 0 F 0 F 1 #
DXID-attrib $-1 -1 $-1 $-1 $45 @10 ASM ENTITY @36 00df0d07-76e6-41cd-bd9c-2fa302459362 #
face $92 -1 $-1 $93 $94 $17 $-1 $95 forward single #
loop $-1 -1 $-1 $-1 $96 $45 #
plane-surface $-1 -1 $-1 107.4997517105997247 38.9545314828697542 0 0 1 0 -10 0 0 forward_v I I I I #
coedge $-1 -1 $-1 $97 $98 $99 $100 forward $46 $-1 #
coedge $-1 -1 $-1 $101 $48 $50 $77 forward $37 $-1 #
coedge $-1 -1 $-1 $48 $101 $97 $102 reversed $37 $-1 #
coedge $-1 -1 $-1 $99 $51 $48 $73 reversed $79 $-1 #
edge $103 -1 $-1 $104 1.570796326794896558 $81 3.141592653589793116 $48 $105 forward @7 unknown #
coedge $-1 -1 $-1 $50 $49 $106 $107 reversed $29 $-1 #
coedge $-1 -1 $-1 $108 $109 $49 $76 reversed $110 $-1 #
edge $111 -1 $-1 $82 0 $112 1.200000000000000178 $75 $113 forward @7 tangent #
edge $114 -1 $-1 $81 0 $115 1.200000000000000178 $70 $116 forward @7 tangent #
coedge $-1 -1 $-1 $51 $117 $108 $118 reversed $79 $-1 #
loop $-1 -1 $-1 $-1 $78 $119 #
DXID-attrib $-1 -1 $-1 $-1 $52 @10 ASM ENTITY @36 6f3b763e-fcce-4aa3-bd09-358d1529cfe8 #
vertex $-1 -1 $-1 $52 $120 #
vertex $-1 -1 $-1 $52 $121 #
straight-curve $-1 -1 $-1 69.99975171059986678 5.954531482869640513 0 -10 0 0 F 0 F 14.00000000000001421 #
point $-1 -1 $-1 0 0 12.00000000000000178 #
point $-1 -1 $-1 -0.000248289400239798451 -6.045468517130531794 12.00000000000000178 #
point $-1 -1 $-1 -119.5002482894002327 -6.045468517130530017 12.00000000000000178 #
point $-1 -1 $-1 119.4997517105997673 -6.045468517130530017 12.00000000000000178 #
point $-1 -1 $-1 54.15335145532718997 -14.67685954392760195 12.00000000000000178 #
point $-1 -1 $-1 54.15370594942391591 -6.045468517130531794 12.00000000000000178 #
point $-1 -1 $-1 54.15352870237558847 -10.36116403052906421 12.00000000000000178 #
point $-1 -1 $-1 -0.0004254451032181805203 -10.35893990964285294 12.00000000000000178 #
DXID-attrib $-1 -1 $-1 $-1 $66 @10 ASM ENTITY @36 aaa25f33-bc2b-4626-ae77-037d888f01b6 #
face $122 -1 $-1 $123 $124 $17 $-1 $125 forward single #
loop $-1 -1 $-1 $-1 $126 $66 #
cone-surface $-1 -1 $-1 107.4997517105997247 26.95453148286958367 0 0 0 1 12.00000000000000178 0 0 1 I I 0 1 12.00000000000000178 forward I I I I #
coedge $-1 -1 $-1 $127 $128 $129 $130 forward $67 $-1 #
coedge $-1 -1 $-1 $131 $69 $71 $102 forward $46 $-1 #
coedge $-1 -1 $-1 $69 $131 $127 $132 reversed $46 $-1 #
coedge $-1 -1 $-1 $129 $72 $69 $100 reversed $79 $-1 #
edge $133 -1 $-1 $134 -0 $104 2.300000000000011369 $69 $135 forward @7 unknown #
coedge $-1 -1 $-1 $71 $70 $136 $137 reversed $37 $-1 #
edge $138 -1 $-1 $104 0 $139 1.200000000000000178 $97 $140 forward @7 tangent #
DXID-attrib $-1 -1 $-1 $-1 $73 @10 ASM ENTITY @36 95954cf2-2ae3-414b-9c64-d4c5a96d7e98 #
vertex $-1 -1 $-1 $73 $141 #
ellipse-curve $-1 -1 $-1 69.99975171059986678 15.95453148286964051 0 0 0 -1 0 10.00000000000000888 0 1 F 1.570796326794896558 F 3.141592653589793116 #
coedge $-1 -1 $-1 $142 $136 $74 $107 forward $143 $-1 #
edge $144 -1 $-1 $115 0 $112 14.00000000000001421 $74 $145 forward @7 unknown #
coedge $-1 -1 $-1 $146 $75 $78 $118 forward $110 $-1 #
coedge $-1 -1 $-1 $75 $146 $142 $147 reversed $110 $-1 #
loop $-1 -1 $-1 $-1 $108 $148 #
DXID-attrib $-1 -1 $-1 $-1 $76 @10 ASM ENTITY @36 925141da-7017-4e1c-b211-2a3d4d109bda #
vertex $-1 -1 $-1 $76 $149 #
straight-curve $-1 -1 $-1 -70.00024828940027533 5.954531482869640513 0 0 0 10 I I #
DXID-attrib $-1 -1 $-1 $-1 $77 @10 ASM ENTITY @36 9d02307e-5b06-4491-9044-bf3b86157e10 #
vertex $-1 -1 $-1 $107 $150 #
straight-curve $-1 -1 $-1 69.99975171059986678 5.954531482869640513 0 0 0 10 I I #
coedge $-1 -1 $-1 $78 $151 $152 $153 reversed $79 $-1 #
edge $154 -1 $-1 $82 1.570796326794896558 $155 3.141592653589793116 $108 $156 forward @7 unknown #
face $157 -1 $-1 $-1 $79 $17 $-1 $158 reversed single #
point $-1 -1 $-1 69.99975171059986678 5.954531482869640513 0 #
point $-1 -1 $-1 -70.00024828940027533 5.954531482869640513 0 #
DXID-attrib $-1 -1 $-1 $-1 $93 @10 ASM ENTITY @36 9e01cf7b-c341-4ca9-9160-e0906309648e #
face $159 -1 $-1 $160 $161 $17 $-1 $162 forward single #
loop $-1 -1 $-1 $-1 $163 $93 #
plane-surface $-1 -1 $-1 119.4997517105997531 -6.045468517130530017 0 1 0 0 0 10 0 forward_v I I I I #
coedge $-1 -1 $-1 $164 $165 $166 $167 forward $94 $-1 #
coedge $-1 -1 $-1 $168 $96 $98 $132 forward $67 $-1 #
coedge $-1 -1 $-1 $96 $168 $164 $169 reversed $67 $-1 #
coedge $-1 -1 $-1 $166 $99 $96 $130 reversed $79 $-1 #
edge $170 -1 $-1 $171 0 $134 2.749999999999985789 $96 $172 forward @7 unknown #
coedge $-1 -1 $-1 $98 $97 $173 $174 reversed $46 $-1 #
edge $175 -1 $-1 $134 0 $176 1.200000000000000178 $127 $177 forward @7 unknown #
DXID-attrib $-1 -1 $-1 $-1 $100 @10 ASM ENTITY @36 6495b78e-a851-4cf2-8d7c-eaaa4d4094be #
vertex $-1 -1 $-1 $100 $178 #
straight-curve $-1 -1 $-1 79.99975171059986678 38.9545314828697542 0 -0 -10 -0 F -0 F 2.300000000000011369 #
coedge $-1 -1 $-1 $106 $173 $101 $137 forward $143 $-1 #
edge $179 -1 $-1 $139 1.570796326794896558 $115 3.141592653589793116 $101 $180 forward @7 unknown #
DXID-attrib $-1 -1 $-1 $-1 $102 @10 ASM ENTITY @36 2a982d23-bf50-48fe-9972-045bba81f003 #
vertex $-1 -1 $-1 $137 $181 #
straight-curve $-1 -1 $-1 79.99975171059986678 15.95453148286964051 0 0 0 10 I I #
point $-1 -1 $-1 79.99975171059986678 15.95453148286964051 0 #
coedge $-1 -1 $-1 $182 $106 $109 $147 forward $143 $-1 #
loop $-1 -1 $-1 $-1 $142 $183 #
DXID-attrib $-1 -1 $-1 $-1 $107 @10 ASM ENTITY @36 1d004202-6172-42f0-836e-917843085e09 #
straight-curve $-1 -1 $-1 69.99975171059986678 5.954531482869640513 12.00000000000000178 -10 0 0 I I #
coedge $-1 -1 $-1 $109 $108 $184 $185 forward $110 $-1 #
edge $186 -1 $-1 $112 1.570796326794896558 $187 3.141592653589793116 $109 $188 forward @7 unknown #
face $189 -1 $-1 $183 $110 $17 $-1 $190 forward single #
point $-1 -1 $-1 -70.00024828940027533 5.954531482869640513 12.00000000000000178 #
point $-1 -1 $-1 69.99975171059986678 5.954531482869640513 12.00000000000000178 #
coedge $-1 -1 $-1 $117 $191 $192 $193 reversed $79 $-1 #
coedge $-1 -1 $-1 $194 $184 $117 $153 forward $195 $-1 #
edge $196 -1 $-1 $155 0 $197 2.300000000000011369 $152 $198 forward @7 unknown #
DXID-attrib $-1 -1 $-1 $-1 $118 @10 ASM ENTITY @36 0c7e1b35-4bac-4e6b-a834-ad21c8e0f54b #
vertex $-1 -1 $-1 $153 $199 #
ellipse-curve $-1 -1 $-1 -70.00024828940027533 15.95453148286964051 0 -0 -0 -1 10.00000000000000711 0 0 1 F 1.570796326794896558 F 3.141592653589793116 #
DXID-attrib $-1 -1 $-1 $-1 $119 @10 ASM ENTITY @36 268dfd62-eda9-4c8d-a5a8-56e63b934b84 #
plane-surface $-1 -1 $-1 -0.0002482894002753255336 16.45453148286946998 0 0 0 1 10 0 0 forward_v I I I I #
DXID-attrib $-1 -1 $-1 $-1 $123 @10 ASM ENTITY @36 6c19c159-6831-40af-b913-be3b276f3f7f #
face $200 -1 $-1 $201 $202 $17 $-1 $203 forward single #
loop $-1 -1 $-1 $-1 $204 $123 #
plane-surface $-1 -1 $-1 -119.5002482894002327 -6.045468517130530017 0 0 -1 0 10 0 0 forward_v I I I I #
coedge $-1 -1 $-1 $205 $206 $207 $208 forward $124 $-1 #
coedge $-1 -1 $-1 $209 $126 $128 $169 forward $94 $-1 #
coedge $-1 -1 $-1 $126 $209 $205 $210 reversed $94 $-1 #
coedge $-1 -1 $-1 $207 $129 $126 $167 reversed $79 $-1 #
edge $211 -1 $-1 $212 0 $171 1.570796326794896558 $126 $213 forward @7 unknown #
coedge $-1 -1 $-1 $128 $127 $214 $215 reversed $67 $-1 #
edge $216 -1 $-1 $171 0 $217 1.200000000000000178 $164 $218 forward @7 tangent #
DXID-attrib $-1 -1 $-1 $-1 $130 @10 ASM ENTITY @36 e66253d2-b684-41ee-a1ca-eb3309f7dc32 #
vertex $-1 -1 $-1 $130 $219 #
straight-curve $-1 -1 $-1 107.4997517105997247 38.9545314828697542 0 -10 0 0 F 0 F 2.749999999999985789 #
coedge $-1 -1 $-1 $136 $214 $131 $174 forward $143 $-1 #
edge $220 -1 $-1 $176 -0 $139 2.300000000000011369 $131 $221 forward @7 unknown #
DXID-attrib $-1 -1 $-1 $-1 $132 @10 ASM ENTITY @36 2f6dbb91-ef1a-4161-9a75-9895d4f0ed3b #
vertex $-1 -1 $-1 $174 $222 #
straight-curve $-1 -1 $-1 79.99975171059986678 38.9545314828697542 0 0 0 10 I I #
point $-1 -1 $-1 79.99975171059986678 38.9545314828697542 0 #
DXID-attrib $-1 -1 $-1 $-1 $137 @10 ASM ENTITY @36 2d66a19c-af9c-4de4-b31a-51cde936dbfb #
ellipse-curve $-1 -1 $-1 69.99975171059986678 15.95453148286964051 12.00000000000000178 0 0 -1 0 10.00000000000000888 0 1 I I #
point $-1 -1 $-1 79.99975171059986678 15.95453148286964051 12.00000000000000178 #
coedge $-1 -1 $-1 $223 $142 $224 $225 forward $143 $-1 #
face $226 -1 $-1 $119 $143 $17 $-1 $227 forward single #
coedge $-1 -1 $-1 $152 $224 $146 $185 reversed $195 $-1 #
edge $228 -1 $-1 $155 0 $187 1.200000000000000178 $146 $229 forward @7 tangent #
DXID-attrib $-1 -1 $-1 $-1 $147 @10 ASM ENTITY @36 4f9d215b-9b8e-41a9-b886-c5739761ee6c #
vertex $-1 -1 $-1 $225 $230 #
ellipse-curve $-1 -1 $-1 -70.00024828940027533 15.95453148286964051 12.00000000000000178 -0 -0 -1 10.00000000000000711 0 0 1 I I #
DXID-attrib $-1 -1 $-1 $-1 $148 @10 ASM ENTITY @36 749ce269-9a44-4381-a0d0-68a1fb001e1f #
cone-surface $-1 -1 $-1 -70.00024828940027533 15.95453148286964051 0 0 0 1 10.00000000000000711 0 0 1 I I 0 -1 10.00000000000000711 forward I I I I #
coedge $-1 -1 $-1 $151 $231 $232 $233 reversed $79 $-1 #
coedge $-1 -1 $-1 $234 $235 $151 $193 forward $236 $-1 #
edge $237 -1 $-1 $197 0 $238 2.750000000000014211 $192 $239 forward @7 unknown #
coedge $-1 -1 $-1 $224 $152 $235 $240 forward $195 $-1 #
loop $-1 -1 $-1 $-1 $152 $241 #
DXID-attrib $-1 -1 $-1 $-1 $153 @10 ASM ENTITY @36 793e5032-12ec-435a-99c0-9e1cfba65dc6 #
vertex $-1 -1 $-1 $193 $242 #
straight-curve $-1 -1 $-1 -80.00024828940027533 15.95453148286964051 0 1.291895883200188834e-13 10 0 F 0 F 2.300000000000011369 #
point $-1 -1 $-1 -80.00024828940027533 15.95453148286964051 0 #
DXID-attrib $-1 -1 $-1 $-1 $160 @10 ASM ENTITY @36 6c800a6f-d932-47bf-8e5a-be245d5408a2 #
face $243 -1 $-1 $244 $245 $17 $-1 $246 forward single #
loop $-1 -1 $-1 $-1 $247 $160 #
plane-surface $-1 -1 $-1 -119.5002482894002327 26.95453148286958367 0 -1 0 0 0 -10 0 forward_v I I I I #
coedge $-1 -1 $-1 $248 $249 $250 $251 forward $161 $-1 #
coedge $-1 -1 $-1 $252 $163 $165 $210 forward $124 $-1 #
coedge $-1 -1 $-1 $163 $252 $248 $253 reversed $124 $-1 #
coedge $-1 -1 $-1 $250 $166 $163 $208 reversed $79 $-1 #
edge $254 -1 $-1 $255 0 $212 3.300000000000011369 $163 $256 forward @7 unknown #
coedge $-1 -1 $-1 $165 $164 $257 $258 reversed $94 $-1 #
edge $259 -1 $-1 $212 0 $260 1.200000000000000178 $205 $261 forward @7 tangent #
DXID-attrib $-1 -1 $-1 $-1 $167 @10 ASM ENTITY @36 fa1ca428-5fb5-49b4-ad24-e5bbd43e1503 #
vertex $-1 -1 $-1 $167 $262 #
ellipse-curve $-1 -1 $-1 107.4997517105997247 26.95453148286958367 0 0 0 1 12.00000000000000178 0 0 1 F 0 F 1.570796326794896558 #
coedge $-1 -1 $-1 $173 $257 $168 $215 forward $143 $-1 #
edge $263 -1 $-1 $217 0 $176 2.749999999999985789 $168 $264 forward @7 unknown #
DXID-attrib $-1 -1 $-1 $-1 $169 @10 ASM ENTITY @36 f320a74c-7f3d-4d2d-95b0-577218d16c62 #
vertex $-1 -1 $-1 $215 $265 #
straight-curve $-1 -1 $-1 107.4997517105997247 38.9545314828697542 0 0 0 10 I I #
point $-1 -1 $-1 107.4997517105997247 38.9545314828697542 0 #
DXID-attrib $-1 -1 $-1 $-1 $174 @10 ASM ENTITY @36 85f73bfb-b807-4f43-ad5c-e8509a3b98be #
straight-curve $-1 -1 $-1 79.99975171059986678 38.9545314828697542 12.00000000000000178 -0 -10 -0 I I #
point $-1 -1 $-1 79.99975171059986678 38.9545314828697542 12.00000000000000178 #
coedge $-1 -1 $-1 $266 $182 $267 $268 forward $143 $-1 #
coedge $-1 -1 $-1 $184 $194 $182 $225 reversed $195 $-1 #
edge $269 -1 $-1 $187 0 $270 2.300000000000011369 $224 $271 forward @7 unknown #
DXID-attrib $-1 -1 $-1 $-1 $183 @10 ASM ENTITY @36 10d9e963-3e17-4c16-9f68-c62a8c9d06ff #
plane-surface $-1 -1 $-1 -0.0002482894002753255336 16.45453148286946998 12.00000000000000178 0 0 1 10 0 0 forward_v I I I I #
DXID-attrib $-1 -1 $-1 $-1 $185 @10 ASM ENTITY @36 cb38e8b3-336c-4be8-a4f9-bc53df52493b #
straight-curve $-1 -1 $-1 -80.00024828940027533 15.95453148286964051 0 0 0 10 I I #
point $-1 -1 $-1 -80.00024828940027533 15.95453148286964051 12.00000000000000178 #
coedge $-1 -1 $-1 $191 $250 $247 $272 reversed $79 $-1 #
coedge $-1 -1 $-1 $273 $274 $191 $233 forward $245 $-1 #
edge $275 -1 $-1 $238 0 $276 1.570796326794896558 $232 $277 forward @7 unknown #
coedge $-1 -1 $-1 $267 $192 $274 $278 forward $236 $-1 #
coedge $-1 -1 $-1 $192 $267 $194 $240 reversed $236 $-1 #
loop $-1 -1 $-1 $-1 $192 $244 #
DXID-attrib $-1 -1 $-1 $-1 $193 @10 ASM ENTITY @36 fffe05d9-ed39-4ea5-89ef-4255b94d46ec #
vertex $-1 -1 $-1 $233 $279 #
straight-curve $-1 -1 $-1 -80.00024828940013322 38.9545314828697542 0 -10 0 0 F 0 F 2.750000000000014211 #
edge $280 -1 $-1 $197 0 $270 1.200000000000000178 $194 $281 forward @7 unknown #
face $282 -1 $-1 $148 $195 $17 $-1 $283 forward single #
point $-1 -1 $-1 -80.00024828940013322 38.9545314828697542 0 #
DXID-attrib $-1 -1 $-1 $-1 $201 @10 ASM ENTITY @36 607d9f1c-6fcf-400c-8d58-03da52c8022a #
face $284 -1 $-1 $241 $236 $17 $-1 $285 forward single #
loop $-1 -1 $-1 $-1 $232 $201 #
cone-surface $-1 -1 $-1 -107.5002482894002753 26.95453148286958367 0 0 0 1 0 12.00000000000000178 0 1 I I 0 1 12.00000000000000178 forward I I I I #
coedge $-1 -1 $-1 $286 $287 $231 $272 forward $202 $-1 #
coedge $-1 -1 $-1 $288 $204 $206 $253 forward $161 $-1 #
coedge $-1 -1 $-1 $204 $288 $286 $289 reversed $161 $-1 #
coedge $-1 -1 $-1 $231 $207 $204 $251 reversed $79 $-1 #
edge $290 -1 $-1 $291 0 $255 23.89999999999999858 $204 $292 forward @7 unknown #
coedge $-1 -1 $-1 $206 $205 $293 $294 reversed $124 $-1 #
edge $295 -1 $-1 $255 0 $296 1.200000000000000178 $248 $297 forward @7 unknown #
DXID-attrib $-1 -1 $-1 $-1 $208 @10 ASM ENTITY @36 14c6efae-ae4c-47e8-9ae6-1ff46a738c19 #
vertex $-1 -1 $-1 $208 $298 #
straight-curve $-1 -1 $-1 119.4997517105997531 -6.045468517130530017 0 0 10 0 F 0 F 3.300000000000011369 #
coedge $-1 -1 $-1 $214 $293 $209 $258 forward $143 $-1 #
edge $299 -1 $-1 $260 0 $217 1.570796326794896558 $209 $300 forward @7 unknown #
DXID-attrib $-1 -1 $-1 $-1 $210 @10 ASM ENTITY @36 7b1ff9e0-a226-44e7-9d14-01789287b420 #
vertex $-1 -1 $-1 $258 $301 #
straight-curve $-1 -1 $-1 119.4997517105997531 26.95453148286958367 0 0 0 10 I I #
point $-1 -1 $-1 119.4997517105997531 26.95453148286958367 0 #
DXID-attrib $-1 -1 $-1 $-1 $215 @10 ASM ENTITY @36 db58eeb6-e488-4c66-af07-87aadfd6497a #
straight-curve $-1 -1 $-1 107.4997517105997247 38.9545314828697542 12.00000000000000178 -10 0 0 I I #
point $-1 -1 $-1 107.4997517105997247 38.9545314828697542 12.00000000000000178 #
coedge $-1 -1 $-1 $302 $223 $303 $304 forward $143 $-1 #
coedge $-1 -1 $-1 $235 $234 $223 $268 reversed $236 $-1 #
edge $305 -1 $-1 $270 0 $306 2.750000000000014211 $267 $307 forward @7 unknown #
DXID-attrib $-1 -1 $-1 $-1 $225 @10 ASM ENTITY @36 11bb043b-3cfe-4db7-be49-f5663c095ebb #
vertex $-1 -1 $-1 $268 $308 #
straight-curve $-1 -1 $-1 -80.00024828940027533 15.95453148286964051 12.00000000000000178 1.291895883200188834e-13 10 0 I I #
edge $309 -1 $-1 $276 0 $291 3.300000000000011369 $247 $310 forward @7 unknown #
coedge $-1 -1 $-1 $303 $232 $287 $311 forward $245 $-1 #
coedge $-1 -1 $-1 $232 $303 $234 $278 reversed $245 $-1 #
DXID-attrib $-1 -1 $-1 $-1 $233 @10 ASM ENTITY @36 517106cf-bcc1-41bc-a647-0a5345ab738e #
vertex $-1 -1 $-1 $272 $312 #
ellipse-curve $-1 -1 $-1 -107.5002482894002753 26.95453148286958367 0 0 0 1 0 12.00000000000000178 0 1 F 0 F 1.570796326794896558 #
edge $313 -1 $-1 $238 0 $306 1.200000000000000178 $234 $314 forward @7 tangent #
point $-1 -1 $-1 -107.5002482894002753 38.9545314828697542 0 #
DXID-attrib $-1 -1 $-1 $-1 $240 @10 ASM ENTITY @36 43957580-2fbd-4db7-bc73-9a1bf987ee2a #
straight-curve $-1 -1 $-1 -80.00024828940013322 38.9545314828697542 0 0 0 10 I I #
DXID-attrib $-1 -1 $-1 $-1 $241 @10 ASM ENTITY @36 78f0cf8e-6191-463a-ad5a-46d06de89b82 #
plane-surface $-1 -1 $-1 -80.00024828940027533 15.95453148286964051 0 1 -1.291895883200188897e-14 0 1.291895883200188834e-13 10 0 forward_v I I I I #
DXID-attrib $-1 -1 $-1 $-1 $244 @10 ASM ENTITY @36 4cbf28d2-40de-4520-b362-de6c585ef4e3 #
plane-surface $-1 -1 $-1 -80.00024828940013322 38.9545314828697542 0 0 1 0 -10 0 0 forward_v I I I I #
coedge $-1 -1 $-1 $315 $247 $249 $289 forward $202 $-1 #
coedge $-1 -1 $-1 $247 $315 $273 $311 reversed $202 $-1 #
coedge $-1 -1 $-1 $249 $248 $316 $317 reversed $161 $-1 #
edge $318 -1 $-1 $291 0 $319 1.200000000000000178 $286 $320 forward @7 unknown #
DXID-attrib $-1 -1 $-1 $-1 $251 @10 ASM ENTITY @36 26950430-75d6-45d4-99aa-1c6fe8945aae #
vertex $-1 -1 $-1 $251 $321 #
straight-curve $-1 -1 $-1 -119.5002482894002327 -6.045468517130530017 0 10 0 0 F 0 F 23.89999999999999858 #
coedge $-1 -1 $-1 $257 $316 $252 $294 forward $143 $-1 #
edge $322 -1 $-1 $296 0 $260 3.300000000000011369 $252 $323 forward @7 unknown #
DXID-attrib $-1 -1 $-1 $-1 $253 @10 ASM ENTITY @36 0f2e5f2f-f127-45bb-9a5f-e79898721ef3 #
vertex $-1 -1 $-1 $294 $324 #
straight-curve $-1 -1 $-1 119.4997517105997531 -6.045468517130530017 0 0 0 10 I I #
point $-1 -1 $-1 119.4997517105997531 -6.045468517130530017 0 #
DXID-attrib $-1 -1 $-1 $-1 $258 @10 ASM ENTITY @36 fd243756-984c-4535-834b-9fd19401a795 #
ellipse-curve $-1 -1 $-1 107.4997517105997247 26.95453148286958367 12.00000000000000178 0 0 1 12.00000000000000178 0 0 1 I I #
point $-1 -1 $-1 119.4997517105997531 26.95453148286958367 12.00000000000000178 #
coedge $-1 -1 $-1 $316 $266 $315 $325 forward $143 $-1 #
coedge $-1 -1 $-1 $274 $273 $266 $304 reversed $245 $-1 #
edge $326 -1 $-1 $306 0 $327 1.570796326794896558 $303 $328 forward @7 unknown #
DXID-attrib $-1 -1 $-1 $-1 $268 @10 ASM ENTITY @36 42429b3b-94a9-4b0e-9e52-54feb81687e8 #
vertex $-1 -1 $-1 $304 $329 #
straight-curve $-1 -1 $-1 -80.00024828940013322 38.9545314828697542 12.00000000000000178 -10 0 0 I I #
point $-1 -1 $-1 -80.00024828940013322 38.9545314828697542 12.00000000000000178 #
DXID-attrib $-1 -1 $-1 $-1 $272 @10 ASM ENTITY @36 f18be03e-974f-4e67-9433-41aaf0afba9d #
straight-curve $-1 -1 $-1 -119.5002482894002327 26.95453148286958367 0 0 -10 0 F 0 F 3.300000000000011369 #
edge $330 -1 $-1 $276 0 $327 1.200000000000000178 $273 $331 forward @7 tangent #
point $-1 -1 $-1 -119.5002482894003037 26.95453148286958367 0 #
DXID-attrib $-1 -1 $-1 $-1 $278 @10 ASM ENTITY @36 6b6c5987-b95e-4231-8c75-1d2f9be21488 #
straight-curve $-1 -1 $-1 -107.5002482894002753 38.9545314828697542 0 0 0 10 I I #
coedge $-1 -1 $-1 $287 $286 $302 $325 reversed $202 $-1 #
coedge $-1 -1 $-1 $293 $302 $288 $317 forward $143 $-1 #
edge $332 -1 $-1 $319 0 $296 23.89999999999999858 $288 $333 forward @7 unknown #
DXID-attrib $-1 -1 $-1 $-1 $289 @10 ASM ENTITY @36 7fb1390d-4cc1-4c74-80e3-4a9b98ed390c #
vertex $-1 -1 $-1 $317 $334 #
straight-curve $-1 -1 $-1 -119.5002482894002327 -6.045468517130530017 0 0 0 10 I I #
point $-1 -1 $-1 -119.5002482894002327 -6.045468517130530017 0 #
DXID-attrib $-1 -1 $-1 $-1 $294 @10 ASM ENTITY @36 05ab8ebd-a476-4abf-8942-9569064f5529 #
straight-curve $-1 -1 $-1 119.4997517105997531 -6.045468517130530017 12.00000000000000178 0 10 0 I I #
point $-1 -1 $-1 119.4997517105997531 -6.045468517130530017 12.00000000000000178 #
edge $335 -1 $-1 $327 0 $319 3.300000000000011369 $315 $336 forward @7 unknown #
DXID-attrib $-1 -1 $-1 $-1 $304 @10 ASM ENTITY @36 1ef30c2f-7927-4f71-ad42-764f6a8d9b6a #
vertex $-1 -1 $-1 $325 $337 #
ellipse-curve $-1 -1 $-1 -107.5002482894002753 26.95453148286958367 12.00000000000000178 0 0 1 0 12.00000000000000178 0 1 I I #
point $-1 -1 $-1 -107.5002482894002753 38.9545314828697542 12.00000000000000178 #
DXID-attrib $-1 -1 $-1 $-1 $311 @10 ASM ENTITY @36 f8a877e7-447b-44ba-a856-5894f2a16b6c #
straight-curve $-1 -1 $-1 -119.5002482894003037 26.95453148286958367 0 0 0 10 I I #
DXID-attrib $-1 -1 $-1 $-1 $317 @10 ASM ENTITY @36 dc0bc9f6-ddb3-43e2-949f-8add2c732def #
straight-curve $-1 -1 $-1 -119.5002482894002327 -6.045468517130530017 12.00000000000000178 10 0 0 I I #
point $-1 -1 $-1 -119.5002482894002327 -6.045468517130530017 12.00000000000000178 #
DXID-attrib $-1 -1 $-1 $-1 $325 @10 ASM ENTITY @36 47e8a8a5-57b2-4857-8d83-b4bbf151f14f #
straight-curve $-1 -1 $-1 -119.5002482894002327 26.95453148286958367 12.00000000000000178 0 -10 0 I I #
point $-1 -1 $-1 -119.5002482894003037 26.95453148286958367 12.00000000000000178 #
End-of-ACIS-data 