700 0 1 0           
30 Autodesk Translation Framework 20 ASM 229.3.0.65535 NT 24 Wed May 24 15:00:01 2023 
1 9.999999999999999547e-07 1.000000000000000036e-10 
body $1 -1 $-1 $2 $-1 $3 #
rgb_color-st-attrib $-1 -1 $4 $-1 $0 0.7490196078431372584 0.7490196078431372584 0.7490196078431372584 #
lump $-1 -1 $-1 $-1 $5 $0 #
transform $-1 -1 1 0 0 0 1 0 0 0 1 0 0 0 1 no_rotate no_reflect no_shear #
DXID-attrib $-1 -1 $-1 $1 $0 @10 ASM ENTITY @111 PLACA_SUPERIOR_MESA_1.IPT|:|75A72D86E55DA4F64D6DA1F84E582EBC4795C158|:|DA4B9237BACCCDF19C0760CAB7AEC4A8359010B0 #
shell $-1 -1 $-1 $-1 $-1 $6 $-1 $2 #
face $7 -1 $-1 $8 $9 $5 $-1 $10 forward single #
DXID-attrib $-1 -1 $-1 $-1 $6 @10 ASM ENTITY @36 7cfd098b-5d22-489f-9ea4-ebbd1f654328 #
face $11 -1 $-1 $12 $13 $5 $-1 $14 forward single #
loop $-1 -1 $-1 $15 $16 $6 #
cone-surface $-1 -1 $-1 -179.9955152539014591 -0.001103109221389786399 0 0 0 1 -1.500000000000001332 0 0 1 I I 0 -1 1.500000000000001332 forward I I I I #
DXID-attrib $-1 -1 $-1 $-1 $8 @10 ASM ENTITY @36 718f27b5-038a-469e-82fb-38248f80b712 #
face $17 -1 $-1 $18 $19 $5 $-1 $20 forward single #
loop $-1 -1 $-1 $21 $22 $8 #
cone-surface $-1 -1 $-1 180.004484746098683 -0.001103109221389786399 0 0 0 1 -1.500000000000001332 0 0 1 I I 0 -1 1.500000000000001332 forward I I I I #
loop $-1 -1 $-1 $-1 $23 $6 #
coedge $-1 -1 $-1 $16 $16 $24 $25 reversed $9 $-1 #
DXID-attrib $-1 -1 $-1 $-1 $12 @10 ASM ENTITY @36 d5979461-ed14-463f-80fd-f517e6f87b76 #
face $26 -1 $-1 $27 $28 $5 $-1 $29 forward single #
loop $-1 -1 $-1 $-1 $30 $12 #
cone-surface $-1 -1 $-1 -166.662181920568031 117.3322302241118109 0 0 0 1 0 5.999999999999978684 0 1 I I 0 1 5.999999999999978684 forward I I I I #
loop $-1 -1 $-1 $-1 $31 $8 #
coedge $-1 -1 $-1 $22 $22 $32 $33 reversed $13 $-1 #
coedge $-1 -1 $-1 $23 $23 $34 $35 forward $15 $-1 #
coedge $-1 -1 $-1 $24 $24 $16 $25 forward $36 $-1 #
edge $37 -1 $-1 $38 -3.141592653589793116 $38 3.141592653589793116 $16 $39 forward @7 unknown #
DXID-attrib $-1 -1 $-1 $-1 $18 @10 ASM ENTITY @36 681be587-d4b6-4d9f-ac42-8eefe77542d9 #
face $40 -1 $-1 $41 $42 $5 $-1 $43 forward single #
loop $-1 -1 $-1 $-1 $44 $18 #
plane-surface $-1 -1 $-1 166.6711514127652549 123.3322302241120383 0 0 1 0 -10 -0 -0 forward_v I I I I #
coedge $-1 -1 $-1 $45 $46 $47 $48 forward $19 $-1 #
coedge $-1 -1 $-1 $31 $31 $49 $50 forward $21 $-1 #
coedge $-1 -1 $-1 $32 $32 $22 $33 forward $51 $-1 #
edge $52 -1 $-1 $53 -3.141592653589793116 $53 3.141592653589793116 $22 $54 forward @7 unknown #
coedge $-1 -1 $-1 $34 $34 $23 $35 reversed $55 $-1 #
edge $56 -1 $-1 $57 -3.141592653589793116 $57 3.141592653589793116 $23 $58 forward @7 unknown #
loop $-1 -1 $-1 $-1 $24 $59 #
DXID-attrib $-1 -1 $-1 $-1 $25 @10 ASM ENTITY @36 ea250a9b-a833-4bd1-8981-785b96da3ead #
vertex $-1 -1 $-1 $25 $60 #
ellipse-curve $-1 -1 $-1 -179.9955152539014591 -0.001103109221389786399 12.00000000000000178 0 0 -1 -1.500000000000001332 -0 -0 1 I I #
DXID-attrib $-1 -1 $-1 $-1 $27 @10 ASM ENTITY @36 edd2d333-ca10-4403-a502-b551cbe2d748 #
face $61 -1 $-1 $62 $63 $5 $-1 $64 forward single #
loop $-1 -1 $-1 $-1 $65 $27 #
cone-surface $-1 -1 $-1 166.6711514127652549 117.3322302241118109 0 0 0 1 6.000000000000005329 0 0 1 I I 0 1 6.000000000000005329 forward I I I I #
coedge $-1 -1 $-1 $66 $67 $68 $69 forward $28 $-1 #
coedge $-1 -1 $-1 $70 $30 $71 $72 forward $19 $-1 #
coedge $-1 -1 $-1 $30 $70 $66 $73 reversed $19 $-1 #
coedge $-1 -1 $-1 $68 $74 $30 $48 reversed $75 $-1 #
edge $76 -1 $-1 $77 0 $78 1.570796326794896558 $30 $79 forward @7 unknown #
coedge $-1 -1 $-1 $49 $49 $31 $50 reversed $80 $-1 #
edge $81 -1 $-1 $82 -3.141592653589793116 $82 3.141592653589793116 $31 $83 forward @7 unknown #
loop $-1 -1 $-1 $36 $32 $59 #
DXID-attrib $-1 -1 $-1 $-1 $33 @10 ASM ENTITY @36 03298b13-40fd-4220-b37d-1a3d4104102f #
vertex $-1 -1 $-1 $33 $84 #
ellipse-curve $-1 -1 $-1 180.004484746098683 -0.001103109221389786399 12.00000000000000178 0 0 -1 -1.500000000000001332 -0 -0 1 I I #
loop $-1 -1 $-1 $-1 $34 $85 #
DXID-attrib $-1 -1 $-1 $-1 $35 @10 ASM ENTITY @36 e958b1bf-8fc4-4117-a3e6-1530b353d40c #
vertex $-1 -1 $-1 $35 $86 #
ellipse-curve $-1 -1 $-1 -179.9955152539014591 -0.001103109221389786399 0 0 0 -1 -1.500000000000001332 -0 -0 1 I I #
face $87 -1 $-1 $85 $88 $5 $-1 $89 forward single #
point $-1 -1 $-1 -178.4955152539014023 -0.001103109221389786399 12.00000000000000178 #
DXID-attrib $-1 -1 $-1 $-1 $41 @10 ASM ENTITY @36 bce3b695-f5c4-4992-99e1-2e318298bb18 #
face $90 -1 $-1 $91 $92 $5 $-1 $93 forward single #
loop $-1 -1 $-1 $-1 $94 $41 #
plane-surface $-1 -1 $-1 172.6711514127654823 67.66556355744540951 0 1 5.722491831624998335e-15 0 -5.722491831624998808e-14 10 0 forward_v I I I I #
coedge $-1 -1 $-1 $95 $96 $97 $98 forward $42 $-1 #
coedge $-1 -1 $-1 $99 $44 $46 $73 forward $28 $-1 #
coedge $-1 -1 $-1 $44 $99 $95 $100 reversed $28 $-1 #
coedge $-1 -1 $-1 $97 $47 $44 $69 reversed $75 $-1 #
edge $101 -1 $-1 $102 -0 $77 33.3333333333333286 $44 $103 forward @7 unknown #
coedge $-1 -1 $-1 $46 $45 $104 $105 reversed $19 $-1 #
coedge $-1 -1 $-1 $106 $107 $45 $72 reversed $108 $-1 #
edge $109 -1 $-1 $78 0 $110 1.200000000000000178 $71 $111 forward @7 tangent #
edge $112 -1 $-1 $77 0 $113 1.200000000000000178 $66 $114 forward @7 tangent #
coedge $-1 -1 $-1 $47 $115 $106 $116 reversed $75 $-1 #
loop $-1 -1 $-1 $80 $74 $85 #
DXID-attrib $-1 -1 $-1 $-1 $48 @10 ASM ENTITY @36 8f7f2290-b9ce-4aa9-91aa-1829aa7e83e4 #
vertex $-1 -1 $-1 $48 $117 #
vertex $-1 -1 $-1 $48 $118 #
ellipse-curve $-1 -1 $-1 -166.662181920568031 117.3322302241118109 0 0 0 1 0 5.999999999999978684 0 1 F 0 F 1.570796326794896558 #
loop $-1 -1 $-1 $55 $49 $85 #
DXID-attrib $-1 -1 $-1 $-1 $50 @10 ASM ENTITY @36 34b49328-a9da-48b2-8535-48cdf0a63369 #
vertex $-1 -1 $-1 $50 $119 #
ellipse-curve $-1 -1 $-1 180.004484746098683 -0.001103109221389786399 0 0 0 -1 -1.500000000000001332 -0 -0 1 I I #
point $-1 -1 $-1 181.5044847460987398 -0.001103109221389786399 12.00000000000000178 #
face $120 -1 $-1 $-1 $75 $5 $-1 $121 reversed single #
point $-1 -1 $-1 -178.4955152539014023 -0.001103109221389786399 0 #
DXID-attrib $-1 -1 $-1 $-1 $59 @10 ASM ENTITY @36 e0f66d20-e420-44ed-9cea-8eba3fd5ffad #
loop $-1 -1 $-1 $51 $122 $59 #
plane-surface $-1 -1 $-1 0.004484746098682990123 -0.001103109221674003493 12.00000000000000178 0 0 1 10 0 0 forward_v I I I I #
DXID-attrib $-1 -1 $-1 $-1 $62 @10 ASM ENTITY @36 881d7d82-a228-49d8-8134-cb437402985a #
face $123 -1 $-1 $124 $125 $5 $-1 $126 forward single #
loop $-1 -1 $-1 $-1 $127 $62 #
cone-surface $-1 -1 $-1 178.6711514127651412 67.66556355744540951 0 0 0 1 5.99999999999992184 0 0 1 I I 0 -1 5.99999999999992184 forward I I I I #
coedge $-1 -1 $-1 $128 $129 $130 $131 forward $63 $-1 #
coedge $-1 -1 $-1 $132 $65 $67 $100 forward $42 $-1 #
coedge $-1 -1 $-1 $65 $132 $128 $133 reversed $42 $-1 #
coedge $-1 -1 $-1 $130 $68 $65 $98 reversed $75 $-1 #
edge $134 -1 $-1 $135 0 $102 1.570796326794896558 $65 $136 forward @7 unknown #
coedge $-1 -1 $-1 $67 $66 $137 $138 reversed $28 $-1 #
edge $139 -1 $-1 $102 0 $140 1.200000000000000178 $95 $141 forward @7 tangent #
DXID-attrib $-1 -1 $-1 $-1 $69 @10 ASM ENTITY @36 7756a961-0669-43fe-b07c-906872b88a27 #
vertex $-1 -1 $-1 $69 $142 #
straight-curve $-1 -1 $-1 166.6711514127652549 123.3322302241120383 0 -10 -0 -0 F -0 F 33.3333333333333286 #
coedge $-1 -1 $-1 $122 $137 $70 $105 forward $88 $-1 #
edge $143 -1 $-1 $113 0 $110 1.570796326794896558 $70 $144 forward @7 unknown #
coedge $-1 -1 $-1 $145 $71 $74 $116 forward $108 $-1 #
coedge $-1 -1 $-1 $71 $145 $122 $146 reversed $108 $-1 #
loop $-1 -1 $-1 $-1 $106 $147 #
DXID-attrib $-1 -1 $-1 $-1 $72 @10 ASM ENTITY @36 17d60b6c-43b1-4ec8-85cd-08142be722d6 #
vertex $-1 -1 $-1 $72 $148 #
straight-curve $-1 -1 $-1 -172.6621819205681163 117.3322302241118109 0 0 0 10 I I #
DXID-attrib $-1 -1 $-1 $-1 $73 @10 ASM ENTITY @36 b3e6c9f6-c531-49ce-8316-642d825c7872 #
vertex $-1 -1 $-1 $105 $149 #
straight-curve $-1 -1 $-1 -166.662181920568031 123.3322302241120383 0 0 0 10 I I #
coedge $-1 -1 $-1 $74 $150 $151 $152 reversed $75 $-1 #
edge $153 -1 $-1 $78 -0 $154 4.890686869202227172 $106 $155 forward @7 unknown #
point $-1 -1 $-1 -166.662181920568031 123.3322302241120383 0 #
point $-1 -1 $-1 -172.6621819205681163 117.3322302241118109 0 #
point $-1 -1 $-1 181.5044847460987398 -0.001103109221389786399 0 #
DXID-attrib $-1 -1 $-1 $-1 $85 @10 ASM ENTITY @36 327a5e1f-cb0f-4569-9696-87aa9f1f848a #
plane-surface $-1 -1 $-1 0.004484746098682990123 -0.001103109221674003493 0 0 0 1 10 0 0 forward_v I I I I #
coedge $-1 -1 $-1 $156 $104 $107 $146 forward $88 $-1 #
DXID-attrib $-1 -1 $-1 $-1 $91 @10 ASM ENTITY @36 ce2a466c-2cf5-484d-9d3e-7a6bfa1e6f33 #
face $157 -1 $-1 $158 $159 $5 $-1 $160 forward single #
loop $-1 -1 $-1 $-1 $161 $91 #
plane-surface $-1 -1 $-1 179.0044847460987398 61.66556355744518214 0 0 1 0 -10 -0 -0 forward_v I I I I #
coedge $-1 -1 $-1 $162 $163 $164 $165 forward $92 $-1 #
coedge $-1 -1 $-1 $166 $94 $96 $133 forward $63 $-1 #
coedge $-1 -1 $-1 $94 $166 $162 $167 reversed $63 $-1 #
coedge $-1 -1 $-1 $164 $97 $94 $131 reversed $75 $-1 #
edge $168 -1 $-1 $169 0 $135 4.96666666666664014 $94 $170 forward @7 unknown #
coedge $-1 -1 $-1 $96 $95 $171 $172 reversed $42 $-1 #
edge $173 -1 $-1 $135 0 $174 1.200000000000000178 $128 $175 forward @7 tangent #
DXID-attrib $-1 -1 $-1 $-1 $98 @10 ASM ENTITY @36 9b5ec0b5-2db0-4d0d-9d22-0bed5d42fed0 #
vertex $-1 -1 $-1 $98 $176 #
ellipse-curve $-1 -1 $-1 166.6711514127652549 117.3322302241118109 0 0 0 1 6.000000000000005329 0 0 1 F 0 F 1.570796326794896558 #
coedge $-1 -1 $-1 $104 $171 $99 $138 forward $88 $-1 #
edge $177 -1 $-1 $140 -0 $113 33.3333333333333286 $99 $178 forward @7 unknown #
DXID-attrib $-1 -1 $-1 $-1 $100 @10 ASM ENTITY @36 ff4acaa2-5b47-4c9f-a6c0-37113ec0acf6 #
vertex $-1 -1 $-1 $138 $179 #
straight-curve $-1 -1 $-1 166.6711514127652549 123.3322302241120383 0 0 0 10 I I #
point $-1 -1 $-1 166.6711514127652549 123.3322302241120383 0 #
DXID-attrib $-1 -1 $-1 $-1 $105 @10 ASM ENTITY @36 d73e93c1-133f-45fe-bcfb-923570b300f1 #
ellipse-curve $-1 -1 $-1 -166.662181920568031 117.3322302241118109 12.00000000000000178 0 0 1 0 5.999999999999978684 0 1 I I #
coedge $-1 -1 $-1 $107 $106 $180 $181 forward $108 $-1 #
edge $182 -1 $-1 $110 -0 $183 4.890686869202227172 $107 $184 forward @7 unknown #
face $185 -1 $-1 $59 $108 $5 $-1 $186 forward single #
point $-1 -1 $-1 -172.6621819205681163 117.3322302241118109 12.00000000000000178 #
point $-1 -1 $-1 -166.662181920568031 123.3322302241120383 12.00000000000000178 #
coedge $-1 -1 $-1 $115 $187 $188 $189 reversed $75 $-1 #
coedge $-1 -1 $-1 $190 $180 $115 $152 forward $191 $-1 #
edge $192 -1 $-1 $154 1.570796326794896558 $193 3.141592653589793116 $151 $194 forward @7 unknown #
DXID-attrib $-1 -1 $-1 $-1 $116 @10 ASM ENTITY @36 effd84d2-484f-4a88-996c-c0fa620cfa4a #
vertex $-1 -1 $-1 $152 $195 #
straight-curve $-1 -1 $-1 -172.6621819205681163 117.3322302241118109 0 -0 -10 -0 F -0 F 4.890686869202227172 #
coedge $-1 -1 $-1 $196 $122 $197 $198 forward $88 $-1 #
DXID-attrib $-1 -1 $-1 $-1 $124 @10 ASM ENTITY @36 ba3d416b-8d00-4ed1-92e3-32763c7dbe7c #
face $199 -1 $-1 $200 $201 $5 $-1 $202 forward single #
loop $-1 -1 $-1 $-1 $203 $124 #
cone-surface $-1 -1 $-1 179.0044847460987398 55.66556355744523898 0 0 0 1 5.999999999999968026 0 0 1 I I 0 1 5.999999999999968026 forward I I I I #
coedge $-1 -1 $-1 $204 $205 $206 $207 forward $125 $-1 #
coedge $-1 -1 $-1 $208 $127 $129 $167 forward $92 $-1 #
coedge $-1 -1 $-1 $127 $208 $204 $209 reversed $92 $-1 #
coedge $-1 -1 $-1 $206 $130 $127 $165 reversed $75 $-1 #
edge $210 -1 $-1 $211 1.570796326794896558 $169 3.141592653589793116 $127 $212 forward @7 unknown #
coedge $-1 -1 $-1 $129 $128 $213 $214 reversed $63 $-1 #
edge $215 -1 $-1 $169 0 $216 1.200000000000000178 $162 $217 forward @7 tangent #
DXID-attrib $-1 -1 $-1 $-1 $131 @10 ASM ENTITY @36 0b2a5fdc-5710-4f1e-90f7-7935903cfbd0 #
vertex $-1 -1 $-1 $131 $218 #
straight-curve $-1 -1 $-1 172.6711514127654823 67.66556355744540951 0 -5.722491831624998808e-14 10 0 F 0 F 4.96666666666664014 #
coedge $-1 -1 $-1 $137 $213 $132 $172 forward $88 $-1 #
edge $219 -1 $-1 $174 0 $140 1.570796326794896558 $132 $220 forward @7 unknown #
DXID-attrib $-1 -1 $-1 $-1 $133 @10 ASM ENTITY @36 1b7b7c0f-9395-4976-be49-411d2fa3355d #
vertex $-1 -1 $-1 $172 $221 #
straight-curve $-1 -1 $-1 172.6711514127651981 117.3322302241118109 0 0 0 10 I I #
point $-1 -1 $-1 172.6711514127651981 117.3322302241118109 0 #
DXID-attrib $-1 -1 $-1 $-1 $138 @10 ASM ENTITY @36 73f40dca-a520-46dd-9767-11bb5a6a6324 #
straight-curve $-1 -1 $-1 166.6711514127652549 123.3322302241120383 12.00000000000000178 -10 -0 -0 I I #
point $-1 -1 $-1 166.6711514127652549 123.3322302241120383 12.00000000000000178 #
coedge $-1 -1 $-1 $151 $197 $145 $181 reversed $191 $-1 #
edge $222 -1 $-1 $154 0 $183 1.200000000000000178 $145 $223 forward @7 tangent #
DXID-attrib $-1 -1 $-1 $-1 $146 @10 ASM ENTITY @36 59b9d9e4-68b1-4d22-a9b1-001946e49343 #
vertex $-1 -1 $-1 $198 $224 #
straight-curve $-1 -1 $-1 -172.6621819205681163 117.3322302241118109 12.00000000000000178 -0 -10 -0 I I #
DXID-attrib $-1 -1 $-1 $-1 $147 @10 ASM ENTITY @36 aa2b18f9-2ade-4690-8521-4844b0ab9de2 #
plane-surface $-1 -1 $-1 -172.6621819205681163 117.3322302241118109 0 -1 0 0 -0 -10 -0 forward_v I I I I #
coedge $-1 -1 $-1 $150 $225 $226 $227 reversed $75 $-1 #
coedge $-1 -1 $-1 $228 $229 $150 $189 forward $230 $-1 #
edge $231 -1 $-1 $193 0 $232 0.04264646413112416212 $188 $233 forward @7 unknown #
coedge $-1 -1 $-1 $197 $151 $229 $234 forward $191 $-1 #
loop $-1 -1 $-1 $-1 $151 $235 #
DXID-attrib $-1 -1 $-1 $-1 $152 @10 ASM ENTITY @36 ad117ceb-d184-4dcc-88bb-029fe2a591b5 #
vertex $-1 -1 $-1 $189 $236 #
ellipse-curve $-1 -1 $-1 -179.4219798952127576 68.4253615320895392 0 0 0 -1 0 6.759797974644627061 0 1 F 1.570796326794896558 F 3.141592653589793116 #
point $-1 -1 $-1 -172.6621819205681163 68.4253615320895392 0 #
coedge $-1 -1 $-1 $237 $156 $238 $239 forward $88 $-1 #
coedge $-1 -1 $-1 $180 $190 $156 $198 reversed $191 $-1 #
edge $240 -1 $-1 $183 1.570796326794896558 $241 3.141592653589793116 $197 $242 forward @7 unknown #
DXID-attrib $-1 -1 $-1 $-1 $158 @10 ASM ENTITY @36 067b876e-251b-432f-ab5b-182403413748 #
face $243 -1 $-1 $244 $245 $5 $-1 $246 forward single #
loop $-1 -1 $-1 $-1 $247 $158 #
plane-surface $-1 -1 $-1 185.004484746098683 -55.66776977588830277 0 1 0 0 0 10 0 forward_v I I I I #
coedge $-1 -1 $-1 $248 $249 $250 $251 forward $159 $-1 #
coedge $-1 -1 $-1 $252 $161 $163 $209 forward $125 $-1 #
coedge $-1 -1 $-1 $161 $252 $248 $253 reversed $125 $-1 #
coedge $-1 -1 $-1 $250 $164 $161 $207 reversed $75 $-1 #
edge $254 -1 $-1 $255 -0 $211 0.03333333333335986026 $161 $256 forward @7 unknown #
coedge $-1 -1 $-1 $163 $162 $257 $258 reversed $92 $-1 #
edge $259 -1 $-1 $211 0 $260 1.200000000000000178 $204 $261 forward @7 tangent #
DXID-attrib $-1 -1 $-1 $-1 $165 @10 ASM ENTITY @36 6945c165-f626-4565-9e76-7802693ce125 #
vertex $-1 -1 $-1 $165 $262 #
ellipse-curve $-1 -1 $-1 178.6711514127651412 67.66556355744540951 0 -0 -0 -1 5.99999999999992184 0 0 1 F 1.570796326794896558 F 3.141592653589793116 #
coedge $-1 -1 $-1 $171 $257 $166 $214 forward $88 $-1 #
edge $263 -1 $-1 $216 0 $174 4.96666666666664014 $166 $264 forward @7 unknown #
DXID-attrib $-1 -1 $-1 $-1 $167 @10 ASM ENTITY @36 054800b1-a4a6-4f2c-85b0-51dd9f0657b1 #
vertex $-1 -1 $-1 $214 $265 #
straight-curve $-1 -1 $-1 172.6711514127654823 67.66556355744540951 0 0 0 10 I I #
point $-1 -1 $-1 172.6711514127654823 67.66556355744540951 0 #
DXID-attrib $-1 -1 $-1 $-1 $172 @10 ASM ENTITY @36 8a0843aa-60b6-412a-86cc-74ef81b5526b #
ellipse-curve $-1 -1 $-1 166.6711514127652549 117.3322302241118109 12.00000000000000178 0 0 1 6.000000000000005329 0 0 1 I I #
point $-1 -1 $-1 172.6711514127651981 117.3322302241118109 12.00000000000000178 #
DXID-attrib $-1 -1 $-1 $-1 $181 @10 ASM ENTITY @36 8e3126ce-4ae6-4017-8a26-96d82b29062b #
straight-curve $-1 -1 $-1 -172.6621819205681163 68.4253615320895392 0 0 0 10 I I #
point $-1 -1 $-1 -172.6621819205681163 68.4253615320895392 12.00000000000000178 #
coedge $-1 -1 $-1 $187 $266 $267 $268 reversed $75 $-1 #
coedge $-1 -1 $-1 $269 $270 $187 $227 forward $271 $-1 #
edge $272 -1 $-1 $232 0 $273 1.570796326794896558 $226 $274 forward @7 unknown #
coedge $-1 -1 $-1 $238 $188 $270 $275 forward $230 $-1 #
coedge $-1 -1 $-1 $188 $238 $190 $234 reversed $230 $-1 #
loop $-1 -1 $-1 $-1 $188 $276 #
DXID-attrib $-1 -1 $-1 $-1 $189 @10 ASM ENTITY @36 2e124dd3-a4d1-47ca-aff8-8ab15ab2b083 #
vertex $-1 -1 $-1 $227 $277 #
straight-curve $-1 -1 $-1 -179.4219798952127576 61.66556355744518214 0 10 0 0 F 0 F 0.04264646413112416212 #
edge $278 -1 $-1 $193 0 $241 1.200000000000000178 $190 $279 forward @5 knife #
face $280 -1 $-1 $147 $191 $5 $-1 $281 forward single #
point $-1 -1 $-1 -179.4219798952127576 61.66556355744489792 0 #
coedge $-1 -1 $-1 $282 $196 $283 $284 forward $88 $-1 #
coedge $-1 -1 $-1 $229 $228 $196 $239 reversed $230 $-1 #
edge $285 -1 $-1 $241 0 $286 0.04264646413112416212 $238 $287 forward @7 unknown #
DXID-attrib $-1 -1 $-1 $-1 $198 @10 ASM ENTITY @36 9a7f0242-78d2-403b-bcaf-d6c60a964e24 #
vertex $-1 -1 $-1 $239 $288 #
ellipse-curve $-1 -1 $-1 -179.4219798952127576 68.4253615320895392 12.00000000000000178 0 0 -1 0 6.759797974644627061 0 1 I I #
DXID-attrib $-1 -1 $-1 $-1 $200 @10 ASM ENTITY @36 a53b20d0-44f8-4710-9666-e38d1e09f3c5 #
face $289 -1 $-1 $290 $291 $5 $-1 $292 forward single #
loop $-1 -1 $-1 $-1 $293 $200 #
cone-surface $-1 -1 $-1 179.0044847460987398 -55.66776977588830277 0 0 0 1 0 -5.99999999999997069 0 1 I I 0 1 5.99999999999997069 forward I I I I #
coedge $-1 -1 $-1 $294 $295 $296 $297 forward $201 $-1 #
coedge $-1 -1 $-1 $298 $203 $205 $253 forward $159 $-1 #
coedge $-1 -1 $-1 $203 $298 $294 $299 reversed $159 $-1 #
coedge $-1 -1 $-1 $296 $206 $203 $251 reversed $75 $-1 #
edge $300 -1 $-1 $301 0 $255 1.570796326794896558 $203 $302 forward @7 unknown #
coedge $-1 -1 $-1 $205 $204 $303 $304 reversed $125 $-1 #
edge $305 -1 $-1 $255 0 $306 1.200000000000000178 $248 $307 forward @7 tangent #
DXID-attrib $-1 -1 $-1 $-1 $207 @10 ASM ENTITY @36 cd4d1c07-cba6-4d31-9601-79cfb8748300 #
vertex $-1 -1 $-1 $207 $308 #
straight-curve $-1 -1 $-1 179.0044847460987398 61.66556355744518214 0 -10 -0 -0 F -0 F 0.03333333333335986026 #
coedge $-1 -1 $-1 $213 $303 $208 $258 forward $88 $-1 #
edge $309 -1 $-1 $260 1.570796326794896558 $216 3.141592653589793116 $208 $310 forward @7 unknown #
DXID-attrib $-1 -1 $-1 $-1 $209 @10 ASM ENTITY @36 4906010a-9b17-4de4-826b-8601ba79fe5e #
vertex $-1 -1 $-1 $258 $311 #
straight-curve $-1 -1 $-1 178.6711514127651412 61.66556355744518214 0 0 0 10 I I #
point $-1 -1 $-1 178.6711514127651412 61.66556355744518214 0 #
DXID-attrib $-1 -1 $-1 $-1 $214 @10 ASM ENTITY @36 d2ef289d-d6bd-40ed-826c-a5645e2f8c27 #
straight-curve $-1 -1 $-1 172.6711514127654823 67.66556355744540951 12.00000000000000178 -5.722491831624998808e-14 10 0 I I #
point $-1 -1 $-1 172.6711514127654823 67.66556355744540951 12.00000000000000178 #
coedge $-1 -1 $-1 $225 $312 $313 $314 reversed $75 $-1 #
coedge $-1 -1 $-1 $315 $316 $225 $268 forward $317 $-1 #
edge $318 -1 $-1 $273 -0 $319 11.13333333333335418 $267 $320 forward @7 unknown #
coedge $-1 -1 $-1 $283 $226 $316 $321 forward $271 $-1 #
coedge $-1 -1 $-1 $226 $283 $228 $275 reversed $271 $-1 #
loop $-1 -1 $-1 $-1 $226 $322 #
DXID-attrib $-1 -1 $-1 $-1 $227 @10 ASM ENTITY @36 e937b5fc-66f6-4268-8abb-5772fe30f5fd #
vertex $-1 -1 $-1 $268 $323 #
ellipse-curve $-1 -1 $-1 -178.995515253901516 55.66556355744523898 0 0 0 1 0 6.000000000000001776 0 1 F 0 F 1.570796326794896558 #
edge $324 -1 $-1 $232 0 $286 1.200000000000000178 $228 $325 forward @5 knife #
face $326 -1 $-1 $235 $230 $5 $-1 $327 forward single #
point $-1 -1 $-1 -178.995515253901516 61.66556355744518214 0 #
DXID-attrib $-1 -1 $-1 $-1 $234 @10 ASM ENTITY @36 43a492ad-5a40-47d0-81aa-e9bb8fa8db64 #
straight-curve $-1 -1 $-1 -179.4219798952127576 61.66556355744489792 0 0 0 10 I I #
DXID-attrib $-1 -1 $-1 $-1 $235 @10 ASM ENTITY @36 9c130897-f186-4da8-9cbc-20e05f1ccfc6 #
cone-surface $-1 -1 $-1 -179.4219798952127576 68.4253615320895392 0 0 0 1 0 6.759797974644627061 0 1 I I 0 -1 6.759797974644627061 forward I I I I #
coedge $-1 -1 $-1 $328 $237 $329 $330 forward $88 $-1 #
coedge $-1 -1 $-1 $270 $269 $237 $284 reversed $271 $-1 #
edge $331 -1 $-1 $286 0 $332 1.570796326794896558 $283 $333 forward @7 unknown #
DXID-attrib $-1 -1 $-1 $-1 $239 @10 ASM ENTITY @36 3406d6a4-057d-49f2-ae84-62fb3565c700 #
vertex $-1 -1 $-1 $284 $334 #
straight-curve $-1 -1 $-1 -179.4219798952127576 61.66556355744518214 12.00000000000000178 10 0 0 I I #
point $-1 -1 $-1 -179.4219798952127576 61.66556355744489792 12.00000000000000178 #
DXID-attrib $-1 -1 $-1 $-1 $244 @10 ASM ENTITY @36 73431ba8-8650-4a73-ad0e-15e35cdadd46 #
face $335 -1 $-1 $336 $337 $5 $-1 $338 forward single #
loop $-1 -1 $-1 $-1 $339 $244 #
plane-surface $-1 -1 $-1 178.6711514127651412 -61.66776977588824593 0 0 -1 0 10 0 0 forward_v I I I I #
coedge $-1 -1 $-1 $340 $341 $342 $343 forward $245 $-1 #
coedge $-1 -1 $-1 $344 $247 $249 $299 forward $201 $-1 #
coedge $-1 -1 $-1 $247 $344 $340 $345 reversed $201 $-1 #
coedge $-1 -1 $-1 $342 $250 $247 $297 reversed $75 $-1 #
edge $346 -1 $-1 $347 0 $301 11.13333333333335418 $247 $348 forward @7 unknown #
coedge $-1 -1 $-1 $249 $248 $349 $350 reversed $159 $-1 #
edge $351 -1 $-1 $301 0 $352 1.200000000000000178 $294 $353 forward @7 tangent #
DXID-attrib $-1 -1 $-1 $-1 $251 @10 ASM ENTITY @36 b7e9ba3b-2d16-4292-9dcb-1fefb3042f7a #
vertex $-1 -1 $-1 $251 $354 #
ellipse-curve $-1 -1 $-1 179.0044847460987398 55.66556355744523898 0 0 0 1 5.999999999999968026 0 0 1 F 0 F 1.570796326794896558 #
coedge $-1 -1 $-1 $257 $349 $252 $304 forward $88 $-1 #
edge $355 -1 $-1 $306 -0 $260 0.03333333333335986026 $252 $356 forward @7 unknown #
DXID-attrib $-1 -1 $-1 $-1 $253 @10 ASM ENTITY @36 b2d3b02e-6d7b-44ab-b396-52c20f585f69 #
vertex $-1 -1 $-1 $304 $357 #
straight-curve $-1 -1 $-1 179.0044847460987398 61.66556355744518214 0 0 0 10 I I #
point $-1 -1 $-1 179.0044847460987398 61.66556355744518214 0 #
DXID-attrib $-1 -1 $-1 $-1 $258 @10 ASM ENTITY @36 187e5ed8-1fb5-4dd6-896e-95648e176b15 #
ellipse-curve $-1 -1 $-1 178.6711514127651412 67.66556355744540951 12.00000000000000178 -0 -0 -1 5.99999999999992184 0 0 1 I I #
point $-1 -1 $-1 178.6711514127651412 61.66556355744518214 12.00000000000000178 #
coedge $-1 -1 $-1 $266 $358 $359 $360 reversed $75 $-1 #
coedge $-1 -1 $-1 $361 $362 $266 $314 forward $363 $-1 #
edge $364 -1 $-1 $319 0 $365 1.570796326794920317 $313 $366 forward @7 unknown #
coedge $-1 -1 $-1 $329 $267 $362 $367 forward $317 $-1 #
coedge $-1 -1 $-1 $267 $329 $269 $321 reversed $317 $-1 #
loop $-1 -1 $-1 $-1 $267 $368 #
DXID-attrib $-1 -1 $-1 $-1 $268 @10 ASM ENTITY @36 9411baf2-f94e-4152-b614-7e91d5c7a7eb #
vertex $-1 -1 $-1 $314 $369 #
straight-curve $-1 -1 $-1 -184.9955152539014591 55.66556355744523898 0 -0 -10 -0 F -0 F 11.13333333333335418 #
edge $370 -1 $-1 $273 0 $332 1.200000000000000178 $269 $371 forward @7 tangent #
face $372 -1 $-1 $276 $271 $5 $-1 $373 forward single #
point $-1 -1 $-1 -184.9955152539014591 55.66556355744523898 0 #
DXID-attrib $-1 -1 $-1 $-1 $275 @10 ASM ENTITY @36 e675d9fa-e723-4194-98d7-acb594235cbb #
straight-curve $-1 -1 $-1 -178.995515253901516 61.66556355744518214 0 0 0 10 I I #
DXID-attrib $-1 -1 $-1 $-1 $276 @10 ASM ENTITY @36 ce3f4af3-d1fc-4881-9d5a-7483a899d898 #
plane-surface $-1 -1 $-1 -179.4219798952127576 61.66556355744518214 0 0 -1 0 10 0 0 forward_v I I I I #
coedge $-1 -1 $-1 $374 $282 $375 $376 forward $88 $-1 #
coedge $-1 -1 $-1 $316 $315 $282 $330 reversed $317 $-1 #
edge $377 -1 $-1 $332 -0 $378 11.13333333333335418 $329 $379 forward @7 unknown #
DXID-attrib $-1 -1 $-1 $-1 $284 @10 ASM ENTITY @36 db86e848-b3f1-4961-9395-ba0f9eee49e8 #
vertex $-1 -1 $-1 $330 $380 #
ellipse-curve $-1 -1 $-1 -178.995515253901516 55.66556355744523898 12.00000000000000178 0 0 1 0 6.000000000000001776 0 1 I I #
point $-1 -1 $-1 -178.995515253901516 61.66556355744518214 12.00000000000000178 #
DXID-attrib $-1 -1 $-1 $-1 $290 @10 ASM ENTITY @36 8b17f545-1982-4aef-9166-fabce89b8970 #
face $381 -1 $-1 $382 $383 $5 $-1 $384 forward single #
loop $-1 -1 $-1 $-1 $385 $290 #
cone-surface $-1 -1 $-1 178.6711514127651412 -67.66776977588790487 0 0 0 1 0 -5.99999999999992184 0 1 I I 0 -1 5.99999999999992184 forward I I I I #
coedge $-1 -1 $-1 $386 $387 $388 $389 forward $291 $-1 #
coedge $-1 -1 $-1 $390 $293 $295 $345 forward $245 $-1 #
coedge $-1 -1 $-1 $293 $390 $386 $391 reversed $245 $-1 #
coedge $-1 -1 $-1 $388 $296 $293 $343 reversed $75 $-1 #
edge $392 -1 $-1 $393 0 $347 1.570796326794896558 $293 $394 forward @7 unknown #
coedge $-1 -1 $-1 $295 $294 $395 $396 reversed $201 $-1 #
edge $397 -1 $-1 $347 0 $398 1.200000000000000178 $340 $399 forward @7 tangent #
DXID-attrib $-1 -1 $-1 $-1 $297 @10 ASM ENTITY @36 cbad6278-fd66-4dad-a06b-1fe3d2493643 #
vertex $-1 -1 $-1 $297 $400 #
straight-curve $-1 -1 $-1 185.004484746098683 -55.66776977588830277 0 0 10 0 F 0 F 11.13333333333335418 #
coedge $-1 -1 $-1 $303 $395 $298 $350 forward $88 $-1 #
edge $401 -1 $-1 $352 0 $306 1.570796326794896558 $298 $402 forward @7 unknown #
DXID-attrib $-1 -1 $-1 $-1 $299 @10 ASM ENTITY @36 d9114917-be6d-46fd-bdcc-5c8237c2a487 #
vertex $-1 -1 $-1 $350 $403 #
straight-curve $-1 -1 $-1 185.004484746098683 55.66556355744523898 0 0 0 10 I I #
point $-1 -1 $-1 185.004484746098683 55.66556355744523898 0 #
DXID-attrib $-1 -1 $-1 $-1 $304 @10 ASM ENTITY @36 2d46adf6-056c-4593-a7ac-3a5381a2df11 #
straight-curve $-1 -1 $-1 179.0044847460987398 61.66556355744518214 12.00000000000000178 -10 -0 -0 I I #
point $-1 -1 $-1 179.0044847460987398 61.66556355744518214 12.00000000000000178 #
coedge $-1 -1 $-1 $312 $404 $405 $406 reversed $75 $-1 #
coedge $-1 -1 $-1 $407 $408 $312 $360 forward $409 $-1 #
edge $410 -1 $-1 $365 0 $411 0.03333333333333143855 $359 $412 forward @7 unknown #
coedge $-1 -1 $-1 $375 $313 $408 $413 forward $363 $-1 #
coedge $-1 -1 $-1 $313 $375 $315 $367 reversed $363 $-1 #
loop $-1 -1 $-1 $-1 $313 $414 #
DXID-attrib $-1 -1 $-1 $-1 $314 @10 ASM ENTITY @36 604a5b1e-1adc-45f4-9ae5-bdce4c57d400 #
vertex $-1 -1 $-1 $360 $415 #
ellipse-curve $-1 -1 $-1 -178.995515253901516 -55.66776977588830277 0 0 0 1 -5.99999999999998046 0 0 1 F 0 F 1.570796326794920317 #
edge $416 -1 $-1 $319 0 $378 1.200000000000000178 $315 $417 forward @7 tangent #
face $418 -1 $-1 $322 $317 $5 $-1 $419 forward single #
point $-1 -1 $-1 -184.9955152539014591 -55.66776977588830277 0 #
DXID-attrib $-1 -1 $-1 $-1 $321 @10 ASM ENTITY @36 345b300f-d09a-40c4-b62e-be5791c95a57 #
straight-curve $-1 -1 $-1 -184.9955152539014591 55.66556355744523898 0 0 0 10 I I #
DXID-attrib $-1 -1 $-1 $-1 $322 @10 ASM ENTITY @36 c9ae0006-f4e3-4107-a454-ed142e96fb91 #
cone-surface $-1 -1 $-1 -178.995515253901516 55.66556355744523898 0 0 0 1 0 6.000000000000001776 0 1 I I 0 1 6.000000000000001776 forward I I I I #
coedge $-1 -1 $-1 $420 $328 $421 $422 forward $88 $-1 #
coedge $-1 -1 $-1 $362 $361 $328 $376 reversed $363 $-1 #
edge $423 -1 $-1 $378 0 $424 1.570796326794920317 $375 $425 forward @7 unknown #
DXID-attrib $-1 -1 $-1 $-1 $330 @10 ASM ENTITY @36 ce6c93e6-be6e-496b-a70a-bd62f5219e3a #
vertex $-1 -1 $-1 $376 $426 #
straight-curve $-1 -1 $-1 -184.9955152539014591 55.66556355744523898 12.00000000000000178 -0 -10 -0 I I #
point $-1 -1 $-1 -184.9955152539014591 55.66556355744523898 12.00000000000000178 #
DXID-attrib $-1 -1 $-1 $-1 $336 @10 ASM ENTITY @36 0c3879a1-c7c6-4835-8500-e954bacf8b58 #
face $427 -1 $-1 $428 $429 $5 $-1 $430 forward single #
loop $-1 -1 $-1 $-1 $431 $336 #
plane-surface $-1 -1 $-1 172.6711514127651981 -117.3344364425548747 0 1 0 0 0 10 0 forward_v I I I I #
coedge $-1 -1 $-1 $432 $433 $434 $435 forward $337 $-1 #
coedge $-1 -1 $-1 $436 $339 $341 $391 forward $291 $-1 #
coedge $-1 -1 $-1 $339 $436 $432 $437 reversed $291 $-1 #
coedge $-1 -1 $-1 $434 $342 $339 $389 reversed $75 $-1 #
edge $438 -1 $-1 $439 0 $393 0.03333333333335986026 $339 $440 forward @7 unknown #
coedge $-1 -1 $-1 $341 $340 $441 $442 reversed $245 $-1 #
edge $443 -1 $-1 $393 0 $444 1.200000000000000178 $386 $445 forward @7 tangent #
DXID-attrib $-1 -1 $-1 $-1 $343 @10 ASM ENTITY @36 08804e90-1553-486d-98dd-598cdd381e52 #
vertex $-1 -1 $-1 $343 $446 #
ellipse-curve $-1 -1 $-1 179.0044847460987398 -55.66776977588830277 0 0 0 1 0 -5.99999999999997069 0 1 F 0 F 1.570796326794896558 #
coedge $-1 -1 $-1 $349 $441 $344 $396 forward $88 $-1 #
edge $447 -1 $-1 $398 0 $352 11.13333333333335418 $344 $448 forward @7 unknown #
DXID-attrib $-1 -1 $-1 $-1 $345 @10 ASM ENTITY @36 c49cd38b-9781-4a2e-945a-25e61b62371e #
vertex $-1 -1 $-1 $396 $449 #
straight-curve $-1 -1 $-1 185.004484746098683 -55.66776977588830277 0 0 0 10 I I #
point $-1 -1 $-1 185.004484746098683 -55.66776977588830277 0 #
DXID-attrib $-1 -1 $-1 $-1 $350 @10 ASM ENTITY @36 74c161b6-d527-43df-a619-c727af97383e #
ellipse-curve $-1 -1 $-1 179.0044847460987398 55.66556355744523898 12.00000000000000178 0 0 1 5.999999999999968026 0 0 1 I I #
point $-1 -1 $-1 185.004484746098683 55.66556355744523898 12.00000000000000178 #
coedge $-1 -1 $-1 $358 $450 $451 $452 reversed $75 $-1 #
coedge $-1 -1 $-1 $453 $454 $358 $406 forward $455 $-1 #
edge $456 -1 $-1 $411 1.570796326794896558 $457 3.141592653589793116 $405 $458 forward @7 unknown #
coedge $-1 -1 $-1 $421 $359 $454 $459 forward $409 $-1 #
coedge $-1 -1 $-1 $359 $421 $361 $413 reversed $409 $-1 #
loop $-1 -1 $-1 $-1 $359 $460 #
DXID-attrib $-1 -1 $-1 $-1 $360 @10 ASM ENTITY @36 a6529e28-f731-479c-a592-cedbd012f103 #
vertex $-1 -1 $-1 $406 $461 #
straight-curve $-1 -1 $-1 -178.9955152539013739 -61.66776977588824593 0 10 0 0 F 0 F 0.03333333333333143855 #
edge $462 -1 $-1 $365 0 $424 1.200000000000000178 $361 $463 forward @7 tangent #
face $464 -1 $-1 $368 $363 $5 $-1 $465 forward single #
point $-1 -1 $-1 -178.9955152539013739 -61.66776977588824593 0 #
DXID-attrib $-1 -1 $-1 $-1 $367 @10 ASM ENTITY @36 c8007b18-ce8a-4308-940a-173b5d967578 #
straight-curve $-1 -1 $-1 -184.9955152539014591 -55.66776977588830277 0 0 0 10 I I #
DXID-attrib $-1 -1 $-1 $-1 $368 @10 ASM ENTITY @36 d0b4faf1-b708-495f-9f18-bc4e67099da5 #
plane-surface $-1 -1 $-1 -184.9955152539014591 55.66556355744523898 0 -1 0 0 -0 -10 -0 forward_v I I I I #
coedge $-1 -1 $-1 $466 $374 $467 $468 forward $88 $-1 #
coedge $-1 -1 $-1 $408 $407 $374 $422 reversed $409 $-1 #
edge $469 -1 $-1 $424 0 $470 0.03333333333333143855 $421 $471 forward @7 unknown #
DXID-attrib $-1 -1 $-1 $-1 $376 @10 ASM ENTITY @36 08c30df4-5f05-465d-ae70-5adaec006e5e #
vertex $-1 -1 $-1 $422 $472 #
ellipse-curve $-1 -1 $-1 -178.995515253901516 -55.66776977588830277 12.00000000000000178 0 0 1 -5.99999999999998046 0 0 1 I I #
point $-1 -1 $-1 -184.9955152539014591 -55.66776977588830277 12.00000000000000178 #
DXID-attrib $-1 -1 $-1 $-1 $382 @10 ASM ENTITY @36 957343f6-7697-4c82-af6e-6a3d7a62c98b #
face $473 -1 $-1 $474 $475 $5 $-1 $476 forward single #
loop $-1 -1 $-1 $-1 $477 $382 #
cone-surface $-1 -1 $-1 166.6711514127652549 -117.3344364425548747 0 0 0 1 0 -5.99999999999992184 0 1 I I 0 1 5.99999999999992184 forward I I I I #
coedge $-1 -1 $-1 $478 $479 $480 $481 forward $383 $-1 #
coedge $-1 -1 $-1 $482 $385 $387 $437 forward $337 $-1 #
coedge $-1 -1 $-1 $385 $482 $478 $483 reversed $337 $-1 #
coedge $-1 -1 $-1 $480 $388 $385 $435 reversed $75 $-1 #
edge $484 -1 $-1 $485 1.570796326794896558 $439 3.141592653589793116 $385 $486 forward @7 unknown #
coedge $-1 -1 $-1 $387 $386 $487 $488 reversed $291 $-1 #
edge $489 -1 $-1 $439 0 $490 1.200000000000000178 $432 $491 forward @7 tangent #
DXID-attrib $-1 -1 $-1 $-1 $389 @10 ASM ENTITY @36 2aa55490-b1e4-48d9-9a62-76fe731e4619 #
vertex $-1 -1 $-1 $389 $492 #
straight-curve $-1 -1 $-1 178.6711514127651412 -61.66776977588824593 0 10 0 0 F 0 F 0.03333333333335986026 #
coedge $-1 -1 $-1 $395 $487 $390 $442 forward $88 $-1 #
edge $493 -1 $-1 $444 0 $398 1.570796326794896558 $390 $494 forward @7 unknown #
DXID-attrib $-1 -1 $-1 $-1 $391 @10 ASM ENTITY @36 d93d1c6a-6bc2-4c91-803b-5cd56486b938 #
vertex $-1 -1 $-1 $442 $495 #
straight-curve $-1 -1 $-1 179.0044847460987398 -61.66776977588824593 0 0 0 10 I I #
point $-1 -1 $-1 179.0044847460987398 -61.66776977588824593 0 #
DXID-attrib $-1 -1 $-1 $-1 $396 @10 ASM ENTITY @36 e2172af0-1a5a-42b2-9d2e-7d032ca51ac8 #
straight-curve $-1 -1 $-1 185.004484746098683 -55.66776977588830277 12.00000000000000178 0 10 0 I I #
point $-1 -1 $-1 185.004484746098683 -55.66776977588830277 12.00000000000000178 #
coedge $-1 -1 $-1 $404 $496 $497 $498 reversed $75 $-1 #
coedge $-1 -1 $-1 $499 $500 $404 $452 forward $501 $-1 #
edge $502 -1 $-1 $457 -0 $503 4.966666666666668561 $451 $504 forward @7 unknown #
coedge $-1 -1 $-1 $467 $405 $500 $505 forward $455 $-1 #
coedge $-1 -1 $-1 $405 $467 $407 $459 reversed $455 $-1 #
loop $-1 -1 $-1 $-1 $405 $506 #
DXID-attrib $-1 -1 $-1 $-1 $406 @10 ASM ENTITY @36 6449e909-9e53-428c-a997-6d2ded020486 #
vertex $-1 -1 $-1 $452 $507 #
ellipse-curve $-1 -1 $-1 -178.6621819205680595 -67.66776977588818909 0 0 0 -1 -5.999999999999984013 -0 -0 1 F 1.570796326794896558 F 3.141592653589793116 #
edge $508 -1 $-1 $411 0 $470 1.200000000000000178 $407 $509 forward @7 tangent #
face $510 -1 $-1 $414 $409 $5 $-1 $511 forward single #
point $-1 -1 $-1 -178.6621819205680595 -61.66776977588824593 0 #
DXID-attrib $-1 -1 $-1 $-1 $413 @10 ASM ENTITY @36 718c8b80-f496-4cca-8a76-75790a4e6755 #
straight-curve $-1 -1 $-1 -178.9955152539013739 -61.66776977588824593 0 0 0 10 I I #
DXID-attrib $-1 -1 $-1 $-1 $414 @10 ASM ENTITY @36 0ed937e6-b2f7-4a3b-bc53-643ab8caca16 #
cone-surface $-1 -1 $-1 -178.995515253901516 -55.66776977588830277 0 0 0 1 -5.99999999999998046 0 0 1 I I 0 1 5.99999999999998046 forward I I I I #
coedge $-1 -1 $-1 $512 $420 $513 $514 forward $88 $-1 #
coedge $-1 -1 $-1 $454 $453 $420 $468 reversed $455 $-1 #
edge $515 -1 $-1 $470 1.570796326794896558 $516 3.141592653589793116 $467 $517 forward @7 unknown #
DXID-attrib $-1 -1 $-1 $-1 $422 @10 ASM ENTITY @36 fb32c372-7e55-434d-83fe-681b99037b03 #
vertex $-1 -1 $-1 $468 $518 #
straight-curve $-1 -1 $-1 -178.9955152539013739 -61.66776977588824593 12.00000000000000178 10 0 0 I I #
point $-1 -1 $-1 -178.9955152539013739 -61.66776977588824593 12.00000000000000178 #
DXID-attrib $-1 -1 $-1 $-1 $428 @10 ASM ENTITY @36 f9412830-f518-4a18-8ce8-0705fba45b89 #
face $519 -1 $-1 $520 $521 $5 $-1 $522 forward single #
loop $-1 -1 $-1 $-1 $523 $428 #
plane-surface $-1 -1 $-1 -166.662181920568031 -123.3344364425551021 0 0 -1 0 10 0 0 forward_v I I I I #
coedge $-1 -1 $-1 $524 $525 $526 $527 forward $429 $-1 #
coedge $-1 -1 $-1 $528 $431 $433 $483 forward $383 $-1 #
coedge $-1 -1 $-1 $431 $528 $524 $529 reversed $383 $-1 #
coedge $-1 -1 $-1 $526 $434 $431 $481 reversed $75 $-1 #
edge $530 -1 $-1 $531 0 $485 4.966666666666696983 $431 $532 forward @7 unknown #
coedge $-1 -1 $-1 $433 $432 $533 $534 reversed $337 $-1 #
edge $535 -1 $-1 $485 0 $536 1.200000000000000178 $478 $537 forward @7 tangent #
DXID-attrib $-1 -1 $-1 $-1 $435 @10 ASM ENTITY @36 032c5cbd-fb29-40b4-88be-5655665b46c9 #
vertex $-1 -1 $-1 $435 $538 #
ellipse-curve $-1 -1 $-1 178.6711514127651412 -67.66776977588790487 0 0 0 -1 -0 -5.99999999999992184 -0 1 F 1.570796326794896558 F 3.141592653589793116 #
coedge $-1 -1 $-1 $441 $533 $436 $488 forward $88 $-1 #
edge $539 -1 $-1 $490 0 $444 0.03333333333335986026 $436 $540 forward @7 unknown #
DXID-attrib $-1 -1 $-1 $-1 $437 @10 ASM ENTITY @36 72c3b571-8af6-4a2a-bace-90fb85619f44 #
vertex $-1 -1 $-1 $488 $541 #
straight-curve $-1 -1 $-1 178.6711514127651412 -61.66776977588824593 0 0 0 10 I I #
point $-1 -1 $-1 178.6711514127651412 -61.66776977588824593 0 #
DXID-attrib $-1 -1 $-1 $-1 $442 @10 ASM ENTITY @36 ad071906-a837-47af-9c05-e5abf6de9516 #
ellipse-curve $-1 -1 $-1 179.0044847460987398 -55.66776977588830277 12.00000000000000178 0 0 1 0 -5.99999999999997069 0 1 I I #
point $-1 -1 $-1 179.0044847460987398 -61.66776977588824593 12.00000000000000178 #
coedge $-1 -1 $-1 $450 $526 $523 $542 reversed $75 $-1 #
coedge $-1 -1 $-1 $543 $544 $450 $498 forward $521 $-1 #
edge $545 -1 $-1 $503 0 $546 1.570796326794896558 $497 $547 forward @7 unknown #
coedge $-1 -1 $-1 $513 $451 $544 $548 forward $501 $-1 #
coedge $-1 -1 $-1 $451 $513 $453 $505 reversed $501 $-1 #
loop $-1 -1 $-1 $-1 $451 $520 #
DXID-attrib $-1 -1 $-1 $-1 $452 @10 ASM ENTITY @36 71a90fdb-fd59-4f9e-8cd9-92d578ee807c #
vertex $-1 -1 $-1 $498 $549 #
straight-curve $-1 -1 $-1 -172.6621819205679742 -67.66776977588818909 0 -0 -10 -0 F -0 F 4.966666666666668561 #
edge $550 -1 $-1 $457 0 $516 1.200000000000000178 $453 $551 forward @7 tangent #
face $552 -1 $-1 $460 $455 $5 $-1 $553 forward single #
point $-1 -1 $-1 -172.6621819205679742 -67.66776977588818909 0 #
DXID-attrib $-1 -1 $-1 $-1 $459 @10 ASM ENTITY @36 a9a6fb8f-3060-4e39-a4ee-3633b0e0dd5f #
straight-curve $-1 -1 $-1 -178.6621819205680595 -61.66776977588824593 0 0 0 10 I I #
DXID-attrib $-1 -1 $-1 $-1 $460 @10 ASM ENTITY @36 7e2cc8a1-23f8-41d7-bcb0-582b307e9495 #
plane-surface $-1 -1 $-1 -178.9955152539013739 -61.66776977588824593 0 0 -1 0 10 0 0 forward_v I I I I #
coedge $-1 -1 $-1 $554 $466 $555 $556 forward $88 $-1 #
coedge $-1 -1 $-1 $500 $499 $466 $514 reversed $501 $-1 #
edge $557 -1 $-1 $516 -0 $558 4.966666666666668561 $513 $559 forward @7 unknown #
DXID-attrib $-1 -1 $-1 $-1 $468 @10 ASM ENTITY @36 c7678888-fe10-462d-a790-527086ac8786 #
vertex $-1 -1 $-1 $514 $560 #
ellipse-curve $-1 -1 $-1 -178.6621819205680595 -67.66776977588818909 12.00000000000000178 0 0 -1 -5.999999999999984013 -0 -0 1 I I #
point $-1 -1 $-1 -178.6621819205680595 -61.66776977588824593 12.00000000000000178 #
DXID-attrib $-1 -1 $-1 $-1 $474 @10 ASM ENTITY @36 e2c707bc-a8cf-4d47-9b25-618dfd218658 #
face $561 -1 $-1 $506 $501 $5 $-1 $562 forward single #
loop $-1 -1 $-1 $-1 $497 $474 #
cone-surface $-1 -1 $-1 -166.662181920568031 -117.3344364425548747 0 0 0 1 -5.999999999999978684 0 0 1 I I 0 1 5.999999999999978684 forward I I I I #
coedge $-1 -1 $-1 $563 $564 $496 $542 forward $475 $-1 #
coedge $-1 -1 $-1 $565 $477 $479 $529 forward $429 $-1 #
coedge $-1 -1 $-1 $477 $565 $563 $566 reversed $429 $-1 #
coedge $-1 -1 $-1 $496 $480 $477 $527 reversed $75 $-1 #
edge $567 -1 $-1 $568 0 $531 1.570796326794896558 $477 $569 forward @7 unknown #
coedge $-1 -1 $-1 $479 $478 $570 $571 reversed $383 $-1 #
edge $572 -1 $-1 $531 0 $573 1.200000000000000178 $524 $574 forward @7 tangent #
DXID-attrib $-1 -1 $-1 $-1 $481 @10 ASM ENTITY @36 48974a4e-d3c7-4626-adcf-b5d3462e2f73 #
vertex $-1 -1 $-1 $481 $575 #
straight-curve $-1 -1 $-1 172.6711514127651981 -117.3344364425548747 0 0 10 0 F 0 F 4.966666666666696983 #
coedge $-1 -1 $-1 $487 $570 $482 $534 forward $88 $-1 #
edge $576 -1 $-1 $536 1.570796326794896558 $490 3.141592653589793116 $482 $577 forward @7 unknown #
DXID-attrib $-1 -1 $-1 $-1 $483 @10 ASM ENTITY @36 5ffd3aa4-6ae3-4645-9799-da49702da529 #
vertex $-1 -1 $-1 $534 $578 #
straight-curve $-1 -1 $-1 172.6711514127651981 -67.66776977588790487 0 0 0 10 I I #
point $-1 -1 $-1 172.6711514127651981 -67.66776977588790487 0 #
DXID-attrib $-1 -1 $-1 $-1 $488 @10 ASM ENTITY @36 de2aa909-6a9b-4757-812b-8918405f4a9c #
straight-curve $-1 -1 $-1 178.6711514127651412 -61.66776977588824593 12.00000000000000178 10 0 0 I I #
point $-1 -1 $-1 178.6711514127651412 -61.66776977588824593 12.00000000000000178 #
edge $579 -1 $-1 $546 0 $568 33.3333333333333286 $523 $580 forward @7 unknown #
coedge $-1 -1 $-1 $555 $497 $564 $581 forward $521 $-1 #
coedge $-1 -1 $-1 $497 $555 $499 $548 reversed $521 $-1 #
DXID-attrib $-1 -1 $-1 $-1 $498 @10 ASM ENTITY @36 06685e6a-85c3-4074-9cd6-cea1c131f801 #
vertex $-1 -1 $-1 $542 $582 #
ellipse-curve $-1 -1 $-1 -166.662181920568031 -117.3344364425548747 0 0 0 1 -5.999999999999978684 0 0 1 F 0 F 1.570796326794896558 #
edge $583 -1 $-1 $503 0 $558 1.200000000000000178 $499 $584 forward @7 tangent #
point $-1 -1 $-1 -172.6621819205679742 -117.3344364425548747 0 #
DXID-attrib $-1 -1 $-1 $-1 $505 @10 ASM ENTITY @36 ad253c74-6f3d-4349-91ef-1c1c706b188e #
straight-curve $-1 -1 $-1 -172.6621819205679742 -67.66776977588818909 0 0 0 10 I I #
DXID-attrib $-1 -1 $-1 $-1 $506 @10 ASM ENTITY @36 2e871fcd-4764-44af-9423-7e647e6b0003 #
cone-surface $-1 -1 $-1 -178.6621819205680595 -67.66776977588818909 0 0 0 1 -5.999999999999984013 0 0 1 I I 0 -1 5.999999999999984013 forward I I I I #
coedge $-1 -1 $-1 $585 $512 $586 $587 forward $88 $-1 #
coedge $-1 -1 $-1 $544 $543 $512 $556 reversed $521 $-1 #
edge $588 -1 $-1 $558 0 $589 1.570796326794896558 $555 $590 forward @7 unknown #
DXID-attrib $-1 -1 $-1 $-1 $514 @10 ASM ENTITY @36 334db39b-730b-4a88-a7de-c77d7daee7c1 #
vertex $-1 -1 $-1 $556 $591 #
straight-curve $-1 -1 $-1 -172.6621819205679742 -67.66776977588818909 12.00000000000000178 -0 -10 -0 I I #
point $-1 -1 $-1 -172.6621819205679742 -67.66776977588818909 12.00000000000000178 #
DXID-attrib $-1 -1 $-1 $-1 $520 @10 ASM ENTITY @36 85b26945-520e-441f-9ac2-4c874d61820f #
plane-surface $-1 -1 $-1 -172.6621819205679742 -67.66776977588818909 0 -1 0 0 -0 -10 -0 forward_v I I I I #
coedge $-1 -1 $-1 $586 $523 $525 $566 forward $475 $-1 #
coedge $-1 -1 $-1 $523 $586 $543 $581 reversed $475 $-1 #
coedge $-1 -1 $-1 $525 $524 $585 $592 reversed $429 $-1 #
edge $593 -1 $-1 $568 0 $594 1.200000000000000178 $563 $595 forward @7 tangent #
DXID-attrib $-1 -1 $-1 $-1 $527 @10 ASM ENTITY @36 20592784-0c12-487a-9f1f-15c4b69db45a #
vertex $-1 -1 $-1 $527 $596 #
ellipse-curve $-1 -1 $-1 166.6711514127652549 -117.3344364425548747 0 0 0 1 0 -5.99999999999992184 0 1 F 0 F 1.570796326794896558 #
coedge $-1 -1 $-1 $533 $585 $528 $571 forward $88 $-1 #
edge $597 -1 $-1 $573 0 $536 4.966666666666696983 $528 $598 forward @7 unknown #
DXID-attrib $-1 -1 $-1 $-1 $529 @10 ASM ENTITY @36 9b105721-fdf4-411f-a7cc-593b1107dcd4 #
vertex $-1 -1 $-1 $571 $599 #
straight-curve $-1 -1 $-1 172.6711514127651981 -117.3344364425548747 0 0 0 10 I I #
point $-1 -1 $-1 172.6711514127651981 -117.3344364425548747 0 #
DXID-attrib $-1 -1 $-1 $-1 $534 @10 ASM ENTITY @36 743acb35-61f7-412b-91c0-96a1420b85b7 #
ellipse-curve $-1 -1 $-1 178.6711514127651412 -67.66776977588790487 12.00000000000000178 0 0 -1 -0 -5.99999999999992184 -0 1 I I #
point $-1 -1 $-1 172.6711514127651981 -67.66776977588790487 12.00000000000000178 #
DXID-attrib $-1 -1 $-1 $-1 $542 @10 ASM ENTITY @36 62f5b740-715b-42ce-8f32-319a3a34bcb7 #
straight-curve $-1 -1 $-1 -166.662181920568031 -123.3344364425551021 0 10 0 0 F 0 F 33.3333333333333286 #
edge $600 -1 $-1 $546 0 $589 1.200000000000000178 $543 $601 forward @7 tangent #
point $-1 -1 $-1 -166.662181920568031 -123.3344364425551021 0 #
DXID-attrib $-1 -1 $-1 $-1 $548 @10 ASM ENTITY @36 c1063316-7b13-4e7b-9074-dac6cf455ffe #
straight-curve $-1 -1 $-1 -172.6621819205679742 -117.3344364425548747 0 0 0 10 I I #
coedge $-1 -1 $-1 $570 $554 $565 $592 forward $88 $-1 #
coedge $-1 -1 $-1 $564 $563 $554 $587 reversed $475 $-1 #
edge $602 -1 $-1 $589 0 $594 33.3333333333333286 $586 $603 forward @7 unknown #
DXID-attrib $-1 -1 $-1 $-1 $556 @10 ASM ENTITY @36 f7013fb9-92d5-420d-a0c7-62842a999c70 #
vertex $-1 -1 $-1 $587 $604 #
ellipse-curve $-1 -1 $-1 -166.662181920568031 -117.3344364425548747 12.00000000000000178 0 0 1 -5.999999999999978684 0 0 1 I I #
point $-1 -1 $-1 -172.6621819205679742 -117.3344364425548747 12.00000000000000178 #
edge $605 -1 $-1 $594 0 $573 1.570796326794896558 $565 $606 forward @7 unknown #
DXID-attrib $-1 -1 $-1 $-1 $566 @10 ASM ENTITY @36 8320eafe-ab0e-430c-b76d-382148ead283 #
vertex $-1 -1 $-1 $592 $607 #
straight-curve $-1 -1 $-1 166.6711514127652549 -123.3344364425551021 0 0 0 10 I I #
point $-1 -1 $-1 166.6711514127652549 -123.3344364425551021 0 #
DXID-attrib $-1 -1 $-1 $-1 $571 @10 ASM ENTITY @36 bbdd8aa6-9cb0-4234-b978-acc6a757a1e5 #
straight-curve $-1 -1 $-1 172.6711514127651981 -117.3344364425548747 12.00000000000000178 0 10 0 I I #
point $-1 -1 $-1 172.6711514127651981 -117.3344364425548747 12.00000000000000178 #
DXID-attrib $-1 -1 $-1 $-1 $581 @10 ASM ENTITY @36 785df1c1-d7ad-442f-bf8b-452d0eac9d14 #
straight-curve $-1 -1 $-1 -166.662181920568031 -123.3344364425551021 0 0 0 10 I I #
DXID-attrib $-1 -1 $-1 $-1 $587 @10 ASM ENTITY @36 fc338571-39f9-48b0-ad74-793525f0ef8b #
straight-curve $-1 -1 $-1 -166.662181920568031 -123.3344364425551021 12.00000000000000178 10 0 0 I I #
point $-1 -1 $-1 -166.662181920568031 -123.3344364425551021 12.00000000000000178 #
DXID-attrib $-1 -1 $-1 $-1 $592 @10 ASM ENTITY @36 243cd2ad-8e20-4ab7-a9d8-d251c97d400d #
ellipse-curve $-1 -1 $-1 166.6711514127652549 -117.3344364425548747 12.00000000000000178 0 0 1 0 -5.99999999999992184 0 1 I I #
point $-1 -1 $-1 166.6711514127652549 -123.3344364425551021 12.00000000000000178 #
End-of-ACIS-data 