700 0 1 0           
30 Autodesk Translation Framework 20 ASM 229.3.0.65535 NT 24 Mon May 22 21:06:00 2023 
1 9.999999999999999547e-07 1.000000000000000036e-10 
body $1 -1 $-1 $2 $-1 $3 #
rgb_color-st-attrib $-1 -1 $4 $-1 $0 0.7490196078431372584 0.7490196078431372584 0.7490196078431372584 #
lump $-1 -1 $-1 $-1 $5 $0 #
transform $-1 -1 1 0 0 0 1 0 0 0 1 0 0 0 1 no_rotate no_reflect no_shear #
DXID-attrib $-1 -1 $-1 $1 $0 @10 ASM ENTITY @111 PLACA_SUPERIOR_MESA_1.IPT|:|75A72D86E55DA4F64D6DA1F84E582EBC4795C158|:|DA4B9237BACCCDF19C0760CAB7AEC4A8359010B0 #
shell $-1 -1 $-1 $-1 $-1 $6 $-1 $2 #
face $7 -1 $-1 $8 $9 $5 $-1 $10 forward single #
DXID-attrib $-1 -1 $-1 $-1 $6 @10 ASM ENTITY @36 b3cccaac-428d-4c36-a463-ba676c3e4ca8 #
face $11 -1 $-1 $12 $13 $5 $-1 $14 forward single #
loop $-1 -1 $-1 $15 $16 $6 #
cone-surface $-1 -1 $-1 1156.080484746098819 1950.481896890778671 0 0 0 1 -1.500000000000001332 0 0 1 I I 0 -1 1.500000000000001332 forward I I I I #
DXID-attrib $-1 -1 $-1 $-1 $8 @10 ASM ENTITY @36 6d059a10-f7c0-418d-8a81-56ba11be6305 #
face $17 -1 $-1 $18 $19 $5 $-1 $20 forward single #
loop $-1 -1 $-1 $21 $22 $8 #
cone-surface $-1 -1 $-1 1516.080484746098819 1950.481896890778671 0 0 0 1 -1.500000000000001332 0 0 1 I I 0 -1 1.500000000000001332 forward I I I I #
loop $-1 -1 $-1 $-1 $23 $6 #
coedge $-1 -1 $-1 $16 $16 $24 $25 reversed $9 $-1 #
DXID-attrib $-1 -1 $-1 $-1 $12 @10 ASM ENTITY @36 897d75ad-1784-425d-9ed9-63cc16b3e9a5 #
face $26 -1 $-1 $27 $28 $5 $-1 $29 forward single #
loop $-1 -1 $-1 $-1 $30 $12 #
cone-surface $-1 -1 $-1 1169.413818079432076 2067.815230224111929 0 0 0 1 0 5.999999999999978684 0 1 I I 0 1 5.999999999999978684 forward I I I I #
loop $-1 -1 $-1 $-1 $31 $8 #
coedge $-1 -1 $-1 $22 $22 $32 $33 reversed $13 $-1 #
coedge $-1 -1 $-1 $23 $23 $34 $35 forward $15 $-1 #
coedge $-1 -1 $-1 $24 $24 $16 $25 forward $36 $-1 #
edge $37 -1 $-1 $38 -3.141592653589793116 $38 3.141592653589793116 $16 $39 forward @7 unknown #
DXID-attrib $-1 -1 $-1 $-1 $18 @10 ASM ENTITY @36 cbaa532f-e68e-4488-8092-f2669bf1ebc9 #
face $40 -1 $-1 $41 $42 $5 $-1 $43 forward single #
loop $-1 -1 $-1 $-1 $44 $18 #
plane-surface $-1 -1 $-1 1502.747151412765561 2073.815230224112383 0 0 1 0 -10 -0 -0 forward_v I I I I #
coedge $-1 -1 $-1 $45 $46 $47 $48 forward $19 $-1 #
coedge $-1 -1 $-1 $31 $31 $49 $50 forward $21 $-1 #
coedge $-1 -1 $-1 $32 $32 $22 $33 forward $51 $-1 #
edge $52 -1 $-1 $53 -3.141592653589793116 $53 3.141592653589793116 $22 $54 forward @7 unknown #
coedge $-1 -1 $-1 $34 $34 $23 $35 reversed $55 $-1 #
edge $56 -1 $-1 $57 -3.141592653589793116 $57 3.141592653589793116 $23 $58 forward @7 unknown #
loop $-1 -1 $-1 $-1 $24 $59 #
DXID-attrib $-1 -1 $-1 $-1 $25 @10 ASM ENTITY @36 186b6a16-6d1d-4a40-9cd7-001199a2db94 #
vertex $-1 -1 $-1 $25 $60 #
ellipse-curve $-1 -1 $-1 1156.080484746098819 1950.481896890778671 12.00000000000000178 0 0 -1 -1.500000000000001332 -0 -0 1 I I #
DXID-attrib $-1 -1 $-1 $-1 $27 @10 ASM ENTITY @36 d267b5b6-8c82-45cc-9902-dff08b17b093 #
face $61 -1 $-1 $62 $63 $5 $-1 $64 forward single #
loop $-1 -1 $-1 $-1 $65 $27 #
cone-surface $-1 -1 $-1 1502.747151412765561 2067.815230224111929 0 0 0 1 6.000000000000005329 0 0 1 I I 0 1 6.000000000000005329 forward I I I I #
coedge $-1 -1 $-1 $66 $67 $68 $69 forward $28 $-1 #
coedge $-1 -1 $-1 $70 $30 $71 $72 forward $19 $-1 #
coedge $-1 -1 $-1 $30 $70 $66 $73 reversed $19 $-1 #
coedge $-1 -1 $-1 $68 $74 $30 $48 reversed $75 $-1 #
edge $76 -1 $-1 $77 0 $78 1.570796326794896558 $30 $79 forward @7 unknown #
coedge $-1 -1 $-1 $49 $49 $31 $50 reversed $80 $-1 #
edge $81 -1 $-1 $82 -3.141592653589793116 $82 3.141592653589793116 $31 $83 forward @7 unknown #
loop $-1 -1 $-1 $36 $32 $59 #
DXID-attrib $-1 -1 $-1 $-1 $33 @10 ASM ENTITY @36 50f7dcfa-2846-4fda-b97d-2c262a430822 #
vertex $-1 -1 $-1 $33 $84 #
ellipse-curve $-1 -1 $-1 1516.080484746098819 1950.481896890778671 12.00000000000000178 0 0 -1 -1.500000000000001332 -0 -0 1 I I #
loop $-1 -1 $-1 $-1 $34 $85 #
DXID-attrib $-1 -1 $-1 $-1 $35 @10 ASM ENTITY @36 98f178c6-2d14-4a3c-8e06-188fbc470937 #
vertex $-1 -1 $-1 $35 $86 #
ellipse-curve $-1 -1 $-1 1156.080484746098819 1950.481896890778671 0 0 0 -1 -1.500000000000001332 -0 -0 1 I I #
face $87 -1 $-1 $85 $88 $5 $-1 $89 forward single #
point $-1 -1 $-1 1157.580484746098819 1950.481896890778671 12.00000000000000178 #
DXID-attrib $-1 -1 $-1 $-1 $41 @10 ASM ENTITY @36 c90217f0-1928-45de-901f-e7b71d545645 #
face $90 -1 $-1 $91 $92 $5 $-1 $93 forward single #
loop $-1 -1 $-1 $-1 $94 $41 #
plane-surface $-1 -1 $-1 1508.747151412765561 2018.148563557445414 0 1 5.722491831624998335e-15 0 -5.722491831624998808e-14 10 0 forward_v I I I I #
coedge $-1 -1 $-1 $95 $96 $97 $98 forward $42 $-1 #
coedge $-1 -1 $-1 $99 $44 $46 $73 forward $28 $-1 #
coedge $-1 -1 $-1 $44 $99 $95 $100 reversed $28 $-1 #
coedge $-1 -1 $-1 $97 $47 $44 $69 reversed $75 $-1 #
edge $101 -1 $-1 $102 -0 $77 33.3333333333333286 $44 $103 forward @7 unknown #
coedge $-1 -1 $-1 $46 $45 $104 $105 reversed $19 $-1 #
coedge $-1 -1 $-1 $106 $107 $45 $72 reversed $108 $-1 #
edge $109 -1 $-1 $78 0 $110 1.200000000000000178 $71 $111 forward @7 tangent #
edge $112 -1 $-1 $77 0 $113 1.200000000000000178 $66 $114 forward @7 tangent #
coedge $-1 -1 $-1 $47 $115 $106 $116 reversed $75 $-1 #
loop $-1 -1 $-1 $80 $74 $85 #
DXID-attrib $-1 -1 $-1 $-1 $48 @10 ASM ENTITY @36 30d44d6d-4005-4f1d-9d57-1a50bfcc29c1 #
vertex $-1 -1 $-1 $48 $117 #
vertex $-1 -1 $-1 $48 $118 #
ellipse-curve $-1 -1 $-1 1169.413818079432076 2067.815230224111929 0 0 0 1 0 5.999999999999978684 0 1 F 0 F 1.570796326794896558 #
loop $-1 -1 $-1 $55 $49 $85 #
DXID-attrib $-1 -1 $-1 $-1 $50 @10 ASM ENTITY @36 52228728-2734-4054-88aa-fde3a4205c4f #
vertex $-1 -1 $-1 $50 $119 #
ellipse-curve $-1 -1 $-1 1516.080484746098819 1950.481896890778671 0 0 0 -1 -1.500000000000001332 -0 -0 1 I I #
point $-1 -1 $-1 1517.580484746099046 1950.481896890778671 12.00000000000000178 #
face $120 -1 $-1 $-1 $75 $5 $-1 $121 reversed single #
point $-1 -1 $-1 1157.580484746098819 1950.481896890778671 0 #
DXID-attrib $-1 -1 $-1 $-1 $59 @10 ASM ENTITY @36 06134735-3f3b-41ee-997b-449ac11dfd01 #
loop $-1 -1 $-1 $51 $122 $59 #
plane-surface $-1 -1 $-1 1336.080484746098819 1950.481896890778444 12.00000000000000178 0 0 1 10 0 0 forward_v I I I I #
DXID-attrib $-1 -1 $-1 $-1 $62 @10 ASM ENTITY @36 3163d88c-dd5f-4608-80c2-5a3bb61eb490 #
face $123 -1 $-1 $124 $125 $5 $-1 $126 forward single #
loop $-1 -1 $-1 $-1 $127 $62 #
cone-surface $-1 -1 $-1 1514.747151412765334 2018.148563557445414 0 0 0 1 5.99999999999992184 0 0 1 I I 0 -1 5.99999999999992184 forward I I I I #
coedge $-1 -1 $-1 $128 $129 $130 $131 forward $63 $-1 #
coedge $-1 -1 $-1 $132 $65 $67 $100 forward $42 $-1 #
coedge $-1 -1 $-1 $65 $132 $128 $133 reversed $42 $-1 #
coedge $-1 -1 $-1 $130 $68 $65 $98 reversed $75 $-1 #
edge $134 -1 $-1 $135 0 $102 1.570796326794896558 $65 $136 forward @7 unknown #
coedge $-1 -1 $-1 $67 $66 $137 $138 reversed $28 $-1 #
edge $139 -1 $-1 $102 0 $140 1.200000000000000178 $95 $141 forward @7 tangent #
DXID-attrib $-1 -1 $-1 $-1 $69 @10 ASM ENTITY @36 3cce60cd-3cce-42e6-be5e-ec8033775bb7 #
vertex $-1 -1 $-1 $69 $142 #
straight-curve $-1 -1 $-1 1502.747151412765561 2073.815230224112383 0 -10 -0 -0 F -0 F 33.3333333333333286 #
coedge $-1 -1 $-1 $122 $137 $70 $105 forward $88 $-1 #
edge $143 -1 $-1 $113 0 $110 1.570796326794896558 $70 $144 forward @7 unknown #
coedge $-1 -1 $-1 $145 $71 $74 $116 forward $108 $-1 #
coedge $-1 -1 $-1 $71 $145 $122 $146 reversed $108 $-1 #
loop $-1 -1 $-1 $-1 $106 $147 #
DXID-attrib $-1 -1 $-1 $-1 $72 @10 ASM ENTITY @36 d403ec53-388e-4436-bdf1-92be0244ae43 #
vertex $-1 -1 $-1 $72 $148 #
straight-curve $-1 -1 $-1 1163.413818079432076 2067.815230224111929 0 0 0 10 I I #
DXID-attrib $-1 -1 $-1 $-1 $73 @10 ASM ENTITY @36 bff87e4f-a52f-4c55-b813-11617ab51712 #
vertex $-1 -1 $-1 $105 $149 #
straight-curve $-1 -1 $-1 1169.413818079432076 2073.815230224112383 0 0 0 10 I I #
coedge $-1 -1 $-1 $74 $150 $151 $152 reversed $75 $-1 #
edge $153 -1 $-1 $78 -0 $154 4.890686869202227172 $106 $155 forward @7 unknown #
point $-1 -1 $-1 1169.413818079432076 2073.815230224112383 0 #
point $-1 -1 $-1 1163.413818079432076 2067.815230224111929 0 #
point $-1 -1 $-1 1517.580484746099046 1950.481896890778671 0 #
DXID-attrib $-1 -1 $-1 $-1 $85 @10 ASM ENTITY @36 d0e50e25-345c-4f52-b51b-35a38a2bb41c #
plane-surface $-1 -1 $-1 1336.080484746098819 1950.481896890778444 0 0 0 1 10 0 0 forward_v I I I I #
coedge $-1 -1 $-1 $156 $104 $107 $146 forward $88 $-1 #
DXID-attrib $-1 -1 $-1 $-1 $91 @10 ASM ENTITY @36 12e4bdf4-764e-4cd1-9399-29655ef67559 #
face $157 -1 $-1 $158 $159 $5 $-1 $160 forward single #
loop $-1 -1 $-1 $-1 $161 $91 #
plane-surface $-1 -1 $-1 1515.080484746099046 2012.148563557445414 0 0 1 0 -10 -0 -0 forward_v I I I I #
coedge $-1 -1 $-1 $162 $163 $164 $165 forward $92 $-1 #
coedge $-1 -1 $-1 $166 $94 $96 $133 forward $63 $-1 #
coedge $-1 -1 $-1 $94 $166 $162 $167 reversed $63 $-1 #
coedge $-1 -1 $-1 $164 $97 $94 $131 reversed $75 $-1 #
edge $168 -1 $-1 $169 0 $135 4.96666666666664014 $94 $170 forward @7 unknown #
coedge $-1 -1 $-1 $96 $95 $171 $172 reversed $42 $-1 #
edge $173 -1 $-1 $135 0 $174 1.200000000000000178 $128 $175 forward @7 tangent #
DXID-attrib $-1 -1 $-1 $-1 $98 @10 ASM ENTITY @36 b9c738b9-ba72-49f1-be42-322f71871e15 #
vertex $-1 -1 $-1 $98 $176 #
ellipse-curve $-1 -1 $-1 1502.747151412765561 2067.815230224111929 0 0 0 1 6.000000000000005329 0 0 1 F 0 F 1.570796326794896558 #
coedge $-1 -1 $-1 $104 $171 $99 $138 forward $88 $-1 #
edge $177 -1 $-1 $140 -0 $113 33.3333333333333286 $99 $178 forward @7 unknown #
DXID-attrib $-1 -1 $-1 $-1 $100 @10 ASM ENTITY @36 b16dab7d-bd95-41d3-85e2-3b5bce6a5a92 #
vertex $-1 -1 $-1 $138 $179 #
straight-curve $-1 -1 $-1 1502.747151412765561 2073.815230224112383 0 0 0 10 I I #
point $-1 -1 $-1 1502.747151412765561 2073.815230224112383 0 #
DXID-attrib $-1 -1 $-1 $-1 $105 @10 ASM ENTITY @36 58080a91-f7c2-47ea-99a6-eea564a4568a #
ellipse-curve $-1 -1 $-1 1169.413818079432076 2067.815230224111929 12.00000000000000178 0 0 1 0 5.999999999999978684 0 1 I I #
coedge $-1 -1 $-1 $107 $106 $180 $181 forward $108 $-1 #
edge $182 -1 $-1 $110 -0 $183 4.890686869202227172 $107 $184 forward @7 unknown #
face $185 -1 $-1 $59 $108 $5 $-1 $186 forward single #
point $-1 -1 $-1 1163.413818079432076 2067.815230224111929 12.00000000000000178 #
point $-1 -1 $-1 1169.413818079432076 2073.815230224112383 12.00000000000000178 #
coedge $-1 -1 $-1 $115 $187 $188 $189 reversed $75 $-1 #
coedge $-1 -1 $-1 $190 $180 $115 $152 forward $191 $-1 #
edge $192 -1 $-1 $154 1.570796326794896558 $193 3.141592653589793116 $151 $194 forward @7 unknown #
DXID-attrib $-1 -1 $-1 $-1 $116 @10 ASM ENTITY @36 6d331a88-6320-4d2e-9e78-af5e9a5addac #
vertex $-1 -1 $-1 $152 $195 #
straight-curve $-1 -1 $-1 1163.413818079432076 2067.815230224111929 0 -0 -10 -0 F -0 F 4.890686869202227172 #
coedge $-1 -1 $-1 $196 $122 $197 $198 forward $88 $-1 #
DXID-attrib $-1 -1 $-1 $-1 $124 @10 ASM ENTITY @36 90766d32-2006-46da-978a-02250a32ff6e #
face $199 -1 $-1 $200 $201 $5 $-1 $202 forward single #
loop $-1 -1 $-1 $-1 $203 $124 #
cone-surface $-1 -1 $-1 1515.080484746099046 2006.148563557445414 0 0 0 1 5.999999999999968026 0 0 1 I I 0 1 5.999999999999968026 forward I I I I #
coedge $-1 -1 $-1 $204 $205 $206 $207 forward $125 $-1 #
coedge $-1 -1 $-1 $208 $127 $129 $167 forward $92 $-1 #
coedge $-1 -1 $-1 $127 $208 $204 $209 reversed $92 $-1 #
coedge $-1 -1 $-1 $206 $130 $127 $165 reversed $75 $-1 #
edge $210 -1 $-1 $211 1.570796326794896558 $169 3.141592653589793116 $127 $212 forward @7 unknown #
coedge $-1 -1 $-1 $129 $128 $213 $214 reversed $63 $-1 #
edge $215 -1 $-1 $169 0 $216 1.200000000000000178 $162 $217 forward @7 tangent #
DXID-attrib $-1 -1 $-1 $-1 $131 @10 ASM ENTITY @36 a6771cae-6942-4931-8d55-6bc5f0482b52 #
vertex $-1 -1 $-1 $131 $218 #
straight-curve $-1 -1 $-1 1508.747151412765561 2018.148563557445414 0 -5.722491831624998808e-14 10 0 F 0 F 4.96666666666664014 #
coedge $-1 -1 $-1 $137 $213 $132 $172 forward $88 $-1 #
edge $219 -1 $-1 $174 0 $140 1.570796326794896558 $132 $220 forward @7 unknown #
DXID-attrib $-1 -1 $-1 $-1 $133 @10 ASM ENTITY @36 7b2bd5e9-ea9f-44b1-bd46-97167e1540a2 #
vertex $-1 -1 $-1 $172 $221 #
straight-curve $-1 -1 $-1 1508.747151412765334 2067.815230224111929 0 0 0 10 I I #
point $-1 -1 $-1 1508.747151412765334 2067.815230224111929 0 #
DXID-attrib $-1 -1 $-1 $-1 $138 @10 ASM ENTITY @36 5efc7e07-0cea-4fa0-bbfd-b286ee59b0aa #
straight-curve $-1 -1 $-1 1502.747151412765561 2073.815230224112383 12.00000000000000178 -10 -0 -0 I I #
point $-1 -1 $-1 1502.747151412765561 2073.815230224112383 12.00000000000000178 #
coedge $-1 -1 $-1 $151 $197 $145 $181 reversed $191 $-1 #
edge $222 -1 $-1 $154 0 $183 1.200000000000000178 $145 $223 forward @7 tangent #
DXID-attrib $-1 -1 $-1 $-1 $146 @10 ASM ENTITY @36 22a0c4e0-4b29-4899-9fab-491aca9c74eb #
vertex $-1 -1 $-1 $198 $224 #
straight-curve $-1 -1 $-1 1163.413818079432076 2067.815230224111929 12.00000000000000178 -0 -10 -0 I I #
DXID-attrib $-1 -1 $-1 $-1 $147 @10 ASM ENTITY @36 92ae6510-c0e8-42a8-b2f5-63b0f56d6922 #
plane-surface $-1 -1 $-1 1163.413818079432076 2067.815230224111929 0 -1 0 0 -0 -10 -0 forward_v I I I I #
coedge $-1 -1 $-1 $150 $225 $226 $227 reversed $75 $-1 #
coedge $-1 -1 $-1 $228 $229 $150 $189 forward $230 $-1 #
edge $231 -1 $-1 $193 0 $232 0.04264646413112416212 $188 $233 forward @7 unknown #
coedge $-1 -1 $-1 $197 $151 $229 $234 forward $191 $-1 #
loop $-1 -1 $-1 $-1 $151 $235 #
DXID-attrib $-1 -1 $-1 $-1 $152 @10 ASM ENTITY @36 1d1107c3-ce76-4948-8e9e-5d0cf84db996 #
vertex $-1 -1 $-1 $189 $236 #
ellipse-curve $-1 -1 $-1 1156.654020104787378 2018.908361532089657 0 0 0 -1 0 6.759797974644627061 0 1 F 1.570796326794896558 F 3.141592653589793116 #
point $-1 -1 $-1 1163.413818079432076 2018.908361532089657 0 #
coedge $-1 -1 $-1 $237 $156 $238 $239 forward $88 $-1 #
coedge $-1 -1 $-1 $180 $190 $156 $198 reversed $191 $-1 #
edge $240 -1 $-1 $183 1.570796326794896558 $241 3.141592653589793116 $197 $242 forward @7 unknown #
DXID-attrib $-1 -1 $-1 $-1 $158 @10 ASM ENTITY @36 343873b6-e2d7-4419-9655-300beb3e5959 #
face $243 -1 $-1 $244 $245 $5 $-1 $246 forward single #
loop $-1 -1 $-1 $-1 $247 $158 #
plane-surface $-1 -1 $-1 1521.080484746098819 1894.815230224111929 0 1 0 0 0 10 0 forward_v I I I I #
coedge $-1 -1 $-1 $248 $249 $250 $251 forward $159 $-1 #
coedge $-1 -1 $-1 $252 $161 $163 $209 forward $125 $-1 #
coedge $-1 -1 $-1 $161 $252 $248 $253 reversed $125 $-1 #
coedge $-1 -1 $-1 $250 $164 $161 $207 reversed $75 $-1 #
edge $254 -1 $-1 $255 -0 $211 0.03333333333335986026 $161 $256 forward @7 unknown #
coedge $-1 -1 $-1 $163 $162 $257 $258 reversed $92 $-1 #
edge $259 -1 $-1 $211 0 $260 1.200000000000000178 $204 $261 forward @7 tangent #
DXID-attrib $-1 -1 $-1 $-1 $165 @10 ASM ENTITY @36 7ac50159-45e7-4354-b0ee-5853cafa71ab #
vertex $-1 -1 $-1 $165 $262 #
ellipse-curve $-1 -1 $-1 1514.747151412765334 2018.148563557445414 0 -0 -0 -1 5.99999999999992184 0 0 1 F 1.570796326794896558 F 3.141592653589793116 #
coedge $-1 -1 $-1 $171 $257 $166 $214 forward $88 $-1 #
edge $263 -1 $-1 $216 0 $174 4.96666666666664014 $166 $264 forward @7 unknown #
DXID-attrib $-1 -1 $-1 $-1 $167 @10 ASM ENTITY @36 618cbf38-1b60-42ee-a85d-a01560835978 #
vertex $-1 -1 $-1 $214 $265 #
straight-curve $-1 -1 $-1 1508.747151412765561 2018.148563557445414 0 0 0 10 I I #
point $-1 -1 $-1 1508.747151412765561 2018.148563557445414 0 #
DXID-attrib $-1 -1 $-1 $-1 $172 @10 ASM ENTITY @36 1370490a-10de-4268-a02a-85d42c350b0c #
ellipse-curve $-1 -1 $-1 1502.747151412765561 2067.815230224111929 12.00000000000000178 0 0 1 6.000000000000005329 0 0 1 I I #
point $-1 -1 $-1 1508.747151412765334 2067.815230224111929 12.00000000000000178 #
DXID-attrib $-1 -1 $-1 $-1 $181 @10 ASM ENTITY @36 3da0c84d-a044-4fdd-b353-04fd6b9c7c7a #
straight-curve $-1 -1 $-1 1163.413818079432076 2018.908361532089657 0 0 0 10 I I #
point $-1 -1 $-1 1163.413818079432076 2018.908361532089657 12.00000000000000178 #
coedge $-1 -1 $-1 $187 $266 $267 $268 reversed $75 $-1 #
coedge $-1 -1 $-1 $269 $270 $187 $227 forward $271 $-1 #
edge $272 -1 $-1 $232 0 $273 1.570796326794896558 $226 $274 forward @7 unknown #
coedge $-1 -1 $-1 $238 $188 $270 $275 forward $230 $-1 #
coedge $-1 -1 $-1 $188 $238 $190 $234 reversed $230 $-1 #
loop $-1 -1 $-1 $-1 $188 $276 #
DXID-attrib $-1 -1 $-1 $-1 $189 @10 ASM ENTITY @36 f7a00a15-555b-41c8-b149-bb736310f3f2 #
vertex $-1 -1 $-1 $227 $277 #
straight-curve $-1 -1 $-1 1156.654020104787378 2012.148563557445414 0 10 0 0 F 0 F 0.04264646413112416212 #
edge $278 -1 $-1 $193 0 $241 1.200000000000000178 $190 $279 forward @5 knife #
face $280 -1 $-1 $147 $191 $5 $-1 $281 forward single #
point $-1 -1 $-1 1156.654020104787378 2012.148563557444959 0 #
coedge $-1 -1 $-1 $282 $196 $283 $284 forward $88 $-1 #
coedge $-1 -1 $-1 $229 $228 $196 $239 reversed $230 $-1 #
edge $285 -1 $-1 $241 0 $286 0.04264646413112416212 $238 $287 forward @7 unknown #
DXID-attrib $-1 -1 $-1 $-1 $198 @10 ASM ENTITY @36 b8a429ec-1697-4561-b9ab-e83eef9d4e27 #
vertex $-1 -1 $-1 $239 $288 #
ellipse-curve $-1 -1 $-1 1156.654020104787378 2018.908361532089657 12.00000000000000178 0 0 -1 0 6.759797974644627061 0 1 I I #
DXID-attrib $-1 -1 $-1 $-1 $200 @10 ASM ENTITY @36 61954e13-ce5c-4913-975c-f34470b6c87d #
face $289 -1 $-1 $290 $291 $5 $-1 $292 forward single #
loop $-1 -1 $-1 $-1 $293 $200 #
cone-surface $-1 -1 $-1 1515.080484746099046 1894.815230224111929 0 0 0 1 0 -5.99999999999997069 0 1 I I 0 1 5.99999999999997069 forward I I I I #
coedge $-1 -1 $-1 $294 $295 $296 $297 forward $201 $-1 #
coedge $-1 -1 $-1 $298 $203 $205 $253 forward $159 $-1 #
coedge $-1 -1 $-1 $203 $298 $294 $299 reversed $159 $-1 #
coedge $-1 -1 $-1 $296 $206 $203 $251 reversed $75 $-1 #
edge $300 -1 $-1 $301 0 $255 1.570796326794896558 $203 $302 forward @7 unknown #
coedge $-1 -1 $-1 $205 $204 $303 $304 reversed $125 $-1 #
edge $305 -1 $-1 $255 0 $306 1.200000000000000178 $248 $307 forward @7 tangent #
DXID-attrib $-1 -1 $-1 $-1 $207 @10 ASM ENTITY @36 cf01fea6-9875-4599-b88b-ccefafe7175a #
vertex $-1 -1 $-1 $207 $308 #
straight-curve $-1 -1 $-1 1515.080484746099046 2012.148563557445414 0 -10 -0 -0 F -0 F 0.03333333333335986026 #
coedge $-1 -1 $-1 $213 $303 $208 $258 forward $88 $-1 #
edge $309 -1 $-1 $260 1.570796326794896558 $216 3.141592653589793116 $208 $310 forward @7 unknown #
DXID-attrib $-1 -1 $-1 $-1 $209 @10 ASM ENTITY @36 6677315d-06db-4736-9237-debafda7e8db #
vertex $-1 -1 $-1 $258 $311 #
straight-curve $-1 -1 $-1 1514.747151412765334 2012.148563557445414 0 0 0 10 I I #
point $-1 -1 $-1 1514.747151412765334 2012.148563557445414 0 #
DXID-attrib $-1 -1 $-1 $-1 $214 @10 ASM ENTITY @36 1046e5d6-ddcd-4b9e-a679-f3f6a2746435 #
straight-curve $-1 -1 $-1 1508.747151412765561 2018.148563557445414 12.00000000000000178 -5.722491831624998808e-14 10 0 I I #
point $-1 -1 $-1 1508.747151412765561 2018.148563557445414 12.00000000000000178 #
coedge $-1 -1 $-1 $225 $312 $313 $314 reversed $75 $-1 #
coedge $-1 -1 $-1 $315 $316 $225 $268 forward $317 $-1 #
edge $318 -1 $-1 $273 -0 $319 11.13333333333335418 $267 $320 forward @7 unknown #
coedge $-1 -1 $-1 $283 $226 $316 $321 forward $271 $-1 #
coedge $-1 -1 $-1 $226 $283 $228 $275 reversed $271 $-1 #
loop $-1 -1 $-1 $-1 $226 $322 #
DXID-attrib $-1 -1 $-1 $-1 $227 @10 ASM ENTITY @36 600e9ffe-fbc8-4c86-8f8d-e558b1968afd #
vertex $-1 -1 $-1 $268 $323 #
ellipse-curve $-1 -1 $-1 1157.080484746098591 2006.148563557445414 0 0 0 1 0 6.000000000000001776 0 1 F 0 F 1.570796326794896558 #
edge $324 -1 $-1 $232 0 $286 1.200000000000000178 $228 $325 forward @5 knife #
face $326 -1 $-1 $235 $230 $5 $-1 $327 forward single #
point $-1 -1 $-1 1157.080484746098591 2012.148563557445414 0 #
DXID-attrib $-1 -1 $-1 $-1 $234 @10 ASM ENTITY @36 c3b19f2a-cebb-4a89-b868-9a149d09f449 #
straight-curve $-1 -1 $-1 1156.654020104787378 2012.148563557444959 0 0 0 10 I I #
DXID-attrib $-1 -1 $-1 $-1 $235 @10 ASM ENTITY @36 b1f045c4-7ea2-41ea-9482-62b4b5f65344 #
cone-surface $-1 -1 $-1 1156.654020104787378 2018.908361532089657 0 0 0 1 0 6.759797974644627061 0 1 I I 0 -1 6.759797974644627061 forward I I I I #
coedge $-1 -1 $-1 $328 $237 $329 $330 forward $88 $-1 #
coedge $-1 -1 $-1 $270 $269 $237 $284 reversed $271 $-1 #
edge $331 -1 $-1 $286 0 $332 1.570796326794896558 $283 $333 forward @7 unknown #
DXID-attrib $-1 -1 $-1 $-1 $239 @10 ASM ENTITY @36 b69874f2-1249-4fcf-b70b-cf63e57582ed #
vertex $-1 -1 $-1 $284 $334 #
straight-curve $-1 -1 $-1 1156.654020104787378 2012.148563557445414 12.00000000000000178 10 0 0 I I #
point $-1 -1 $-1 1156.654020104787378 2012.148563557444959 12.00000000000000178 #
DXID-attrib $-1 -1 $-1 $-1 $244 @10 ASM ENTITY @36 6aef6c64-3cbb-4d4e-9990-680298629da6 #
face $335 -1 $-1 $336 $337 $5 $-1 $338 forward single #
loop $-1 -1 $-1 $-1 $339 $244 #
plane-surface $-1 -1 $-1 1514.747151412765334 1888.815230224111929 0 0 -1 0 10 0 0 forward_v I I I I #
coedge $-1 -1 $-1 $340 $341 $342 $343 forward $245 $-1 #
coedge $-1 -1 $-1 $344 $247 $249 $299 forward $201 $-1 #
coedge $-1 -1 $-1 $247 $344 $340 $345 reversed $201 $-1 #
coedge $-1 -1 $-1 $342 $250 $247 $297 reversed $75 $-1 #
edge $346 -1 $-1 $347 0 $301 11.13333333333335418 $247 $348 forward @7 unknown #
coedge $-1 -1 $-1 $249 $248 $349 $350 reversed $159 $-1 #
edge $351 -1 $-1 $301 0 $352 1.200000000000000178 $294 $353 forward @7 tangent #
DXID-attrib $-1 -1 $-1 $-1 $251 @10 ASM ENTITY @36 78cebfb0-f433-4c0f-9994-d98aca779637 #
vertex $-1 -1 $-1 $251 $354 #
ellipse-curve $-1 -1 $-1 1515.080484746099046 2006.148563557445414 0 0 0 1 5.999999999999968026 0 0 1 F 0 F 1.570796326794896558 #
coedge $-1 -1 $-1 $257 $349 $252 $304 forward $88 $-1 #
edge $355 -1 $-1 $306 -0 $260 0.03333333333335986026 $252 $356 forward @7 unknown #
DXID-attrib $-1 -1 $-1 $-1 $253 @10 ASM ENTITY @36 e7626bc7-0fe2-454a-85a5-e613b0616945 #
vertex $-1 -1 $-1 $304 $357 #
straight-curve $-1 -1 $-1 1515.080484746099046 2012.148563557445414 0 0 0 10 I I #
point $-1 -1 $-1 1515.080484746099046 2012.148563557445414 0 #
DXID-attrib $-1 -1 $-1 $-1 $258 @10 ASM ENTITY @36 57438475-db70-4e6c-a5c9-95f50aff4ced #
ellipse-curve $-1 -1 $-1 1514.747151412765334 2018.148563557445414 12.00000000000000178 -0 -0 -1 5.99999999999992184 0 0 1 I I #
point $-1 -1 $-1 1514.747151412765334 2012.148563557445414 12.00000000000000178 #
coedge $-1 -1 $-1 $266 $358 $359 $360 reversed $75 $-1 #
coedge $-1 -1 $-1 $361 $362 $266 $314 forward $363 $-1 #
edge $364 -1 $-1 $319 0 $365 1.570796326794920317 $313 $366 forward @7 unknown #
coedge $-1 -1 $-1 $329 $267 $362 $367 forward $317 $-1 #
coedge $-1 -1 $-1 $267 $329 $269 $321 reversed $317 $-1 #
loop $-1 -1 $-1 $-1 $267 $368 #
DXID-attrib $-1 -1 $-1 $-1 $268 @10 ASM ENTITY @36 91b02b70-159f-42e1-b60e-d78f8d133214 #
vertex $-1 -1 $-1 $314 $369 #
straight-curve $-1 -1 $-1 1151.080484746098819 2006.148563557445414 0 -0 -10 -0 F -0 F 11.13333333333335418 #
edge $370 -1 $-1 $273 0 $332 1.200000000000000178 $269 $371 forward @7 tangent #
face $372 -1 $-1 $276 $271 $5 $-1 $373 forward single #
point $-1 -1 $-1 1151.080484746098819 2006.148563557445414 0 #
DXID-attrib $-1 -1 $-1 $-1 $275 @10 ASM ENTITY @36 1ba7b000-40ed-4016-af2a-96529086e0bb #
straight-curve $-1 -1 $-1 1157.080484746098591 2012.148563557445414 0 0 0 10 I I #
DXID-attrib $-1 -1 $-1 $-1 $276 @10 ASM ENTITY @36 397561b5-156d-4570-927d-aa5e3fdb46b4 #
plane-surface $-1 -1 $-1 1156.654020104787378 2012.148563557445414 0 0 -1 0 10 0 0 forward_v I I I I #
coedge $-1 -1 $-1 $374 $282 $375 $376 forward $88 $-1 #
coedge $-1 -1 $-1 $316 $315 $282 $330 reversed $317 $-1 #
edge $377 -1 $-1 $332 -0 $378 11.13333333333335418 $329 $379 forward @7 unknown #
DXID-attrib $-1 -1 $-1 $-1 $284 @10 ASM ENTITY @36 9572503d-6375-485c-b2f0-73ee3055d59c #
vertex $-1 -1 $-1 $330 $380 #
ellipse-curve $-1 -1 $-1 1157.080484746098591 2006.148563557445414 12.00000000000000178 0 0 1 0 6.000000000000001776 0 1 I I #
point $-1 -1 $-1 1157.080484746098591 2012.148563557445414 12.00000000000000178 #
DXID-attrib $-1 -1 $-1 $-1 $290 @10 ASM ENTITY @36 2dcd271d-91ef-4e4c-8500-baf4a585e13b #
face $381 -1 $-1 $382 $383 $5 $-1 $384 forward single #
loop $-1 -1 $-1 $-1 $385 $290 #
cone-surface $-1 -1 $-1 1514.747151412765334 1882.815230224112156 0 0 0 1 0 -5.99999999999992184 0 1 I I 0 -1 5.99999999999992184 forward I I I I #
coedge $-1 -1 $-1 $386 $387 $388 $389 forward $291 $-1 #
coedge $-1 -1 $-1 $390 $293 $295 $345 forward $245 $-1 #
coedge $-1 -1 $-1 $293 $390 $386 $391 reversed $245 $-1 #
coedge $-1 -1 $-1 $388 $296 $293 $343 reversed $75 $-1 #
edge $392 -1 $-1 $393 0 $347 1.570796326794896558 $293 $394 forward @7 unknown #
coedge $-1 -1 $-1 $295 $294 $395 $396 reversed $201 $-1 #
edge $397 -1 $-1 $347 0 $398 1.200000000000000178 $340 $399 forward @7 tangent #
DXID-attrib $-1 -1 $-1 $-1 $297 @10 ASM ENTITY @36 dfa844e1-d62c-45c9-933e-f30126c1ea39 #
vertex $-1 -1 $-1 $297 $400 #
straight-curve $-1 -1 $-1 1521.080484746098819 1894.815230224111929 0 0 10 0 F 0 F 11.13333333333335418 #
coedge $-1 -1 $-1 $303 $395 $298 $350 forward $88 $-1 #
edge $401 -1 $-1 $352 0 $306 1.570796326794896558 $298 $402 forward @7 unknown #
DXID-attrib $-1 -1 $-1 $-1 $299 @10 ASM ENTITY @36 dc5cfce4-dd3e-419f-a679-fc2313116a4c #
vertex $-1 -1 $-1 $350 $403 #
straight-curve $-1 -1 $-1 1521.080484746098819 2006.148563557445414 0 0 0 10 I I #
point $-1 -1 $-1 1521.080484746098819 2006.148563557445414 0 #
DXID-attrib $-1 -1 $-1 $-1 $304 @10 ASM ENTITY @36 d664e6e6-bfb2-4aee-ab8c-544441ddfd79 #
straight-curve $-1 -1 $-1 1515.080484746099046 2012.148563557445414 12.00000000000000178 -10 -0 -0 I I #
point $-1 -1 $-1 1515.080484746099046 2012.148563557445414 12.00000000000000178 #
coedge $-1 -1 $-1 $312 $404 $405 $406 reversed $75 $-1 #
coedge $-1 -1 $-1 $407 $408 $312 $360 forward $409 $-1 #
edge $410 -1 $-1 $365 0 $411 0.03333333333333143855 $359 $412 forward @7 unknown #
coedge $-1 -1 $-1 $375 $313 $408 $413 forward $363 $-1 #
coedge $-1 -1 $-1 $313 $375 $315 $367 reversed $363 $-1 #
loop $-1 -1 $-1 $-1 $313 $414 #
DXID-attrib $-1 -1 $-1 $-1 $314 @10 ASM ENTITY @36 16e27616-0369-4c4f-9a07-a4093bbf339a #
vertex $-1 -1 $-1 $360 $415 #
ellipse-curve $-1 -1 $-1 1157.080484746098591 1894.815230224111929 0 0 0 1 -5.99999999999998046 0 0 1 F 0 F 1.570796326794920317 #
edge $416 -1 $-1 $319 0 $378 1.200000000000000178 $315 $417 forward @7 tangent #
face $418 -1 $-1 $322 $317 $5 $-1 $419 forward single #
point $-1 -1 $-1 1151.080484746098819 1894.815230224111929 0 #
DXID-attrib $-1 -1 $-1 $-1 $321 @10 ASM ENTITY @36 ec03c846-c371-4396-af83-be9454ddec20 #
straight-curve $-1 -1 $-1 1151.080484746098819 2006.148563557445414 0 0 0 10 I I #
DXID-attrib $-1 -1 $-1 $-1 $322 @10 ASM ENTITY @36 d33f4ada-5d60-45d8-8254-23ed7268d0b8 #
cone-surface $-1 -1 $-1 1157.080484746098591 2006.148563557445414 0 0 0 1 0 6.000000000000001776 0 1 I I 0 1 6.000000000000001776 forward I I I I #
coedge $-1 -1 $-1 $420 $328 $421 $422 forward $88 $-1 #
coedge $-1 -1 $-1 $362 $361 $328 $376 reversed $363 $-1 #
edge $423 -1 $-1 $378 0 $424 1.570796326794920317 $375 $425 forward @7 unknown #
DXID-attrib $-1 -1 $-1 $-1 $330 @10 ASM ENTITY @36 e0948750-f56b-41e7-ac61-2d7903774d21 #
vertex $-1 -1 $-1 $376 $426 #
straight-curve $-1 -1 $-1 1151.080484746098819 2006.148563557445414 12.00000000000000178 -0 -10 -0 I I #
point $-1 -1 $-1 1151.080484746098819 2006.148563557445414 12.00000000000000178 #
DXID-attrib $-1 -1 $-1 $-1 $336 @10 ASM ENTITY @36 e1578aa0-24cb-47f3-9667-cd38bf056ae5 #
face $427 -1 $-1 $428 $429 $5 $-1 $430 forward single #
loop $-1 -1 $-1 $-1 $431 $336 #
plane-surface $-1 -1 $-1 1508.747151412765334 1833.148563557445186 0 1 0 0 0 10 0 forward_v I I I I #
coedge $-1 -1 $-1 $432 $433 $434 $435 forward $337 $-1 #
coedge $-1 -1 $-1 $436 $339 $341 $391 forward $291 $-1 #
coedge $-1 -1 $-1 $339 $436 $432 $437 reversed $291 $-1 #
coedge $-1 -1 $-1 $434 $342 $339 $389 reversed $75 $-1 #
edge $438 -1 $-1 $439 0 $393 0.03333333333335986026 $339 $440 forward @7 unknown #
coedge $-1 -1 $-1 $341 $340 $441 $442 reversed $245 $-1 #
edge $443 -1 $-1 $393 0 $444 1.200000000000000178 $386 $445 forward @7 tangent #
DXID-attrib $-1 -1 $-1 $-1 $343 @10 ASM ENTITY @36 5216004c-11ad-44c5-a7c1-fa79089f8f16 #
vertex $-1 -1 $-1 $343 $446 #
ellipse-curve $-1 -1 $-1 1515.080484746099046 1894.815230224111929 0 0 0 1 0 -5.99999999999997069 0 1 F 0 F 1.570796326794896558 #
coedge $-1 -1 $-1 $349 $441 $344 $396 forward $88 $-1 #
edge $447 -1 $-1 $398 0 $352 11.13333333333335418 $344 $448 forward @7 unknown #
DXID-attrib $-1 -1 $-1 $-1 $345 @10 ASM ENTITY @36 a27ce924-26fc-41c0-9911-7d1f23ecc4ca #
vertex $-1 -1 $-1 $396 $449 #
straight-curve $-1 -1 $-1 1521.080484746098819 1894.815230224111929 0 0 0 10 I I #
point $-1 -1 $-1 1521.080484746098819 1894.815230224111929 0 #
DXID-attrib $-1 -1 $-1 $-1 $350 @10 ASM ENTITY @36 df44937b-0c49-488c-a79a-4ca59e095f7f #
ellipse-curve $-1 -1 $-1 1515.080484746099046 2006.148563557445414 12.00000000000000178 0 0 1 5.999999999999968026 0 0 1 I I #
point $-1 -1 $-1 1521.080484746098819 2006.148563557445414 12.00000000000000178 #
coedge $-1 -1 $-1 $358 $450 $451 $452 reversed $75 $-1 #
coedge $-1 -1 $-1 $453 $454 $358 $406 forward $455 $-1 #
edge $456 -1 $-1 $411 1.570796326794896558 $457 3.141592653589793116 $405 $458 forward @7 unknown #
coedge $-1 -1 $-1 $421 $359 $454 $459 forward $409 $-1 #
coedge $-1 -1 $-1 $359 $421 $361 $413 reversed $409 $-1 #
loop $-1 -1 $-1 $-1 $359 $460 #
DXID-attrib $-1 -1 $-1 $-1 $360 @10 ASM ENTITY @36 4a54d56a-9641-4842-a65c-b91ab226f0e2 #
vertex $-1 -1 $-1 $406 $461 #
straight-curve $-1 -1 $-1 1157.080484746098819 1888.815230224111929 0 10 0 0 F 0 F 0.03333333333333143855 #
edge $462 -1 $-1 $365 0 $424 1.200000000000000178 $361 $463 forward @7 tangent #
face $464 -1 $-1 $368 $363 $5 $-1 $465 forward single #
point $-1 -1 $-1 1157.080484746098819 1888.815230224111929 0 #
DXID-attrib $-1 -1 $-1 $-1 $367 @10 ASM ENTITY @36 4a20ed38-4374-466e-95ef-b59d613726da #
straight-curve $-1 -1 $-1 1151.080484746098819 1894.815230224111929 0 0 0 10 I I #
DXID-attrib $-1 -1 $-1 $-1 $368 @10 ASM ENTITY @36 72f5d79c-bb14-47e3-b39f-732b6ab34a25 #
plane-surface $-1 -1 $-1 1151.080484746098819 2006.148563557445414 0 -1 0 0 -0 -10 -0 forward_v I I I I #
coedge $-1 -1 $-1 $466 $374 $467 $468 forward $88 $-1 #
coedge $-1 -1 $-1 $408 $407 $374 $422 reversed $409 $-1 #
edge $469 -1 $-1 $424 0 $470 0.03333333333333143855 $421 $471 forward @7 unknown #
DXID-attrib $-1 -1 $-1 $-1 $376 @10 ASM ENTITY @36 a6a1deb0-6d0c-46d2-ad39-93af37c8aaaf #
vertex $-1 -1 $-1 $422 $472 #
ellipse-curve $-1 -1 $-1 1157.080484746098591 1894.815230224111929 12.00000000000000178 0 0 1 -5.99999999999998046 0 0 1 I I #
point $-1 -1 $-1 1151.080484746098819 1894.815230224111929 12.00000000000000178 #
DXID-attrib $-1 -1 $-1 $-1 $382 @10 ASM ENTITY @36 719b8a72-7cba-43c4-8e6e-91f943b5f460 #
face $473 -1 $-1 $474 $475 $5 $-1 $476 forward single #
loop $-1 -1 $-1 $-1 $477 $382 #
cone-surface $-1 -1 $-1 1502.747151412765561 1833.148563557445186 0 0 0 1 0 -5.99999999999992184 0 1 I I 0 1 5.99999999999992184 forward I I I I #
coedge $-1 -1 $-1 $478 $479 $480 $481 forward $383 $-1 #
coedge $-1 -1 $-1 $482 $385 $387 $437 forward $337 $-1 #
coedge $-1 -1 $-1 $385 $482 $478 $483 reversed $337 $-1 #
coedge $-1 -1 $-1 $480 $388 $385 $435 reversed $75 $-1 #
edge $484 -1 $-1 $485 1.570796326794896558 $439 3.141592653589793116 $385 $486 forward @7 unknown #
coedge $-1 -1 $-1 $387 $386 $487 $488 reversed $291 $-1 #
edge $489 -1 $-1 $439 0 $490 1.200000000000000178 $432 $491 forward @7 tangent #
DXID-attrib $-1 -1 $-1 $-1 $389 @10 ASM ENTITY @36 291dfcbf-cc4f-445a-b322-9add45d525a5 #
vertex $-1 -1 $-1 $389 $492 #
straight-curve $-1 -1 $-1 1514.747151412765334 1888.815230224111929 0 10 0 0 F 0 F 0.03333333333335986026 #
coedge $-1 -1 $-1 $395 $487 $390 $442 forward $88 $-1 #
edge $493 -1 $-1 $444 0 $398 1.570796326794896558 $390 $494 forward @7 unknown #
DXID-attrib $-1 -1 $-1 $-1 $391 @10 ASM ENTITY @36 dfcc5bcc-c2a4-4258-91ed-cbede313a52a #
vertex $-1 -1 $-1 $442 $495 #
straight-curve $-1 -1 $-1 1515.080484746099046 1888.815230224111929 0 0 0 10 I I #
point $-1 -1 $-1 1515.080484746099046 1888.815230224111929 0 #
DXID-attrib $-1 -1 $-1 $-1 $396 @10 ASM ENTITY @36 e30b0947-e751-4880-96c8-f36f9c4ec1e7 #
straight-curve $-1 -1 $-1 1521.080484746098819 1894.815230224111929 12.00000000000000178 0 10 0 I I #
point $-1 -1 $-1 1521.080484746098819 1894.815230224111929 12.00000000000000178 #
coedge $-1 -1 $-1 $404 $496 $497 $498 reversed $75 $-1 #
coedge $-1 -1 $-1 $499 $500 $404 $452 forward $501 $-1 #
edge $502 -1 $-1 $457 -0 $503 4.966666666666668561 $451 $504 forward @7 unknown #
coedge $-1 -1 $-1 $467 $405 $500 $505 forward $455 $-1 #
coedge $-1 -1 $-1 $405 $467 $407 $459 reversed $455 $-1 #
loop $-1 -1 $-1 $-1 $405 $506 #
DXID-attrib $-1 -1 $-1 $-1 $406 @10 ASM ENTITY @36 3113ee9f-7817-4f67-aec9-c7b227d2801a #
vertex $-1 -1 $-1 $452 $507 #
ellipse-curve $-1 -1 $-1 1157.413818079432076 1882.815230224111929 0 0 0 -1 -5.999999999999984013 -0 -0 1 F 1.570796326794896558 F 3.141592653589793116 #
edge $508 -1 $-1 $411 0 $470 1.200000000000000178 $407 $509 forward @7 tangent #
face $510 -1 $-1 $414 $409 $5 $-1 $511 forward single #
point $-1 -1 $-1 1157.413818079432076 1888.815230224111929 0 #
DXID-attrib $-1 -1 $-1 $-1 $413 @10 ASM ENTITY @36 fd1479da-28fb-4ab7-b71a-224e9dcb7114 #
straight-curve $-1 -1 $-1 1157.080484746098819 1888.815230224111929 0 0 0 10 I I #
DXID-attrib $-1 -1 $-1 $-1 $414 @10 ASM ENTITY @36 856e3852-b8c5-4a66-b01f-c3c551849fa8 #
cone-surface $-1 -1 $-1 1157.080484746098591 1894.815230224111929 0 0 0 1 -5.99999999999998046 0 0 1 I I 0 1 5.99999999999998046 forward I I I I #
coedge $-1 -1 $-1 $512 $420 $513 $514 forward $88 $-1 #
coedge $-1 -1 $-1 $454 $453 $420 $468 reversed $455 $-1 #
edge $515 -1 $-1 $470 1.570796326794896558 $516 3.141592653589793116 $467 $517 forward @7 unknown #
DXID-attrib $-1 -1 $-1 $-1 $422 @10 ASM ENTITY @36 82ff965e-b009-4691-b47e-8c665a35406d #
vertex $-1 -1 $-1 $468 $518 #
straight-curve $-1 -1 $-1 1157.080484746098819 1888.815230224111929 12.00000000000000178 10 0 0 I I #
point $-1 -1 $-1 1157.080484746098819 1888.815230224111929 12.00000000000000178 #
DXID-attrib $-1 -1 $-1 $-1 $428 @10 ASM ENTITY @36 8767fa00-af0c-48d0-bf2a-6f795c25e6a1 #
face $519 -1 $-1 $520 $521 $5 $-1 $522 forward single #
loop $-1 -1 $-1 $-1 $523 $428 #
plane-surface $-1 -1 $-1 1169.413818079432076 1827.148563557444959 0 0 -1 0 10 0 0 forward_v I I I I #
coedge $-1 -1 $-1 $524 $525 $526 $527 forward $429 $-1 #
coedge $-1 -1 $-1 $528 $431 $433 $483 forward $383 $-1 #
coedge $-1 -1 $-1 $431 $528 $524 $529 reversed $383 $-1 #
coedge $-1 -1 $-1 $526 $434 $431 $481 reversed $75 $-1 #
edge $530 -1 $-1 $531 0 $485 4.966666666666696983 $431 $532 forward @7 unknown #
coedge $-1 -1 $-1 $433 $432 $533 $534 reversed $337 $-1 #
edge $535 -1 $-1 $485 0 $536 1.200000000000000178 $478 $537 forward @7 tangent #
DXID-attrib $-1 -1 $-1 $-1 $435 @10 ASM ENTITY @36 e19fa837-eff9-4a9d-ac35-139890b43c2b #
vertex $-1 -1 $-1 $435 $538 #
ellipse-curve $-1 -1 $-1 1514.747151412765334 1882.815230224112156 0 0 0 -1 -0 -5.99999999999992184 -0 1 F 1.570796326794896558 F 3.141592653589793116 #
coedge $-1 -1 $-1 $441 $533 $436 $488 forward $88 $-1 #
edge $539 -1 $-1 $490 0 $444 0.03333333333335986026 $436 $540 forward @7 unknown #
DXID-attrib $-1 -1 $-1 $-1 $437 @10 ASM ENTITY @36 122066cb-1c03-4f15-9730-18f862f9c6f5 #
vertex $-1 -1 $-1 $488 $541 #
straight-curve $-1 -1 $-1 1514.747151412765334 1888.815230224111929 0 0 0 10 I I #
point $-1 -1 $-1 1514.747151412765334 1888.815230224111929 0 #
DXID-attrib $-1 -1 $-1 $-1 $442 @10 ASM ENTITY @36 f5cd532e-8001-4e99-baa3-b027072e6528 #
ellipse-curve $-1 -1 $-1 1515.080484746099046 1894.815230224111929 12.00000000000000178 0 0 1 0 -5.99999999999997069 0 1 I I #
point $-1 -1 $-1 1515.080484746099046 1888.815230224111929 12.00000000000000178 #
coedge $-1 -1 $-1 $450 $526 $523 $542 reversed $75 $-1 #
coedge $-1 -1 $-1 $543 $544 $450 $498 forward $521 $-1 #
edge $545 -1 $-1 $503 0 $546 1.570796326794896558 $497 $547 forward @7 unknown #
coedge $-1 -1 $-1 $513 $451 $544 $548 forward $501 $-1 #
coedge $-1 -1 $-1 $451 $513 $453 $505 reversed $501 $-1 #
loop $-1 -1 $-1 $-1 $451 $520 #
DXID-attrib $-1 -1 $-1 $-1 $452 @10 ASM ENTITY @36 2ba00d78-e8ec-4713-ba84-e335f484e0d3 #
vertex $-1 -1 $-1 $498 $549 #
straight-curve $-1 -1 $-1 1163.413818079432303 1882.815230224111929 0 -0 -10 -0 F -0 F 4.966666666666668561 #
edge $550 -1 $-1 $457 0 $516 1.200000000000000178 $453 $551 forward @7 tangent #
face $552 -1 $-1 $460 $455 $5 $-1 $553 forward single #
point $-1 -1 $-1 1163.413818079432303 1882.815230224111929 0 #
DXID-attrib $-1 -1 $-1 $-1 $459 @10 ASM ENTITY @36 cf8df4cb-b97d-46da-b816-8828b9cbac71 #
straight-curve $-1 -1 $-1 1157.413818079432076 1888.815230224111929 0 0 0 10 I I #
DXID-attrib $-1 -1 $-1 $-1 $460 @10 ASM ENTITY @36 eaf3be42-ab82-4c81-9efd-7f69962f5ef2 #
plane-surface $-1 -1 $-1 1157.080484746098819 1888.815230224111929 0 0 -1 0 10 0 0 forward_v I I I I #
coedge $-1 -1 $-1 $554 $466 $555 $556 forward $88 $-1 #
coedge $-1 -1 $-1 $500 $499 $466 $514 reversed $501 $-1 #
edge $557 -1 $-1 $516 -0 $558 4.966666666666668561 $513 $559 forward @7 unknown #
DXID-attrib $-1 -1 $-1 $-1 $468 @10 ASM ENTITY @36 5df2299c-fb67-4703-a8f7-605274e6fb24 #
vertex $-1 -1 $-1 $514 $560 #
ellipse-curve $-1 -1 $-1 1157.413818079432076 1882.815230224111929 12.00000000000000178 0 0 -1 -5.999999999999984013 -0 -0 1 I I #
point $-1 -1 $-1 1157.413818079432076 1888.815230224111929 12.00000000000000178 #
DXID-attrib $-1 -1 $-1 $-1 $474 @10 ASM ENTITY @36 8ddf7304-216f-454b-8a0c-31021de09514 #
face $561 -1 $-1 $506 $501 $5 $-1 $562 forward single #
loop $-1 -1 $-1 $-1 $497 $474 #
cone-surface $-1 -1 $-1 1169.413818079432076 1833.148563557445186 0 0 0 1 -5.999999999999978684 0 0 1 I I 0 1 5.999999999999978684 forward I I I I #
coedge $-1 -1 $-1 $563 $564 $496 $542 forward $475 $-1 #
coedge $-1 -1 $-1 $565 $477 $479 $529 forward $429 $-1 #
coedge $-1 -1 $-1 $477 $565 $563 $566 reversed $429 $-1 #
coedge $-1 -1 $-1 $496 $480 $477 $527 reversed $75 $-1 #
edge $567 -1 $-1 $568 0 $531 1.570796326794896558 $477 $569 forward @7 unknown #
coedge $-1 -1 $-1 $479 $478 $570 $571 reversed $383 $-1 #
edge $572 -1 $-1 $531 0 $573 1.200000000000000178 $524 $574 forward @7 tangent #
DXID-attrib $-1 -1 $-1 $-1 $481 @10 ASM ENTITY @36 b7407a3d-6dfc-4ad6-97e4-38da8907ee0c #
vertex $-1 -1 $-1 $481 $575 #
straight-curve $-1 -1 $-1 1508.747151412765334 1833.148563557445186 0 0 10 0 F 0 F 4.966666666666696983 #
coedge $-1 -1 $-1 $487 $570 $482 $534 forward $88 $-1 #
edge $576 -1 $-1 $536 1.570796326794896558 $490 3.141592653589793116 $482 $577 forward @7 unknown #
DXID-attrib $-1 -1 $-1 $-1 $483 @10 ASM ENTITY @36 c0faaf15-22e1-4acd-be70-72e5f8873f05 #
vertex $-1 -1 $-1 $534 $578 #
straight-curve $-1 -1 $-1 1508.747151412765334 1882.815230224112156 0 0 0 10 I I #
point $-1 -1 $-1 1508.747151412765334 1882.815230224112156 0 #
DXID-attrib $-1 -1 $-1 $-1 $488 @10 ASM ENTITY @36 71c206c4-3350-4fc0-8566-4c4c0ca8966e #
straight-curve $-1 -1 $-1 1514.747151412765334 1888.815230224111929 12.00000000000000178 10 0 0 I I #
point $-1 -1 $-1 1514.747151412765334 1888.815230224111929 12.00000000000000178 #
edge $579 -1 $-1 $546 0 $568 33.3333333333333286 $523 $580 forward @7 unknown #
coedge $-1 -1 $-1 $555 $497 $564 $581 forward $521 $-1 #
coedge $-1 -1 $-1 $497 $555 $499 $548 reversed $521 $-1 #
DXID-attrib $-1 -1 $-1 $-1 $498 @10 ASM ENTITY @36 2782d967-2a7f-474c-b5c2-5c05fa40d301 #
vertex $-1 -1 $-1 $542 $582 #
ellipse-curve $-1 -1 $-1 1169.413818079432076 1833.148563557445186 0 0 0 1 -5.999999999999978684 0 0 1 F 0 F 1.570796326794896558 #
edge $583 -1 $-1 $503 0 $558 1.200000000000000178 $499 $584 forward @7 tangent #
point $-1 -1 $-1 1163.413818079432303 1833.148563557445186 0 #
DXID-attrib $-1 -1 $-1 $-1 $505 @10 ASM ENTITY @36 bcbccb0b-1dc5-4ba2-9a08-240c3e7d9cc1 #
straight-curve $-1 -1 $-1 1163.413818079432303 1882.815230224111929 0 0 0 10 I I #
DXID-attrib $-1 -1 $-1 $-1 $506 @10 ASM ENTITY @36 eb6d361e-d058-4f35-899c-940ed91452ae #
cone-surface $-1 -1 $-1 1157.413818079432076 1882.815230224111929 0 0 0 1 -5.999999999999984013 0 0 1 I I 0 -1 5.999999999999984013 forward I I I I #
coedge $-1 -1 $-1 $585 $512 $586 $587 forward $88 $-1 #
coedge $-1 -1 $-1 $544 $543 $512 $556 reversed $521 $-1 #
edge $588 -1 $-1 $558 0 $589 1.570796326794896558 $555 $590 forward @7 unknown #
DXID-attrib $-1 -1 $-1 $-1 $514 @10 ASM ENTITY @36 9da55094-d967-47e9-bb75-4eb23c24df15 #
vertex $-1 -1 $-1 $556 $591 #
straight-curve $-1 -1 $-1 1163.413818079432303 1882.815230224111929 12.00000000000000178 -0 -10 -0 I I #
point $-1 -1 $-1 1163.413818079432303 1882.815230224111929 12.00000000000000178 #
DXID-attrib $-1 -1 $-1 $-1 $520 @10 ASM ENTITY @36 93f85841-b006-4823-ad0e-197626a0ffff #
plane-surface $-1 -1 $-1 1163.413818079432303 1882.815230224111929 0 -1 0 0 -0 -10 -0 forward_v I I I I #
coedge $-1 -1 $-1 $586 $523 $525 $566 forward $475 $-1 #
coedge $-1 -1 $-1 $523 $586 $543 $581 reversed $475 $-1 #
coedge $-1 -1 $-1 $525 $524 $585 $592 reversed $429 $-1 #
edge $593 -1 $-1 $568 0 $594 1.200000000000000178 $563 $595 forward @7 tangent #
DXID-attrib $-1 -1 $-1 $-1 $527 @10 ASM ENTITY @36 3fdacdf9-647a-477c-809c-a2d273ce10ae #
vertex $-1 -1 $-1 $527 $596 #
ellipse-curve $-1 -1 $-1 1502.747151412765561 1833.148563557445186 0 0 0 1 0 -5.99999999999992184 0 1 F 0 F 1.570796326794896558 #
coedge $-1 -1 $-1 $533 $585 $528 $571 forward $88 $-1 #
edge $597 -1 $-1 $573 0 $536 4.966666666666696983 $528 $598 forward @7 unknown #
DXID-attrib $-1 -1 $-1 $-1 $529 @10 ASM ENTITY @36 deb1e5b2-0128-4e14-9212-2f88f04a5973 #
vertex $-1 -1 $-1 $571 $599 #
straight-curve $-1 -1 $-1 1508.747151412765334 1833.148563557445186 0 0 0 10 I I #
point $-1 -1 $-1 1508.747151412765334 1833.148563557445186 0 #
DXID-attrib $-1 -1 $-1 $-1 $534 @10 ASM ENTITY @36 82e3b326-182b-4312-8fe4-30f4f52811f9 #
ellipse-curve $-1 -1 $-1 1514.747151412765334 1882.815230224112156 12.00000000000000178 0 0 -1 -0 -5.99999999999992184 -0 1 I I #
point $-1 -1 $-1 1508.747151412765334 1882.815230224112156 12.00000000000000178 #
DXID-attrib $-1 -1 $-1 $-1 $542 @10 ASM ENTITY @36 6c7f4a23-f62f-47dc-b6ae-ba5949a065c6 #
straight-curve $-1 -1 $-1 1169.413818079432076 1827.148563557444959 0 10 0 0 F 0 F 33.3333333333333286 #
edge $600 -1 $-1 $546 0 $589 1.200000000000000178 $543 $601 forward @7 tangent #
point $-1 -1 $-1 1169.413818079432076 1827.148563557444959 0 #
DXID-attrib $-1 -1 $-1 $-1 $548 @10 ASM ENTITY @36 b9d2a1fe-914a-4bb8-a148-ac23c9c8de4b #
straight-curve $-1 -1 $-1 1163.413818079432303 1833.148563557445186 0 0 0 10 I I #
coedge $-1 -1 $-1 $570 $554 $565 $592 forward $88 $-1 #
coedge $-1 -1 $-1 $564 $563 $554 $587 reversed $475 $-1 #
edge $602 -1 $-1 $589 0 $594 33.3333333333333286 $586 $603 forward @7 unknown #
DXID-attrib $-1 -1 $-1 $-1 $556 @10 ASM ENTITY @36 aaac047c-3160-41ac-9c70-67a4ee6bd83b #
vertex $-1 -1 $-1 $587 $604 #
ellipse-curve $-1 -1 $-1 1169.413818079432076 1833.148563557445186 12.00000000000000178 0 0 1 -5.999999999999978684 0 0 1 I I #
point $-1 -1 $-1 1163.413818079432303 1833.148563557445186 12.00000000000000178 #
edge $605 -1 $-1 $594 0 $573 1.570796326794896558 $565 $606 forward @7 unknown #
DXID-attrib $-1 -1 $-1 $-1 $566 @10 ASM ENTITY @36 c1f0c876-a37e-43ea-956d-f5cb72195647 #
vertex $-1 -1 $-1 $592 $607 #
straight-curve $-1 -1 $-1 1502.747151412765561 1827.148563557444959 0 0 0 10 I I #
point $-1 -1 $-1 1502.747151412765561 1827.148563557444959 0 #
DXID-attrib $-1 -1 $-1 $-1 $571 @10 ASM ENTITY @36 b0d86993-8baa-496e-aacb-706d29767c45 #
straight-curve $-1 -1 $-1 1508.747151412765334 1833.148563557445186 12.00000000000000178 0 10 0 I I #
point $-1 -1 $-1 1508.747151412765334 1833.148563557445186 12.00000000000000178 #
DXID-attrib $-1 -1 $-1 $-1 $581 @10 ASM ENTITY @36 3282afbe-cf96-4232-98ac-1c5684c73d4d #
straight-curve $-1 -1 $-1 1169.413818079432076 1827.148563557444959 0 0 0 10 I I #
DXID-attrib $-1 -1 $-1 $-1 $587 @10 ASM ENTITY @36 71ee7942-6694-440f-a404-9e19ad839c8d #
straight-curve $-1 -1 $-1 1169.413818079432076 1827.148563557444959 12.00000000000000178 10 0 0 I I #
point $-1 -1 $-1 1169.413818079432076 1827.148563557444959 12.00000000000000178 #
DXID-attrib $-1 -1 $-1 $-1 $592 @10 ASM ENTITY @36 7d1751eb-6ec2-4537-acf5-b3bcc74c19cd #
ellipse-curve $-1 -1 $-1 1502.747151412765561 1833.148563557445186 12.00000000000000178 0 0 1 0 -5.99999999999992184 0 1 I I #
point $-1 -1 $-1 1502.747151412765561 1827.148563557444959 12.00000000000000178 #
End-of-ACIS-data 