700 0 1 0           
30 Autodesk Translation Framework 20 ASM 229.3.0.65535 NT 24 Wed May 24 15:04:13 2023 
1 9.999999999999999547e-07 1.000000000000000036e-10 
body $1 -1 $-1 $2 $-1 $3 #
rgb_color-st-attrib $-1 -1 $4 $-1 $0 0.7490196078431372584 0.7490196078431372584 0.7490196078431372584 #
lump $-1 -1 $-1 $-1 $5 $0 #
transform $-1 -1 1 0 0 0 1 0 0 0 1 0 0 0 1 no_rotate no_reflect no_shear #
DXID-attrib $-1 -1 $-1 $1 $0 @10 ASM ENTITY @114 SOPORTE_LATERAL_D_MESA_1.IPT|:|6A13C9A49BB87373E106A5EB8E752F7550F78E9F|:|DA4B9237BACCCDF19C0760CAB7AEC4A8359010B0 #
shell $-1 -1 $-1 $-1 $-1 $6 $-1 $2 #
face $7 -1 $-1 $8 $9 $5 $-1 $10 forward single #
DXID-attrib $-1 -1 $-1 $-1 $6 @10 ASM ENTITY @36 92a08dcb-7dda-4117-b2ad-c6b13c43a9e1 #
face $11 -1 $-1 $12 $13 $5 $-1 $14 forward single #
loop $-1 -1 $-1 $15 $16 $6 #
cone-surface $-1 -1 $-1 -18.50048899624226806 43.38671185654675355 0 0 0 1 -1.500000000000001332 0 0 1 I I 0 -1 1.500000000000001332 forward I I I I #
DXID-attrib $-1 -1 $-1 $-1 $8 @10 ASM ENTITY @36 1983cbe4-7fc5-4417-b0ed-459d5279d33b #
face $17 -1 $-1 $18 $19 $5 $-1 $20 forward single #
loop $-1 -1 $-1 $21 $22 $8 #
cone-surface $-1 -1 $-1 -18.50048899624226806 8.148616618451285376 0 0 0 1 -1.500000000000001332 0 0 1 I I 0 -1 1.500000000000001332 forward I I I I #
loop $-1 -1 $-1 $-1 $23 $6 #
coedge $-1 -1 $-1 $16 $16 $24 $25 reversed $9 $-1 #
DXID-attrib $-1 -1 $-1 $-1 $12 @10 ASM ENTITY @36 fab48ce2-aeff-41f8-816d-46bdf29c8f41 #
face $26 -1 $-1 $27 $28 $5 $-1 $29 forward single #
loop $-1 -1 $-1 $30 $31 $12 #
cone-surface $-1 -1 $-1 18.49951100375818669 43.38671185654675355 0 0 0 1 -1.500000000000001332 0 0 1 I I 0 -1 1.500000000000001332 forward I I I I #
loop $-1 -1 $-1 $-1 $32 $8 #
coedge $-1 -1 $-1 $22 $22 $33 $34 reversed $13 $-1 #
coedge $-1 -1 $-1 $23 $23 $35 $36 forward $15 $-1 #
coedge $-1 -1 $-1 $24 $24 $16 $25 forward $37 $-1 #
edge $38 -1 $-1 $39 -3.141592653589793116 $39 3.141592653589793116 $16 $40 forward @7 unknown #
DXID-attrib $-1 -1 $-1 $-1 $18 @10 ASM ENTITY @36 07f2e282-1a86-493a-9c93-14c2e64134e7 #
face $41 -1 $-1 $42 $43 $5 $-1 $44 forward single #
loop $-1 -1 $-1 $45 $46 $18 #
cone-surface $-1 -1 $-1 18.49951100375818669 8.148616618451285376 0 0 0 1 -1.500000000000001332 0 0 1 I I 0 -1 1.500000000000001332 forward I I I I #
loop $-1 -1 $-1 $-1 $47 $12 #
coedge $-1 -1 $-1 $31 $31 $48 $49 reversed $19 $-1 #
coedge $-1 -1 $-1 $32 $32 $50 $51 forward $21 $-1 #
coedge $-1 -1 $-1 $33 $33 $22 $34 forward $52 $-1 #
edge $53 -1 $-1 $54 -3.141592653589793116 $54 3.141592653589793116 $22 $55 forward @7 unknown #
coedge $-1 -1 $-1 $35 $35 $23 $36 reversed $56 $-1 #
edge $57 -1 $-1 $58 -3.141592653589793116 $58 3.141592653589793116 $23 $59 forward @7 unknown #
loop $-1 -1 $-1 $-1 $24 $60 #
DXID-attrib $-1 -1 $-1 $-1 $25 @10 ASM ENTITY @36 7d59630d-daec-46a5-b07c-97c037cfb368 #
vertex $-1 -1 $-1 $25 $61 #
ellipse-curve $-1 -1 $-1 -18.50048899624226806 43.38671185654675355 12.00000000000000178 0 0 -1 -1.500000000000001332 -0 -0 1 I I #
DXID-attrib $-1 -1 $-1 $-1 $27 @10 ASM ENTITY @36 462e648e-ae97-437d-8f44-cb76b118dfe1 #
face $62 -1 $-1 $63 $64 $5 $-1 $65 forward single #
loop $-1 -1 $-1 $66 $67 $27 #
cone-surface $-1 -1 $-1 -18.50048899624226806 25.76766423749916157 0 0 0 1 -1.500000000000001332 0 0 1 I I 0 -1 1.500000000000001332 forward I I I I #
loop $-1 -1 $-1 $-1 $68 $18 #
coedge $-1 -1 $-1 $46 $46 $69 $70 reversed $28 $-1 #
coedge $-1 -1 $-1 $47 $47 $71 $72 forward $30 $-1 #
coedge $-1 -1 $-1 $48 $48 $31 $49 forward $73 $-1 #
edge $74 -1 $-1 $75 -3.141592653589793116 $75 3.141592653589793116 $31 $76 forward @7 unknown #
coedge $-1 -1 $-1 $50 $50 $32 $51 reversed $77 $-1 #
edge $78 -1 $-1 $79 -3.141592653589793116 $79 3.141592653589793116 $32 $80 forward @7 unknown #
loop $-1 -1 $-1 $37 $33 $60 #
DXID-attrib $-1 -1 $-1 $-1 $34 @10 ASM ENTITY @36 c6f647bf-626a-4efa-a8a0-bb06fbec63d9 #
vertex $-1 -1 $-1 $34 $81 #
ellipse-curve $-1 -1 $-1 -18.50048899624226806 8.148616618451285376 12.00000000000000178 0 0 -1 -1.500000000000001332 -0 -0 1 I I #
loop $-1 -1 $-1 $-1 $35 $82 #
DXID-attrib $-1 -1 $-1 $-1 $36 @10 ASM ENTITY @36 1d7ac8c1-9460-426f-b172-d5364084a45f #
vertex $-1 -1 $-1 $36 $83 #
ellipse-curve $-1 -1 $-1 -18.50048899624226806 43.38671185654675355 0 0 0 -1 -1.500000000000001332 -0 -0 1 I I #
face $84 -1 $-1 $82 $85 $5 $-1 $86 forward single #
point $-1 -1 $-1 -17.00048899624221121 43.38671185654675355 12.00000000000000178 #
DXID-attrib $-1 -1 $-1 $-1 $42 @10 ASM ENTITY @36 d1ccb9b9-8280-45a2-aac4-1fe9eb042cb8 #
face $87 -1 $-1 $88 $89 $5 $-1 $90 forward single #
loop $-1 -1 $-1 $91 $92 $42 #
cone-surface $-1 -1 $-1 18.49951100375818669 25.76766423749916157 0 0 0 1 -1.500000000000001332 0 0 1 I I 0 -1 1.500000000000001332 forward I I I I #
loop $-1 -1 $-1 $-1 $93 $27 #
coedge $-1 -1 $-1 $67 $67 $94 $95 reversed $43 $-1 #
coedge $-1 -1 $-1 $68 $68 $96 $97 forward $45 $-1 #
coedge $-1 -1 $-1 $69 $69 $46 $70 forward $98 $-1 #
edge $99 -1 $-1 $100 -3.141592653589793116 $100 3.141592653589793116 $46 $101 forward @7 unknown #
coedge $-1 -1 $-1 $71 $71 $47 $72 reversed $102 $-1 #
edge $103 -1 $-1 $104 -3.141592653589793116 $104 3.141592653589793116 $47 $105 forward @7 unknown #
loop $-1 -1 $-1 $52 $48 $60 #
DXID-attrib $-1 -1 $-1 $-1 $49 @10 ASM ENTITY @36 75bb7f66-3670-46d8-aba0-5e1665874e4a #
vertex $-1 -1 $-1 $49 $106 #
ellipse-curve $-1 -1 $-1 18.49951100375818669 43.38671185654675355 12.00000000000000178 0 0 -1 -1.500000000000001332 -0 -0 1 I I #
loop $-1 -1 $-1 $56 $50 $82 #
DXID-attrib $-1 -1 $-1 $-1 $51 @10 ASM ENTITY @36 0586d55c-7ad4-4f8f-affc-358e9c2945cb #
vertex $-1 -1 $-1 $51 $107 #
ellipse-curve $-1 -1 $-1 -18.50048899624226806 8.148616618451285376 0 0 0 -1 -1.500000000000001332 -0 -0 1 I I #
point $-1 -1 $-1 -17.00048899624221121 8.148616618451285376 12.00000000000000178 #
face $108 -1 $-1 $-1 $109 $5 $-1 $110 reversed single #
point $-1 -1 $-1 -17.00048899624221121 43.38671185654675355 0 #
DXID-attrib $-1 -1 $-1 $-1 $60 @10 ASM ENTITY @36 5c2f1029-25ea-4260-bad1-6b543a761b31 #
loop $-1 -1 $-1 $111 $112 $60 #
plane-surface $-1 -1 $-1 -0.0004889962420406845922 6.839092808927489386 12.00000000000000178 0 0 1 10 0 0 forward_v I I I I #
DXID-attrib $-1 -1 $-1 $-1 $63 @10 ASM ENTITY @36 7033bebd-df71-4857-aafe-0f7f6b63bde6 #
face $113 -1 $-1 $114 $115 $5 $-1 $116 forward single #
loop $-1 -1 $-1 $-1 $117 $63 #
cone-surface $-1 -1 $-1 58.57600772667524325 63.50575947559434553 0 0 0 1 4.473739644138069238 2.232857719709822497 0 1 I I 0 1 5.000000000000036415 forward I I I I #
loop $-1 -1 $-1 $-1 $118 $42 #
coedge $-1 -1 $-1 $92 $92 $119 $120 reversed $64 $-1 #
coedge $-1 -1 $-1 $93 $93 $121 $122 forward $66 $-1 #
coedge $-1 -1 $-1 $94 $94 $67 $95 forward $123 $-1 #
edge $124 -1 $-1 $125 -3.141592653589793116 $125 3.141592653589793116 $67 $126 forward @7 unknown #
coedge $-1 -1 $-1 $96 $96 $68 $97 reversed $127 $-1 #
edge $128 -1 $-1 $129 -3.141592653589793116 $129 3.141592653589793116 $68 $130 forward @7 unknown #
loop $-1 -1 $-1 $73 $69 $60 #
DXID-attrib $-1 -1 $-1 $-1 $70 @10 ASM ENTITY @36 24936bac-7b4d-4b45-bb49-d584d2733b19 #
vertex $-1 -1 $-1 $70 $131 #
ellipse-curve $-1 -1 $-1 18.49951100375818669 8.148616618451285376 12.00000000000000178 0 0 -1 -1.500000000000001332 -0 -0 1 I I #
loop $-1 -1 $-1 $77 $71 $82 #
DXID-attrib $-1 -1 $-1 $-1 $72 @10 ASM ENTITY @36 f97d8933-c545-4341-8e4b-a9f0ecc002df #
vertex $-1 -1 $-1 $72 $132 #
ellipse-curve $-1 -1 $-1 18.49951100375818669 43.38671185654675355 0 0 0 -1 -1.500000000000001332 -0 -0 1 I I #
point $-1 -1 $-1 19.99951100375824353 43.38671185654675355 12.00000000000000178 #
point $-1 -1 $-1 -17.00048899624221121 8.148616618451285376 0 #
DXID-attrib $-1 -1 $-1 $-1 $82 @10 ASM ENTITY @36 f7756919-51b0-4699-83c1-7641f487cf31 #
loop $-1 -1 $-1 $133 $134 $82 #
plane-surface $-1 -1 $-1 -0.0004889962420406845922 6.839092808927489386 0 0 0 1 10 0 0 forward_v I I I I #
loop $-1 -1 $-1 $123 $119 $60 #
coedge $-1 -1 $-1 $135 $136 $137 $138 forward $85 $-1 #
DXID-attrib $-1 -1 $-1 $-1 $88 @10 ASM ENTITY @36 5607729b-9043-4e37-a2d7-f6dd8a70c0da #
face $139 -1 $-1 $140 $141 $5 $-1 $142 forward single #
loop $-1 -1 $-1 $-1 $143 $88 #
plane-surface $-1 -1 $-1 119.7148103483414161 -47.59150588023913997 0 0.8944271909999154113 0.4472135954999588159 0 -4.472135954999588492 8.944271909999153891 0 forward_v I I I I #
coedge $-1 -1 $-1 $144 $145 $146 $147 forward $89 $-1 #
coedge $-1 -1 $-1 $118 $118 $148 $149 forward $91 $-1 #
coedge $-1 -1 $-1 $119 $119 $92 $120 forward $111 $-1 #
edge $150 -1 $-1 $151 -3.141592653589793116 $151 3.141592653589793116 $92 $152 forward @7 unknown #
coedge $-1 -1 $-1 $121 $121 $93 $122 reversed $153 $-1 #
edge $154 -1 $-1 $155 -3.141592653589793116 $155 3.141592653589793116 $93 $156 forward @7 unknown #
loop $-1 -1 $-1 $98 $94 $60 #
DXID-attrib $-1 -1 $-1 $-1 $95 @10 ASM ENTITY @36 f78a2d04-86e3-4d19-8d8e-0e465b04536d #
vertex $-1 -1 $-1 $95 $157 #
ellipse-curve $-1 -1 $-1 -18.50048899624226806 25.76766423749916157 12.00000000000000178 0 0 -1 -1.500000000000001332 -0 -0 1 I I #
loop $-1 -1 $-1 $102 $96 $82 #
DXID-attrib $-1 -1 $-1 $-1 $97 @10 ASM ENTITY @36 6ea215a7-396e-4957-ac95-ec059f746530 #
vertex $-1 -1 $-1 $97 $158 #
ellipse-curve $-1 -1 $-1 18.49951100375818669 8.148616618451285376 0 0 0 -1 -1.500000000000001332 -0 -0 1 I I #
point $-1 -1 $-1 19.99951100375824353 8.148616618451285376 12.00000000000000178 #
point $-1 -1 $-1 19.99951100375824353 43.38671185654675355 0 #
loop $-1 -1 $-1 $153 $148 $82 #
coedge $-1 -1 $-1 $146 $159 $160 $161 reversed $109 $-1 #
coedge $-1 -1 $-1 $162 $112 $163 $164 forward $85 $-1 #
coedge $-1 -1 $-1 $112 $165 $166 $167 forward $85 $-1 #
coedge $-1 -1 $-1 $168 $169 $112 $138 reversed $170 $-1 #
edge $171 -1 $-1 $172 0 $173 11.71529934458345679 $137 $174 forward @7 unknown #
DXID-attrib $-1 -1 $-1 $-1 $114 @10 ASM ENTITY @36 8126eaa2-97b9-445c-a0ca-67a022d76a66 #
face $175 -1 $-1 $176 $177 $5 $-1 $178 forward single #
loop $-1 -1 $-1 $-1 $179 $114 #
cone-surface $-1 -1 $-1 115.2426743933418152 -49.82757385773908254 0 0 0 1 -0.0116683386366387299 -4.999986384968805986 0 1 I I 0 1 4.999999999999996447 forward I I I I #
coedge $-1 -1 $-1 $180 $181 $182 $183 forward $115 $-1 #
coedge $-1 -1 $-1 $166 $117 $168 $184 forward $89 $-1 #
coedge $-1 -1 $-1 $117 $166 $180 $185 reversed $89 $-1 #
coedge $-1 -1 $-1 $182 $134 $117 $147 reversed $109 $-1 #
edge $186 -1 $-1 $187 0.000717706750271744718 $188 1.107866424544336814 $117 $189 forward @7 unknown #
coedge $-1 -1 $-1 $148 $148 $118 $149 reversed $133 $-1 #
edge $190 -1 $-1 $191 -3.141592653589793116 $191 3.141592653589793116 $118 $192 forward @7 unknown #
DXID-attrib $-1 -1 $-1 $-1 $120 @10 ASM ENTITY @36 a6353fc3-e2c1-4156-8696-cf6ebec5cd95 #
vertex $-1 -1 $-1 $120 $193 #
ellipse-curve $-1 -1 $-1 18.49951100375818669 25.76766423749916157 12.00000000000000178 0 0 -1 -1.500000000000001332 -0 -0 1 I I #
loop $-1 -1 $-1 $127 $121 $82 #
DXID-attrib $-1 -1 $-1 $-1 $122 @10 ASM ENTITY @36 f54968c1-bb15-42ce-b04e-d7c1752918c1 #
vertex $-1 -1 $-1 $122 $194 #
ellipse-curve $-1 -1 $-1 -18.50048899624226806 25.76766423749916157 0 0 0 -1 -1.500000000000001332 -0 -0 1 I I #
point $-1 -1 $-1 -17.00048899624221121 25.76766423749916157 12.00000000000000178 #
point $-1 -1 $-1 19.99951100375824353 8.148616618451285376 0 #
coedge $-1 -1 $-1 $134 $195 $196 $197 reversed $109 $-1 #
coedge $-1 -1 $-1 $169 $168 $134 $161 forward $170 $-1 #
edge $198 -1 $-1 $188 0 $199 11.71529934458345679 $160 $200 forward @7 unknown #
coedge $-1 -1 $-1 $201 $135 $202 $203 forward $85 $-1 #
coedge $-1 -1 $-1 $204 $205 $135 $164 reversed $206 $-1 #
edge $207 -1 $-1 $173 0.0007177067503193140883 $208 1.107866424544384332 $163 $209 forward @7 unknown #
coedge $-1 -1 $-1 $136 $210 $211 $212 forward $85 $-1 #
coedge $-1 -1 $-1 $145 $144 $136 $167 reversed $89 $-1 #
edge $213 -1 $-1 $214 0.000717706750271744718 $172 1.107866424544336814 $166 $215 forward @7 unknown #
coedge $-1 -1 $-1 $160 $137 $144 $184 reversed $170 $-1 #
coedge $-1 -1 $-1 $137 $160 $204 $216 forward $170 $-1 #
loop $-1 -1 $-1 $-1 $160 $217 #
DXID-attrib $-1 -1 $-1 $-1 $138 @10 ASM ENTITY @36 c5114cbd-bb68-4968-97bc-76c3b6c50c9f #
vertex $-1 -1 $-1 $184 $218 #
vertex $-1 -1 $-1 $164 $219 #
straight-curve $-1 -1 $-1 58.57600772667524325 68.50575947559406131 12.00000000000000178 -10 0 0 I I #
DXID-attrib $-1 -1 $-1 $-1 $140 @10 ASM ENTITY @36 8c053c76-3ebd-4b11-adbd-a40d51ef6f32 #
face $220 -1 $-1 $221 $222 $5 $-1 $223 forward single #
loop $-1 -1 $-1 $-1 $224 $140 #
plane-surface $-1 -1 $-1 -115.2436523858258965 -54.82757385773879832 0 0 -1 0 10 0 0 forward_v I I I I #
coedge $-1 -1 $-1 $225 $226 $227 $228 forward $141 $-1 #
coedge $-1 -1 $-1 $211 $143 $145 $185 forward $115 $-1 #
coedge $-1 -1 $-1 $143 $211 $225 $229 reversed $115 $-1 #
coedge $-1 -1 $-1 $227 $146 $143 $183 reversed $109 $-1 #
edge $230 -1 $-1 $231 0 $187 12.67105187249882547 $143 $232 forward @7 unknown #
edge $233 -1 $-1 $188 0 $172 1.200000000000000178 $168 $234 forward @7 tangent #
edge $235 -1 $-1 $187 0 $214 1.200000000000000178 $180 $236 forward @7 tangent #
DXID-attrib $-1 -1 $-1 $-1 $147 @10 ASM ENTITY @36 9d0ee371-de3a-47c2-adc5-28c92178ccc8 #
vertex $-1 -1 $-1 $147 $237 #
vertex $-1 -1 $-1 $147 $238 #
ellipse-curve $-1 -1 $-1 58.57600772667524325 63.50575947559434553 0 0 0 1 4.473739644138069238 2.232857719709822497 0 1 F 0.000717706750271744718 F 1.107866424544336814 #
DXID-attrib $-1 -1 $-1 $-1 $149 @10 ASM ENTITY @36 cd503511-0a12-430a-b439-82db495193a8 #
vertex $-1 -1 $-1 $149 $239 #
ellipse-curve $-1 -1 $-1 18.49951100375818669 25.76766423749916157 0 0 0 -1 -1.500000000000001332 -0 -0 1 I I #
point $-1 -1 $-1 19.99951100375824353 25.76766423749916157 12.00000000000000178 #
point $-1 -1 $-1 -17.00048899624221121 25.76766423749916157 0 #
coedge $-1 -1 $-1 $159 $240 $241 $242 reversed $109 $-1 #
coedge $-1 -1 $-1 $205 $204 $159 $197 forward $206 $-1 #
edge $243 -1 $-1 $199 0.0007177067503193140883 $244 1.107866424544384332 $196 $245 forward @7 unknown #
DXID-attrib $-1 -1 $-1 $-1 $161 @10 ASM ENTITY @36 ce8497a1-1d89-487d-8925-15f3350bc9c0 #
vertex $-1 -1 $-1 $197 $246 #
straight-curve $-1 -1 $-1 58.57600772667524325 68.50575947559406131 0 -10 0 0 F 0 F 11.71529934458345679 #
coedge $-1 -1 $-1 $247 $162 $248 $249 forward $85 $-1 #
coedge $-1 -1 $-1 $250 $251 $162 $203 reversed $252 $-1 #
edge $253 -1 $-1 $208 0 $254 12.67105187249885034 $202 $255 forward @7 unknown #
coedge $-1 -1 $-1 $196 $163 $169 $216 reversed $206 $-1 #
coedge $-1 -1 $-1 $163 $196 $250 $256 forward $206 $-1 #
loop $-1 -1 $-1 $-1 $196 $257 #
DXID-attrib $-1 -1 $-1 $-1 $164 @10 ASM ENTITY @36 61b1f903-15b1-4ace-b31f-08e47de1e5e3 #
vertex $-1 -1 $-1 $203 $258 #
ellipse-curve $-1 -1 $-1 -58.57698571915932462 63.50575947559434553 12.00000000000000178 0 0 1 0.003588533443519227074 4.999998712242680554 0 1 I I #
coedge $-1 -1 $-1 $165 $247 $259 $260 forward $85 $-1 #
coedge $-1 -1 $-1 $181 $180 $165 $212 reversed $115 $-1 #
edge $261 -1 $-1 $262 0 $214 12.67105187249882547 $211 $263 forward @7 unknown #
DXID-attrib $-1 -1 $-1 $-1 $167 @10 ASM ENTITY @36 09bc7e1d-1952-42e8-8152-23965efc02ed #
vertex $-1 -1 $-1 $167 $264 #
ellipse-curve $-1 -1 $-1 58.57600772667524325 63.50575947559434553 12.00000000000000178 0 0 1 4.473739644138069238 2.232857719709822497 0 1 I I #
edge $265 -1 $-1 $199 0 $173 1.200000000000000178 $169 $266 forward @7 tangent #
face $267 -1 $-1 $60 $170 $5 $-1 $268 forward single #
point $-1 -1 $-1 58.57600772667524325 68.50575947559406131 12.00000000000000178 #
point $-1 -1 $-1 -58.57698571915932462 68.50575947559406131 12.00000000000000178 #
DXID-attrib $-1 -1 $-1 $-1 $176 @10 ASM ENTITY @36 f2dfb472-701b-4b55-8aba-7d96421c146b #
face $269 -1 $-1 $257 $252 $5 $-1 $270 forward single #
loop $-1 -1 $-1 $-1 $271 $176 #
cone-surface $-1 -1 $-1 -115.2436523858258965 -49.82757385773908254 0 0 0 1 -4.46690553767013121 2.246498368023424952 0 1 I I 0 1 4.999999999999999112 forward I I I I #
coedge $-1 -1 $-1 $272 $273 $274 $275 forward $177 $-1 #
coedge $-1 -1 $-1 $259 $179 $181 $229 forward $141 $-1 #
coedge $-1 -1 $-1 $179 $259 $272 $276 reversed $141 $-1 #
coedge $-1 -1 $-1 $274 $182 $179 $228 reversed $109 $-1 #
edge $277 -1 $-1 $278 0.002333669845527314417 $231 2.036777605641255651 $179 $279 forward @7 unknown #
edge $280 -1 $-1 $231 0 $262 1.200000000000000178 $225 $281 forward @7 tangent #
DXID-attrib $-1 -1 $-1 $-1 $183 @10 ASM ENTITY @36 699c097f-8e99-4f21-852f-9a75855bb3ee #
vertex $-1 -1 $-1 $183 $282 #
straight-curve $-1 -1 $-1 119.7148103483414161 -47.59150588023913997 0 -4.472135954999588492 8.944271909999153891 0 F 0 F 12.67105187249882547 #
DXID-attrib $-1 -1 $-1 $-1 $184 @10 ASM ENTITY @36 503e4c8a-8b3e-4b67-ae29-97d801a944f2 #
straight-curve $-1 -1 $-1 58.57600772667524325 68.50575947559406131 0 0 0 10 I I #
DXID-attrib $-1 -1 $-1 $-1 $185 @10 ASM ENTITY @36 90751e7d-fe64-4b79-ba11-90fe9dac467e #
straight-curve $-1 -1 $-1 63.04814368167455996 65.7418274530942881 0 0 0 10 I I #
point $-1 -1 $-1 63.04814368167455996 65.7418274530942881 0 #
point $-1 -1 $-1 58.57600772667524325 68.50575947559406131 0 #
point $-1 -1 $-1 19.99951100375824353 25.76766423749916157 0 #
coedge $-1 -1 $-1 $195 $274 $271 $283 reversed $109 $-1 #
coedge $-1 -1 $-1 $251 $250 $195 $242 forward $252 $-1 #
edge $284 -1 $-1 $244 0 $285 12.67105187249885034 $241 $286 forward @7 unknown #
DXID-attrib $-1 -1 $-1 $-1 $197 @10 ASM ENTITY @36 d4e68661-d859-4617-8785-aa5f50b06995 #
vertex $-1 -1 $-1 $242 $287 #
ellipse-curve $-1 -1 $-1 -58.57698571915932462 63.50575947559434553 0 0 0 1 0.003588533443519227074 4.999998712242680554 0 1 F 0.0007177067503193140883 F 1.107866424544384332 #
point $-1 -1 $-1 -58.57698571915932462 68.50575947559406131 0 #
coedge $-1 -1 $-1 $210 $201 $288 $289 forward $85 $-1 #
coedge $-1 -1 $-1 $290 $291 $201 $249 reversed $222 $-1 #
edge $292 -1 $-1 $254 0.002333669845615974833 $293 2.036777605641293398 $248 $294 forward @7 unknown #
coedge $-1 -1 $-1 $241 $202 $205 $256 reversed $252 $-1 #
coedge $-1 -1 $-1 $202 $241 $290 $295 forward $252 $-1 #
loop $-1 -1 $-1 $-1 $241 $221 #
DXID-attrib $-1 -1 $-1 $-1 $203 @10 ASM ENTITY @36 4f4cf02f-aa64-4da1-9fc3-ee63ec28fc36 #
vertex $-1 -1 $-1 $249 $296 #
straight-curve $-1 -1 $-1 -63.04912167415892554 65.7418274530942881 12.00000000000000178 -4.47213595499957961 -8.94427190999915922 0 I I #
edge $297 -1 $-1 $244 0 $208 1.200000000000000178 $205 $298 forward @7 tangent #
face $299 -1 $-1 $217 $206 $5 $-1 $300 forward single #
point $-1 -1 $-1 -63.04912167415892554 65.7418274530942881 12.00000000000000178 #
coedge $-1 -1 $-1 $226 $225 $210 $260 reversed $141 $-1 #
edge $301 -1 $-1 $302 0.002333669845527314417 $262 2.036777605641255651 $259 $303 forward @7 unknown #
DXID-attrib $-1 -1 $-1 $-1 $212 @10 ASM ENTITY @36 314e6efd-2729-4cb2-a426-465e9da4de45 #
vertex $-1 -1 $-1 $212 $304 #
straight-curve $-1 -1 $-1 119.7148103483414161 -47.59150588023913997 12.00000000000000178 -4.472135954999588492 8.944271909999153891 0 I I #
point $-1 -1 $-1 63.04814368167455996 65.7418274530942881 12.00000000000000178 #
DXID-attrib $-1 -1 $-1 $-1 $216 @10 ASM ENTITY @36 394ea9b6-88ba-4329-b2eb-edf3ee64d90b #
straight-curve $-1 -1 $-1 -58.57698571915932462 68.50575947559406131 0 0 0 10 I I #
DXID-attrib $-1 -1 $-1 $-1 $217 @10 ASM ENTITY @36 aeac217f-213f-4e21-ad0b-eab8fa7b7716 #
plane-surface $-1 -1 $-1 58.57600772667524325 68.50575947559406131 0 0 1 0 -10 0 0 forward_v I I I I #
DXID-attrib $-1 -1 $-1 $-1 $221 @10 ASM ENTITY @36 44051f0c-bbcb-4ada-9830-96ddd0dcb34a #
plane-surface $-1 -1 $-1 -63.04912167415892554 65.7418274530942881 0 -0.8944271909999159664 0.4472135954999579832 0 -4.47213595499957961 -8.94427190999915922 0 forward_v I I I I #
coedge $-1 -1 $-1 $291 $290 $240 $283 forward $222 $-1 #
coedge $-1 -1 $-1 $288 $224 $226 $276 forward $177 $-1 #
coedge $-1 -1 $-1 $224 $288 $291 $305 reversed $177 $-1 #
coedge $-1 -1 $-1 $240 $227 $224 $275 reversed $109 $-1 #
edge $306 -1 $-1 $307 0 $278 23.04863267791677117 $224 $308 forward @7 unknown #
edge $309 -1 $-1 $278 0 $302 1.200000000000000178 $272 $310 forward @7 tangent #
DXID-attrib $-1 -1 $-1 $-1 $228 @10 ASM ENTITY @36 fd3bdcd1-79e0-42a9-ae3e-34d927d19ebd #
vertex $-1 -1 $-1 $228 $311 #
ellipse-curve $-1 -1 $-1 115.2426743933418152 -49.82757385773908254 0 0 0 1 -0.0116683386366387299 -4.999986384968805986 0 1 F 0.002333669845527314417 F 2.036777605641255651 #
DXID-attrib $-1 -1 $-1 $-1 $229 @10 ASM ENTITY @36 add68861-860d-4890-aea1-bc47a2e5c22f #
straight-curve $-1 -1 $-1 119.7148103483414161 -47.59150588023913997 0 0 0 10 I I #
point $-1 -1 $-1 119.7148103483414161 -47.59150588023913997 0 #
edge $312 -1 $-1 $285 0.002333669845615974833 $307 2.036777605641293398 $271 $313 forward @7 unknown #
DXID-attrib $-1 -1 $-1 $-1 $242 @10 ASM ENTITY @36 707de6e6-05f6-41b6-90d1-261c5c530176 #
vertex $-1 -1 $-1 $283 $314 #
straight-curve $-1 -1 $-1 -63.04912167415892554 65.7418274530942881 0 -4.47213595499957961 -8.94427190999915922 0 F 0 F 12.67105187249885034 #
point $-1 -1 $-1 -63.04912167415892554 65.7418274530942881 0 #
coedge $-1 -1 $-1 $273 $272 $247 $289 reversed $177 $-1 #
edge $315 -1 $-1 $293 0 $302 23.04863267791677117 $288 $316 forward @7 unknown #
coedge $-1 -1 $-1 $271 $248 $251 $295 reversed $222 $-1 #
coedge $-1 -1 $-1 $248 $271 $273 $305 forward $222 $-1 #
DXID-attrib $-1 -1 $-1 $-1 $249 @10 ASM ENTITY @36 ce1fc7c5-8b10-4349-b0f0-4f318befd7e1 #
vertex $-1 -1 $-1 $289 $317 #
ellipse-curve $-1 -1 $-1 -115.2436523858258965 -49.82757385773908254 12.00000000000000178 0 0 1 -4.46690553767013121 2.246498368023424952 0 1 I I #
edge $318 -1 $-1 $285 0 $254 1.200000000000000178 $251 $319 forward @7 tangent #
point $-1 -1 $-1 -119.7157883408257817 -47.59150588023942419 12.00000000000000178 #
DXID-attrib $-1 -1 $-1 $-1 $256 @10 ASM ENTITY @36 955406c7-39a7-4911-bc6f-72cda4198f0c #
straight-curve $-1 -1 $-1 -63.04912167415892554 65.7418274530942881 0 0 0 10 I I #
DXID-attrib $-1 -1 $-1 $-1 $257 @10 ASM ENTITY @36 67f685db-43b6-4670-860b-5010fa135186 #
cone-surface $-1 -1 $-1 -58.57698571915932462 63.50575947559434553 0 0 0 1 0.003588533443519227074 4.999998712242680554 0 1 I I 0 1 5.000000000000072831 forward I I I I #
DXID-attrib $-1 -1 $-1 $-1 $260 @10 ASM ENTITY @36 1b3df0f7-9861-4f8c-b2fd-526a6c639ecb #
vertex $-1 -1 $-1 $260 $320 #
ellipse-curve $-1 -1 $-1 115.2426743933418152 -49.82757385773908254 12.00000000000000178 0 0 1 -0.0116683386366387299 -4.999986384968805986 0 1 I I #
point $-1 -1 $-1 119.7148103483414161 -47.59150588023913997 12.00000000000000178 #
edge $321 -1 $-1 $307 0 $293 1.200000000000000178 $291 $322 forward @7 tangent #
DXID-attrib $-1 -1 $-1 $-1 $275 @10 ASM ENTITY @36 9dd3e0ee-c328-4e0a-8af8-17359c940c89 #
vertex $-1 -1 $-1 $275 $323 #
straight-curve $-1 -1 $-1 -115.2436523858258965 -54.82757385773879832 0 10 0 0 F 0 F 23.04863267791677117 #
DXID-attrib $-1 -1 $-1 $-1 $276 @10 ASM ENTITY @36 b140ea7a-e181-454e-983c-cc3221e1eedb #
straight-curve $-1 -1 $-1 115.2426743933418152 -54.82757385773879832 0 0 0 10 I I #
point $-1 -1 $-1 115.2426743933418152 -54.82757385773879832 0 #
DXID-attrib $-1 -1 $-1 $-1 $283 @10 ASM ENTITY @36 4ea1935f-3636-468d-b7f8-bdffab8eeeca #
ellipse-curve $-1 -1 $-1 -115.2436523858258965 -49.82757385773908254 0 0 0 1 -4.46690553767013121 2.246498368023424952 0 1 F 0.002333669845615974833 F 2.036777605641293398 #
point $-1 -1 $-1 -119.7157883408257817 -47.59150588023942419 0 #
DXID-attrib $-1 -1 $-1 $-1 $289 @10 ASM ENTITY @36 9c85e372-9989-48c3-ad65-e595bbf7ab9f #
straight-curve $-1 -1 $-1 -115.2436523858258965 -54.82757385773879832 12.00000000000000178 10 0 0 I I #
point $-1 -1 $-1 -115.2436523858258965 -54.82757385773879832 12.00000000000000178 #
DXID-attrib $-1 -1 $-1 $-1 $295 @10 ASM ENTITY @36 99f04e21-2e7a-4db3-827f-213c29dbd2bf #
straight-curve $-1 -1 $-1 -119.7157883408257817 -47.59150588023942419 0 0 0 10 I I #
point $-1 -1 $-1 115.2426743933418152 -54.82757385773879832 12.00000000000000178 #
DXID-attrib $-1 -1 $-1 $-1 $305 @10 ASM ENTITY @36 cefae730-5063-47ac-866d-c86690637061 #
straight-curve $-1 -1 $-1 -115.2436523858258965 -54.82757385773879832 0 0 0 10 I I #
point $-1 -1 $-1 -115.2436523858258965 -54.82757385773879832 0 #
End-of-ACIS-data 