700 0 1 0           
30 Autodesk Translation Framework 20 ASM 229.3.0.65535 NT 24 Mon May 22 21:05:34 2023 
1 9.999999999999999547e-07 1.000000000000000036e-10 
body $1 -1 $-1 $2 $-1 $3 #
rgb_color-st-attrib $-1 -1 $4 $-1 $0 0.7490196078431372584 0.7490196078431372584 0.7490196078431372584 #
lump $-1 -1 $-1 $-1 $5 $0 #
transform $-1 -1 1 0 0 0 1 0 0 0 1 0 0 0 1 no_rotate no_reflect no_shear #
DXID-attrib $-1 -1 $-1 $1 $0 @10 ASM ENTITY @114 SOPORTE_LATERAL_I_MESA_1.IPT|:|7F682B18EE56325F54DABA51C6EA8B0859EA3C46|:|DA4B9237BACCCDF19C0760CAB7AEC4A8359010B0 #
shell $-1 -1 $-1 $-1 $-1 $6 $-1 $2 #
face $7 -1 $-1 $8 $9 $5 $-1 $10 forward single #
DXID-attrib $-1 -1 $-1 $-1 $6 @10 ASM ENTITY @36 d0c7cd20-27bd-4907-912e-6604dad7d6ac #
face $11 -1 $-1 $12 $13 $5 $-1 $14 forward single #
loop $-1 -1 $-1 $15 $16 $6 #
cone-surface $-1 -1 $-1 985.9042637432770562 2046.186237176761551 0 0 0 1 -1.500000000000001332 0 0 1 I I 0 -1 1.500000000000001332 forward I I I I #
DXID-attrib $-1 -1 $-1 $-1 $8 @10 ASM ENTITY @36 1360301a-6b1f-4ba8-8c3b-f3c303b02101 #
face $17 -1 $-1 $18 $19 $5 $-1 $20 forward single #
loop $-1 -1 $-1 $21 $22 $8 #
cone-surface $-1 -1 $-1 985.9042637432770562 2010.948141938665913 0 0 0 1 -1.500000000000001332 0 0 1 I I 0 -1 1.500000000000001332 forward I I I I #
loop $-1 -1 $-1 $-1 $23 $6 #
coedge $-1 -1 $-1 $16 $16 $24 $25 reversed $9 $-1 #
DXID-attrib $-1 -1 $-1 $-1 $12 @10 ASM ENTITY @36 4a52c29a-9685-4a46-9bd8-91079e89ff7e #
face $26 -1 $-1 $27 $28 $5 $-1 $29 forward single #
loop $-1 -1 $-1 $30 $31 $12 #
cone-surface $-1 -1 $-1 1022.904263743276942 2046.186237176761551 0 0 0 1 -1.500000000000001332 0 0 1 I I 0 -1 1.500000000000001332 forward I I I I #
loop $-1 -1 $-1 $-1 $32 $8 #
coedge $-1 -1 $-1 $22 $22 $33 $34 reversed $13 $-1 #
coedge $-1 -1 $-1 $23 $23 $35 $36 forward $15 $-1 #
coedge $-1 -1 $-1 $24 $24 $16 $25 forward $37 $-1 #
edge $38 -1 $-1 $39 -3.141592653589793116 $39 3.141592653589793116 $16 $40 forward @7 unknown #
DXID-attrib $-1 -1 $-1 $-1 $18 @10 ASM ENTITY @36 600075ba-10ae-408e-8762-4892dcf6ff13 #
face $41 -1 $-1 $42 $43 $5 $-1 $44 forward single #
loop $-1 -1 $-1 $45 $46 $18 #
cone-surface $-1 -1 $-1 1022.904263743276942 2010.948141938665913 0 0 0 1 -1.500000000000001332 0 0 1 I I 0 -1 1.500000000000001332 forward I I I I #
loop $-1 -1 $-1 $-1 $47 $12 #
coedge $-1 -1 $-1 $31 $31 $48 $49 reversed $19 $-1 #
coedge $-1 -1 $-1 $32 $32 $50 $51 forward $21 $-1 #
coedge $-1 -1 $-1 $33 $33 $22 $34 forward $52 $-1 #
edge $53 -1 $-1 $54 -3.141592653589793116 $54 3.141592653589793116 $22 $55 forward @7 unknown #
coedge $-1 -1 $-1 $35 $35 $23 $36 reversed $56 $-1 #
edge $57 -1 $-1 $58 -3.141592653589793116 $58 3.141592653589793116 $23 $59 forward @7 unknown #
loop $-1 -1 $-1 $-1 $24 $60 #
DXID-attrib $-1 -1 $-1 $-1 $25 @10 ASM ENTITY @36 96340af4-b469-483d-bb0f-e113a17dc37b #
vertex $-1 -1 $-1 $25 $61 #
ellipse-curve $-1 -1 $-1 985.9042637432770562 2046.186237176761551 12.00000000000000178 0 0 -1 -1.500000000000001332 -0 -0 1 I I #
DXID-attrib $-1 -1 $-1 $-1 $27 @10 ASM ENTITY @36 2f49668f-b71e-46a0-9eb9-b5a1e4e96b29 #
face $62 -1 $-1 $63 $64 $5 $-1 $65 forward single #
loop $-1 -1 $-1 $66 $67 $27 #
cone-surface $-1 -1 $-1 985.9042637432770562 2028.567189557713846 0 0 0 1 -1.500000000000001332 0 0 1 I I 0 -1 1.500000000000001332 forward I I I I #
loop $-1 -1 $-1 $-1 $68 $18 #
coedge $-1 -1 $-1 $46 $46 $69 $70 reversed $28 $-1 #
coedge $-1 -1 $-1 $47 $47 $71 $72 forward $30 $-1 #
coedge $-1 -1 $-1 $48 $48 $31 $49 forward $73 $-1 #
edge $74 -1 $-1 $75 -3.141592653589793116 $75 3.141592653589793116 $31 $76 forward @7 unknown #
coedge $-1 -1 $-1 $50 $50 $32 $51 reversed $77 $-1 #
edge $78 -1 $-1 $79 -3.141592653589793116 $79 3.141592653589793116 $32 $80 forward @7 unknown #
loop $-1 -1 $-1 $37 $33 $60 #
DXID-attrib $-1 -1 $-1 $-1 $34 @10 ASM ENTITY @36 06db2325-5ee9-43ba-86cf-026ae03091cc #
vertex $-1 -1 $-1 $34 $81 #
ellipse-curve $-1 -1 $-1 985.9042637432770562 2010.948141938665913 12.00000000000000178 0 0 -1 -1.500000000000001332 -0 -0 1 I I #
loop $-1 -1 $-1 $-1 $35 $82 #
DXID-attrib $-1 -1 $-1 $-1 $36 @10 ASM ENTITY @36 703c66ca-d53a-4c71-a228-4230d9ba1736 #
vertex $-1 -1 $-1 $36 $83 #
ellipse-curve $-1 -1 $-1 985.9042637432770562 2046.186237176761551 0 0 0 -1 -1.500000000000001332 -0 -0 1 I I #
face $84 -1 $-1 $82 $85 $5 $-1 $86 forward single #
point $-1 -1 $-1 987.4042637432771699 2046.186237176761551 12.00000000000000178 #
DXID-attrib $-1 -1 $-1 $-1 $42 @10 ASM ENTITY @36 865a574e-3e96-44bd-b064-4d24fe43fd1d #
face $87 -1 $-1 $88 $89 $5 $-1 $90 forward single #
loop $-1 -1 $-1 $91 $92 $42 #
cone-surface $-1 -1 $-1 1022.904263743276942 2028.567189557713846 0 0 0 1 -1.500000000000001332 0 0 1 I I 0 -1 1.500000000000001332 forward I I I I #
loop $-1 -1 $-1 $-1 $93 $27 #
coedge $-1 -1 $-1 $67 $67 $94 $95 reversed $43 $-1 #
coedge $-1 -1 $-1 $68 $68 $96 $97 forward $45 $-1 #
coedge $-1 -1 $-1 $69 $69 $46 $70 forward $98 $-1 #
edge $99 -1 $-1 $100 -3.141592653589793116 $100 3.141592653589793116 $46 $101 forward @7 unknown #
coedge $-1 -1 $-1 $71 $71 $47 $72 reversed $102 $-1 #
edge $103 -1 $-1 $104 -3.141592653589793116 $104 3.141592653589793116 $47 $105 forward @7 unknown #
loop $-1 -1 $-1 $52 $48 $60 #
DXID-attrib $-1 -1 $-1 $-1 $49 @10 ASM ENTITY @36 0b428c4b-7ce7-43c7-bfbe-91bff65ddbd2 #
vertex $-1 -1 $-1 $49 $106 #
ellipse-curve $-1 -1 $-1 1022.904263743276942 2046.186237176761551 12.00000000000000178 0 0 -1 -1.500000000000001332 -0 -0 1 I I #
loop $-1 -1 $-1 $56 $50 $82 #
DXID-attrib $-1 -1 $-1 $-1 $51 @10 ASM ENTITY @36 05be45f6-f912-495c-a9b5-a961ac1a48b2 #
vertex $-1 -1 $-1 $51 $107 #
ellipse-curve $-1 -1 $-1 985.9042637432770562 2010.948141938665913 0 0 0 -1 -1.500000000000001332 -0 -0 1 I I #
point $-1 -1 $-1 987.4042637432771699 2010.948141938665913 12.00000000000000178 #
face $108 -1 $-1 $-1 $109 $5 $-1 $110 reversed single #
point $-1 -1 $-1 987.4042637432771699 2046.186237176761551 0 #
DXID-attrib $-1 -1 $-1 $-1 $60 @10 ASM ENTITY @36 831385ec-646c-4e47-ac1b-8cc33a23e811 #
loop $-1 -1 $-1 $111 $112 $60 #
plane-surface $-1 -1 $-1 1004.404263743276829 2009.638618129142287 12.00000000000000178 0 0 1 10 0 0 forward_v I I I I #
DXID-attrib $-1 -1 $-1 $-1 $63 @10 ASM ENTITY @36 a9d6d884-293e-4a0b-b12e-9e8e1027d457 #
face $113 -1 $-1 $114 $115 $5 $-1 $116 forward single #
loop $-1 -1 $-1 $-1 $117 $63 #
cone-surface $-1 -1 $-1 1062.98076046619417 2066.305284795808802 0 0 0 1 4.473739644138098548 2.232857719709766098 0 1 I I 0 1 5.000000000000037303 forward I I I I #
loop $-1 -1 $-1 $-1 $118 $42 #
coedge $-1 -1 $-1 $92 $92 $119 $120 reversed $64 $-1 #
coedge $-1 -1 $-1 $93 $93 $121 $122 forward $66 $-1 #
coedge $-1 -1 $-1 $94 $94 $67 $95 forward $123 $-1 #
edge $124 -1 $-1 $125 -3.141592653589793116 $125 3.141592653589793116 $67 $126 forward @7 unknown #
coedge $-1 -1 $-1 $96 $96 $68 $97 reversed $127 $-1 #
edge $128 -1 $-1 $129 -3.141592653589793116 $129 3.141592653589793116 $68 $130 forward @7 unknown #
loop $-1 -1 $-1 $73 $69 $60 #
DXID-attrib $-1 -1 $-1 $-1 $70 @10 ASM ENTITY @36 79e95ffa-2277-4573-8ab3-64c46a8518c2 #
vertex $-1 -1 $-1 $70 $131 #
ellipse-curve $-1 -1 $-1 1022.904263743276942 2010.948141938665913 12.00000000000000178 0 0 -1 -1.500000000000001332 -0 -0 1 I I #
loop $-1 -1 $-1 $77 $71 $82 #
DXID-attrib $-1 -1 $-1 $-1 $72 @10 ASM ENTITY @36 55b484cb-cbbc-4f92-a34b-4a803d060add #
vertex $-1 -1 $-1 $72 $132 #
ellipse-curve $-1 -1 $-1 1022.904263743276942 2046.186237176761551 0 0 0 -1 -1.500000000000001332 -0 -0 1 I I #
point $-1 -1 $-1 1024.404263743276942 2046.186237176761551 12.00000000000000178 #
point $-1 -1 $-1 987.4042637432771699 2010.948141938665913 0 #
DXID-attrib $-1 -1 $-1 $-1 $82 @10 ASM ENTITY @36 2f698f50-9340-4c37-a3eb-b001473784af #
loop $-1 -1 $-1 $133 $134 $82 #
plane-surface $-1 -1 $-1 1004.404263743276829 2009.638618129142287 0 0 0 1 10 0 0 forward_v I I I I #
loop $-1 -1 $-1 $123 $119 $60 #
coedge $-1 -1 $-1 $135 $136 $137 $138 forward $85 $-1 #
DXID-attrib $-1 -1 $-1 $-1 $88 @10 ASM ENTITY @36 7c272104-a810-4e0c-b2bc-aa941ea07aff #
face $139 -1 $-1 $140 $141 $5 $-1 $142 forward single #
loop $-1 -1 $-1 $-1 $143 $88 #
plane-surface $-1 -1 $-1 1124.11956308786057 1955.208019439975487 0 0.8944271909999154113 0.4472135954999588159 0 -4.472135954999588492 8.944271909999153891 0 forward_v I I I I #
coedge $-1 -1 $-1 $144 $145 $146 $147 forward $89 $-1 #
coedge $-1 -1 $-1 $118 $118 $148 $149 forward $91 $-1 #
coedge $-1 -1 $-1 $119 $119 $92 $120 forward $111 $-1 #
edge $150 -1 $-1 $151 -3.141592653589793116 $151 3.141592653589793116 $92 $152 forward @7 unknown #
coedge $-1 -1 $-1 $121 $121 $93 $122 reversed $153 $-1 #
edge $154 -1 $-1 $155 -3.141592653589793116 $155 3.141592653589793116 $93 $156 forward @7 unknown #
loop $-1 -1 $-1 $98 $94 $60 #
DXID-attrib $-1 -1 $-1 $-1 $95 @10 ASM ENTITY @36 ff191fcf-fc00-4980-b406-18ce89b9a7a9 #
vertex $-1 -1 $-1 $95 $157 #
ellipse-curve $-1 -1 $-1 985.9042637432770562 2028.567189557713846 12.00000000000000178 0 0 -1 -1.500000000000001332 -0 -0 1 I I #
loop $-1 -1 $-1 $102 $96 $82 #
DXID-attrib $-1 -1 $-1 $-1 $97 @10 ASM ENTITY @36 1a903c9d-3e79-4ddf-8f1f-ed0d055425e8 #
vertex $-1 -1 $-1 $97 $158 #
ellipse-curve $-1 -1 $-1 1022.904263743276942 2010.948141938665913 0 0 0 -1 -1.500000000000001332 -0 -0 1 I I #
point $-1 -1 $-1 1024.404263743276942 2010.948141938665913 12.00000000000000178 #
point $-1 -1 $-1 1024.404263743276942 2046.186237176761551 0 #
loop $-1 -1 $-1 $153 $148 $82 #
coedge $-1 -1 $-1 $146 $159 $160 $161 reversed $109 $-1 #
coedge $-1 -1 $-1 $162 $112 $163 $164 forward $85 $-1 #
coedge $-1 -1 $-1 $112 $165 $166 $167 forward $85 $-1 #
coedge $-1 -1 $-1 $168 $169 $112 $138 reversed $170 $-1 #
edge $171 -1 $-1 $172 0 $173 11.71529934458344258 $137 $174 forward @7 unknown #
DXID-attrib $-1 -1 $-1 $-1 $114 @10 ASM ENTITY @36 f910e62b-33e1-4ddc-acf4-f16f30ff7c85 #
face $175 -1 $-1 $176 $177 $5 $-1 $178 forward single #
loop $-1 -1 $-1 $-1 $179 $114 #
cone-surface $-1 -1 $-1 1119.647427132860685 1952.971951462475545 0 0 0 1 -0.01166833863678083671 -4.999986384968805098 0 1 I I 0 1 4.999999999999995559 forward I I I I #
coedge $-1 -1 $-1 $180 $181 $182 $183 forward $115 $-1 #
coedge $-1 -1 $-1 $166 $117 $168 $184 forward $89 $-1 #
coedge $-1 -1 $-1 $117 $166 $180 $185 reversed $89 $-1 #
coedge $-1 -1 $-1 $182 $134 $117 $147 reversed $109 $-1 #
edge $186 -1 $-1 $187 0.0007177067502844012604 $188 1.107866424544349471 $117 $189 forward @7 unknown #
coedge $-1 -1 $-1 $148 $148 $118 $149 reversed $133 $-1 #
edge $190 -1 $-1 $191 -3.141592653589793116 $191 3.141592653589793116 $118 $192 forward @7 unknown #
DXID-attrib $-1 -1 $-1 $-1 $120 @10 ASM ENTITY @36 1a53a1ad-3800-459e-b7a5-70167abae15f #
vertex $-1 -1 $-1 $120 $193 #
ellipse-curve $-1 -1 $-1 1022.904263743276942 2028.567189557713846 12.00000000000000178 0 0 -1 -1.500000000000001332 -0 -0 1 I I #
loop $-1 -1 $-1 $127 $121 $82 #
DXID-attrib $-1 -1 $-1 $-1 $122 @10 ASM ENTITY @36 ca2d4d3f-8b93-4d86-b0d8-9f9d6a20d6e0 #
vertex $-1 -1 $-1 $122 $194 #
ellipse-curve $-1 -1 $-1 985.9042637432770562 2028.567189557713846 0 0 0 -1 -1.500000000000001332 -0 -0 1 I I #
point $-1 -1 $-1 987.4042637432771699 2028.567189557713846 12.00000000000000178 #
point $-1 -1 $-1 1024.404263743276942 2010.948141938665913 0 #
coedge $-1 -1 $-1 $134 $195 $196 $197 reversed $109 $-1 #
coedge $-1 -1 $-1 $169 $168 $134 $161 forward $170 $-1 #
edge $198 -1 $-1 $188 0 $199 11.71529934458344258 $160 $200 forward @7 unknown #
coedge $-1 -1 $-1 $201 $135 $202 $203 forward $85 $-1 #
coedge $-1 -1 $-1 $204 $205 $135 $164 reversed $206 $-1 #
edge $207 -1 $-1 $173 0.0007177067503192732139 $208 1.107866424544384332 $163 $209 forward @7 unknown #
coedge $-1 -1 $-1 $136 $210 $211 $212 forward $85 $-1 #
coedge $-1 -1 $-1 $145 $144 $136 $167 reversed $89 $-1 #
edge $213 -1 $-1 $214 0.0007177067502844012604 $172 1.107866424544349471 $166 $215 forward @7 unknown #
coedge $-1 -1 $-1 $160 $137 $144 $184 reversed $170 $-1 #
coedge $-1 -1 $-1 $137 $160 $204 $216 forward $170 $-1 #
loop $-1 -1 $-1 $-1 $160 $217 #
DXID-attrib $-1 -1 $-1 $-1 $138 @10 ASM ENTITY @36 dfda179e-2fd2-4537-9770-449c9d30c8c8 #
vertex $-1 -1 $-1 $184 $218 #
vertex $-1 -1 $-1 $164 $219 #
straight-curve $-1 -1 $-1 1062.98076046619417 2071.305284795808802 12.00000000000000178 -10 0 0 I I #
DXID-attrib $-1 -1 $-1 $-1 $140 @10 ASM ENTITY @36 87df5e78-9b49-4db4-8504-d50970e9dd47 #
face $220 -1 $-1 $221 $222 $5 $-1 $223 forward single #
loop $-1 -1 $-1 $-1 $224 $140 #
plane-surface $-1 -1 $-1 889.1611003536932003 1947.971951462475545 0 0 -1 0 10 0 0 forward_v I I I I #
coedge $-1 -1 $-1 $225 $226 $227 $228 forward $141 $-1 #
coedge $-1 -1 $-1 $211 $143 $145 $185 forward $115 $-1 #
coedge $-1 -1 $-1 $143 $211 $225 $229 reversed $115 $-1 #
coedge $-1 -1 $-1 $227 $146 $143 $183 reversed $109 $-1 #
edge $230 -1 $-1 $231 0 $187 12.6710518724987935 $143 $232 forward @7 unknown #
edge $233 -1 $-1 $188 0 $172 1.200000000000000178 $168 $234 forward @7 tangent #
edge $235 -1 $-1 $187 0 $214 1.200000000000000178 $180 $236 forward @7 tangent #
DXID-attrib $-1 -1 $-1 $-1 $147 @10 ASM ENTITY @36 ab27be9a-1efb-46ef-9d9a-be388bf302b6 #
vertex $-1 -1 $-1 $147 $237 #
vertex $-1 -1 $-1 $147 $238 #
ellipse-curve $-1 -1 $-1 1062.98076046619417 2066.305284795808802 0 0 0 1 4.473739644138098548 2.232857719709766098 0 1 F 0.0007177067502844012604 F 1.107866424544349471 #
DXID-attrib $-1 -1 $-1 $-1 $149 @10 ASM ENTITY @36 863fe91a-6e4a-4343-a18f-8cf11e387162 #
vertex $-1 -1 $-1 $149 $239 #
ellipse-curve $-1 -1 $-1 1022.904263743276942 2028.567189557713846 0 0 0 -1 -1.500000000000001332 -0 -0 1 I I #
point $-1 -1 $-1 1024.404263743276942 2028.567189557713846 12.00000000000000178 #
point $-1 -1 $-1 987.4042637432771699 2028.567189557713846 0 #
coedge $-1 -1 $-1 $159 $240 $241 $242 reversed $109 $-1 #
coedge $-1 -1 $-1 $205 $204 $159 $197 forward $206 $-1 #
edge $243 -1 $-1 $199 0.0007177067503192732139 $244 1.107866424544384332 $196 $245 forward @7 unknown #
DXID-attrib $-1 -1 $-1 $-1 $161 @10 ASM ENTITY @36 7f86c35f-3524-4a4a-89ef-cd2a5069792f #
vertex $-1 -1 $-1 $197 $246 #
straight-curve $-1 -1 $-1 1062.98076046619417 2071.305284795808802 0 -10 0 0 F 0 F 11.71529934458344258 #
coedge $-1 -1 $-1 $247 $162 $248 $249 forward $85 $-1 #
coedge $-1 -1 $-1 $250 $251 $162 $203 reversed $252 $-1 #
edge $253 -1 $-1 $208 0 $254 12.67105187249882547 $202 $255 forward @7 unknown #
coedge $-1 -1 $-1 $196 $163 $169 $216 reversed $206 $-1 #
coedge $-1 -1 $-1 $163 $196 $250 $256 forward $206 $-1 #
loop $-1 -1 $-1 $-1 $196 $257 #
DXID-attrib $-1 -1 $-1 $-1 $164 @10 ASM ENTITY @36 6eed66e5-002e-4bf9-9b42-5a984be72e0f #
vertex $-1 -1 $-1 $203 $258 #
ellipse-curve $-1 -1 $-1 945.8277670203597154 2066.305284795808802 12.00000000000000178 0 0 1 0.003588533443519022377 4.999998712242680554 0 1 I I #
coedge $-1 -1 $-1 $165 $247 $259 $260 forward $85 $-1 #
coedge $-1 -1 $-1 $181 $180 $165 $212 reversed $115 $-1 #
edge $261 -1 $-1 $262 0 $214 12.6710518724987935 $211 $263 forward @7 unknown #
DXID-attrib $-1 -1 $-1 $-1 $167 @10 ASM ENTITY @36 70284e9c-bdcf-47d8-88c2-8a43134c7d47 #
vertex $-1 -1 $-1 $167 $264 #
ellipse-curve $-1 -1 $-1 1062.98076046619417 2066.305284795808802 12.00000000000000178 0 0 1 4.473739644138098548 2.232857719709766098 0 1 I I #
edge $265 -1 $-1 $199 0 $173 1.200000000000000178 $169 $266 forward @7 tangent #
face $267 -1 $-1 $60 $170 $5 $-1 $268 forward single #
point $-1 -1 $-1 1062.98076046619417 2071.305284795808802 12.00000000000000178 #
point $-1 -1 $-1 945.8277670203597154 2071.305284795808802 12.00000000000000178 #
DXID-attrib $-1 -1 $-1 $-1 $176 @10 ASM ENTITY @36 fc2245b9-b466-45cb-a38a-c4562715e530 #
face $269 -1 $-1 $257 $252 $5 $-1 $270 forward single #
loop $-1 -1 $-1 $-1 $271 $176 #
cone-surface $-1 -1 $-1 889.1611003536932003 1952.971951462475545 0 0 0 1 -4.466905537670102788 2.246498368023482239 0 1 I I 0 1 4.999999999999999112 forward I I I I #
coedge $-1 -1 $-1 $272 $273 $274 $275 forward $177 $-1 #
coedge $-1 -1 $-1 $259 $179 $181 $229 forward $141 $-1 #
coedge $-1 -1 $-1 $179 $259 $272 $276 reversed $141 $-1 #
coedge $-1 -1 $-1 $274 $182 $179 $228 reversed $109 $-1 #
edge $277 -1 $-1 $278 0.002333669845555736127 $231 2.036777605641284072 $179 $279 forward @7 unknown #
edge $280 -1 $-1 $231 0 $262 1.200000000000000178 $225 $281 forward @7 tangent #
DXID-attrib $-1 -1 $-1 $-1 $183 @10 ASM ENTITY @36 3166dac2-5779-4b29-928b-7193cbe48134 #
vertex $-1 -1 $-1 $183 $282 #
straight-curve $-1 -1 $-1 1124.11956308786057 1955.208019439975487 0 -4.472135954999588492 8.944271909999153891 0 F 0 F 12.6710518724987935 #
DXID-attrib $-1 -1 $-1 $-1 $184 @10 ASM ENTITY @36 d0c067f4-7c56-4157-bcbd-556c50fb4fb8 #
straight-curve $-1 -1 $-1 1062.98076046619417 2071.305284795808802 0 0 0 10 I I #
DXID-attrib $-1 -1 $-1 $-1 $185 @10 ASM ENTITY @36 a429a21d-8ffc-45f2-a902-0e215b84598b #
straight-curve $-1 -1 $-1 1067.452896421193827 2068.541352773308517 0 0 0 10 I I #
point $-1 -1 $-1 1067.452896421193827 2068.541352773308517 0 #
point $-1 -1 $-1 1062.98076046619417 2071.305284795808802 0 #
point $-1 -1 $-1 1024.404263743276942 2028.567189557713846 0 #
coedge $-1 -1 $-1 $195 $274 $271 $283 reversed $109 $-1 #
coedge $-1 -1 $-1 $251 $250 $195 $242 forward $252 $-1 #
edge $284 -1 $-1 $244 0 $285 12.67105187249882547 $241 $286 forward @7 unknown #
DXID-attrib $-1 -1 $-1 $-1 $197 @10 ASM ENTITY @36 bd8bbb43-2c0c-41c5-af99-85c4213431be #
vertex $-1 -1 $-1 $242 $287 #
ellipse-curve $-1 -1 $-1 945.8277670203597154 2066.305284795808802 0 0 0 1 0.003588533443519022377 4.999998712242680554 0 1 F 0.0007177067503192732139 F 1.107866424544384332 #
point $-1 -1 $-1 945.8277670203597154 2071.305284795808802 0 #
coedge $-1 -1 $-1 $210 $201 $288 $289 forward $85 $-1 #
coedge $-1 -1 $-1 $290 $291 $201 $249 reversed $222 $-1 #
edge $292 -1 $-1 $254 0.002333669845628797042 $293 2.036777605641306277 $248 $294 forward @7 unknown #
coedge $-1 -1 $-1 $241 $202 $205 $256 reversed $252 $-1 #
coedge $-1 -1 $-1 $202 $241 $290 $295 forward $252 $-1 #
loop $-1 -1 $-1 $-1 $241 $221 #
DXID-attrib $-1 -1 $-1 $-1 $203 @10 ASM ENTITY @36 333a8924-e4cf-47d4-b6b4-68329ef652e5 #
vertex $-1 -1 $-1 $249 $296 #
straight-curve $-1 -1 $-1 941.355631065360285 2068.541352773308517 12.00000000000000178 -4.472135954999588492 -8.944271909999153891 0 I I #
edge $297 -1 $-1 $244 0 $208 1.200000000000000178 $205 $298 forward @7 tangent #
face $299 -1 $-1 $217 $206 $5 $-1 $300 forward single #
point $-1 -1 $-1 941.355631065360285 2068.541352773308517 12.00000000000000178 #
coedge $-1 -1 $-1 $226 $225 $210 $260 reversed $141 $-1 #
edge $301 -1 $-1 $302 0.002333669845555736127 $262 2.036777605641284072 $259 $303 forward @7 unknown #
DXID-attrib $-1 -1 $-1 $-1 $212 @10 ASM ENTITY @36 43ecbab9-5ebe-4a7a-bc65-2d9f99e1f04c #
vertex $-1 -1 $-1 $212 $304 #
straight-curve $-1 -1 $-1 1124.11956308786057 1955.208019439975487 12.00000000000000178 -4.472135954999588492 8.944271909999153891 0 I I #
point $-1 -1 $-1 1067.452896421193827 2068.541352773308517 12.00000000000000178 #
DXID-attrib $-1 -1 $-1 $-1 $216 @10 ASM ENTITY @36 4ec23130-0bdd-4f27-a12a-0c1ffc82ba6f #
straight-curve $-1 -1 $-1 945.8277670203597154 2071.305284795808802 0 0 0 10 I I #
DXID-attrib $-1 -1 $-1 $-1 $217 @10 ASM ENTITY @36 297fec67-5a28-44d2-9708-a5efc9d000ca #
plane-surface $-1 -1 $-1 1062.98076046619417 2071.305284795808802 0 0 1 0 -10 0 0 forward_v I I I I #
DXID-attrib $-1 -1 $-1 $-1 $221 @10 ASM ENTITY @36 40c4009a-e364-4b9e-a10f-ef6672cbfd8b #
plane-surface $-1 -1 $-1 941.355631065360285 2068.541352773308517 0 -0.8944271909999154113 0.4472135954999588159 0 -4.472135954999588492 -8.944271909999153891 0 forward_v I I I I #
coedge $-1 -1 $-1 $291 $290 $240 $283 forward $222 $-1 #
coedge $-1 -1 $-1 $288 $224 $226 $276 forward $177 $-1 #
coedge $-1 -1 $-1 $224 $288 $291 $305 reversed $177 $-1 #
coedge $-1 -1 $-1 $240 $227 $224 $275 reversed $109 $-1 #
edge $306 -1 $-1 $307 0 $278 23.04863267791675696 $224 $308 forward @7 unknown #
edge $309 -1 $-1 $278 0 $302 1.200000000000000178 $272 $310 forward @7 tangent #
DXID-attrib $-1 -1 $-1 $-1 $228 @10 ASM ENTITY @36 eb68c051-a169-4a0c-acfd-39e818f8e061 #
vertex $-1 -1 $-1 $228 $311 #
ellipse-curve $-1 -1 $-1 1119.647427132860685 1952.971951462475545 0 0 0 1 -0.01166833863678083671 -4.999986384968805098 0 1 F 0.002333669845555736127 F 2.036777605641284072 #
DXID-attrib $-1 -1 $-1 $-1 $229 @10 ASM ENTITY @36 5d822561-3d6b-48e2-8ac9-241a4eb1f2b3 #
straight-curve $-1 -1 $-1 1124.11956308786057 1955.208019439975487 0 0 0 10 I I #
point $-1 -1 $-1 1124.11956308786057 1955.208019439975487 0 #
edge $312 -1 $-1 $285 0.002333669845628797042 $307 2.036777605641306277 $271 $313 forward @7 unknown #
DXID-attrib $-1 -1 $-1 $-1 $242 @10 ASM ENTITY @36 99d0eb82-026f-44e5-ad40-4bef0de13cbc #
vertex $-1 -1 $-1 $283 $314 #
straight-curve $-1 -1 $-1 941.355631065360285 2068.541352773308517 0 -4.472135954999588492 -8.944271909999153891 0 F 0 F 12.67105187249882547 #
point $-1 -1 $-1 941.355631065360285 2068.541352773308517 0 #
coedge $-1 -1 $-1 $273 $272 $247 $289 reversed $177 $-1 #
edge $315 -1 $-1 $293 0 $302 23.04863267791675696 $288 $316 forward @7 unknown #
coedge $-1 -1 $-1 $271 $248 $251 $295 reversed $222 $-1 #
coedge $-1 -1 $-1 $248 $271 $273 $305 forward $222 $-1 #
DXID-attrib $-1 -1 $-1 $-1 $249 @10 ASM ENTITY @36 31998cf3-b5cd-42ca-8161-6de9a9a36767 #
vertex $-1 -1 $-1 $289 $317 #
ellipse-curve $-1 -1 $-1 889.1611003536932003 1952.971951462475545 12.00000000000000178 0 0 1 -4.466905537670102788 2.246498368023482239 0 1 I I #
edge $318 -1 $-1 $285 0 $254 1.200000000000000178 $251 $319 forward @7 tangent #
point $-1 -1 $-1 884.6889643986934288 1955.20801943997526 12.00000000000000178 #
DXID-attrib $-1 -1 $-1 $-1 $256 @10 ASM ENTITY @36 b453f8ee-5655-41eb-b73f-2495962d5c03 #
straight-curve $-1 -1 $-1 941.355631065360285 2068.541352773308517 0 0 0 10 I I #
DXID-attrib $-1 -1 $-1 $-1 $257 @10 ASM ENTITY @36 65c712f0-dd2e-467b-91d7-86c997fa677a #
cone-surface $-1 -1 $-1 945.8277670203597154 2066.305284795808802 0 0 0 1 0.003588533443519022377 4.999998712242680554 0 1 I I 0 1 5.000000000000072831 forward I I I I #
DXID-attrib $-1 -1 $-1 $-1 $260 @10 ASM ENTITY @36 355c731f-613e-4728-9261-378cc1ec6b1b #
vertex $-1 -1 $-1 $260 $320 #
ellipse-curve $-1 -1 $-1 1119.647427132860685 1952.971951462475545 12.00000000000000178 0 0 1 -0.01166833863678083671 -4.999986384968805098 0 1 I I #
point $-1 -1 $-1 1124.11956308786057 1955.208019439975487 12.00000000000000178 #
edge $321 -1 $-1 $307 0 $293 1.200000000000000178 $291 $322 forward @7 tangent #
DXID-attrib $-1 -1 $-1 $-1 $275 @10 ASM ENTITY @36 f40f817b-3f2a-4553-bb6a-788baaa560e6 #
vertex $-1 -1 $-1 $275 $323 #
straight-curve $-1 -1 $-1 889.1611003536932003 1947.971951462475545 0 10 0 0 F 0 F 23.04863267791675696 #
DXID-attrib $-1 -1 $-1 $-1 $276 @10 ASM ENTITY @36 86da56a9-5680-4b44-be85-293404c7fbd4 #
straight-curve $-1 -1 $-1 1119.647427132860685 1947.971951462475545 0 0 0 10 I I #
point $-1 -1 $-1 1119.647427132860685 1947.971951462475545 0 #
DXID-attrib $-1 -1 $-1 $-1 $283 @10 ASM ENTITY @36 4af116c9-af59-475f-9903-798bcd4643dc #
ellipse-curve $-1 -1 $-1 889.1611003536932003 1952.971951462475545 0 0 0 1 -4.466905537670102788 2.246498368023482239 0 1 F 0.002333669845628797042 F 2.036777605641306277 #
point $-1 -1 $-1 884.6889643986934288 1955.20801943997526 0 #
DXID-attrib $-1 -1 $-1 $-1 $289 @10 ASM ENTITY @36 7dff9040-279a-4731-bccc-984757a089a0 #
straight-curve $-1 -1 $-1 889.1611003536932003 1947.971951462475545 12.00000000000000178 10 0 0 I I #
point $-1 -1 $-1 889.1611003536932003 1947.971951462475545 12.00000000000000178 #
DXID-attrib $-1 -1 $-1 $-1 $295 @10 ASM ENTITY @36 1a523e31-820a-44ff-9dcc-8cfede5a7cde #
straight-curve $-1 -1 $-1 884.6889643986934288 1955.20801943997526 0 0 0 10 I I #
point $-1 -1 $-1 1119.647427132860685 1947.971951462475545 12.00000000000000178 #
DXID-attrib $-1 -1 $-1 $-1 $305 @10 ASM ENTITY @36 88f0996c-0f1a-4d1d-bfac-d5847e8f82c7 #
straight-curve $-1 -1 $-1 889.1611003536932003 1947.971951462475545 0 0 0 10 I I #
point $-1 -1 $-1 889.1611003536932003 1947.971951462475545 0 #
End-of-ACIS-data 