700 0 1 0           
30 Autodesk Translation Framework 20 ASM 229.3.0.65535 NT 24 Mon May 22 21:06:14 2023 
1 9.999999999999999547e-07 1.000000000000000036e-10 
body $1 -1 $-1 $2 $-1 $3 #
rgb_color-st-attrib $-1 -1 $4 $-1 $0 0.7490196078431372584 0.7490196078431372584 0.7490196078431372584 #
lump $-1 -1 $-1 $-1 $5 $0 #
transform $-1 -1 1 0 0 0 1 0 0 0 1 0 0 0 1 no_rotate no_reflect no_shear #
DXID-attrib $-1 -1 $-1 $1 $0 @10 ASM ENTITY @114 SOPORTE_LATERAL_D_MESA_1.IPT|:|6A13C9A49BB87373E106A5EB8E752F7550F78E9F|:|DA4B9237BACCCDF19C0760CAB7AEC4A8359010B0 #
shell $-1 -1 $-1 $-1 $-1 $6 $-1 $2 #
face $7 -1 $-1 $8 $9 $5 $-1 $10 forward single #
DXID-attrib $-1 -1 $-1 $-1 $6 @10 ASM ENTITY @36 67079553-96fb-4181-b10b-63c9caf97f76 #
face $11 -1 $-1 $12 $13 $5 $-1 $14 forward single #
loop $-1 -1 $-1 $15 $16 $6 #
cone-surface $-1 -1 $-1 1651.337511003757754 1982.683711856547006 0 0 0 1 -1.500000000000001332 0 0 1 I I 0 -1 1.500000000000001332 forward I I I I #
DXID-attrib $-1 -1 $-1 $-1 $8 @10 ASM ENTITY @36 09e5221b-7609-426d-a86b-fa894cdf0f54 #
face $17 -1 $-1 $18 $19 $5 $-1 $20 forward single #
loop $-1 -1 $-1 $21 $22 $8 #
cone-surface $-1 -1 $-1 1651.337511003757754 1947.445616618451595 0 0 0 1 -1.500000000000001332 0 0 1 I I 0 -1 1.500000000000001332 forward I I I I #
loop $-1 -1 $-1 $-1 $23 $6 #
coedge $-1 -1 $-1 $16 $16 $24 $25 reversed $9 $-1 #
DXID-attrib $-1 -1 $-1 $-1 $12 @10 ASM ENTITY @36 3231430b-928e-4048-88fd-0ca64466b00f #
face $26 -1 $-1 $27 $28 $5 $-1 $29 forward single #
loop $-1 -1 $-1 $30 $31 $12 #
cone-surface $-1 -1 $-1 1688.337511003758209 1982.683711856547006 0 0 0 1 -1.500000000000001332 0 0 1 I I 0 -1 1.500000000000001332 forward I I I I #
loop $-1 -1 $-1 $-1 $32 $8 #
coedge $-1 -1 $-1 $22 $22 $33 $34 reversed $13 $-1 #
coedge $-1 -1 $-1 $23 $23 $35 $36 forward $15 $-1 #
coedge $-1 -1 $-1 $24 $24 $16 $25 forward $37 $-1 #
edge $38 -1 $-1 $39 -3.141592653589793116 $39 3.141592653589793116 $16 $40 forward @7 unknown #
DXID-attrib $-1 -1 $-1 $-1 $18 @10 ASM ENTITY @36 2358c9f9-7426-426f-88fb-bb6c17ad8257 #
face $41 -1 $-1 $42 $43 $5 $-1 $44 forward single #
loop $-1 -1 $-1 $45 $46 $18 #
cone-surface $-1 -1 $-1 1688.337511003758209 1947.445616618451595 0 0 0 1 -1.500000000000001332 0 0 1 I I 0 -1 1.500000000000001332 forward I I I I #
loop $-1 -1 $-1 $-1 $47 $12 #
coedge $-1 -1 $-1 $31 $31 $48 $49 reversed $19 $-1 #
coedge $-1 -1 $-1 $32 $32 $50 $51 forward $21 $-1 #
coedge $-1 -1 $-1 $33 $33 $22 $34 forward $52 $-1 #
edge $53 -1 $-1 $54 -3.141592653589793116 $54 3.141592653589793116 $22 $55 forward @7 unknown #
coedge $-1 -1 $-1 $35 $35 $23 $36 reversed $56 $-1 #
edge $57 -1 $-1 $58 -3.141592653589793116 $58 3.141592653589793116 $23 $59 forward @7 unknown #
loop $-1 -1 $-1 $-1 $24 $60 #
DXID-attrib $-1 -1 $-1 $-1 $25 @10 ASM ENTITY @36 9bdab357-4e60-4ce6-be39-79eafe355044 #
vertex $-1 -1 $-1 $25 $61 #
ellipse-curve $-1 -1 $-1 1651.337511003757754 1982.683711856547006 12.00000000000000178 0 0 -1 -1.500000000000001332 -0 -0 1 I I #
DXID-attrib $-1 -1 $-1 $-1 $27 @10 ASM ENTITY @36 64e68d0e-f37c-42bf-a330-725abeadad80 #
face $62 -1 $-1 $63 $64 $5 $-1 $65 forward single #
loop $-1 -1 $-1 $66 $67 $27 #
cone-surface $-1 -1 $-1 1651.337511003757754 1965.064664237499528 0 0 0 1 -1.500000000000001332 0 0 1 I I 0 -1 1.500000000000001332 forward I I I I #
loop $-1 -1 $-1 $-1 $68 $18 #
coedge $-1 -1 $-1 $46 $46 $69 $70 reversed $28 $-1 #
coedge $-1 -1 $-1 $47 $47 $71 $72 forward $30 $-1 #
coedge $-1 -1 $-1 $48 $48 $31 $49 forward $73 $-1 #
edge $74 -1 $-1 $75 -3.141592653589793116 $75 3.141592653589793116 $31 $76 forward @7 unknown #
coedge $-1 -1 $-1 $50 $50 $32 $51 reversed $77 $-1 #
edge $78 -1 $-1 $79 -3.141592653589793116 $79 3.141592653589793116 $32 $80 forward @7 unknown #
loop $-1 -1 $-1 $37 $33 $60 #
DXID-attrib $-1 -1 $-1 $-1 $34 @10 ASM ENTITY @36 823d4074-40fe-491e-95dc-aaa404b12256 #
vertex $-1 -1 $-1 $34 $81 #
ellipse-curve $-1 -1 $-1 1651.337511003757754 1947.445616618451595 12.00000000000000178 0 0 -1 -1.500000000000001332 -0 -0 1 I I #
loop $-1 -1 $-1 $-1 $35 $82 #
DXID-attrib $-1 -1 $-1 $-1 $36 @10 ASM ENTITY @36 fa153083-6396-48e8-bf55-8506dc03fb46 #
vertex $-1 -1 $-1 $36 $83 #
ellipse-curve $-1 -1 $-1 1651.337511003757754 1982.683711856547006 0 0 0 -1 -1.500000000000001332 -0 -0 1 I I #
face $84 -1 $-1 $82 $85 $5 $-1 $86 forward single #
point $-1 -1 $-1 1652.837511003757754 1982.683711856547006 12.00000000000000178 #
DXID-attrib $-1 -1 $-1 $-1 $42 @10 ASM ENTITY @36 505bf15a-e5bd-454e-abed-f15c68bdfab5 #
face $87 -1 $-1 $88 $89 $5 $-1 $90 forward single #
loop $-1 -1 $-1 $91 $92 $42 #
cone-surface $-1 -1 $-1 1688.337511003758209 1965.064664237499528 0 0 0 1 -1.500000000000001332 0 0 1 I I 0 -1 1.500000000000001332 forward I I I I #
loop $-1 -1 $-1 $-1 $93 $27 #
coedge $-1 -1 $-1 $67 $67 $94 $95 reversed $43 $-1 #
coedge $-1 -1 $-1 $68 $68 $96 $97 forward $45 $-1 #
coedge $-1 -1 $-1 $69 $69 $46 $70 forward $98 $-1 #
edge $99 -1 $-1 $100 -3.141592653589793116 $100 3.141592653589793116 $46 $101 forward @7 unknown #
coedge $-1 -1 $-1 $71 $71 $47 $72 reversed $102 $-1 #
edge $103 -1 $-1 $104 -3.141592653589793116 $104 3.141592653589793116 $47 $105 forward @7 unknown #
loop $-1 -1 $-1 $52 $48 $60 #
DXID-attrib $-1 -1 $-1 $-1 $49 @10 ASM ENTITY @36 b5e4086b-737f-4f6b-b9b7-304f07e8de48 #
vertex $-1 -1 $-1 $49 $106 #
ellipse-curve $-1 -1 $-1 1688.337511003758209 1982.683711856547006 12.00000000000000178 0 0 -1 -1.500000000000001332 -0 -0 1 I I #
loop $-1 -1 $-1 $56 $50 $82 #
DXID-attrib $-1 -1 $-1 $-1 $51 @10 ASM ENTITY @36 3b6e7a6c-89c0-4ebf-be0e-21b3523d31cc #
vertex $-1 -1 $-1 $51 $107 #
ellipse-curve $-1 -1 $-1 1651.337511003757754 1947.445616618451595 0 0 0 -1 -1.500000000000001332 -0 -0 1 I I #
point $-1 -1 $-1 1652.837511003757754 1947.445616618451595 12.00000000000000178 #
face $108 -1 $-1 $-1 $109 $5 $-1 $110 reversed single #
point $-1 -1 $-1 1652.837511003757754 1982.683711856547006 0 #
DXID-attrib $-1 -1 $-1 $-1 $60 @10 ASM ENTITY @36 d589641c-7788-4603-9fb0-0f8d3fb20f21 #
loop $-1 -1 $-1 $111 $112 $60 #
plane-surface $-1 -1 $-1 1669.837511003757982 1946.136092808927742 12.00000000000000178 0 0 1 10 0 0 forward_v I I I I #
DXID-attrib $-1 -1 $-1 $-1 $63 @10 ASM ENTITY @36 ef0b3e29-68e2-4fc7-88a0-726e85641a13 #
face $113 -1 $-1 $114 $115 $5 $-1 $116 forward single #
loop $-1 -1 $-1 $-1 $117 $63 #
cone-surface $-1 -1 $-1 1728.414007726675209 2002.802759475594485 0 0 0 1 4.473739644138069238 2.232857719709822497 0 1 I I 0 1 5.000000000000036415 forward I I I I #
loop $-1 -1 $-1 $-1 $118 $42 #
coedge $-1 -1 $-1 $92 $92 $119 $120 reversed $64 $-1 #
coedge $-1 -1 $-1 $93 $93 $121 $122 forward $66 $-1 #
coedge $-1 -1 $-1 $94 $94 $67 $95 forward $123 $-1 #
edge $124 -1 $-1 $125 -3.141592653589793116 $125 3.141592653589793116 $67 $126 forward @7 unknown #
coedge $-1 -1 $-1 $96 $96 $68 $97 reversed $127 $-1 #
edge $128 -1 $-1 $129 -3.141592653589793116 $129 3.141592653589793116 $68 $130 forward @7 unknown #
loop $-1 -1 $-1 $73 $69 $60 #
DXID-attrib $-1 -1 $-1 $-1 $70 @10 ASM ENTITY @36 b1795eea-0be5-4e1a-b674-fb01f4bdf464 #
vertex $-1 -1 $-1 $70 $131 #
ellipse-curve $-1 -1 $-1 1688.337511003758209 1947.445616618451595 12.00000000000000178 0 0 -1 -1.500000000000001332 -0 -0 1 I I #
loop $-1 -1 $-1 $77 $71 $82 #
DXID-attrib $-1 -1 $-1 $-1 $72 @10 ASM ENTITY @36 8cdff84c-d19e-4ada-b3e2-95d509dd0e9d #
vertex $-1 -1 $-1 $72 $132 #
ellipse-curve $-1 -1 $-1 1688.337511003758209 1982.683711856547006 0 0 0 -1 -1.500000000000001332 -0 -0 1 I I #
point $-1 -1 $-1 1689.837511003758209 1982.683711856547006 12.00000000000000178 #
point $-1 -1 $-1 1652.837511003757754 1947.445616618451595 0 #
DXID-attrib $-1 -1 $-1 $-1 $82 @10 ASM ENTITY @36 fc969ece-5859-4571-b65f-f8203fefb497 #
loop $-1 -1 $-1 $133 $134 $82 #
plane-surface $-1 -1 $-1 1669.837511003757982 1946.136092808927742 0 0 0 1 10 0 0 forward_v I I I I #
loop $-1 -1 $-1 $123 $119 $60 #
coedge $-1 -1 $-1 $135 $136 $137 $138 forward $85 $-1 #
DXID-attrib $-1 -1 $-1 $-1 $88 @10 ASM ENTITY @36 93d748c3-05cd-40f2-86c0-6c88bef12fe0 #
face $139 -1 $-1 $140 $141 $5 $-1 $142 forward single #
loop $-1 -1 $-1 $-1 $143 $88 #
plane-surface $-1 -1 $-1 1789.552810348341382 1891.70549411976117 0 0.8944271909999154113 0.4472135954999588159 0 -4.472135954999588492 8.944271909999153891 0 forward_v I I I I #
coedge $-1 -1 $-1 $144 $145 $146 $147 forward $89 $-1 #
coedge $-1 -1 $-1 $118 $118 $148 $149 forward $91 $-1 #
coedge $-1 -1 $-1 $119 $119 $92 $120 forward $111 $-1 #
edge $150 -1 $-1 $151 -3.141592653589793116 $151 3.141592653589793116 $92 $152 forward @7 unknown #
coedge $-1 -1 $-1 $121 $121 $93 $122 reversed $153 $-1 #
edge $154 -1 $-1 $155 -3.141592653589793116 $155 3.141592653589793116 $93 $156 forward @7 unknown #
loop $-1 -1 $-1 $98 $94 $60 #
DXID-attrib $-1 -1 $-1 $-1 $95 @10 ASM ENTITY @36 25a37746-141b-4977-a576-a714c8ff455c #
vertex $-1 -1 $-1 $95 $157 #
ellipse-curve $-1 -1 $-1 1651.337511003757754 1965.064664237499528 12.00000000000000178 0 0 -1 -1.500000000000001332 -0 -0 1 I I #
loop $-1 -1 $-1 $102 $96 $82 #
DXID-attrib $-1 -1 $-1 $-1 $97 @10 ASM ENTITY @36 080fc49e-7cef-490a-8014-2eb6c277d4a0 #
vertex $-1 -1 $-1 $97 $158 #
ellipse-curve $-1 -1 $-1 1688.337511003758209 1947.445616618451595 0 0 0 -1 -1.500000000000001332 -0 -0 1 I I #
point $-1 -1 $-1 1689.837511003758209 1947.445616618451595 12.00000000000000178 #
point $-1 -1 $-1 1689.837511003758209 1982.683711856547006 0 #
loop $-1 -1 $-1 $153 $148 $82 #
coedge $-1 -1 $-1 $146 $159 $160 $161 reversed $109 $-1 #
coedge $-1 -1 $-1 $162 $112 $163 $164 forward $85 $-1 #
coedge $-1 -1 $-1 $112 $165 $166 $167 forward $85 $-1 #
coedge $-1 -1 $-1 $168 $169 $112 $138 reversed $170 $-1 #
edge $171 -1 $-1 $172 0 $173 11.71529934458345679 $137 $174 forward @7 unknown #
DXID-attrib $-1 -1 $-1 $-1 $114 @10 ASM ENTITY @36 54299e52-372f-4855-879a-ad382de322dc #
face $175 -1 $-1 $176 $177 $5 $-1 $178 forward single #
loop $-1 -1 $-1 $-1 $179 $114 #
cone-surface $-1 -1 $-1 1785.080674393341724 1889.469426142261227 0 0 0 1 -0.0116683386366387299 -4.999986384968805986 0 1 I I 0 1 4.999999999999996447 forward I I I I #
coedge $-1 -1 $-1 $180 $181 $182 $183 forward $115 $-1 #
coedge $-1 -1 $-1 $166 $117 $168 $184 forward $89 $-1 #
coedge $-1 -1 $-1 $117 $166 $180 $185 reversed $89 $-1 #
coedge $-1 -1 $-1 $182 $134 $117 $147 reversed $109 $-1 #
edge $186 -1 $-1 $187 0.000717706750271744718 $188 1.107866424544336814 $117 $189 forward @7 unknown #
coedge $-1 -1 $-1 $148 $148 $118 $149 reversed $133 $-1 #
edge $190 -1 $-1 $191 -3.141592653589793116 $191 3.141592653589793116 $118 $192 forward @7 unknown #
DXID-attrib $-1 -1 $-1 $-1 $120 @10 ASM ENTITY @36 0ec29a55-647d-4191-a824-55e54b5fa719 #
vertex $-1 -1 $-1 $120 $193 #
ellipse-curve $-1 -1 $-1 1688.337511003758209 1965.064664237499528 12.00000000000000178 0 0 -1 -1.500000000000001332 -0 -0 1 I I #
loop $-1 -1 $-1 $127 $121 $82 #
DXID-attrib $-1 -1 $-1 $-1 $122 @10 ASM ENTITY @36 bdc0e5c1-a20d-4d5b-b86e-ba37835eeb65 #
vertex $-1 -1 $-1 $122 $194 #
ellipse-curve $-1 -1 $-1 1651.337511003757754 1965.064664237499528 0 0 0 -1 -1.500000000000001332 -0 -0 1 I I #
point $-1 -1 $-1 1652.837511003757754 1965.064664237499528 12.00000000000000178 #
point $-1 -1 $-1 1689.837511003758209 1947.445616618451595 0 #
coedge $-1 -1 $-1 $134 $195 $196 $197 reversed $109 $-1 #
coedge $-1 -1 $-1 $169 $168 $134 $161 forward $170 $-1 #
edge $198 -1 $-1 $188 0 $199 11.71529934458345679 $160 $200 forward @7 unknown #
coedge $-1 -1 $-1 $201 $135 $202 $203 forward $85 $-1 #
coedge $-1 -1 $-1 $204 $205 $135 $164 reversed $206 $-1 #
edge $207 -1 $-1 $173 0.0007177067503193140883 $208 1.107866424544384332 $163 $209 forward @7 unknown #
coedge $-1 -1 $-1 $136 $210 $211 $212 forward $85 $-1 #
coedge $-1 -1 $-1 $145 $144 $136 $167 reversed $89 $-1 #
edge $213 -1 $-1 $214 0.000717706750271744718 $172 1.107866424544336814 $166 $215 forward @7 unknown #
coedge $-1 -1 $-1 $160 $137 $144 $184 reversed $170 $-1 #
coedge $-1 -1 $-1 $137 $160 $204 $216 forward $170 $-1 #
loop $-1 -1 $-1 $-1 $160 $217 #
DXID-attrib $-1 -1 $-1 $-1 $138 @10 ASM ENTITY @36 983bd469-4f97-4468-82ad-cffdbfecda1f #
vertex $-1 -1 $-1 $184 $218 #
vertex $-1 -1 $-1 $164 $219 #
straight-curve $-1 -1 $-1 1728.414007726675209 2007.802759475594257 12.00000000000000178 -10 0 0 I I #
DXID-attrib $-1 -1 $-1 $-1 $140 @10 ASM ENTITY @36 802baa80-0236-4a50-8916-7f7a6ad34024 #
face $220 -1 $-1 $221 $222 $5 $-1 $223 forward single #
loop $-1 -1 $-1 $-1 $224 $140 #
plane-surface $-1 -1 $-1 1554.594347614174239 1884.469426142261455 0 0 -1 0 10 0 0 forward_v I I I I #
coedge $-1 -1 $-1 $225 $226 $227 $228 forward $141 $-1 #
coedge $-1 -1 $-1 $211 $143 $145 $185 forward $115 $-1 #
coedge $-1 -1 $-1 $143 $211 $225 $229 reversed $115 $-1 #
coedge $-1 -1 $-1 $227 $146 $143 $183 reversed $109 $-1 #
edge $230 -1 $-1 $231 0 $187 12.67105187249882547 $143 $232 forward @7 unknown #
edge $233 -1 $-1 $188 0 $172 1.200000000000000178 $168 $234 forward @7 tangent #
edge $235 -1 $-1 $187 0 $214 1.200000000000000178 $180 $236 forward @7 tangent #
DXID-attrib $-1 -1 $-1 $-1 $147 @10 ASM ENTITY @36 e4ed42dc-832a-4516-b016-bf2c51b29483 #
vertex $-1 -1 $-1 $147 $237 #
vertex $-1 -1 $-1 $147 $238 #
ellipse-curve $-1 -1 $-1 1728.414007726675209 2002.802759475594485 0 0 0 1 4.473739644138069238 2.232857719709822497 0 1 F 0.000717706750271744718 F 1.107866424544336814 #
DXID-attrib $-1 -1 $-1 $-1 $149 @10 ASM ENTITY @36 edd62245-f169-4ed9-afb8-03b6f88e5606 #
vertex $-1 -1 $-1 $149 $239 #
ellipse-curve $-1 -1 $-1 1688.337511003758209 1965.064664237499528 0 0 0 -1 -1.500000000000001332 -0 -0 1 I I #
point $-1 -1 $-1 1689.837511003758209 1965.064664237499528 12.00000000000000178 #
point $-1 -1 $-1 1652.837511003757754 1965.064664237499528 0 #
coedge $-1 -1 $-1 $159 $240 $241 $242 reversed $109 $-1 #
coedge $-1 -1 $-1 $205 $204 $159 $197 forward $206 $-1 #
edge $243 -1 $-1 $199 0.0007177067503193140883 $244 1.107866424544384332 $196 $245 forward @7 unknown #
DXID-attrib $-1 -1 $-1 $-1 $161 @10 ASM ENTITY @36 52155de1-9983-4568-a073-c920c500436b #
vertex $-1 -1 $-1 $197 $246 #
straight-curve $-1 -1 $-1 1728.414007726675209 2007.802759475594257 0 -10 0 0 F 0 F 11.71529934458345679 #
coedge $-1 -1 $-1 $247 $162 $248 $249 forward $85 $-1 #
coedge $-1 -1 $-1 $250 $251 $162 $203 reversed $252 $-1 #
edge $253 -1 $-1 $208 0 $254 12.67105187249885034 $202 $255 forward @7 unknown #
coedge $-1 -1 $-1 $196 $163 $169 $216 reversed $206 $-1 #
coedge $-1 -1 $-1 $163 $196 $250 $256 forward $206 $-1 #
loop $-1 -1 $-1 $-1 $196 $257 #
DXID-attrib $-1 -1 $-1 $-1 $164 @10 ASM ENTITY @36 5306e69a-1b36-41c8-a36d-42b9464a9f07 #
vertex $-1 -1 $-1 $203 $258 #
ellipse-curve $-1 -1 $-1 1611.261014280840755 2002.802759475594485 12.00000000000000178 0 0 1 0.003588533443519227074 4.999998712242680554 0 1 I I #
coedge $-1 -1 $-1 $165 $247 $259 $260 forward $85 $-1 #
coedge $-1 -1 $-1 $181 $180 $165 $212 reversed $115 $-1 #
edge $261 -1 $-1 $262 0 $214 12.67105187249882547 $211 $263 forward @7 unknown #
DXID-attrib $-1 -1 $-1 $-1 $167 @10 ASM ENTITY @36 98f3d1c9-057c-4755-a8cf-55cc858a9edb #
vertex $-1 -1 $-1 $167 $264 #
ellipse-curve $-1 -1 $-1 1728.414007726675209 2002.802759475594485 12.00000000000000178 0 0 1 4.473739644138069238 2.232857719709822497 0 1 I I #
edge $265 -1 $-1 $199 0 $173 1.200000000000000178 $169 $266 forward @7 tangent #
face $267 -1 $-1 $60 $170 $5 $-1 $268 forward single #
point $-1 -1 $-1 1728.414007726675209 2007.802759475594257 12.00000000000000178 #
point $-1 -1 $-1 1611.261014280840755 2007.802759475594257 12.00000000000000178 #
DXID-attrib $-1 -1 $-1 $-1 $176 @10 ASM ENTITY @36 eb26e917-24c6-4aec-96f4-a4cb6b758035 #
face $269 -1 $-1 $257 $252 $5 $-1 $270 forward single #
loop $-1 -1 $-1 $-1 $271 $176 #
cone-surface $-1 -1 $-1 1554.594347614174239 1889.469426142261227 0 0 0 1 -4.46690553767013121 2.246498368023424952 0 1 I I 0 1 4.999999999999999112 forward I I I I #
coedge $-1 -1 $-1 $272 $273 $274 $275 forward $177 $-1 #
coedge $-1 -1 $-1 $259 $179 $181 $229 forward $141 $-1 #
coedge $-1 -1 $-1 $179 $259 $272 $276 reversed $141 $-1 #
coedge $-1 -1 $-1 $274 $182 $179 $228 reversed $109 $-1 #
edge $277 -1 $-1 $278 0.002333669845527314417 $231 2.036777605641255651 $179 $279 forward @7 unknown #
edge $280 -1 $-1 $231 0 $262 1.200000000000000178 $225 $281 forward @7 tangent #
DXID-attrib $-1 -1 $-1 $-1 $183 @10 ASM ENTITY @36 f768ad9b-b920-4cc3-9cfb-a8cd4b3baca6 #
vertex $-1 -1 $-1 $183 $282 #
straight-curve $-1 -1 $-1 1789.552810348341382 1891.70549411976117 0 -4.472135954999588492 8.944271909999153891 0 F 0 F 12.67105187249882547 #
DXID-attrib $-1 -1 $-1 $-1 $184 @10 ASM ENTITY @36 2eb3481f-0ba5-4d95-a8a0-8f5fe1032b29 #
straight-curve $-1 -1 $-1 1728.414007726675209 2007.802759475594257 0 0 0 10 I I #
DXID-attrib $-1 -1 $-1 $-1 $185 @10 ASM ENTITY @36 08a330ae-3457-4076-9bc5-4980c89d1cbf #
straight-curve $-1 -1 $-1 1732.886143681674639 2005.038827453094655 0 0 0 10 I I #
point $-1 -1 $-1 1732.886143681674639 2005.038827453094655 0 #
point $-1 -1 $-1 1728.414007726675209 2007.802759475594257 0 #
point $-1 -1 $-1 1689.837511003758209 1965.064664237499528 0 #
coedge $-1 -1 $-1 $195 $274 $271 $283 reversed $109 $-1 #
coedge $-1 -1 $-1 $251 $250 $195 $242 forward $252 $-1 #
edge $284 -1 $-1 $244 0 $285 12.67105187249885034 $241 $286 forward @7 unknown #
DXID-attrib $-1 -1 $-1 $-1 $197 @10 ASM ENTITY @36 86217361-26e4-42e8-afd6-5c467890a8fb #
vertex $-1 -1 $-1 $242 $287 #
ellipse-curve $-1 -1 $-1 1611.261014280840755 2002.802759475594485 0 0 0 1 0.003588533443519227074 4.999998712242680554 0 1 F 0.0007177067503193140883 F 1.107866424544384332 #
point $-1 -1 $-1 1611.261014280840755 2007.802759475594257 0 #
coedge $-1 -1 $-1 $210 $201 $288 $289 forward $85 $-1 #
coedge $-1 -1 $-1 $290 $291 $201 $249 reversed $222 $-1 #
edge $292 -1 $-1 $254 0.002333669845615974833 $293 2.036777605641293398 $248 $294 forward @7 unknown #
coedge $-1 -1 $-1 $241 $202 $205 $256 reversed $252 $-1 #
coedge $-1 -1 $-1 $202 $241 $290 $295 forward $252 $-1 #
loop $-1 -1 $-1 $-1 $241 $221 #
DXID-attrib $-1 -1 $-1 $-1 $203 @10 ASM ENTITY @36 d21356fe-ccb9-45a1-8f3c-3e1340e5e830 #
vertex $-1 -1 $-1 $249 $296 #
straight-curve $-1 -1 $-1 1606.788878325841097 2005.038827453094655 12.00000000000000178 -4.47213595499957961 -8.94427190999915922 0 I I #
edge $297 -1 $-1 $244 0 $208 1.200000000000000178 $205 $298 forward @7 tangent #
face $299 -1 $-1 $217 $206 $5 $-1 $300 forward single #
point $-1 -1 $-1 1606.788878325841097 2005.038827453094655 12.00000000000000178 #
coedge $-1 -1 $-1 $226 $225 $210 $260 reversed $141 $-1 #
edge $301 -1 $-1 $302 0.002333669845527314417 $262 2.036777605641255651 $259 $303 forward @7 unknown #
DXID-attrib $-1 -1 $-1 $-1 $212 @10 ASM ENTITY @36 ccddb2e5-5da2-4af9-b89c-9e3385c030cd #
vertex $-1 -1 $-1 $212 $304 #
straight-curve $-1 -1 $-1 1789.552810348341382 1891.70549411976117 12.00000000000000178 -4.472135954999588492 8.944271909999153891 0 I I #
point $-1 -1 $-1 1732.886143681674639 2005.038827453094655 12.00000000000000178 #
DXID-attrib $-1 -1 $-1 $-1 $216 @10 ASM ENTITY @36 985b59be-e641-4ee8-8146-32a3776e1e00 #
straight-curve $-1 -1 $-1 1611.261014280840755 2007.802759475594257 0 0 0 10 I I #
DXID-attrib $-1 -1 $-1 $-1 $217 @10 ASM ENTITY @36 7b35d155-1ba1-4435-b93a-1d1e7c455a76 #
plane-surface $-1 -1 $-1 1728.414007726675209 2007.802759475594257 0 0 1 0 -10 0 0 forward_v I I I I #
DXID-attrib $-1 -1 $-1 $-1 $221 @10 ASM ENTITY @36 0404aaa4-82fc-4152-9ed9-b0316e4299a0 #
plane-surface $-1 -1 $-1 1606.788878325841097 2005.038827453094655 0 -0.8944271909999159664 0.4472135954999579832 0 -4.47213595499957961 -8.94427190999915922 0 forward_v I I I I #
coedge $-1 -1 $-1 $291 $290 $240 $283 forward $222 $-1 #
coedge $-1 -1 $-1 $288 $224 $226 $276 forward $177 $-1 #
coedge $-1 -1 $-1 $224 $288 $291 $305 reversed $177 $-1 #
coedge $-1 -1 $-1 $240 $227 $224 $275 reversed $109 $-1 #
edge $306 -1 $-1 $307 0 $278 23.04863267791677117 $224 $308 forward @7 unknown #
edge $309 -1 $-1 $278 0 $302 1.200000000000000178 $272 $310 forward @7 tangent #
DXID-attrib $-1 -1 $-1 $-1 $228 @10 ASM ENTITY @36 f573f7e2-93ae-409e-8902-3ac37330e031 #
vertex $-1 -1 $-1 $228 $311 #
ellipse-curve $-1 -1 $-1 1785.080674393341724 1889.469426142261227 0 0 0 1 -0.0116683386366387299 -4.999986384968805986 0 1 F 0.002333669845527314417 F 2.036777605641255651 #
DXID-attrib $-1 -1 $-1 $-1 $229 @10 ASM ENTITY @36 5ea6a98e-ddec-437c-8cb4-33a1c63226a0 #
straight-curve $-1 -1 $-1 1789.552810348341382 1891.70549411976117 0 0 0 10 I I #
point $-1 -1 $-1 1789.552810348341382 1891.70549411976117 0 #
edge $312 -1 $-1 $285 0.002333669845615974833 $307 2.036777605641293398 $271 $313 forward @7 unknown #
DXID-attrib $-1 -1 $-1 $-1 $242 @10 ASM ENTITY @36 64ecbdcc-b80e-4bd3-8b47-ada7314866f9 #
vertex $-1 -1 $-1 $283 $314 #
straight-curve $-1 -1 $-1 1606.788878325841097 2005.038827453094655 0 -4.47213595499957961 -8.94427190999915922 0 F 0 F 12.67105187249885034 #
point $-1 -1 $-1 1606.788878325841097 2005.038827453094655 0 #
coedge $-1 -1 $-1 $273 $272 $247 $289 reversed $177 $-1 #
edge $315 -1 $-1 $293 0 $302 23.04863267791677117 $288 $316 forward @7 unknown #
coedge $-1 -1 $-1 $271 $248 $251 $295 reversed $222 $-1 #
coedge $-1 -1 $-1 $248 $271 $273 $305 forward $222 $-1 #
DXID-attrib $-1 -1 $-1 $-1 $249 @10 ASM ENTITY @36 1d128496-b33d-4edb-bb10-3f7566feb4aa #
vertex $-1 -1 $-1 $289 $317 #
ellipse-curve $-1 -1 $-1 1554.594347614174239 1889.469426142261227 12.00000000000000178 0 0 1 -4.46690553767013121 2.246498368023424952 0 1 I I #
edge $318 -1 $-1 $285 0 $254 1.200000000000000178 $251 $319 forward @7 tangent #
point $-1 -1 $-1 1550.122211659174354 1891.705494119760715 12.00000000000000178 #
DXID-attrib $-1 -1 $-1 $-1 $256 @10 ASM ENTITY @36 be9cc227-93ca-428b-9787-09fa80da8f18 #
straight-curve $-1 -1 $-1 1606.788878325841097 2005.038827453094655 0 0 0 10 I I #
DXID-attrib $-1 -1 $-1 $-1 $257 @10 ASM ENTITY @36 a5200510-8dd6-435b-82b8-7579800bec73 #
cone-surface $-1 -1 $-1 1611.261014280840755 2002.802759475594485 0 0 0 1 0.003588533443519227074 4.999998712242680554 0 1 I I 0 1 5.000000000000072831 forward I I I I #
DXID-attrib $-1 -1 $-1 $-1 $260 @10 ASM ENTITY @36 3f00242a-2bb0-4144-a430-1f59bc205e72 #
vertex $-1 -1 $-1 $260 $320 #
ellipse-curve $-1 -1 $-1 1785.080674393341724 1889.469426142261227 12.00000000000000178 0 0 1 -0.0116683386366387299 -4.999986384968805986 0 1 I I #
point $-1 -1 $-1 1789.552810348341382 1891.70549411976117 12.00000000000000178 #
edge $321 -1 $-1 $307 0 $293 1.200000000000000178 $291 $322 forward @7 tangent #
DXID-attrib $-1 -1 $-1 $-1 $275 @10 ASM ENTITY @36 a562d309-8cb5-44f1-853c-939e6a9bd323 #
vertex $-1 -1 $-1 $275 $323 #
straight-curve $-1 -1 $-1 1554.594347614174239 1884.469426142261455 0 10 0 0 F 0 F 23.04863267791677117 #
DXID-attrib $-1 -1 $-1 $-1 $276 @10 ASM ENTITY @36 3a4b6bd5-19e7-4913-a86e-c228ff868436 #
straight-curve $-1 -1 $-1 1785.080674393341724 1884.469426142261455 0 0 0 10 I I #
point $-1 -1 $-1 1785.080674393341724 1884.469426142261455 0 #
DXID-attrib $-1 -1 $-1 $-1 $283 @10 ASM ENTITY @36 c1e4572b-ef67-49f5-aab2-db3339d7cf99 #
ellipse-curve $-1 -1 $-1 1554.594347614174239 1889.469426142261227 0 0 0 1 -4.46690553767013121 2.246498368023424952 0 1 F 0.002333669845615974833 F 2.036777605641293398 #
point $-1 -1 $-1 1550.122211659174354 1891.705494119760715 0 #
DXID-attrib $-1 -1 $-1 $-1 $289 @10 ASM ENTITY @36 adccee8b-31b9-4a29-a335-8e5f9cbba71a #
straight-curve $-1 -1 $-1 1554.594347614174239 1884.469426142261455 12.00000000000000178 10 0 0 I I #
point $-1 -1 $-1 1554.594347614174239 1884.469426142261455 12.00000000000000178 #
DXID-attrib $-1 -1 $-1 $-1 $295 @10 ASM ENTITY @36 d05b86b3-0334-45b3-9113-45234638fef7 #
straight-curve $-1 -1 $-1 1550.122211659174354 1891.705494119760715 0 0 0 10 I I #
point $-1 -1 $-1 1785.080674393341724 1884.469426142261455 12.00000000000000178 #
DXID-attrib $-1 -1 $-1 $-1 $305 @10 ASM ENTITY @36 6d36042d-1ea6-469f-b924-40764eeb282c #
straight-curve $-1 -1 $-1 1554.594347614174239 1884.469426142261455 0 0 0 10 I I #
point $-1 -1 $-1 1554.594347614174239 1884.469426142261455 0 #
End-of-ACIS-data 