700 0 1 0           
30 Autodesk Translation Framework 20 ASM 229.3.0.65535 NT 24 Wed May 24 15:02:27 2023 
1 9.999999999999999547e-07 1.000000000000000036e-10 
body $1 -1 $-1 $2 $-1 $3 #
rgb_color-st-attrib $-1 -1 $4 $-1 $0 0.7490196078431372584 0.7490196078431372584 0.7490196078431372584 #
lump $-1 -1 $-1 $-1 $5 $0 #
transform $-1 -1 1 0 0 0 1 0 0 0 1 0 0 0 1 no_rotate no_reflect no_shear #
DXID-attrib $-1 -1 $-1 $1 $0 @10 ASM ENTITY @114 SOPORTE_LATERAL_I_MESA_1.IPT|:|7F682B18EE56325F54DABA51C6EA8B0859EA3C46|:|DA4B9237BACCCDF19C0760CAB7AEC4A8359010B0 #
shell $-1 -1 $-1 $-1 $-1 $6 $-1 $2 #
face $7 -1 $-1 $8 $9 $5 $-1 $10 forward single #
DXID-attrib $-1 -1 $-1 $-1 $6 @10 ASM ENTITY @36 e303413c-ae10-41cb-88b6-eae1ea279dd0 #
face $11 -1 $-1 $12 $13 $5 $-1 $14 forward single #
loop $-1 -1 $-1 $15 $16 $6 #
cone-surface $-1 -1 $-1 -18.49973625672305388 43.38723717676145952 0 0 0 1 -1.500000000000001332 0 0 1 I I 0 -1 1.500000000000001332 forward I I I I #
DXID-attrib $-1 -1 $-1 $-1 $8 @10 ASM ENTITY @36 13ece3e4-d4bd-41c3-a2c8-b3dce9d70bed #
face $17 -1 $-1 $18 $19 $5 $-1 $20 forward single #
loop $-1 -1 $-1 $21 $22 $8 #
cone-surface $-1 -1 $-1 -18.49973625672305388 8.149141938665991347 0 0 0 1 -1.500000000000001332 0 0 1 I I 0 -1 1.500000000000001332 forward I I I I #
loop $-1 -1 $-1 $-1 $23 $6 #
coedge $-1 -1 $-1 $16 $16 $24 $25 reversed $9 $-1 #
DXID-attrib $-1 -1 $-1 $-1 $12 @10 ASM ENTITY @36 bf215054-9db1-4df5-abd9-47187ee8e4cb #
face $26 -1 $-1 $27 $28 $5 $-1 $29 forward single #
loop $-1 -1 $-1 $30 $31 $12 #
cone-surface $-1 -1 $-1 18.50026374327683243 43.38723717676145952 0 0 0 1 -1.500000000000001332 0 0 1 I I 0 -1 1.500000000000001332 forward I I I I #
loop $-1 -1 $-1 $-1 $32 $8 #
coedge $-1 -1 $-1 $22 $22 $33 $34 reversed $13 $-1 #
coedge $-1 -1 $-1 $23 $23 $35 $36 forward $15 $-1 #
coedge $-1 -1 $-1 $24 $24 $16 $25 forward $37 $-1 #
edge $38 -1 $-1 $39 -3.141592653589793116 $39 3.141592653589793116 $16 $40 forward @7 unknown #
DXID-attrib $-1 -1 $-1 $-1 $18 @10 ASM ENTITY @36 b3ca0748-2c67-4e3c-b1f6-abc4efa1eec4 #
face $41 -1 $-1 $42 $43 $5 $-1 $44 forward single #
loop $-1 -1 $-1 $45 $46 $18 #
cone-surface $-1 -1 $-1 18.50026374327683243 8.149141938665991347 0 0 0 1 -1.500000000000001332 0 0 1 I I 0 -1 1.500000000000001332 forward I I I I #
loop $-1 -1 $-1 $-1 $47 $12 #
coedge $-1 -1 $-1 $31 $31 $48 $49 reversed $19 $-1 #
coedge $-1 -1 $-1 $32 $32 $50 $51 forward $21 $-1 #
coedge $-1 -1 $-1 $33 $33 $22 $34 forward $52 $-1 #
edge $53 -1 $-1 $54 -3.141592653589793116 $54 3.141592653589793116 $22 $55 forward @7 unknown #
coedge $-1 -1 $-1 $35 $35 $23 $36 reversed $56 $-1 #
edge $57 -1 $-1 $58 -3.141592653589793116 $58 3.141592653589793116 $23 $59 forward @7 unknown #
loop $-1 -1 $-1 $-1 $24 $60 #
DXID-attrib $-1 -1 $-1 $-1 $25 @10 ASM ENTITY @36 ffedc672-9aef-4ba7-b3b9-02af1115d0db #
vertex $-1 -1 $-1 $25 $61 #
ellipse-curve $-1 -1 $-1 -18.49973625672305388 43.38723717676145952 12.00000000000000178 0 0 -1 -1.500000000000001332 -0 -0 1 I I #
DXID-attrib $-1 -1 $-1 $-1 $27 @10 ASM ENTITY @36 a2b7434a-b5d8-4c19-a2d9-78b5109f0a29 #
face $62 -1 $-1 $63 $64 $5 $-1 $65 forward single #
loop $-1 -1 $-1 $66 $67 $27 #
cone-surface $-1 -1 $-1 -18.49973625672305388 25.76818955771386754 0 0 0 1 -1.500000000000001332 0 0 1 I I 0 -1 1.500000000000001332 forward I I I I #
loop $-1 -1 $-1 $-1 $68 $18 #
coedge $-1 -1 $-1 $46 $46 $69 $70 reversed $28 $-1 #
coedge $-1 -1 $-1 $47 $47 $71 $72 forward $30 $-1 #
coedge $-1 -1 $-1 $48 $48 $31 $49 forward $73 $-1 #
edge $74 -1 $-1 $75 -3.141592653589793116 $75 3.141592653589793116 $31 $76 forward @7 unknown #
coedge $-1 -1 $-1 $50 $50 $32 $51 reversed $77 $-1 #
edge $78 -1 $-1 $79 -3.141592653589793116 $79 3.141592653589793116 $32 $80 forward @7 unknown #
loop $-1 -1 $-1 $37 $33 $60 #
DXID-attrib $-1 -1 $-1 $-1 $34 @10 ASM ENTITY @36 1c6612b5-97be-4812-b664-b3010f0c8b17 #
vertex $-1 -1 $-1 $34 $81 #
ellipse-curve $-1 -1 $-1 -18.49973625672305388 8.149141938665991347 12.00000000000000178 0 0 -1 -1.500000000000001332 -0 -0 1 I I #
loop $-1 -1 $-1 $-1 $35 $82 #
DXID-attrib $-1 -1 $-1 $-1 $36 @10 ASM ENTITY @36 a10b52ec-01aa-4ab9-929a-fa0bbcfbf235 #
vertex $-1 -1 $-1 $36 $83 #
ellipse-curve $-1 -1 $-1 -18.49973625672305388 43.38723717676145952 0 0 0 -1 -1.500000000000001332 -0 -0 1 I I #
face $84 -1 $-1 $82 $85 $5 $-1 $86 forward single #
point $-1 -1 $-1 -16.99973625672299704 43.38723717676145952 12.00000000000000178 #
DXID-attrib $-1 -1 $-1 $-1 $42 @10 ASM ENTITY @36 2ebbc372-b613-4252-a13f-c4df0a56d4db #
face $87 -1 $-1 $88 $89 $5 $-1 $90 forward single #
loop $-1 -1 $-1 $91 $92 $42 #
cone-surface $-1 -1 $-1 18.50026374327683243 25.76818955771386754 0 0 0 1 -1.500000000000001332 0 0 1 I I 0 -1 1.500000000000001332 forward I I I I #
loop $-1 -1 $-1 $-1 $93 $27 #
coedge $-1 -1 $-1 $67 $67 $94 $95 reversed $43 $-1 #
coedge $-1 -1 $-1 $68 $68 $96 $97 forward $45 $-1 #
coedge $-1 -1 $-1 $69 $69 $46 $70 forward $98 $-1 #
edge $99 -1 $-1 $100 -3.141592653589793116 $100 3.141592653589793116 $46 $101 forward @7 unknown #
coedge $-1 -1 $-1 $71 $71 $47 $72 reversed $102 $-1 #
edge $103 -1 $-1 $104 -3.141592653589793116 $104 3.141592653589793116 $47 $105 forward @7 unknown #
loop $-1 -1 $-1 $52 $48 $60 #
DXID-attrib $-1 -1 $-1 $-1 $49 @10 ASM ENTITY @36 b073bec4-bfae-4154-bcdd-a9604837c937 #
vertex $-1 -1 $-1 $49 $106 #
ellipse-curve $-1 -1 $-1 18.50026374327683243 43.38723717676145952 12.00000000000000178 0 0 -1 -1.500000000000001332 -0 -0 1 I I #
loop $-1 -1 $-1 $56 $50 $82 #
DXID-attrib $-1 -1 $-1 $-1 $51 @10 ASM ENTITY @36 491ce04a-0806-4175-98b0-9539790b76e9 #
vertex $-1 -1 $-1 $51 $107 #
ellipse-curve $-1 -1 $-1 -18.49973625672305388 8.149141938665991347 0 0 0 -1 -1.500000000000001332 -0 -0 1 I I #
point $-1 -1 $-1 -16.99973625672299704 8.149141938665991347 12.00000000000000178 #
face $108 -1 $-1 $-1 $109 $5 $-1 $110 reversed single #
point $-1 -1 $-1 -16.99973625672299704 43.38723717676145952 0 #
DXID-attrib $-1 -1 $-1 $-1 $60 @10 ASM ENTITY @36 f226cf5c-32aa-4460-a135-2dab77909390 #
loop $-1 -1 $-1 $111 $112 $60 #
plane-surface $-1 -1 $-1 0.0002637432767471636907 6.839618129142195357 12.00000000000000178 0 0 1 10 0 0 forward_v I I I I #
DXID-attrib $-1 -1 $-1 $-1 $63 @10 ASM ENTITY @36 b9438787-a55d-4d99-be85-671094e3238c #
face $113 -1 $-1 $114 $115 $5 $-1 $116 forward single #
loop $-1 -1 $-1 $-1 $117 $63 #
cone-surface $-1 -1 $-1 58.5767604661940311 63.50628479580876729 0 0 0 1 4.473739644138098548 2.232857719709766098 0 1 I I 0 1 5.000000000000037303 forward I I I I #
loop $-1 -1 $-1 $-1 $118 $42 #
coedge $-1 -1 $-1 $92 $92 $119 $120 reversed $64 $-1 #
coedge $-1 -1 $-1 $93 $93 $121 $122 forward $66 $-1 #
coedge $-1 -1 $-1 $94 $94 $67 $95 forward $123 $-1 #
edge $124 -1 $-1 $125 -3.141592653589793116 $125 3.141592653589793116 $67 $126 forward @7 unknown #
coedge $-1 -1 $-1 $96 $96 $68 $97 reversed $127 $-1 #
edge $128 -1 $-1 $129 -3.141592653589793116 $129 3.141592653589793116 $68 $130 forward @7 unknown #
loop $-1 -1 $-1 $73 $69 $60 #
DXID-attrib $-1 -1 $-1 $-1 $70 @10 ASM ENTITY @36 7ffffd28-b3dd-40ec-a7ad-a1f84e42e381 #
vertex $-1 -1 $-1 $70 $131 #
ellipse-curve $-1 -1 $-1 18.50026374327683243 8.149141938665991347 12.00000000000000178 0 0 -1 -1.500000000000001332 -0 -0 1 I I #
loop $-1 -1 $-1 $77 $71 $82 #
DXID-attrib $-1 -1 $-1 $-1 $72 @10 ASM ENTITY @36 01cff9ed-a4c8-4b2e-94d1-d7e577360e9a #
vertex $-1 -1 $-1 $72 $132 #
ellipse-curve $-1 -1 $-1 18.50026374327683243 43.38723717676145952 0 0 0 -1 -1.500000000000001332 -0 -0 1 I I #
point $-1 -1 $-1 20.00026374327688927 43.38723717676145952 12.00000000000000178 #
point $-1 -1 $-1 -16.99973625672299704 8.149141938665991347 0 #
DXID-attrib $-1 -1 $-1 $-1 $82 @10 ASM ENTITY @36 457dabf6-2262-45bd-b540-afbac3404610 #
loop $-1 -1 $-1 $133 $134 $82 #
plane-surface $-1 -1 $-1 0.0002637432767471636907 6.839618129142195357 0 0 0 1 10 0 0 forward_v I I I I #
loop $-1 -1 $-1 $123 $119 $60 #
coedge $-1 -1 $-1 $135 $136 $137 $138 forward $85 $-1 #
DXID-attrib $-1 -1 $-1 $-1 $88 @10 ASM ENTITY @36 94fd20b0-31bc-4cb5-a814-b2d91ec5f8bb #
face $139 -1 $-1 $140 $141 $5 $-1 $142 forward single #
loop $-1 -1 $-1 $-1 $143 $88 #
plane-surface $-1 -1 $-1 119.7155630878603461 -47.590980560024434 0 0.8944271909999154113 0.4472135954999588159 0 -4.472135954999588492 8.944271909999153891 0 forward_v I I I I #
coedge $-1 -1 $-1 $144 $145 $146 $147 forward $89 $-1 #
coedge $-1 -1 $-1 $118 $118 $148 $149 forward $91 $-1 #
coedge $-1 -1 $-1 $119 $119 $92 $120 forward $111 $-1 #
edge $150 -1 $-1 $151 -3.141592653589793116 $151 3.141592653589793116 $92 $152 forward @7 unknown #
coedge $-1 -1 $-1 $121 $121 $93 $122 reversed $153 $-1 #
edge $154 -1 $-1 $155 -3.141592653589793116 $155 3.141592653589793116 $93 $156 forward @7 unknown #
loop $-1 -1 $-1 $98 $94 $60 #
DXID-attrib $-1 -1 $-1 $-1 $95 @10 ASM ENTITY @36 25779869-5b37-4257-8fa3-5a4fdfe27f36 #
vertex $-1 -1 $-1 $95 $157 #
ellipse-curve $-1 -1 $-1 -18.49973625672305388 25.76818955771386754 12.00000000000000178 0 0 -1 -1.500000000000001332 -0 -0 1 I I #
loop $-1 -1 $-1 $102 $96 $82 #
DXID-attrib $-1 -1 $-1 $-1 $97 @10 ASM ENTITY @36 23581567-eab0-413c-9a9d-f6a4889ce23a #
vertex $-1 -1 $-1 $97 $158 #
ellipse-curve $-1 -1 $-1 18.50026374327683243 8.149141938665991347 0 0 0 -1 -1.500000000000001332 -0 -0 1 I I #
point $-1 -1 $-1 20.00026374327688927 8.149141938665991347 12.00000000000000178 #
point $-1 -1 $-1 20.00026374327688927 43.38723717676145952 0 #
loop $-1 -1 $-1 $153 $148 $82 #
coedge $-1 -1 $-1 $146 $159 $160 $161 reversed $109 $-1 #
coedge $-1 -1 $-1 $162 $112 $163 $164 forward $85 $-1 #
coedge $-1 -1 $-1 $112 $165 $166 $167 forward $85 $-1 #
coedge $-1 -1 $-1 $168 $169 $112 $138 reversed $170 $-1 #
edge $171 -1 $-1 $172 0 $173 11.71529934458344258 $137 $174 forward @7 unknown #
DXID-attrib $-1 -1 $-1 $-1 $114 @10 ASM ENTITY @36 ad38cb6f-f85c-44be-9cea-38fe1844d9eb #
face $175 -1 $-1 $176 $177 $5 $-1 $178 forward single #
loop $-1 -1 $-1 $-1 $179 $114 #
cone-surface $-1 -1 $-1 115.243427132860603 -49.82704853752437657 0 0 0 1 -0.01166833863678083671 -4.999986384968805098 0 1 I I 0 1 4.999999999999995559 forward I I I I #
coedge $-1 -1 $-1 $180 $181 $182 $183 forward $115 $-1 #
coedge $-1 -1 $-1 $166 $117 $168 $184 forward $89 $-1 #
coedge $-1 -1 $-1 $117 $166 $180 $185 reversed $89 $-1 #
coedge $-1 -1 $-1 $182 $134 $117 $147 reversed $109 $-1 #
edge $186 -1 $-1 $187 0.0007177067502844012604 $188 1.107866424544349471 $117 $189 forward @7 unknown #
coedge $-1 -1 $-1 $148 $148 $118 $149 reversed $133 $-1 #
edge $190 -1 $-1 $191 -3.141592653589793116 $191 3.141592653589793116 $118 $192 forward @7 unknown #
DXID-attrib $-1 -1 $-1 $-1 $120 @10 ASM ENTITY @36 4db068de-e6e2-4012-a437-5802419c49d0 #
vertex $-1 -1 $-1 $120 $193 #
ellipse-curve $-1 -1 $-1 18.50026374327683243 25.76818955771386754 12.00000000000000178 0 0 -1 -1.500000000000001332 -0 -0 1 I I #
loop $-1 -1 $-1 $127 $121 $82 #
DXID-attrib $-1 -1 $-1 $-1 $122 @10 ASM ENTITY @36 d62168a1-92c0-4abf-8b56-afb83a864dec #
vertex $-1 -1 $-1 $122 $194 #
ellipse-curve $-1 -1 $-1 -18.49973625672305388 25.76818955771386754 0 0 0 -1 -1.500000000000001332 -0 -0 1 I I #
point $-1 -1 $-1 -16.99973625672299704 25.76818955771386754 12.00000000000000178 #
point $-1 -1 $-1 20.00026374327688927 8.149141938665991347 0 #
coedge $-1 -1 $-1 $134 $195 $196 $197 reversed $109 $-1 #
coedge $-1 -1 $-1 $169 $168 $134 $161 forward $170 $-1 #
edge $198 -1 $-1 $188 0 $199 11.71529934458344258 $160 $200 forward @7 unknown #
coedge $-1 -1 $-1 $201 $135 $202 $203 forward $85 $-1 #
coedge $-1 -1 $-1 $204 $205 $135 $164 reversed $206 $-1 #
edge $207 -1 $-1 $173 0.0007177067503192732139 $208 1.107866424544384332 $163 $209 forward @7 unknown #
coedge $-1 -1 $-1 $136 $210 $211 $212 forward $85 $-1 #
coedge $-1 -1 $-1 $145 $144 $136 $167 reversed $89 $-1 #
edge $213 -1 $-1 $214 0.0007177067502844012604 $172 1.107866424544349471 $166 $215 forward @7 unknown #
coedge $-1 -1 $-1 $160 $137 $144 $184 reversed $170 $-1 #
coedge $-1 -1 $-1 $137 $160 $204 $216 forward $170 $-1 #
loop $-1 -1 $-1 $-1 $160 $217 #
DXID-attrib $-1 -1 $-1 $-1 $138 @10 ASM ENTITY @36 d7ac0003-e764-4047-aa9a-8ffef3e20571 #
vertex $-1 -1 $-1 $184 $218 #
vertex $-1 -1 $-1 $164 $219 #
straight-curve $-1 -1 $-1 58.5767604661940311 68.50628479580876729 12.00000000000000178 -10 0 0 I I #
DXID-attrib $-1 -1 $-1 $-1 $140 @10 ASM ENTITY @36 ce2ed97b-c9b5-4d87-9864-aa7d01986587 #
face $220 -1 $-1 $221 $222 $5 $-1 $223 forward single #
loop $-1 -1 $-1 $-1 $224 $140 #
plane-surface $-1 -1 $-1 -115.2428996463069666 -54.82704853752437657 0 0 -1 0 10 0 0 forward_v I I I I #
coedge $-1 -1 $-1 $225 $226 $227 $228 forward $141 $-1 #
coedge $-1 -1 $-1 $211 $143 $145 $185 forward $115 $-1 #
coedge $-1 -1 $-1 $143 $211 $225 $229 reversed $115 $-1 #
coedge $-1 -1 $-1 $227 $146 $143 $183 reversed $109 $-1 #
edge $230 -1 $-1 $231 0 $187 12.6710518724987935 $143 $232 forward @7 unknown #
edge $233 -1 $-1 $188 0 $172 1.200000000000000178 $168 $234 forward @7 tangent #
edge $235 -1 $-1 $187 0 $214 1.200000000000000178 $180 $236 forward @7 tangent #
DXID-attrib $-1 -1 $-1 $-1 $147 @10 ASM ENTITY @36 8272fc06-7bfb-4b84-b865-21741a814d04 #
vertex $-1 -1 $-1 $147 $237 #
vertex $-1 -1 $-1 $147 $238 #
ellipse-curve $-1 -1 $-1 58.5767604661940311 63.50628479580876729 0 0 0 1 4.473739644138098548 2.232857719709766098 0 1 F 0.0007177067502844012604 F 1.107866424544349471 #
DXID-attrib $-1 -1 $-1 $-1 $149 @10 ASM ENTITY @36 ae516679-a377-4d63-9ab1-8ccc3fb2d63a #
vertex $-1 -1 $-1 $149 $239 #
ellipse-curve $-1 -1 $-1 18.50026374327683243 25.76818955771386754 0 0 0 -1 -1.500000000000001332 -0 -0 1 I I #
point $-1 -1 $-1 20.00026374327688927 25.76818955771386754 12.00000000000000178 #
point $-1 -1 $-1 -16.99973625672299704 25.76818955771386754 0 #
coedge $-1 -1 $-1 $159 $240 $241 $242 reversed $109 $-1 #
coedge $-1 -1 $-1 $205 $204 $159 $197 forward $206 $-1 #
edge $243 -1 $-1 $199 0.0007177067503192732139 $244 1.107866424544384332 $196 $245 forward @7 unknown #
DXID-attrib $-1 -1 $-1 $-1 $161 @10 ASM ENTITY @36 032fc8a5-2225-4c25-8815-9af91bd7ab4a #
vertex $-1 -1 $-1 $197 $246 #
straight-curve $-1 -1 $-1 58.5767604661940311 68.50628479580876729 0 -10 0 0 F 0 F 11.71529934458344258 #
coedge $-1 -1 $-1 $247 $162 $248 $249 forward $85 $-1 #
coedge $-1 -1 $-1 $250 $251 $162 $203 reversed $252 $-1 #
edge $253 -1 $-1 $208 0 $254 12.67105187249882547 $202 $255 forward @7 unknown #
coedge $-1 -1 $-1 $196 $163 $169 $216 reversed $206 $-1 #
coedge $-1 -1 $-1 $163 $196 $250 $256 forward $206 $-1 #
loop $-1 -1 $-1 $-1 $196 $257 #
DXID-attrib $-1 -1 $-1 $-1 $164 @10 ASM ENTITY @36 c9f53cf4-c731-4325-b011-aee35646f655 #
vertex $-1 -1 $-1 $203 $258 #
ellipse-curve $-1 -1 $-1 -58.57623297964039466 63.50628479580876729 12.00000000000000178 0 0 1 0.003588533443519022377 4.999998712242680554 0 1 I I #
coedge $-1 -1 $-1 $165 $247 $259 $260 forward $85 $-1 #
coedge $-1 -1 $-1 $181 $180 $165 $212 reversed $115 $-1 #
edge $261 -1 $-1 $262 0 $214 12.6710518724987935 $211 $263 forward @7 unknown #
DXID-attrib $-1 -1 $-1 $-1 $167 @10 ASM ENTITY @36 3a549215-0191-4fa9-9df7-6c82e369b5f5 #
vertex $-1 -1 $-1 $167 $264 #
ellipse-curve $-1 -1 $-1 58.5767604661940311 63.50628479580876729 12.00000000000000178 0 0 1 4.473739644138098548 2.232857719709766098 0 1 I I #
edge $265 -1 $-1 $199 0 $173 1.200000000000000178 $169 $266 forward @7 tangent #
face $267 -1 $-1 $60 $170 $5 $-1 $268 forward single #
point $-1 -1 $-1 58.5767604661940311 68.50628479580876729 12.00000000000000178 #
point $-1 -1 $-1 -58.57623297964039466 68.50628479580876729 12.00000000000000178 #
DXID-attrib $-1 -1 $-1 $-1 $176 @10 ASM ENTITY @36 7ca9472b-0cc3-4340-8fdb-fa433b878ca2 #
face $269 -1 $-1 $257 $252 $5 $-1 $270 forward single #
loop $-1 -1 $-1 $-1 $271 $176 #
cone-surface $-1 -1 $-1 -115.2428996463069666 -49.82704853752437657 0 0 0 1 -4.466905537670102788 2.246498368023482239 0 1 I I 0 1 4.999999999999999112 forward I I I I #
coedge $-1 -1 $-1 $272 $273 $274 $275 forward $177 $-1 #
coedge $-1 -1 $-1 $259 $179 $181 $229 forward $141 $-1 #
coedge $-1 -1 $-1 $179 $259 $272 $276 reversed $141 $-1 #
coedge $-1 -1 $-1 $274 $182 $179 $228 reversed $109 $-1 #
edge $277 -1 $-1 $278 0.002333669845555736127 $231 2.036777605641284072 $179 $279 forward @7 unknown #
edge $280 -1 $-1 $231 0 $262 1.200000000000000178 $225 $281 forward @7 tangent #
DXID-attrib $-1 -1 $-1 $-1 $183 @10 ASM ENTITY @36 225402df-9b88-4a57-a58d-157c9d5b5bdc #
vertex $-1 -1 $-1 $183 $282 #
straight-curve $-1 -1 $-1 119.7155630878603461 -47.590980560024434 0 -4.472135954999588492 8.944271909999153891 0 F 0 F 12.6710518724987935 #
DXID-attrib $-1 -1 $-1 $-1 $184 @10 ASM ENTITY @36 daadeb16-e64e-4f5e-88c7-69d41116a3ef #
straight-curve $-1 -1 $-1 58.5767604661940311 68.50628479580876729 0 0 0 10 I I #
DXID-attrib $-1 -1 $-1 $-1 $185 @10 ASM ENTITY @36 7d6b2650-603b-4eff-a8ed-15dac976edc2 #
straight-curve $-1 -1 $-1 63.04889642119363202 65.74235277330870986 0 0 0 10 I I #
point $-1 -1 $-1 63.04889642119363202 65.74235277330870986 0 #
point $-1 -1 $-1 58.5767604661940311 68.50628479580876729 0 #
point $-1 -1 $-1 20.00026374327688927 25.76818955771386754 0 #
coedge $-1 -1 $-1 $195 $274 $271 $283 reversed $109 $-1 #
coedge $-1 -1 $-1 $251 $250 $195 $242 forward $252 $-1 #
edge $284 -1 $-1 $244 0 $285 12.67105187249882547 $241 $286 forward @7 unknown #
DXID-attrib $-1 -1 $-1 $-1 $197 @10 ASM ENTITY @36 31552407-54d4-4f1e-812b-fb2b1405bae6 #
vertex $-1 -1 $-1 $242 $287 #
ellipse-curve $-1 -1 $-1 -58.57623297964039466 63.50628479580876729 0 0 0 1 0.003588533443519022377 4.999998712242680554 0 1 F 0.0007177067503192732139 F 1.107866424544384332 #
point $-1 -1 $-1 -58.57623297964039466 68.50628479580876729 0 #
coedge $-1 -1 $-1 $210 $201 $288 $289 forward $85 $-1 #
coedge $-1 -1 $-1 $290 $291 $201 $249 reversed $222 $-1 #
edge $292 -1 $-1 $254 0.002333669845628797042 $293 2.036777605641306277 $248 $294 forward @7 unknown #
coedge $-1 -1 $-1 $241 $202 $205 $256 reversed $252 $-1 #
coedge $-1 -1 $-1 $202 $241 $290 $295 forward $252 $-1 #
loop $-1 -1 $-1 $-1 $241 $221 #
DXID-attrib $-1 -1 $-1 $-1 $203 @10 ASM ENTITY @36 70393c96-a652-438e-ae82-fe7fa31ea9ba #
vertex $-1 -1 $-1 $249 $296 #
straight-curve $-1 -1 $-1 -63.04836893463985348 65.74235277330870986 12.00000000000000178 -4.472135954999588492 -8.944271909999153891 0 I I #
edge $297 -1 $-1 $244 0 $208 1.200000000000000178 $205 $298 forward @7 tangent #
face $299 -1 $-1 $217 $206 $5 $-1 $300 forward single #
point $-1 -1 $-1 -63.04836893463985348 65.74235277330870986 12.00000000000000178 #
coedge $-1 -1 $-1 $226 $225 $210 $260 reversed $141 $-1 #
edge $301 -1 $-1 $302 0.002333669845555736127 $262 2.036777605641284072 $259 $303 forward @7 unknown #
DXID-attrib $-1 -1 $-1 $-1 $212 @10 ASM ENTITY @36 3ec48b05-538e-4175-80cf-688064c8d4fc #
vertex $-1 -1 $-1 $212 $304 #
straight-curve $-1 -1 $-1 119.7155630878603461 -47.590980560024434 12.00000000000000178 -4.472135954999588492 8.944271909999153891 0 I I #
point $-1 -1 $-1 63.04889642119363202 65.74235277330870986 12.00000000000000178 #
DXID-attrib $-1 -1 $-1 $-1 $216 @10 ASM ENTITY @36 5b68b49b-0634-45d1-9d71-321aa906b6b4 #
straight-curve $-1 -1 $-1 -58.57623297964039466 68.50628479580876729 0 0 0 10 I I #
DXID-attrib $-1 -1 $-1 $-1 $217 @10 ASM ENTITY @36 d35d5d55-6893-4773-b765-1edf40df919c #
plane-surface $-1 -1 $-1 58.5767604661940311 68.50628479580876729 0 0 1 0 -10 0 0 forward_v I I I I #
DXID-attrib $-1 -1 $-1 $-1 $221 @10 ASM ENTITY @36 2ac80603-50ff-4753-964e-2844f241decd #
plane-surface $-1 -1 $-1 -63.04836893463985348 65.74235277330870986 0 -0.8944271909999154113 0.4472135954999588159 0 -4.472135954999588492 -8.944271909999153891 0 forward_v I I I I #
coedge $-1 -1 $-1 $291 $290 $240 $283 forward $222 $-1 #
coedge $-1 -1 $-1 $288 $224 $226 $276 forward $177 $-1 #
coedge $-1 -1 $-1 $224 $288 $291 $305 reversed $177 $-1 #
coedge $-1 -1 $-1 $240 $227 $224 $275 reversed $109 $-1 #
edge $306 -1 $-1 $307 0 $278 23.04863267791675696 $224 $308 forward @7 unknown #
edge $309 -1 $-1 $278 0 $302 1.200000000000000178 $272 $310 forward @7 tangent #
DXID-attrib $-1 -1 $-1 $-1 $228 @10 ASM ENTITY @36 ccb95a08-aa7b-47d5-8c20-73cdbcbd334d #
vertex $-1 -1 $-1 $228 $311 #
ellipse-curve $-1 -1 $-1 115.243427132860603 -49.82704853752437657 0 0 0 1 -0.01166833863678083671 -4.999986384968805098 0 1 F 0.002333669845555736127 F 2.036777605641284072 #
DXID-attrib $-1 -1 $-1 $-1 $229 @10 ASM ENTITY @36 f23d0ea5-8f9f-4ea2-8ce9-a72aec4ad101 #
straight-curve $-1 -1 $-1 119.7155630878603461 -47.590980560024434 0 0 0 10 I I #
point $-1 -1 $-1 119.7155630878603461 -47.590980560024434 0 #
edge $312 -1 $-1 $285 0.002333669845628797042 $307 2.036777605641306277 $271 $313 forward @7 unknown #
DXID-attrib $-1 -1 $-1 $-1 $242 @10 ASM ENTITY @36 994e4cc7-6f8b-4c20-a789-7d398849760e #
vertex $-1 -1 $-1 $283 $314 #
straight-curve $-1 -1 $-1 -63.04836893463985348 65.74235277330870986 0 -4.472135954999588492 -8.944271909999153891 0 F 0 F 12.67105187249882547 #
point $-1 -1 $-1 -63.04836893463985348 65.74235277330870986 0 #
coedge $-1 -1 $-1 $273 $272 $247 $289 reversed $177 $-1 #
edge $315 -1 $-1 $293 0 $302 23.04863267791675696 $288 $316 forward @7 unknown #
coedge $-1 -1 $-1 $271 $248 $251 $295 reversed $222 $-1 #
coedge $-1 -1 $-1 $248 $271 $273 $305 forward $222 $-1 #
DXID-attrib $-1 -1 $-1 $-1 $249 @10 ASM ENTITY @36 4ee12d7a-f7a7-4570-a60d-26e5d3d1c301 #
vertex $-1 -1 $-1 $289 $317 #
ellipse-curve $-1 -1 $-1 -115.2428996463069666 -49.82704853752437657 12.00000000000000178 0 0 1 -4.466905537670102788 2.246498368023482239 0 1 I I #
edge $318 -1 $-1 $285 0 $254 1.200000000000000178 $251 $319 forward @7 tangent #
point $-1 -1 $-1 -119.7150356013067096 -47.59098056002471822 12.00000000000000178 #
DXID-attrib $-1 -1 $-1 $-1 $256 @10 ASM ENTITY @36 04ececa2-5f77-4db7-898a-12791c19bca5 #
straight-curve $-1 -1 $-1 -63.04836893463985348 65.74235277330870986 0 0 0 10 I I #
DXID-attrib $-1 -1 $-1 $-1 $257 @10 ASM ENTITY @36 339bde5a-9c0b-4021-a47d-eeb8bf145243 #
cone-surface $-1 -1 $-1 -58.57623297964039466 63.50628479580876729 0 0 0 1 0.003588533443519022377 4.999998712242680554 0 1 I I 0 1 5.000000000000072831 forward I I I I #
DXID-attrib $-1 -1 $-1 $-1 $260 @10 ASM ENTITY @36 6f600c96-f792-4cee-9002-337536cea31f #
vertex $-1 -1 $-1 $260 $320 #
ellipse-curve $-1 -1 $-1 115.243427132860603 -49.82704853752437657 12.00000000000000178 0 0 1 -0.01166833863678083671 -4.999986384968805098 0 1 I I #
point $-1 -1 $-1 119.7155630878603461 -47.590980560024434 12.00000000000000178 #
edge $321 -1 $-1 $307 0 $293 1.200000000000000178 $291 $322 forward @7 tangent #
DXID-attrib $-1 -1 $-1 $-1 $275 @10 ASM ENTITY @36 26440925-f9d8-4011-8153-947ec029a951 #
vertex $-1 -1 $-1 $275 $323 #
straight-curve $-1 -1 $-1 -115.2428996463069666 -54.82704853752437657 0 10 0 0 F 0 F 23.04863267791675696 #
DXID-attrib $-1 -1 $-1 $-1 $276 @10 ASM ENTITY @36 e269bd33-aad4-4f51-8ba5-fd029ff052fd #
straight-curve $-1 -1 $-1 115.243427132860603 -54.82704853752437657 0 0 0 10 I I #
point $-1 -1 $-1 115.243427132860603 -54.82704853752437657 0 #
DXID-attrib $-1 -1 $-1 $-1 $283 @10 ASM ENTITY @36 5a8f4dd1-4c8f-48bf-986e-86b43b52b6e1 #
ellipse-curve $-1 -1 $-1 -115.2428996463069666 -49.82704853752437657 0 0 0 1 -4.466905537670102788 2.246498368023482239 0 1 F 0.002333669845628797042 F 2.036777605641306277 #
point $-1 -1 $-1 -119.7150356013067096 -47.59098056002471822 0 #
DXID-attrib $-1 -1 $-1 $-1 $289 @10 ASM ENTITY @36 29449442-f506-4567-9aac-9992f7374f45 #
straight-curve $-1 -1 $-1 -115.2428996463069666 -54.82704853752437657 12.00000000000000178 10 0 0 I I #
point $-1 -1 $-1 -115.2428996463069666 -54.82704853752437657 12.00000000000000178 #
DXID-attrib $-1 -1 $-1 $-1 $295 @10 ASM ENTITY @36 89397175-1b43-4f53-a16c-28732a2807f1 #
straight-curve $-1 -1 $-1 -119.7150356013067096 -47.59098056002471822 0 0 0 10 I I #
point $-1 -1 $-1 115.243427132860603 -54.82704853752437657 12.00000000000000178 #
DXID-attrib $-1 -1 $-1 $-1 $305 @10 ASM ENTITY @36 bf681c1b-8b28-44cd-a340-d4a3c9a42662 #
straight-curve $-1 -1 $-1 -115.2428996463069666 -54.82704853752437657 0 0 0 10 I I #
point $-1 -1 $-1 -115.2428996463069666 -54.82704853752437657 0 #
End-of-ACIS-data 