700 0 1 0           
30 Autodesk Translation Framework 20 ASM 229.3.0.65535 NT 24 Mon May 22 21:21:29 2023 
1 9.999999999999999547e-07 1.000000000000000036e-10 
body $1 -1 $-1 $2 $-1 $3 #
rgb_color-st-attrib $-1 -1 $4 $-1 $0 0.7490196078431372584 0.7490196078431372584 0.7490196078431372584 #
lump $-1 -1 $-1 $-1 $5 $0 #
transform $-1 -1 1 0 0 0 1 0 0 0 1 0 0 0 1 no_rotate no_reflect no_shear #
DXID-attrib $-1 -1 $-1 $1 $0 @10 ASM ENTITY @116 SUJECION_CENTRAL_SOPORTE_1.IPT|:|8BD8535477B8AA0339121A35846F7EC3F43BB850|:|DA4B9237BACCCDF19C0760CAB7AEC4A8359010B0 #
shell $-1 -1 $-1 $-1 $-1 $6 $-1 $2 #
face $7 -1 $-1 $8 $9 $5 $-1 $10 forward single #
DXID-attrib $-1 -1 $-1 $-1 $6 @10 ASM ENTITY @36 adddbb55-ecfd-4017-8722-a1c7bccaa8fe #
face $11 -1 $-1 $12 $13 $5 $-1 $14 forward single #
loop $-1 -1 $-1 $-1 $15 $6 #
cone-surface $-1 -1 $-1 -78.66650531772563681 -3.483657361152836529 0 0 0 1 3.935041714507291566 -8.731138626196750963 0 1 I I 0 -1 9.576916779672743019 forward I I I I #
DXID-attrib $-1 -1 $-1 $-1 $8 @10 ASM ENTITY @36 19e7feeb-9388-4bef-8280-65407e7b43c8 #
face $16 -1 $-1 $17 $18 $5 $-1 $19 forward single #
loop $-1 -1 $-1 $-1 $20 $8 #
cone-surface $-1 -1 $-1 -79.55553420718501911 -2.841634499341694209 0 0 0 1 8.670351134023773554 0.06272279154643434218 0 1 I I 0 -1 8.670578004714950993 forward I I I I #
coedge $-1 -1 $-1 $21 $22 $23 $24 forward $9 $-1 #
DXID-attrib $-1 -1 $-1 $-1 $12 @10 ASM ENTITY @36 0a2efaa9-4ef3-4a15-a649-ed7391238147 #
face $25 -1 $-1 $26 $27 $5 $-1 $28 forward single #
loop $-1 -1 $-1 $-1 $29 $12 #
cone-surface $-1 -1 $-1 -73.45976271116995804 11.14811934446919395 0 0 0 1 9.141784321062804253 22.10768022962457025 0 1 I I 0 -1 23.92324697251948962 forward I I I I #
coedge $-1 -1 $-1 $30 $31 $32 $33 forward $13 $-1 #
coedge $-1 -1 $-1 $34 $15 $35 $36 forward $9 $-1 #
coedge $-1 -1 $-1 $15 $34 $30 $37 reversed $9 $-1 #
coedge $-1 -1 $-1 $32 $38 $15 $24 reversed $39 $-1 #
edge $40 -1 $-1 $41 2.054750523108748617 $42 3.141592653589820205 $15 $43 forward @7 unknown #
DXID-attrib $-1 -1 $-1 $-1 $17 @10 ASM ENTITY @36 dc11ba3d-824e-4745-9510-df2f180930d3 #
face $44 -1 $-1 $45 $46 $5 $-1 $47 forward single #
loop $-1 -1 $-1 $-1 $48 $17 #
cone-surface $-1 -1 $-1 -73.4374011403735949 -10.28574574279190301 0 0 0 1 0.2407023441037186018 2.488385496972480126 0 1 I I 0 -1 2.500000000000000444 forward I I I I #
coedge $-1 -1 $-1 $49 $50 $51 $52 forward $18 $-1 #
coedge $-1 -1 $-1 $53 $20 $22 $37 forward $13 $-1 #
coedge $-1 -1 $-1 $20 $53 $49 $54 reversed $13 $-1 #
coedge $-1 -1 $-1 $51 $23 $20 $33 reversed $39 $-1 #
edge $55 -1 $-1 $56 1.936994387809278573 $41 3.141592653589793116 $20 $57 forward @7 unknown #
coedge $-1 -1 $-1 $22 $21 $58 $59 reversed $9 $-1 #
coedge $-1 -1 $-1 $60 $61 $21 $36 reversed $62 $-1 #
edge $63 -1 $-1 $42 0 $64 1.200000000000000178 $35 $65 forward @7 unknown #
edge $66 -1 $-1 $41 0 $67 1.200000000000000178 $30 $68 forward @7 unknown #
coedge $-1 -1 $-1 $23 $69 $60 $70 reversed $39 $-1 #
loop $-1 -1 $-1 $-1 $38 $71 #
DXID-attrib $-1 -1 $-1 $-1 $24 @10 ASM ENTITY @36 03b403f4-554e-4ce8-baa2-98e39d0039b3 #
vertex $-1 -1 $-1 $24 $72 #
vertex $-1 -1 $-1 $24 $73 #
ellipse-curve $-1 -1 $-1 -78.66650531772563681 -3.483657361152836529 0 0 0 -1 3.935041714507291566 -8.731138626196750963 0 1 F 2.054750523108748617 F 3.141592653589820205 #
DXID-attrib $-1 -1 $-1 $-1 $26 @10 ASM ENTITY @36 3a15bd79-54ee-4eca-b6ba-6e6b400c3973 #
face $74 -1 $-1 $75 $76 $5 $-1 $77 forward single #
loop $-1 -1 $-1 $-1 $78 $26 #
plane-surface $-1 -1 $-1 -81.8076207826851487 -4.898780303463468044 0 -0.312645965039218432 -0.9498697281968174755 0 9.498697281968174977 -3.126459650392184209 0 forward_v I I I I #
coedge $-1 -1 $-1 $79 $80 $81 $82 forward $27 $-1 #
coedge $-1 -1 $-1 $83 $29 $31 $54 forward $18 $-1 #
coedge $-1 -1 $-1 $29 $83 $79 $84 reversed $18 $-1 #
coedge $-1 -1 $-1 $81 $32 $29 $52 reversed $39 $-1 #
edge $85 -1 $-1 $86 2.758619648488254583 $56 3.141592653589797557 $29 $87 forward @7 unknown #
coedge $-1 -1 $-1 $31 $30 $88 $89 reversed $13 $-1 #
edge $90 -1 $-1 $56 0 $91 1.200000000000000178 $49 $92 forward @7 unknown #
DXID-attrib $-1 -1 $-1 $-1 $33 @10 ASM ENTITY @36 1966f59e-668b-4fb0-91e0-b465652f7a5a #
vertex $-1 -1 $-1 $33 $93 #
ellipse-curve $-1 -1 $-1 -79.55553420718501911 -2.841634499341694209 0 0 0 -1 8.670351134023773554 0.06272279154643434218 0 1 F 1.936994387809278573 F 3.141592653589793116 #
coedge $-1 -1 $-1 $94 $88 $34 $59 forward $95 $-1 #
edge $96 -1 $-1 $67 2.054750523108748617 $64 3.141592653589820205 $34 $97 forward @7 unknown #
coedge $-1 -1 $-1 $98 $35 $38 $70 forward $62 $-1 #
coedge $-1 -1 $-1 $35 $98 $94 $99 reversed $62 $-1 #
loop $-1 -1 $-1 $-1 $60 $100 #
DXID-attrib $-1 -1 $-1 $-1 $36 @10 ASM ENTITY @36 a58cc88e-777f-45bd-8e11-0ced805812b8 #
vertex $-1 -1 $-1 $36 $101 #
straight-curve $-1 -1 $-1 -82.60154703223264505 5.24748126504391621 0 0 0 10 I I #
DXID-attrib $-1 -1 $-1 $-1 $37 @10 ASM ENTITY @36 c4be3221-4988-46c5-8611-d1e65f7c3011 #
vertex $-1 -1 $-1 $59 $102 #
straight-curve $-1 -1 $-1 -88.22588534120882287 -2.904357290888128773 0 0 0 10 I I #
coedge $-1 -1 $-1 $38 $103 $104 $105 reversed $39 $-1 #
edge $106 -1 $-1 $42 8.850195266755471288e-14 $107 2.150848407629721848 $60 $108 forward @7 unknown #
face $109 -1 $-1 $-1 $110 $5 $-1 $111 reversed single #
point $-1 -1 $-1 -88.22588534120882287 -2.904357290888128773 0 #
point $-1 -1 $-1 -82.60154703223264505 5.24748126504391621 0 #
DXID-attrib $-1 -1 $-1 $-1 $45 @10 ASM ENTITY @36 9e3fa9bb-3218-4a95-b8f9-57a6e7f15a0e #
face $112 -1 $-1 $113 $114 $5 $-1 $115 forward single #
loop $-1 -1 $-1 $-1 $116 $45 #
cone-surface $-1 -1 $-1 -79.01511114765384036 -2.818576519428575011 0 0 0 1 -1.128566661797365978 3.294191119946352941 0 1 I I 0 1 3.482148452443384556 forward I I I I #
coedge $-1 -1 $-1 $117 $118 $119 $120 forward $46 $-1 #
coedge $-1 -1 $-1 $121 $48 $50 $84 forward $27 $-1 #
coedge $-1 -1 $-1 $48 $121 $117 $122 reversed $27 $-1 #
coedge $-1 -1 $-1 $119 $51 $48 $82 reversed $39 $-1 #
edge $123 -1 $-1 $124 0.2215470525543477009 $86 3.141592653589793116 $48 $125 forward @7 unknown #
coedge $-1 -1 $-1 $50 $49 $126 $127 reversed $18 $-1 #
edge $128 -1 $-1 $86 0 $129 1.200000000000000178 $79 $130 forward @7 unknown #
DXID-attrib $-1 -1 $-1 $-1 $52 @10 ASM ENTITY @36 ae22f4a5-24f6-481c-9bc8-6d42fd1ba085 #
vertex $-1 -1 $-1 $52 $131 #
ellipse-curve $-1 -1 $-1 -73.45976271116995804 11.14811934446919395 0 0 0 -1 9.141784321062804253 22.10768022962457025 0 1 F 2.758619648488254583 F 3.141592653589801998 #
coedge $-1 -1 $-1 $58 $126 $53 $89 forward $95 $-1 #
edge $132 -1 $-1 $91 1.936994387809278573 $67 3.141592653589793116 $53 $133 forward @7 unknown #
DXID-attrib $-1 -1 $-1 $-1 $54 @10 ASM ENTITY @36 d93d63d7-d6f7-453d-b405-3fac8d7108bb #
vertex $-1 -1 $-1 $89 $134 #
straight-curve $-1 -1 $-1 -82.60154703223292927 -10.95956088515549709 0 0 0 10 I I #
point $-1 -1 $-1 -82.60154703223292927 -10.95956088515549709 0 #
coedge $-1 -1 $-1 $135 $58 $61 $99 forward $95 $-1 #
loop $-1 -1 $-1 $-1 $94 $136 #
DXID-attrib $-1 -1 $-1 $-1 $59 @10 ASM ENTITY @36 d4032efc-a5a1-49bb-9c3a-4bb929e90851 #
ellipse-curve $-1 -1 $-1 -78.66650531772563681 -3.483657361152836529 12.00000000000000178 0 0 -1 3.935041714507291566 -8.731138626196750963 0 1 I I #
coedge $-1 -1 $-1 $61 $60 $137 $138 forward $62 $-1 #
edge $139 -1 $-1 $64 8.850195266755471288e-14 $140 2.150848407629721848 $61 $141 forward @7 unknown #
face $142 -1 $-1 $143 $62 $5 $-1 $144 forward single #
point $-1 -1 $-1 -82.60154703223264505 5.24748126504391621 12.00000000000000178 #
point $-1 -1 $-1 -88.22588534120882287 -2.904357290888128773 12.00000000000000178 #
coedge $-1 -1 $-1 $69 $145 $146 $147 reversed $39 $-1 #
coedge $-1 -1 $-1 $148 $137 $69 $105 forward $149 $-1 #
edge $150 -1 $-1 $107 0 $151 0.4141255955339824268 $104 $152 forward @7 unknown #
DXID-attrib $-1 -1 $-1 $-1 $70 @10 ASM ENTITY @36 3f9aeafa-3aa7-49ec-bcb6-c74bdc5f854a #
vertex $-1 -1 $-1 $105 $153 #
ellipse-curve $-1 -1 $-1 -84.19611910560661272 6.65782962149165769 0 0 0 1 1.594572073373829779 -1.410348356447871154 0 1 F 8.850195266755471288e-14 F 2.150848407629721848 #
DXID-attrib $-1 -1 $-1 $-1 $71 @10 ASM ENTITY @36 da6d1cdd-e93b-4eb2-a32b-c077b9170b4c #
loop $-1 -1 $-1 $154 $155 $71 #
plane-surface $-1 -1 $-1 -2.513925593683268289 0.3022075771315257953 0 0 0 1 10 0 0 forward_v I I I I #
DXID-attrib $-1 -1 $-1 $-1 $75 @10 ASM ENTITY @36 06f2731a-6e82-4dc2-a3b6-efed7cfabe42 #
face $156 -1 $-1 $157 $158 $5 $-1 $159 forward single #
loop $-1 -1 $-1 $-1 $160 $75 #
plane-surface $-1 -1 $-1 -76.32544337075984231 -0.6667904068621055558 0 0.2866421891338016836 0.9580377108488902227 0 -9.580377108488901783 2.866421891338016614 0 forward_v I I I I #
coedge $-1 -1 $-1 $161 $162 $163 $164 forward $76 $-1 #
coedge $-1 -1 $-1 $165 $78 $80 $122 forward $46 $-1 #
coedge $-1 -1 $-1 $78 $165 $161 $166 reversed $46 $-1 #
coedge $-1 -1 $-1 $163 $81 $78 $120 reversed $39 $-1 #
edge $167 -1 $-1 $168 0 $124 0.9634831265001874145 $78 $169 forward @7 unknown #
coedge $-1 -1 $-1 $80 $79 $170 $171 reversed $27 $-1 #
edge $172 -1 $-1 $124 0 $173 1.200000000000000178 $117 $174 forward @7 tangent #
DXID-attrib $-1 -1 $-1 $-1 $82 @10 ASM ENTITY @36 5e751e9d-0858-4147-ab81-6a4517f84ce0 #
vertex $-1 -1 $-1 $82 $175 #
ellipse-curve $-1 -1 $-1 -73.4374011403735949 -10.28574574279190301 0 0 0 -1 0.2407023441037186018 2.488385496972480126 0 1 F 0.2215470525543477009 F 3.141592653589803774 #
coedge $-1 -1 $-1 $88 $170 $83 $127 forward $95 $-1 #
edge $176 -1 $-1 $129 2.758619648488254583 $91 3.141592653589797557 $83 $177 forward @7 unknown #
DXID-attrib $-1 -1 $-1 $-1 $84 @10 ASM ENTITY @36 8cb29ddf-4ca8-4806-8ffc-b8760d9c1a79 #
vertex $-1 -1 $-1 $127 $178 #
straight-curve $-1 -1 $-1 -73.67810348447733304 -12.77413123976458564 0 0 0 10 I I #
point $-1 -1 $-1 -73.67810348447733304 -12.77413123976458564 0 #
DXID-attrib $-1 -1 $-1 $-1 $89 @10 ASM ENTITY @36 331eb035-f67e-4166-9c30-396429380593 #
ellipse-curve $-1 -1 $-1 -79.55553420718501911 -2.841634499341694209 12.00000000000000178 0 0 -1 8.670351134023773554 0.06272279154643434218 0 1 I I #
point $-1 -1 $-1 -82.60154703223292927 -10.95956088515549709 12.00000000000000178 #
coedge $-1 -1 $-1 $179 $94 $180 $181 forward $95 $-1 #
face $182 -1 $-1 $71 $183 $5 $-1 $184 forward single #
coedge $-1 -1 $-1 $104 $180 $98 $138 reversed $149 $-1 #
edge $185 -1 $-1 $107 0 $140 1.200000000000000178 $98 $186 forward @7 tangent #
DXID-attrib $-1 -1 $-1 $-1 $99 @10 ASM ENTITY @36 1ed4af42-4d17-403c-8c6f-5db029b27c65 #
vertex $-1 -1 $-1 $181 $187 #
ellipse-curve $-1 -1 $-1 -84.19611910560661272 6.65782962149165769 12.00000000000000178 0 0 1 1.594572073373829779 -1.410348356447871154 0 1 I I #
DXID-attrib $-1 -1 $-1 $-1 $100 @10 ASM ENTITY @36 383a08e5-46b4-4798-8858-09359c1daaee #
face $188 -1 $-1 $189 $190 $5 $-1 $191 forward single #
cone-surface $-1 -1 $-1 -84.19611910560661272 6.65782962149165769 0 0 0 1 1.594572073373829779 -1.410348356447871154 0 1 I I 0 1 2.128788994644355448 forward I I I I #
coedge $-1 -1 $-1 $103 $192 $193 $194 reversed $39 $-1 #
coedge $-1 -1 $-1 $195 $196 $103 $147 forward $197 $-1 #
edge $198 -1 $-1 $151 2.003983870196510028e-17 $199 1.987389514366175503 $146 $200 forward @7 unknown #
coedge $-1 -1 $-1 $180 $104 $196 $201 forward $149 $-1 #
loop $-1 -1 $-1 $-1 $104 $202 #
DXID-attrib $-1 -1 $-1 $-1 $105 @10 ASM ENTITY @36 7fe91495-95f4-4c3f-aeb8-16450a41c71d #
vertex $-1 -1 $-1 $147 $203 #
straight-curve $-1 -1 $-1 -83.89038876656854882 8.764550187563600048 0 -9.896333414782180427 1.436170234848800353 0 F 0 F 0.4141255955339824268 #
point $-1 -1 $-1 -83.89038876656854882 8.764550187563600048 0 #
loop $-1 -1 $-1 $39 $204 $71 #
coedge $-1 -1 $-1 $205 $206 $207 $208 reversed $110 $-1 #
DXID-attrib $-1 -1 $-1 $-1 $113 @10 ASM ENTITY @36 3bd3ab7b-00fb-481d-8a3b-23e7b2f6982f #
face $209 -1 $-1 $210 $211 $5 $-1 $212 forward single #
loop $-1 -1 $-1 $-1 $213 $113 #
cone-surface $-1 -1 $-1 -75.57235852356768646 1.850228058771108408 0 0 0 1 0.7530848471921962606 2.517018465633348967 0 1 I I 0 -1 2.627264498182424912 forward I I I I #
coedge $-1 -1 $-1 $214 $215 $216 $217 forward $114 $-1 #
coedge $-1 -1 $-1 $218 $116 $118 $166 forward $76 $-1 #
coedge $-1 -1 $-1 $116 $218 $214 $219 reversed $76 $-1 #
coedge $-1 -1 $-1 $216 $119 $116 $164 reversed $39 $-1 #
edge $220 -1 $-1 $221 0 $168 1.880979094356073134 $116 $222 forward @7 unknown #
coedge $-1 -1 $-1 $118 $117 $223 $224 reversed $46 $-1 #
edge $225 -1 $-1 $168 0 $226 1.200000000000000178 $161 $227 forward @7 unknown #
DXID-attrib $-1 -1 $-1 $-1 $120 @10 ASM ENTITY @36 4ddaeb0c-6291-46b1-bbd4-f5363bee1587 #
vertex $-1 -1 $-1 $120 $228 #
straight-curve $-1 -1 $-1 -81.8076207826851487 -4.898780303463468044 0 9.498697281968174977 -3.126459650392184209 0 F 0 F 0.9634831265001874145 #
coedge $-1 -1 $-1 $126 $223 $121 $171 forward $95 $-1 #
edge $229 -1 $-1 $173 0.2215470525543477009 $129 3.141592653589793116 $121 $230 forward @7 unknown #
DXID-attrib $-1 -1 $-1 $-1 $122 @10 ASM ENTITY @36 80db75a9-f1d3-4a75-92e1-bdfd85078c2d #
vertex $-1 -1 $-1 $171 $231 #
straight-curve $-1 -1 $-1 -72.65578622777553619 -7.911071422299755795 0 0 0 10 I I #
point $-1 -1 $-1 -72.65578622777553619 -7.911071422299755795 0 #
DXID-attrib $-1 -1 $-1 $-1 $127 @10 ASM ENTITY @36 83659971-583d-4081-a7de-6d656fcbf1f4 #
ellipse-curve $-1 -1 $-1 -73.45976271116995804 11.14811934446919395 12.00000000000000178 0 0 -1 9.141784321062804253 22.10768022962457025 0 1 I I #
point $-1 -1 $-1 -73.67810348447733304 -12.77413123976458564 12.00000000000000178 #
coedge $-1 -1 $-1 $232 $135 $233 $234 forward $95 $-1 #
coedge $-1 -1 $-1 $137 $148 $135 $181 reversed $149 $-1 #
edge $235 -1 $-1 $140 0 $236 0.4141255955339824268 $180 $237 forward @7 unknown #
DXID-attrib $-1 -1 $-1 $-1 $136 @10 ASM ENTITY @36 ab9360a4-7444-446c-b230-4deed089d0ef #
loop $-1 -1 $-1 $238 $239 $136 #
plane-surface $-1 -1 $-1 -2.513925593683268289 0.3022075771315257953 12.00000000000000178 0 0 1 10 0 0 forward_v I I I I #
DXID-attrib $-1 -1 $-1 $-1 $138 @10 ASM ENTITY @36 92ff8d0e-7872-43f7-9ddc-8acda2396f70 #
straight-curve $-1 -1 $-1 -83.89038876656854882 8.764550187563600048 0 0 0 10 I I #
point $-1 -1 $-1 -83.89038876656854882 8.764550187563600048 12.00000000000000178 #
DXID-attrib $-1 -1 $-1 $-1 $143 @10 ASM ENTITY @36 68ed3862-62d1-4804-bfca-faad45c8a813 #
face $240 -1 $-1 $241 $242 $5 $-1 $243 forward single #
loop $-1 -1 $-1 $244 $245 $143 #
cone-surface $-1 -1 $-1 67.05890446256717041 -4.697792422868758422 0 0 0 1 -2.500000000000000444 0 0 1 I I 0 -1 2.500000000000000444 forward I I I I #
coedge $-1 -1 $-1 $145 $246 $247 $248 reversed $39 $-1 #
coedge $-1 -1 $-1 $249 $250 $145 $194 forward $251 $-1 #
edge $252 -1 $-1 $199 0.8534311053293219818 $253 3.141592653589697193 $193 $254 forward @7 unknown #
coedge $-1 -1 $-1 $233 $146 $250 $255 forward $197 $-1 #
coedge $-1 -1 $-1 $146 $233 $148 $201 reversed $197 $-1 #
loop $-1 -1 $-1 $-1 $146 $256 #
DXID-attrib $-1 -1 $-1 $-1 $147 @10 ASM ENTITY @36 735c7abc-7312-4823-8c8c-8a63782148af #
vertex $-1 -1 $-1 $194 $257 #
ellipse-curve $-1 -1 $-1 -88.06341001139742275 8.844589423034960873 0 0 0 1 0.07469627582933487109 0.5147156183234498084 0 1 F 2.003983870196510028e-17 F 1.987389514366175503 #
edge $258 -1 $-1 $151 0 $236 1.200000000000000178 $148 $259 forward @7 tangent #
face $260 -1 $-1 $100 $149 $5 $-1 $261 forward single #
point $-1 -1 $-1 -87.9887137355680693 9.359305041358538801 0 #
coedge $-1 -1 $-1 $204 $204 $262 $263 reversed $154 $-1 #
coedge $-1 -1 $-1 $264 $155 $265 $266 reversed $110 $-1 #
coedge $-1 -1 $-1 $155 $267 $268 $269 reversed $110 $-1 #
coedge $-1 -1 $-1 $270 $271 $155 $208 forward $272 $-1 #
edge $273 -1 $-1 $274 -0 $275 16.69653202250023583 $207 $276 forward @7 unknown #
DXID-attrib $-1 -1 $-1 $-1 $157 @10 ASM ENTITY @36 01cbd8b6-503b-4b46-8c91-9f048d10268a #
face $277 -1 $-1 $278 $279 $5 $-1 $280 forward single #
loop $-1 -1 $-1 $-1 $281 $157 #
plane-surface $-1 -1 $-1 -76.16200605677363455 4.905414932930227678 0 -0.3660707738715819892 -0.9305870128671801522 0 9.305870128671800856 -3.660707738715820003 0 forward_v I I I I #
coedge $-1 -1 $-1 $282 $283 $284 $285 forward $158 $-1 #
coedge $-1 -1 $-1 $286 $160 $162 $219 forward $114 $-1 #
coedge $-1 -1 $-1 $160 $286 $282 $287 reversed $114 $-1 #
coedge $-1 -1 $-1 $284 $163 $160 $217 reversed $39 $-1 #
edge $288 -1 $-1 $289 0 $221 0.3985474053321080845 $160 $290 forward @7 unknown #
coedge $-1 -1 $-1 $162 $161 $291 $292 reversed $76 $-1 #
edge $293 -1 $-1 $221 0 $294 1.200000000000000178 $214 $295 forward @7 unknown #
DXID-attrib $-1 -1 $-1 $-1 $164 @10 ASM ENTITY @36 185bce56-2134-4e73-9b4c-ed1a74fd1c76 #
vertex $-1 -1 $-1 $164 $296 #
ellipse-curve $-1 -1 $-1 -79.01511114765384036 -2.818576519428575011 0 0 0 1 -1.128566661797365978 3.294191119946352941 0 1 F 0 F 1.880979094356073134 #
coedge $-1 -1 $-1 $170 $291 $165 $224 forward $95 $-1 #
edge $297 -1 $-1 $226 0 $173 0.9634831265001874145 $165 $298 forward @7 unknown #
DXID-attrib $-1 -1 $-1 $-1 $166 @10 ASM ENTITY @36 e8722763-6ab5-4735-813f-e07ea1b483f0 #
vertex $-1 -1 $-1 $224 $299 #
straight-curve $-1 -1 $-1 -81.8076207826851487 -4.898780303463468044 0 0 0 10 I I #
point $-1 -1 $-1 -81.8076207826851487 -4.898780303463468044 0 #
DXID-attrib $-1 -1 $-1 $-1 $171 @10 ASM ENTITY @36 6b6934cb-fe4f-4427-a48c-0db89890d5fe #
ellipse-curve $-1 -1 $-1 -73.4374011403735949 -10.28574574279190301 12.00000000000000178 0 0 -1 0.2407023441037186018 2.488385496972480126 0 1 I I #
point $-1 -1 $-1 -72.65578622777553619 -7.911071422299755795 12.00000000000000178 #
coedge $-1 -1 $-1 $300 $179 $301 $302 forward $95 $-1 #
coedge $-1 -1 $-1 $196 $195 $179 $234 reversed $197 $-1 #
edge $303 -1 $-1 $236 2.003983870196510028e-17 $304 1.987389514366175503 $233 $305 forward @7 unknown #
DXID-attrib $-1 -1 $-1 $-1 $181 @10 ASM ENTITY @36 1d087df6-9c72-43e5-9ea1-00c095515e97 #
vertex $-1 -1 $-1 $234 $306 #
straight-curve $-1 -1 $-1 -83.89038876656854882 8.764550187563600048 12.00000000000000178 -9.896333414782180427 1.436170234848800353 0 I I #
loop $-1 -1 $-1 $95 $307 $136 #
coedge $-1 -1 $-1 $308 $309 $310 $311 forward $183 $-1 #
DXID-attrib $-1 -1 $-1 $-1 $189 @10 ASM ENTITY @36 1488699e-91a1-4397-b6c1-3d7b37637676 #
face $312 -1 $-1 $313 $314 $5 $-1 $315 forward single #
loop $-1 -1 $-1 $-1 $265 $189 #
cone-surface $-1 -1 $-1 72.87856457506819652 10.3022075771315258 0 0 0 1 8.94427190999915922 4.47213595499957961 0 1 I I 0 1 10 forward I I I I #
loop $-1 -1 $-1 $-1 $262 $143 #
coedge $-1 -1 $-1 $245 $245 $307 $316 reversed $190 $-1 #
coedge $-1 -1 $-1 $192 $317 $318 $319 reversed $39 $-1 #
coedge $-1 -1 $-1 $320 $321 $192 $248 forward $322 $-1 #
edge $323 -1 $-1 $253 -2.499950319317993798e-17 $324 3.141592653589793116 $247 $325 forward @7 unknown #
coedge $-1 -1 $-1 $301 $193 $321 $326 forward $251 $-1 #
coedge $-1 -1 $-1 $193 $301 $195 $255 reversed $251 $-1 #
loop $-1 -1 $-1 $-1 $193 $327 #
DXID-attrib $-1 -1 $-1 $-1 $194 @10 ASM ENTITY @36 9e88f98b-e3b1-4189-b7b2-cce9b8312251 #
vertex $-1 -1 $-1 $248 $328 #
ellipse-curve $-1 -1 $-1 -90.66468611331828242 7.348705689249754869 0 0 0 -1 0.3590425587122584306 2.474083353695534893 0 1 F 0.853431105329288231 F 3.141592653589697193 #
edge $329 -1 $-1 $199 0 $304 1.200000000000000178 $195 $330 forward @7 unknown #
face $331 -1 $-1 $202 $197 $5 $-1 $332 forward single #
point $-1 -1 $-1 -88.56432909677863563 8.70461881444299479 0 #
DXID-attrib $-1 -1 $-1 $-1 $201 @10 ASM ENTITY @36 67164770-8349-4ab6-8bd0-f25d8cfc1c13 #
straight-curve $-1 -1 $-1 -87.9887137355680693 9.359305041358538801 0 0 0 10 I I #
DXID-attrib $-1 -1 $-1 $-1 $202 @10 ASM ENTITY @36 928141f8-3832-4c60-8e56-85b974896e7d #
plane-surface $-1 -1 $-1 -83.89038876656854882 8.764550187563600048 0 0.1436170234848800353 0.9896333414782181315 0 -9.896333414782180427 1.436170234848800353 0 forward_v I I I I #
coedge $-1 -1 $-1 $262 $262 $204 $263 forward $244 $-1 #
edge $333 -1 $-1 $334 -3.141592653589793116 $334 3.141592653589793116 $262 $335 forward @7 unknown #
coedge $-1 -1 $-1 $336 $205 $337 $338 reversed $110 $-1 #
coedge $-1 -1 $-1 $339 $340 $205 $266 forward $242 $-1 #
edge $341 -1 $-1 $342 0 $274 1.107148717794090409 $265 $343 forward @7 unknown #
coedge $-1 -1 $-1 $206 $336 $344 $345 reversed $110 $-1 #
coedge $-1 -1 $-1 $346 $347 $206 $269 forward $348 $-1 #
edge $349 -1 $-1 $275 0 $350 2.034443935795708924 $268 $351 forward @7 unknown #
coedge $-1 -1 $-1 $310 $207 $347 $352 forward $272 $-1 #
coedge $-1 -1 $-1 $207 $310 $339 $353 reversed $272 $-1 #
loop $-1 -1 $-1 $-1 $207 $354 #
DXID-attrib $-1 -1 $-1 $-1 $208 @10 ASM ENTITY @36 1de8e81d-e3fe-4919-99e3-0d6db33aad54 #
vertex $-1 -1 $-1 $266 $355 #
vertex $-1 -1 $-1 $269 $356 #
straight-curve $-1 -1 $-1 72.87856457506819652 20.3022075771315258 0 -10 -0 -0 F -0 F 16.69653202250023583 #
DXID-attrib $-1 -1 $-1 $-1 $210 @10 ASM ENTITY @36 3e4404ef-2301-4d18-8a40-14a3b67caabe #
face $357 -1 $-1 $358 $359 $5 $-1 $360 forward single #
loop $-1 -1 $-1 $-1 $361 $210 #
cone-surface $-1 -1 $-1 -75.61945575652771367 6.284629825985348361 0 0 0 1 -0.7059876142321965808 1.303140835854731394 0 1 I I 0 1 1.482091275705189615 forward I I I I #
coedge $-1 -1 $-1 $362 $363 $364 $365 forward $211 $-1 #
coedge $-1 -1 $-1 $366 $213 $215 $287 forward $158 $-1 #
coedge $-1 -1 $-1 $213 $366 $362 $367 reversed $158 $-1 #
coedge $-1 -1 $-1 $364 $216 $213 $285 reversed $39 $-1 #
edge $368 -1 $-1 $369 0.08406307939625867753 $289 3.141592653589793116 $213 $370 forward @7 unknown #
coedge $-1 -1 $-1 $215 $214 $371 $372 reversed $114 $-1 #
edge $373 -1 $-1 $289 0 $374 1.200000000000000178 $282 $375 forward @7 tangent #
DXID-attrib $-1 -1 $-1 $-1 $217 @10 ASM ENTITY @36 2015c6bc-906d-4637-abc9-a1db8b308fe7 #
vertex $-1 -1 $-1 $217 $376 #
straight-curve $-1 -1 $-1 -76.32544337075984231 -0.6667904068621055558 0 -9.580377108488901783 2.866421891338016614 0 F 0 F 0.3985474053321080845 #
coedge $-1 -1 $-1 $223 $371 $218 $292 forward $95 $-1 #
edge $377 -1 $-1 $294 0 $226 1.880979094356073134 $218 $378 forward @7 unknown #
DXID-attrib $-1 -1 $-1 $-1 $219 @10 ASM ENTITY @36 1efaba1f-ad4d-492c-96f3-b891a81ae725 #
vertex $-1 -1 $-1 $292 $379 #
straight-curve $-1 -1 $-1 -80.14367780945121922 0.4756146005178152336 0 0 0 10 I I #
point $-1 -1 $-1 -80.14367780945121922 0.4756146005178152336 0 #
DXID-attrib $-1 -1 $-1 $-1 $224 @10 ASM ENTITY @36 06f19f79-ce64-48ad-ae47-c9acf42c363d #
straight-curve $-1 -1 $-1 -81.8076207826851487 -4.898780303463468044 12.00000000000000178 9.498697281968174977 -3.126459650392184209 0 I I #
point $-1 -1 $-1 -81.8076207826851487 -4.898780303463468044 12.00000000000000178 #
coedge $-1 -1 $-1 $380 $232 $381 $382 forward $95 $-1 #
coedge $-1 -1 $-1 $250 $249 $232 $302 reversed $251 $-1 #
edge $383 -1 $-1 $304 0.8534311053293219818 $384 3.141592653589697193 $301 $385 forward @7 unknown #
DXID-attrib $-1 -1 $-1 $-1 $234 @10 ASM ENTITY @36 b9dcca6a-951c-4bca-8bde-6841049e0702 #
vertex $-1 -1 $-1 $302 $386 #
ellipse-curve $-1 -1 $-1 -88.06341001139742275 8.844589423034960873 12.00000000000000178 0 0 1 0.07469627582933487109 0.5147156183234498084 0 1 I I #
point $-1 -1 $-1 -87.9887137355680693 9.359305041358538801 12.00000000000000178 #
coedge $-1 -1 $-1 $307 $307 $245 $316 forward $238 $-1 #
coedge $-1 -1 $-1 $387 $239 $388 $389 forward $183 $-1 #
coedge $-1 -1 $-1 $239 $390 $391 $392 forward $183 $-1 #
coedge $-1 -1 $-1 $271 $270 $239 $311 reversed $272 $-1 #
edge $393 -1 $-1 $394 -0 $395 16.69653202250023583 $310 $396 forward @7 unknown #
DXID-attrib $-1 -1 $-1 $-1 $241 @10 ASM ENTITY @36 9de13fd6-bfb7-4033-b88b-30efaa8dbc71 #
face $397 -1 $-1 $398 $399 $5 $-1 $400 forward single #
loop $-1 -1 $-1 $-1 $337 $241 #
plane-surface $-1 -1 $-1 99.05890446256734094 -19.6977924228684742 0 0.8944271909999144121 0.4472135954999609253 0 -4.47213595499960892 8.944271909999145009 0 forward_v I I I I #
edge $401 -1 $-1 $402 -3.141592653589793116 $402 3.141592653589793116 $245 $403 forward @7 unknown #
coedge $-1 -1 $-1 $246 $404 $405 $406 reversed $39 $-1 #
coedge $-1 -1 $-1 $407 $408 $246 $319 forward $409 $-1 #
edge $410 -1 $-1 $324 0 $411 1.691745471606885154 $318 $412 forward @7 unknown #
coedge $-1 -1 $-1 $381 $247 $408 $413 forward $322 $-1 #
coedge $-1 -1 $-1 $247 $381 $249 $326 reversed $322 $-1 #
loop $-1 -1 $-1 $-1 $247 $414 #
DXID-attrib $-1 -1 $-1 $-1 $248 @10 ASM ENTITY @36 9acf2629-4b13-40dc-864f-c0c14c91988b #
vertex $-1 -1 $-1 $319 $415 #
ellipse-curve $-1 -1 $-1 -90.26709553743273773 10.08841495634300145 0 0 0 -1 -0.7566331345975814138 -5.213792620788643362 -0 1 F -2.499950319317993798e-17 F 3.141592653589793116 #
edge $416 -1 $-1 $253 0 $384 1.200000000000000178 $249 $417 forward @7 tangent #
face $418 -1 $-1 $256 $251 $5 $-1 $419 forward single #
point $-1 -1 $-1 -91.02372867203030182 4.874622335554477104 0 #
DXID-attrib $-1 -1 $-1 $-1 $255 @10 ASM ENTITY @36 d05831a5-c86c-4d86-9679-71cc5d70b299 #
straight-curve $-1 -1 $-1 -88.56432909677863563 8.70461881444299479 0 0 0 10 I I #
DXID-attrib $-1 -1 $-1 $-1 $256 @10 ASM ENTITY @36 b1a8789c-bf29-4ffa-b25d-d86cf1efdab0 #
cone-surface $-1 -1 $-1 -88.06341001139742275 8.844589423034960873 0 0 0 1 0.07469627582933487109 0.5147156183234498084 0 1 I I 0 1 0.5201073940724774136 forward I I I I #
DXID-attrib $-1 -1 $-1 $-1 $263 @10 ASM ENTITY @36 302e3d4e-da8e-4afe-b751-0348e83bd501 #
vertex $-1 -1 $-1 $263 $420 #
ellipse-curve $-1 -1 $-1 67.05890446256717041 -4.697792422868758422 0 0 0 -1 -2.500000000000000444 -0 -0 1 I I #
coedge $-1 -1 $-1 $267 $264 $421 $422 reversed $110 $-1 #
coedge $-1 -1 $-1 $423 $424 $264 $338 forward $314 $-1 #
edge $425 -1 $-1 $426 0 $342 3.854101966249693589 $337 $427 forward @7 unknown #
coedge $-1 -1 $-1 $391 $265 $271 $353 forward $242 $-1 #
coedge $-1 -1 $-1 $265 $391 $423 $428 reversed $242 $-1 #
DXID-attrib $-1 -1 $-1 $-1 $266 @10 ASM ENTITY @36 d0fe4fab-86d9-4cfa-9113-8bb82b953afd #
vertex $-1 -1 $-1 $266 $429 #
ellipse-curve $-1 -1 $-1 72.87856457506819652 10.3022075771315258 0 0 0 1 8.94427190999915922 4.47213595499957961 0 1 F 0 F 1.107148717794090409 #
coedge $-1 -1 $-1 $430 $431 $267 $345 forward $432 $-1 #
edge $433 -1 $-1 $350 0 $434 2.85410196624968826 $344 $435 forward @7 unknown #
coedge $-1 -1 $-1 $388 $268 $431 $436 forward $348 $-1 #
coedge $-1 -1 $-1 $268 $388 $270 $352 reversed $348 $-1 #
loop $-1 -1 $-1 $-1 $268 $437 #
DXID-attrib $-1 -1 $-1 $-1 $269 @10 ASM ENTITY @36 f802bb62-fd09-4d09-a033-ab001efc17ed #
vertex $-1 -1 $-1 $345 $438 #
ellipse-curve $-1 -1 $-1 -94.08675564993416174 10.3022075771315258 0 0 0 1 0 10 0 1 F 0 F 2.034443935795708924 #
edge $439 -1 $-1 $275 0 $395 1.200000000000000178 $270 $440 forward @7 tangent #
edge $441 -1 $-1 $274 0 $394 1.200000000000000178 $271 $442 forward @7 tangent #
face $443 -1 $-1 $136 $272 $5 $-1 $444 forward single #
point $-1 -1 $-1 72.87856457506819652 20.3022075771315258 0 #
point $-1 -1 $-1 -94.08675564993416174 20.3022075771315258 0 #
DXID-attrib $-1 -1 $-1 $-1 $278 @10 ASM ENTITY @36 5e56682c-7c1a-4744-8cc9-a68daf83b3fb #
face $445 -1 $-1 $446 $447 $5 $-1 $448 forward single #
loop $-1 -1 $-1 $-1 $449 $278 #
plane-surface $-1 -1 $-1 -71.52234301928842797 6.559648648774327739 0 0.2093122880417501719 0.9778488462307083351 0 -9.778488462307082685 2.093122880417501719 0 forward_v I I I I #
coedge $-1 -1 $-1 $450 $451 $452 $453 forward $279 $-1 #
coedge $-1 -1 $-1 $454 $281 $283 $367 forward $211 $-1 #
coedge $-1 -1 $-1 $281 $454 $450 $455 reversed $211 $-1 #
coedge $-1 -1 $-1 $452 $284 $281 $365 reversed $39 $-1 #
edge $456 -1 $-1 $457 0 $369 0.1667132959916724222 $281 $458 forward @7 unknown #
coedge $-1 -1 $-1 $283 $282 $459 $460 reversed $158 $-1 #
edge $461 -1 $-1 $369 0 $462 1.200000000000000178 $362 $463 forward @7 tangent #
DXID-attrib $-1 -1 $-1 $-1 $285 @10 ASM ENTITY @36 8d0e14ab-b8ce-4b37-8fd5-02f6c921947e #
vertex $-1 -1 $-1 $285 $464 #
ellipse-curve $-1 -1 $-1 -75.57235852356768646 1.850228058771108408 0 0 0 -1 0.7530848471921962606 2.517018465633348967 0 1 F 0.08406307939621911196 F 3.141592653589793116 #
coedge $-1 -1 $-1 $291 $459 $286 $372 forward $95 $-1 #
edge $465 -1 $-1 $374 0 $294 0.3985474053321080845 $286 $466 forward @7 unknown #
DXID-attrib $-1 -1 $-1 $-1 $287 @10 ASM ENTITY @36 d73101d0-e0e2-4bbb-969f-135ffa9d591e #
vertex $-1 -1 $-1 $372 $467 #
straight-curve $-1 -1 $-1 -76.32544337075984231 -0.6667904068621055558 0 0 0 10 I I #
point $-1 -1 $-1 -76.32544337075984231 -0.6667904068621055558 0 #
DXID-attrib $-1 -1 $-1 $-1 $292 @10 ASM ENTITY @36 680986c4-cfd2-4720-84f2-8a1bb377107c #
ellipse-curve $-1 -1 $-1 -79.01511114765384036 -2.818576519428575011 12.00000000000000178 0 0 1 -1.128566661797365978 3.294191119946352941 0 1 I I #
point $-1 -1 $-1 -80.14367780945121922 0.4756146005178152336 12.00000000000000178 #
coedge $-1 -1 $-1 $468 $300 $469 $470 forward $95 $-1 #
coedge $-1 -1 $-1 $321 $320 $300 $382 reversed $322 $-1 #
edge $471 -1 $-1 $384 -2.499950319317993798e-17 $472 3.141592653589793116 $381 $473 forward @7 unknown #
DXID-attrib $-1 -1 $-1 $-1 $302 @10 ASM ENTITY @36 ce195c36-b41f-4079-989c-8181b0508c47 #
vertex $-1 -1 $-1 $382 $474 #
ellipse-curve $-1 -1 $-1 -90.66468611331828242 7.348705689249754869 12.00000000000000178 0 0 -1 0.3590425587122584306 2.474083353695534893 0 1 I I #
point $-1 -1 $-1 -88.56432909677863563 8.70461881444299479 12.00000000000000178 #
coedge $-1 -1 $-1 $475 $308 $476 $477 forward $183 $-1 #
coedge $-1 -1 $-1 $347 $346 $308 $389 reversed $348 $-1 #
edge $478 -1 $-1 $395 0 $479 2.034443935795708924 $388 $480 forward @7 unknown #
coedge $-1 -1 $-1 $309 $475 $481 $482 forward $183 $-1 #
coedge $-1 -1 $-1 $340 $339 $309 $392 reversed $242 $-1 #
edge $483 -1 $-1 $484 0 $394 1.107148717794090409 $391 $485 forward @7 unknown #
DXID-attrib $-1 -1 $-1 $-1 $311 @10 ASM ENTITY @36 29e6560b-f1b9-431d-86ba-c9b591e19547 #
vertex $-1 -1 $-1 $353 $486 #
vertex $-1 -1 $-1 $389 $487 #
straight-curve $-1 -1 $-1 72.87856457506819652 20.3022075771315258 12.00000000000000178 -10 -0 -0 I I #
DXID-attrib $-1 -1 $-1 $-1 $313 @10 ASM ENTITY @36 3790d0dd-7ad7-46d0-84a1-4d693b44abc3 #
face $488 -1 $-1 $437 $432 $5 $-1 $489 forward single #
loop $-1 -1 $-1 $-1 $421 $313 #
plane-surface $-1 -1 $-1 -90.26709553743273773 -19.6977924228684742 0 0 -1 0 10 0 0 forward_v I I I I #
DXID-attrib $-1 -1 $-1 $-1 $316 @10 ASM ENTITY @36 ec616cfd-df4f-41b1-af95-4382c3121bb4 #
vertex $-1 -1 $-1 $316 $490 #
ellipse-curve $-1 -1 $-1 67.05890446256717041 -4.697792422868758422 12.00000000000000178 0 0 -1 -2.500000000000000444 -0 -0 1 I I #
coedge $-1 -1 $-1 $317 $491 $492 $493 reversed $39 $-1 #
coedge $-1 -1 $-1 $494 $495 $317 $406 forward $496 $-1 #
edge $497 -1 $-1 $411 1.926270592695370487 $498 3.141592653589788675 $405 $499 forward @7 unknown #
coedge $-1 -1 $-1 $469 $318 $495 $500 forward $409 $-1 #
coedge $-1 -1 $-1 $318 $469 $320 $413 reversed $409 $-1 #
loop $-1 -1 $-1 $-1 $318 $501 #
DXID-attrib $-1 -1 $-1 $-1 $319 @10 ASM ENTITY @36 95e1948a-259e-47ee-8540-ccf95836b3a5 #
vertex $-1 -1 $-1 $406 $502 #
straight-curve $-1 -1 $-1 -89.51046240283517363 15.3022075771315258 0 9.896333414782219506 -1.436170234848538119 0 F 0 F 1.691745471606885154 #
edge $503 -1 $-1 $324 0 $472 1.200000000000000178 $320 $504 forward @7 tangent #
face $505 -1 $-1 $327 $322 $5 $-1 $506 forward single #
point $-1 -1 $-1 -89.51046240283517363 15.3022075771315258 0 #
DXID-attrib $-1 -1 $-1 $-1 $326 @10 ASM ENTITY @36 51135de0-e487-438c-97c9-097935070d82 #
straight-curve $-1 -1 $-1 -91.02372867203030182 4.874622335554477104 0 0 0 10 I I #
DXID-attrib $-1 -1 $-1 $-1 $327 @10 ASM ENTITY @36 017410b6-c0e3-4980-8663-53711f324444 #
cone-surface $-1 -1 $-1 -90.66468611331828242 7.348705689249754869 0 0 0 1 0.3590425587122584306 2.474083353695534893 0 1 I I 0 -1 2.499999999999998224 forward I I I I #
point $-1 -1 $-1 69.55890446256717041 -4.697792422868758422 0 #
coedge $-1 -1 $-1 $507 $508 $336 $422 forward $399 $-1 #
edge $509 -1 $-1 $434 0 $426 18.93260000000000787 $421 $510 forward @7 unknown #
coedge $-1 -1 $-1 $481 $337 $340 $428 forward $314 $-1 #
coedge $-1 -1 $-1 $337 $481 $507 $511 reversed $314 $-1 #
DXID-attrib $-1 -1 $-1 $-1 $338 @10 ASM ENTITY @36 00579bfc-caef-4025-b97c-8c8c89829174 #
vertex $-1 -1 $-1 $338 $512 #
straight-curve $-1 -1 $-1 99.05890446256734094 -19.6977924228684742 0 -4.47213595499960892 8.944271909999145009 0 F 0 F 3.854101966249693589 #
edge $513 -1 $-1 $342 0 $484 1.200000000000000178 $423 $514 forward @7 tangent #
point $-1 -1 $-1 81.82283648506739837 14.77434353213112672 0 #
coedge $-1 -1 $-1 $476 $344 $508 $515 forward $432 $-1 #
coedge $-1 -1 $-1 $344 $476 $346 $436 reversed $432 $-1 #
loop $-1 -1 $-1 $-1 $344 $398 #
DXID-attrib $-1 -1 $-1 $-1 $345 @10 ASM ENTITY @36 ae32c694-3470-4ab5-aefc-559429b02176 #
vertex $-1 -1 $-1 $422 $516 #
straight-curve $-1 -1 $-1 -103.0310275599330794 5.830071622131924869 0 4.472135954999619578 -8.944271909999137904 0 F 0 F 2.85410196624968826 #
edge $517 -1 $-1 $350 0 $479 1.200000000000000178 $346 $518 forward @7 tangent #
face $519 -1 $-1 $354 $348 $5 $-1 $520 forward single #
point $-1 -1 $-1 -103.0310275599330794 5.830071622131924869 0 #
DXID-attrib $-1 -1 $-1 $-1 $352 @10 ASM ENTITY @36 440d890f-d9c9-4474-a490-17eff455c483 #
straight-curve $-1 -1 $-1 -94.08675564993416174 20.3022075771315258 0 0 0 10 I I #
DXID-attrib $-1 -1 $-1 $-1 $353 @10 ASM ENTITY @36 0b3133c1-8316-467e-a12f-90ae138ce605 #
straight-curve $-1 -1 $-1 72.87856457506819652 20.3022075771315258 0 0 0 10 I I #
DXID-attrib $-1 -1 $-1 $-1 $354 @10 ASM ENTITY @36 73814290-35be-406e-aa35-9b4b75d81afa #
plane-surface $-1 -1 $-1 72.87856457506819652 20.3022075771315258 0 0 1 0 -10 -0 -0 forward_v I I I I #
DXID-attrib $-1 -1 $-1 $-1 $358 @10 ASM ENTITY @36 b6222b97-4e66-4670-b0e8-5f9cc498ae5f #
face $521 -1 $-1 $522 $523 $5 $-1 $524 forward single #
loop $-1 -1 $-1 $-1 $525 $358 #
cone-surface $-1 -1 $-1 -72.43916333706465593 2.27651888928619428 0 0 0 1 4.282682500020717598 0.9189073052911457262 0 1 I I 0 1 4.380155252008898437 forward I I I I #
coedge $-1 -1 $-1 $526 $527 $528 $529 forward $359 $-1 #
coedge $-1 -1 $-1 $530 $361 $363 $455 forward $279 $-1 #
coedge $-1 -1 $-1 $361 $530 $526 $531 reversed $279 $-1 #
coedge $-1 -1 $-1 $528 $364 $361 $453 reversed $39 $-1 #
edge $532 -1 $-1 $533 0 $457 2.270315721169591239 $361 $534 forward @7 unknown #
coedge $-1 -1 $-1 $363 $362 $535 $536 reversed $211 $-1 #
edge $537 -1 $-1 $457 0 $538 1.200000000000000178 $450 $539 forward @7 tangent #
DXID-attrib $-1 -1 $-1 $-1 $365 @10 ASM ENTITY @36 ec8c2537-d44b-4afc-abc4-ad47dfd42cc6 #
vertex $-1 -1 $-1 $365 $540 #
straight-curve $-1 -1 $-1 -76.16200605677363455 4.905414932930227678 0 9.305870128671800856 -3.660707738715820003 0 F 0 F 0.1667132959916724222 #
coedge $-1 -1 $-1 $371 $535 $366 $460 forward $95 $-1 #
edge $541 -1 $-1 $462 0.08406307939625867753 $374 3.141592653589793116 $366 $542 forward @7 unknown #
DXID-attrib $-1 -1 $-1 $-1 $367 @10 ASM ENTITY @36 c283a8d9-3163-42e2-9a80-abec5fe771ba #
vertex $-1 -1 $-1 $460 $543 #
straight-curve $-1 -1 $-1 -74.61059377555244509 4.295126280146348563 0 0 0 10 I I #
point $-1 -1 $-1 -74.61059377555244509 4.295126280146348563 0 #
DXID-attrib $-1 -1 $-1 $-1 $372 @10 ASM ENTITY @36 a636810c-1c78-4339-90be-d8b398674d3c #
straight-curve $-1 -1 $-1 -76.32544337075984231 -0.6667904068621055558 12.00000000000000178 -9.580377108488901783 2.866421891338016614 0 I I #
point $-1 -1 $-1 -76.32544337075984231 -0.6667904068621055558 12.00000000000000178 #
coedge $-1 -1 $-1 $544 $380 $545 $546 forward $95 $-1 #
coedge $-1 -1 $-1 $408 $407 $380 $470 reversed $409 $-1 #
edge $547 -1 $-1 $472 0 $548 1.691745471606885154 $469 $549 forward @7 unknown #
DXID-attrib $-1 -1 $-1 $-1 $382 @10 ASM ENTITY @36 0260c361-d387-41ed-b983-281e6c6e8131 #
vertex $-1 -1 $-1 $470 $550 #
ellipse-curve $-1 -1 $-1 -90.26709553743273773 10.08841495634300145 12.00000000000000178 0 0 -1 -0.7566331345975814138 -5.213792620788643362 -0 1 I I #
point $-1 -1 $-1 -91.02372867203030182 4.874622335554477104 12.00000000000000178 #
coedge $-1 -1 $-1 $390 $387 $551 $552 forward $183 $-1 #
coedge $-1 -1 $-1 $431 $430 $387 $477 reversed $432 $-1 #
edge $553 -1 $-1 $479 0 $554 2.85410196624968826 $476 $555 forward @7 unknown #
DXID-attrib $-1 -1 $-1 $-1 $389 @10 ASM ENTITY @36 1e96d3f0-c1e3-46bc-aea3-01bbc0c77bee #
vertex $-1 -1 $-1 $477 $556 #
ellipse-curve $-1 -1 $-1 -94.08675564993416174 10.3022075771315258 12.00000000000000178 0 0 1 0 10 0 1 I I #
coedge $-1 -1 $-1 $424 $423 $390 $482 reversed $314 $-1 #
edge $557 -1 $-1 $558 0 $484 3.854101966249693589 $481 $559 forward @7 unknown #
DXID-attrib $-1 -1 $-1 $-1 $392 @10 ASM ENTITY @36 5cf833d0-a90a-4f4c-90ac-91677862465c #
vertex $-1 -1 $-1 $392 $560 #
ellipse-curve $-1 -1 $-1 72.87856457506819652 10.3022075771315258 12.00000000000000178 0 0 1 8.94427190999915922 4.47213595499957961 0 1 I I #
point $-1 -1 $-1 72.87856457506819652 20.3022075771315258 12.00000000000000178 #
point $-1 -1 $-1 -94.08675564993416174 20.3022075771315258 12.00000000000000178 #
DXID-attrib $-1 -1 $-1 $-1 $398 @10 ASM ENTITY @36 f593f7a6-4521-430e-96a9-c2a1b686a320 #
plane-surface $-1 -1 $-1 -103.0310275599330794 5.830071622131924869 0 -0.894427190999913857 -0.4472135954999619245 0 4.472135954999619578 -8.944271909999137904 0 forward_v I I I I #
point $-1 -1 $-1 69.55890446256717041 -4.697792422868758422 12.00000000000000178 #
coedge $-1 -1 $-1 $404 $561 $562 $563 reversed $39 $-1 #
coedge $-1 -1 $-1 $564 $565 $404 $493 forward $566 $-1 #
edge $567 -1 $-1 $498 0 $568 0.68202985932030602 $492 $569 forward @7 unknown #
coedge $-1 -1 $-1 $545 $405 $565 $570 forward $496 $-1 #
coedge $-1 -1 $-1 $405 $545 $407 $500 reversed $496 $-1 #
loop $-1 -1 $-1 $-1 $405 $571 #
DXID-attrib $-1 -1 $-1 $-1 $406 @10 ASM ENTITY @36 2bdde348-6e3e-4c41-a412-e77cc0f925b1 #
vertex $-1 -1 $-1 $493 $572 #
ellipse-curve $-1 -1 $-1 -74.61059377555216088 0.1783184575830887297 0 0 0 -1 -12.54178240184337767 -2.691008607426920385 -0 1 F 1.926270592695370487 F 3.141592653589788675 #
edge $573 -1 $-1 $411 0 $548 1.200000000000000178 $407 $574 forward @7 tangent #
face $575 -1 $-1 $414 $409 $5 $-1 $576 forward single #
point $-1 -1 $-1 -72.76838516286545655 12.87257308586987392 0 #
DXID-attrib $-1 -1 $-1 $-1 $413 @10 ASM ENTITY @36 0ae8f084-2bfc-4c5e-b24b-a23b6bb98613 #
straight-curve $-1 -1 $-1 -89.51046240283517363 15.3022075771315258 0 0 0 10 I I #
DXID-attrib $-1 -1 $-1 $-1 $414 @10 ASM ENTITY @36 6c143859-c348-44ed-81e0-1037bfec46c0 #
cone-surface $-1 -1 $-1 -90.26709553743273773 10.08841495634300145 0 0 0 1 -0.7566331345975814138 -5.213792620788643362 0 1 I I 0 -1 5.268408411746480446 forward I I I I #
coedge $-1 -1 $-1 $551 $421 $424 $511 forward $399 $-1 #
coedge $-1 -1 $-1 $421 $551 $430 $515 reversed $399 $-1 #
DXID-attrib $-1 -1 $-1 $-1 $422 @10 ASM ENTITY @36 c536023d-d332-4f47-a2f7-a95dfa1152bd #
straight-curve $-1 -1 $-1 -90.26709553743273773 -19.6977924228684742 0 10 0 0 F 0 F 18.93260000000000787 #
edge $577 -1 $-1 $426 0 $558 1.200000000000000178 $507 $578 forward @7 unknown #
point $-1 -1 $-1 99.05890446256734094 -19.6977924228684742 0 #
DXID-attrib $-1 -1 $-1 $-1 $428 @10 ASM ENTITY @36 e9633fa2-1947-4335-9e4b-165894c0f54f #
straight-curve $-1 -1 $-1 81.82283648506739837 14.77434353213112672 0 0 0 10 I I #
edge $579 -1 $-1 $434 0 $554 1.200000000000000178 $430 $580 forward @7 unknown #
point $-1 -1 $-1 -90.26709553743273773 -19.6977924228684742 0 #
DXID-attrib $-1 -1 $-1 $-1 $436 @10 ASM ENTITY @36 a0ea065f-92db-4ca9-960d-db7b53992472 #
straight-curve $-1 -1 $-1 -103.0310275599330794 5.830071622131924869 0 0 0 10 I I #
DXID-attrib $-1 -1 $-1 $-1 $437 @10 ASM ENTITY @36 9baf6b9d-08f3-4396-a2a7-f945263b6546 #
cone-surface $-1 -1 $-1 -94.08675564993416174 10.3022075771315258 0 0 0 1 0 10 0 1 I I 0 1 10 forward I I I I #
DXID-attrib $-1 -1 $-1 $-1 $446 @10 ASM ENTITY @36 7d3d5e17-076c-4ced-8fcf-80941024a2d4 #
face $581 -1 $-1 $582 $583 $5 $-1 $584 forward single #
loop $-1 -1 $-1 $-1 $585 $446 #
plane-surface $-1 -1 $-1 -66.14149087845390795 -6.195686688818398125 0 0.977746735816366952 0.2097887523210900107 0 -2.097887523210899996 9.777467358163669076 0 forward_v I I I I #
coedge $-1 -1 $-1 $586 $587 $588 $589 forward $447 $-1 #
coedge $-1 -1 $-1 $590 $449 $451 $531 forward $359 $-1 #
coedge $-1 -1 $-1 $449 $590 $586 $591 reversed $359 $-1 #
coedge $-1 -1 $-1 $588 $452 $449 $529 reversed $39 $-1 #
edge $592 -1 $-1 $593 0 $533 0.4911904707957489014 $449 $594 forward @7 unknown #
coedge $-1 -1 $-1 $451 $450 $595 $596 reversed $279 $-1 #
edge $597 -1 $-1 $533 0 $598 1.200000000000000178 $526 $599 forward @7 unknown #
DXID-attrib $-1 -1 $-1 $-1 $453 @10 ASM ENTITY @36 6a1dec95-38f3-4251-8338-77409969cb7e #
vertex $-1 -1 $-1 $453 $600 #
ellipse-curve $-1 -1 $-1 -75.61945575652771367 6.284629825985348361 0 0 0 1 -0.7059876142321965808 1.303140835854731394 0 1 F 0 F 2.270315721169591239 #
coedge $-1 -1 $-1 $459 $595 $454 $536 forward $95 $-1 #
edge $601 -1 $-1 $538 0 $462 0.1667132959916724222 $454 $602 forward @7 unknown #
DXID-attrib $-1 -1 $-1 $-1 $455 @10 ASM ENTITY @36 f089e7bb-2061-4447-aa4d-89de6268f264 #
vertex $-1 -1 $-1 $536 $603 #
straight-curve $-1 -1 $-1 -76.16200605677363455 4.905414932930227678 0 0 0 10 I I #
point $-1 -1 $-1 -76.16200605677363455 4.905414932930227678 0 #
DXID-attrib $-1 -1 $-1 $-1 $460 @10 ASM ENTITY @36 22041592-e862-4007-b592-d4be1f85f570 #
ellipse-curve $-1 -1 $-1 -75.57235852356768646 1.850228058771108408 12.00000000000000178 0 0 -1 0.7530848471921962606 2.517018465633348967 0 1 I I #
point $-1 -1 $-1 -74.61059377555244509 4.295126280146348563 12.00000000000000178 #
coedge $-1 -1 $-1 $604 $468 $605 $606 forward $95 $-1 #
coedge $-1 -1 $-1 $495 $494 $468 $546 reversed $496 $-1 #
edge $607 -1 $-1 $548 1.926270592695370487 $608 3.141592653589788675 $545 $609 forward @7 unknown #
DXID-attrib $-1 -1 $-1 $-1 $470 @10 ASM ENTITY @36 6b7fe0ac-4799-4405-a110-202e0d06406d #
vertex $-1 -1 $-1 $546 $610 #
straight-curve $-1 -1 $-1 -89.51046240283517363 15.3022075771315258 12.00000000000000178 9.896333414782219506 -1.436170234848538119 0 I I #
point $-1 -1 $-1 -89.51046240283517363 15.3022075771315258 12.00000000000000178 #
coedge $-1 -1 $-1 $508 $507 $475 $552 reversed $399 $-1 #
edge $611 -1 $-1 $554 0 $558 18.93260000000000787 $551 $612 forward @7 unknown #
DXID-attrib $-1 -1 $-1 $-1 $477 @10 ASM ENTITY @36 967f8226-4d3d-4655-b03e-af98c00e18f2 #
vertex $-1 -1 $-1 $552 $613 #
straight-curve $-1 -1 $-1 -103.0310275599330794 5.830071622131924869 12.00000000000000178 4.472135954999619578 -8.944271909999137904 0 I I #
point $-1 -1 $-1 -103.0310275599330794 5.830071622131924869 12.00000000000000178 #
DXID-attrib $-1 -1 $-1 $-1 $482 @10 ASM ENTITY @36 13124298-b9e4-4055-8ecb-5740f247c09c #
vertex $-1 -1 $-1 $482 $614 #
straight-curve $-1 -1 $-1 99.05890446256734094 -19.6977924228684742 12.00000000000000178 -4.47213595499960892 8.944271909999145009 0 I I #
point $-1 -1 $-1 81.82283648506739837 14.77434353213112672 12.00000000000000178 #
coedge $-1 -1 $-1 $491 $615 $616 $617 reversed $39 $-1 #
coedge $-1 -1 $-1 $618 $619 $491 $563 forward $620 $-1 #
edge $621 -1 $-1 $568 0.5049195045527555825 $622 3.141592653589793116 $562 $623 forward @7 unknown #
coedge $-1 -1 $-1 $605 $492 $619 $624 forward $566 $-1 #
coedge $-1 -1 $-1 $492 $605 $494 $570 reversed $566 $-1 #
loop $-1 -1 $-1 $-1 $492 $625 #
DXID-attrib $-1 -1 $-1 $-1 $493 @10 ASM ENTITY @36 f974853a-a066-4336-9eb8-4d59a39157d2 #
vertex $-1 -1 $-1 $563 $626 #
straight-curve $-1 -1 $-1 -62.06881137370857004 2.869327065010054412 0 2.09788752321019567 -9.777467358163820066 0 F 0 F 0.68202985932030602 #
edge $627 -1 $-1 $498 0 $608 1.200000000000000178 $494 $628 forward @7 tangent #
face $629 -1 $-1 $501 $496 $5 $-1 $630 forward single #
point $-1 -1 $-1 -62.06881137370857004 2.869327065010054412 0 #
DXID-attrib $-1 -1 $-1 $-1 $500 @10 ASM ENTITY @36 bd052920-d851-474d-bcf3-49de26ea1dbf #
straight-curve $-1 -1 $-1 -72.76838516286545655 12.87257308586987392 0 0 0 10 I I #
DXID-attrib $-1 -1 $-1 $-1 $501 @10 ASM ENTITY @36 b0f0df6e-ff11-4d0d-9e3f-b16150ec03e3 #
plane-surface $-1 -1 $-1 -89.51046240283517363 15.3022075771315258 0 -0.1436170234848538063 -0.9896333414782219062 0 9.896333414782219506 -1.436170234848538119 0 forward_v I I I I #
DXID-attrib $-1 -1 $-1 $-1 $511 @10 ASM ENTITY @36 9799893b-9dd4-4317-8ac8-2b1d146391c4 #
straight-curve $-1 -1 $-1 99.05890446256734094 -19.6977924228684742 0 0 0 10 I I #
DXID-attrib $-1 -1 $-1 $-1 $515 @10 ASM ENTITY @36 9ea7a32f-6c80-4e2d-bee0-163ad79a5b94 #
straight-curve $-1 -1 $-1 -90.26709553743273773 -19.6977924228684742 0 0 0 10 I I #
DXID-attrib $-1 -1 $-1 $-1 $522 @10 ASM ENTITY @36 e619ab1f-a9bb-4d91-88db-e6cc0dfb52e0 #
face $631 -1 $-1 $625 $620 $5 $-1 $632 forward single #
loop $-1 -1 $-1 $-1 $616 $522 #
cone-surface $-1 -1 $-1 -61.75787792233279561 -5.255123392582845554 0 0 0 1 4.383612956121180737 0.9405632962355671145 0 1 I I 0 -1 4.483382859326090042 forward I I I I #
coedge $-1 -1 $-1 $633 $634 $615 $635 forward $523 $-1 #
coedge $-1 -1 $-1 $636 $525 $527 $591 forward $447 $-1 #
coedge $-1 -1 $-1 $525 $636 $633 $637 reversed $447 $-1 #
coedge $-1 -1 $-1 $615 $528 $525 $589 reversed $39 $-1 #
edge $638 -1 $-1 $639 -3.616689613777002438e-17 $593 1.148565811571473194 $525 $640 forward @7 unknown #
coedge $-1 -1 $-1 $527 $526 $641 $642 reversed $359 $-1 #
edge $643 -1 $-1 $593 0 $644 1.200000000000000178 $586 $645 forward @7 tangent #
DXID-attrib $-1 -1 $-1 $-1 $529 @10 ASM ENTITY @36 a475ab34-641b-4917-acc7-668a5795b330 #
vertex $-1 -1 $-1 $529 $646 #
straight-curve $-1 -1 $-1 -71.52234301928842797 6.559648648774327739 0 -9.778488462307082685 2.093122880417501719 0 F 0 F 0.4911904707957489014 #
coedge $-1 -1 $-1 $535 $641 $530 $596 forward $95 $-1 #
edge $647 -1 $-1 $598 0 $538 2.270315721169591239 $530 $648 forward @7 unknown #
DXID-attrib $-1 -1 $-1 $-1 $531 @10 ASM ENTITY @36 f0a68c8b-98e2-47c7-9b45-b5c8ba17ecb5 #
vertex $-1 -1 $-1 $596 $649 #
straight-curve $-1 -1 $-1 -76.32544337075984231 7.5877706618399543 0 0 0 10 I I #
point $-1 -1 $-1 -76.32544337075984231 7.5877706618399543 0 #
DXID-attrib $-1 -1 $-1 $-1 $536 @10 ASM ENTITY @36 99455f75-217d-4570-b9b7-a7eaa5780e27 #
straight-curve $-1 -1 $-1 -76.16200605677363455 4.905414932930227678 12.00000000000000178 9.305870128671800856 -3.660707738715820003 0 I I #
point $-1 -1 $-1 -76.16200605677363455 4.905414932930227678 12.00000000000000178 #
coedge $-1 -1 $-1 $650 $544 $651 $652 forward $95 $-1 #
coedge $-1 -1 $-1 $565 $564 $544 $606 reversed $566 $-1 #
edge $653 -1 $-1 $608 0 $654 0.68202985932030602 $605 $655 forward @7 unknown #
DXID-attrib $-1 -1 $-1 $-1 $546 @10 ASM ENTITY @36 80ade3ee-1fa7-47bd-ada5-8df02df58bf4 #
vertex $-1 -1 $-1 $606 $656 #
ellipse-curve $-1 -1 $-1 -74.61059377555216088 0.1783184575830887297 12.00000000000000178 0 0 -1 -12.54178240184337767 -2.691008607426920385 -0 1 I I #
point $-1 -1 $-1 -72.76838516286545655 12.87257308586987392 12.00000000000000178 #
DXID-attrib $-1 -1 $-1 $-1 $552 @10 ASM ENTITY @36 374e1db0-327c-4965-9ad2-f87195fb32c2 #
straight-curve $-1 -1 $-1 -90.26709553743273773 -19.6977924228684742 12.00000000000000178 10 0 0 I I #
point $-1 -1 $-1 -90.26709553743273773 -19.6977924228684742 12.00000000000000178 #
point $-1 -1 $-1 99.05890446256734094 -19.6977924228684742 12.00000000000000178 #
coedge $-1 -1 $-1 $561 $588 $585 $635 reversed $39 $-1 #
coedge $-1 -1 $-1 $657 $658 $561 $617 forward $583 $-1 #
edge $659 -1 $-1 $622 1.529695473644983483 $660 3.141592653589793116 $616 $661 forward @7 unknown #
coedge $-1 -1 $-1 $651 $562 $658 $662 forward $620 $-1 #
coedge $-1 -1 $-1 $562 $651 $564 $624 reversed $620 $-1 #
loop $-1 -1 $-1 $-1 $562 $582 #
DXID-attrib $-1 -1 $-1 $-1 $563 @10 ASM ENTITY @36 4400f590-23c8-4c2b-ac13-980ca2ab1ee2 #
vertex $-1 -1 $-1 $617 $663 #
ellipse-curve $-1 -1 $-1 -61.38572168129400097 -6.697792422868644735 0 0 0 -1 -0.7477322399103196737 2.898594801081397776 0 1 F 0.5049195045527555825 F 3.141592653589793116 #
edge $664 -1 $-1 $568 0 $654 1.200000000000000178 $564 $665 forward @7 unknown #
face $666 -1 $-1 $571 $566 $5 $-1 $667 forward single #
point $-1 -1 $-1 -60.63798944138369507 -3.79919762178730025 0 #
DXID-attrib $-1 -1 $-1 $-1 $570 @10 ASM ENTITY @36 4123832d-bcd8-4102-a161-25a48f0104b9 #
straight-curve $-1 -1 $-1 -62.06881137370857004 2.869327065010054412 0 0 0 10 I I #
DXID-attrib $-1 -1 $-1 $-1 $571 @10 ASM ENTITY @36 2be23470-0b4e-4dd0-9383-89b7527d931f #
cone-surface $-1 -1 $-1 -74.61059377555216088 0.1783184575830887297 0 0 0 1 -12.54178240184337767 -2.691008607426920385 0 1 I I 0 -1 12.82723014295892305 forward I I I I #
DXID-attrib $-1 -1 $-1 $-1 $582 @10 ASM ENTITY @36 4501a18c-b1b5-4b55-81e9-396079848f05 #
cone-surface $-1 -1 $-1 -61.38572168129400097 -6.697792422868644735 0 0 0 1 -0.7477322399103196737 2.898594801081397776 0 1 I I 0 -1 2.993485480749391137 forward I I I I #
coedge $-1 -1 $-1 $668 $585 $587 $637 forward $523 $-1 #
coedge $-1 -1 $-1 $585 $668 $657 $669 reversed $523 $-1 #
edge $670 -1 $-1 $660 0 $639 0.9604852196775339745 $585 $671 forward @7 unknown #
coedge $-1 -1 $-1 $587 $586 $672 $673 reversed $447 $-1 #
edge $674 -1 $-1 $639 0 $675 1.200000000000000178 $633 $676 forward @7 tangent #
DXID-attrib $-1 -1 $-1 $-1 $589 @10 ASM ENTITY @36 f073b695-b2e4-47fb-8d60-e4fc9c6e9eff #
vertex $-1 -1 $-1 $589 $677 #
ellipse-curve $-1 -1 $-1 -72.43916333706465593 2.27651888928619428 0 0 0 1 4.282682500020717598 0.9189073052911457262 0 1 F -3.616689613777002438e-17 F 1.148565811571473194 #
coedge $-1 -1 $-1 $595 $672 $590 $642 forward $95 $-1 #
edge $678 -1 $-1 $644 0 $598 0.4911904707957489014 $590 $679 forward @7 unknown #
DXID-attrib $-1 -1 $-1 $-1 $591 @10 ASM ENTITY @36 59675929-d9fc-433a-bb91-d2527b29c042 #
vertex $-1 -1 $-1 $642 $680 #
straight-curve $-1 -1 $-1 -71.52234301928842797 6.559648648774327739 0 0 0 10 I I #
point $-1 -1 $-1 -71.52234301928842797 6.559648648774327739 0 #
DXID-attrib $-1 -1 $-1 $-1 $596 @10 ASM ENTITY @36 0182b620-b8f6-48d9-9c7b-4ec8bd73e0b0 #
ellipse-curve $-1 -1 $-1 -75.61945575652771367 6.284629825985348361 12.00000000000000178 0 0 1 -0.7059876142321965808 1.303140835854731394 0 1 I I #
point $-1 -1 $-1 -76.32544337075984231 7.5877706618399543 12.00000000000000178 #
coedge $-1 -1 $-1 $681 $604 $682 $683 forward $95 $-1 #
coedge $-1 -1 $-1 $619 $618 $604 $652 reversed $620 $-1 #
edge $684 -1 $-1 $654 0.5049195045527555825 $685 3.141592653589793116 $651 $686 forward @7 unknown #
DXID-attrib $-1 -1 $-1 $-1 $606 @10 ASM ENTITY @36 038aed7e-12d4-47bb-bdef-9a130ce15b0c #
vertex $-1 -1 $-1 $652 $687 #
straight-curve $-1 -1 $-1 -62.06881137370857004 2.869327065010054412 12.00000000000000178 2.09788752321019567 -9.777467358163820066 0 I I #
point $-1 -1 $-1 -62.06881137370857004 2.869327065010054412 12.00000000000000178 #
coedge $-1 -1 $-1 $682 $616 $634 $669 forward $583 $-1 #
coedge $-1 -1 $-1 $616 $682 $618 $662 reversed $583 $-1 #
DXID-attrib $-1 -1 $-1 $-1 $617 @10 ASM ENTITY @36 d331c60c-d467-496d-864f-c1c74b9d8ee5 #
vertex $-1 -1 $-1 $635 $688 #
ellipse-curve $-1 -1 $-1 -61.75787792233279561 -5.255123392582845554 0 0 0 -1 4.383612956121180737 0.9405632962355671145 0 1 F 1.529695473644983483 F 3.141592653589793116 #
edge $689 -1 $-1 $622 0 $685 1.200000000000000178 $618 $690 forward @7 tangent #
point $-1 -1 $-1 -60.63798944138369507 -9.59638722394998922 0 #
DXID-attrib $-1 -1 $-1 $-1 $624 @10 ASM ENTITY @36 63cb11fd-d2b2-48f7-a538-ade78b41d47a #
straight-curve $-1 -1 $-1 -60.63798944138369507 -3.79919762178730025 0 0 0 10 I I #
DXID-attrib $-1 -1 $-1 $-1 $625 @10 ASM ENTITY @36 caf9145c-9b28-470e-8ef6-6ba47ea59799 #
plane-surface $-1 -1 $-1 -62.06881137370857004 2.869327065010054412 0 -0.977746735816382051 -0.209788752321019567 0 2.09788752321019567 -9.777467358163820066 0 forward_v I I I I #
coedge $-1 -1 $-1 $634 $633 $681 $691 reversed $523 $-1 #
edge $692 -1 $-1 $660 0 $693 1.200000000000000178 $657 $694 forward @7 tangent #
DXID-attrib $-1 -1 $-1 $-1 $635 @10 ASM ENTITY @36 6e8eb7fb-ca5c-4189-9255-75f8b9b9914e #
straight-curve $-1 -1 $-1 -66.14149087845390795 -6.195686688818398125 0 -2.097887523210899996 9.777467358163669076 0 F 0 F 0.9604852196775339745 #
coedge $-1 -1 $-1 $641 $681 $636 $673 forward $95 $-1 #
edge $695 -1 $-1 $675 -3.616689613777002438e-17 $644 1.148565811571473194 $636 $696 forward @7 unknown #
DXID-attrib $-1 -1 $-1 $-1 $637 @10 ASM ENTITY @36 1a0244f3-73ff-4052-9141-38925fc841e5 #
vertex $-1 -1 $-1 $673 $697 #
straight-curve $-1 -1 $-1 -68.15648083704388682 3.195426194577350998 0 0 0 10 I I #
point $-1 -1 $-1 -68.15648083704388682 3.195426194577350998 0 #
DXID-attrib $-1 -1 $-1 $-1 $642 @10 ASM ENTITY @36 8bf78d48-2f21-481d-83f8-b1b1cb9b377f #
straight-curve $-1 -1 $-1 -71.52234301928842797 6.559648648774327739 12.00000000000000178 -9.778488462307082685 2.093122880417501719 0 I I #
point $-1 -1 $-1 -71.52234301928842797 6.559648648774327739 12.00000000000000178 #
coedge $-1 -1 $-1 $672 $650 $668 $691 forward $95 $-1 #
coedge $-1 -1 $-1 $658 $657 $650 $683 reversed $583 $-1 #
edge $698 -1 $-1 $685 1.529695473644983483 $693 3.141592653589793116 $682 $699 forward @7 unknown #
DXID-attrib $-1 -1 $-1 $-1 $652 @10 ASM ENTITY @36 0c28d02f-44fa-4b32-9138-8b10950321f3 #
vertex $-1 -1 $-1 $683 $700 #
ellipse-curve $-1 -1 $-1 -61.38572168129400097 -6.697792422868644735 12.00000000000000178 0 0 -1 -0.7477322399103196737 2.898594801081397776 0 1 I I #
point $-1 -1 $-1 -60.63798944138369507 -3.79919762178730025 12.00000000000000178 #
point $-1 -1 $-1 -66.14149087845390795 -6.195686688818398125 0 #
DXID-attrib $-1 -1 $-1 $-1 $662 @10 ASM ENTITY @36 fb853618-6f32-42c8-9be2-f99f54ce07c5 #
straight-curve $-1 -1 $-1 -60.63798944138369507 -9.59638722394998922 0 0 0 10 I I #
edge $701 -1 $-1 $693 0 $675 0.9604852196775339745 $668 $702 forward @7 unknown #
DXID-attrib $-1 -1 $-1 $-1 $669 @10 ASM ENTITY @36 a787f1d2-d8c4-4a6f-a36c-e8e4001d8b04 #
vertex $-1 -1 $-1 $691 $703 #
straight-curve $-1 -1 $-1 -66.14149087845390795 -6.195686688818398125 0 0 0 10 I I #
DXID-attrib $-1 -1 $-1 $-1 $673 @10 ASM ENTITY @36 e4243162-18cd-4c20-b35e-a96236935dbc #
ellipse-curve $-1 -1 $-1 -72.43916333706465593 2.27651888928619428 12.00000000000000178 0 0 1 4.282682500020717598 0.9189073052911457262 0 1 I I #
point $-1 -1 $-1 -68.15648083704388682 3.195426194577350998 12.00000000000000178 #
DXID-attrib $-1 -1 $-1 $-1 $683 @10 ASM ENTITY @36 121f00ac-ab46-4093-a78f-ead58c638813 #
ellipse-curve $-1 -1 $-1 -61.75787792233279561 -5.255123392582845554 12.00000000000000178 0 0 -1 4.383612956121180737 0.9405632962355671145 0 1 I I #
point $-1 -1 $-1 -60.63798944138369507 -9.59638722394998922 12.00000000000000178 #
DXID-attrib $-1 -1 $-1 $-1 $691 @10 ASM ENTITY @36 d678a288-8a25-4910-85dd-1a3a46ccb496 #
straight-curve $-1 -1 $-1 -66.14149087845390795 -6.195686688818398125 12.00000000000000178 -2.097887523210899996 9.777467358163669076 0 I I #
point $-1 -1 $-1 -66.14149087845390795 -6.195686688818398125 12.00000000000000178 #
End-of-ACIS-data 